<svg>
<g>
    <rect rxns="rxn07671" x="700" y="640" width="48" height="18" stroke="black" fill="white"></rect>
    <text x="703" y="653" font-size="9" stroke="grey" fill="black" >2.8.3.-</text>
</g>
<g>
    <rect rxns="rxn04734" x="897" y="448" width="48" height="18" stroke="black" fill="white"></rect>
    <text x="900" y="461" font-size="9" stroke="grey" fill="black" >4.1.1.-</text>
</g>
<g>
    <rect rxns="rxn04733" x="688" y="447" width="48" height="18" stroke="black" fill="white"></rect>
    <text x="691" y="460" font-size="9" stroke="grey" fill="black" >1.2.3.-</text>
</g>
<g>
    <rect rxns="rxn04724" x="801" y="297" width="48" height="18" stroke="black" fill="white"></rect>
    <text x="804" y="310" font-size="9" stroke="grey" fill="black" >1.14.13.1</text>
</g>
<g>
    <rect rxns="rxn04723" x="688" y="296" width="48" height="18" stroke="black" fill="white"></rect>
    <text x="691" y="309" font-size="9" stroke="grey" fill="black" >1.2.1.-</text>
</g>
<g>
    <rect rxns="rxn04722" x="584" y="297" width="48" height="18" stroke="black" fill="white"></rect>
    <text x="587" y="310" font-size="9" stroke="grey" fill="black" >4.2.1.-</text>
</g>
<g>
    <rect rxns="rxn04720" x="370" y="297" width="48" height="18" stroke="black" fill="white"></rect>
    <text x="373" y="310" font-size="9" stroke="grey" fill="black" >1.13.-.-</text>
</g>
<g>
    <rect rxns="rxn04719" x="265" y="296" width="48" height="18" stroke="black" fill="white"></rect>
    <text x="268" y="309" font-size="9" stroke="grey" fill="black" >1.3.1.29</text>
</g>
<g>
    <rect rxns="rxn04718" x="161" y="297" width="48" height="18" stroke="black" fill="white"></rect>
    <text x="164" y="310" font-size="9" stroke="grey" fill="black" >1.14.12.12</text>
</g>
<g>
    <rect rxns="rxn04725" x="112" y="315" width="48" height="18" stroke="black" fill="white"></rect>
    <text x="115" y="328" font-size="9" stroke="grey" fill="black" >1.14.13.-</text>
</g>
<g>
    <rect rxns="rxn04717" x="597" y="640" width="48" height="18" stroke="black" fill="white"></rect>
    <text x="600" y="653" font-size="9" stroke="grey" fill="black" >2.3.1.-</text>
</g>
<g>
    <rect rxns="rxn04743" x="584" y="770" width="48" height="18" stroke="black" fill="white"></rect>
    <text x="587" y="783" font-size="9" stroke="grey" fill="black" >4.2.1.-</text>
</g>
<g>
    <rect rxns="rxn04742" x="477" y="770" width="48" height="18" stroke="black" fill="white"></rect>
    <text x="480" y="783" font-size="9" stroke="grey" fill="black" >5.3.99.-</text>
</g>
<g>
    <rect rxns="rxn04745" x="801" y="770" width="48" height="18" stroke="black" fill="white"></rect>
    <text x="804" y="783" font-size="9" stroke="grey" fill="black" >1.14.13.1</text>
</g>
<g>
    <rect rxns="rxn04730" x="370" y="446" width="48" height="18" stroke="black" fill="white"></rect>
    <text x="373" y="459" font-size="9" stroke="grey" fill="black" >1.13.-.-</text>
</g>
<g>
    <rect rxns="rxn04732" x="584" y="446" width="48" height="18" stroke="black" fill="white"></rect>
    <text x="587" y="459" font-size="9" stroke="grey" fill="black" >4.2.1.-</text>
</g>
<g>
    <rect rxns="rxn04731" x="477" y="446" width="48" height="18" stroke="black" fill="white"></rect>
    <text x="480" y="459" font-size="9" stroke="grey" fill="black" >5.3.99.-</text>
</g>
<g>
    <rect rxns="rxn04726" x="112" y="366" width="48" height="18" stroke="black" fill="white"></rect>
    <text x="115" y="379" font-size="9" stroke="grey" fill="black" >1.1.1.1</text>
</g>
<g>
    <rect rxns="rxn04712" x="158" y="640" width="48" height="18" stroke="black" fill="white"></rect>
    <text x="161" y="653" font-size="9" stroke="grey" fill="black" >4.1.99.-</text>
</g>
<g>
    <rect rxns="rxn04740" x="265" y="770" width="48" height="18" stroke="black" fill="white"></rect>
    <text x="268" y="783" font-size="9" stroke="grey" fill="black" >1.3.1.29</text>
</g>
<g>
    <rect rxns="rxn04741" x="370" y="770" width="48" height="18" stroke="black" fill="white"></rect>
    <text x="373" y="783" font-size="9" stroke="grey" fill="black" >1.13.-.-</text>
</g>
<g>
    <rect rxns="rxn04748" x="801" y="533" width="48" height="18" stroke="black" fill="white"></rect>
    <text x="804" y="546" font-size="9" stroke="grey" fill="black" >1.14.13.1</text>
</g>
<g>
    <rect rxns="rxn04716" x="510" y="640" width="48" height="18" stroke="black" fill="white"></rect>
    <text x="513" y="653" font-size="9" stroke="grey" fill="black" >1.1.-.-</text>
</g>
<g>
    <rect rxns="rxn04715" x="426" y="640" width="48" height="18" stroke="black" fill="white"></rect>
    <text x="429" y="653" font-size="9" stroke="grey" fill="black" >4.2.1.-</text>
</g>
<g>
    <rect rxns="rxn04714" x="342" y="640" width="48" height="18" stroke="black" fill="white"></rect>
    <text x="345" y="653" font-size="9" stroke="grey" fill="black" >1.3.99.-</text>
</g>
<g>
    <rect rxns="rxn04746" x="161" y="533" width="48" height="18" stroke="black" fill="white"></rect>
    <text x="164" y="546" font-size="9" stroke="grey" fill="black" >1.14.12.12</text>
</g>
<g>
    <rect rxns="rxn04735" x="110" y="673" width="48" height="18" stroke="black" fill="white"></rect>
    <text x="113" y="686" font-size="9" stroke="grey" fill="black" >1.14.13.-</text>
</g>
<g>
    <rect rxns="rxn04736" x="282" y="689" width="48" height="18" stroke="black" fill="white"></rect>
    <text x="285" y="702" font-size="9" stroke="grey" fill="black" >1.1.1.1</text>
</g>
<g>
    <rect rxns="rxn04737" x="614" y="688" width="48" height="18" stroke="black" fill="white"></rect>
    <text x="617" y="701" font-size="9" stroke="grey" fill="black" >1.2.1.-</text>
</g>
<g>
    <rect rxns="rxn04739" x="161" y="770" width="48" height="18" stroke="black" fill="white"></rect>
    <text x="164" y="783" font-size="9" stroke="grey" fill="black" >1.14.12.12</text>
</g>
<g>
    <rect rxns="rxn04713" x="260" y="640" width="48" height="18" stroke="black" fill="white"></rect>
    <text x="263" y="653" font-size="9" stroke="grey" fill="black" >2.8.3.-</text>
</g>
<g>
    <rect rxns="rxn04728" x="161" y="446" width="48" height="18" stroke="black" fill="white"></rect>
    <text x="164" y="459" font-size="9" stroke="grey" fill="black" >1.14.12.-</text>
</g>
<g>
    <rect rxns="rxn04744" x="688" y="770" width="48" height="18" stroke="black" fill="white"></rect>
    <text x="691" y="783" font-size="9" stroke="grey" fill="black" >1.2.1.-</text>
</g>
<g>
    <rect rxns="rxn04727" x="112" y="416" width="48" height="18" stroke="black" fill="white"></rect>
    <text x="115" y="429" font-size="9" stroke="grey" fill="black" >1.2.1.-</text>
</g>
<g>
    <rect rxns="rxn04721" x="477" y="297" width="48" height="18" stroke="black" fill="white"></rect>
    <text x="480" y="310" font-size="9" stroke="grey" fill="black" >5.3.99.-</text>
</g>
<g>
    <rect rxns="rxn04729" x="265" y="446" width="48" height="18" stroke="black" fill="white"></rect>
    <text x="268" y="459" font-size="9" stroke="grey" fill="black" >1.1.-.-</text>
</g>
<g>
    <rect rxns="rxn02125" x="161" y="196" width="48" height="18" stroke="black" fill="white"></rect>
    <text x="164" y="209" font-size="9" stroke="grey" fill="black" >1.14.12.12</text>
</g>
<g>
    <rect rxns="rxn02877" x="265" y="195" width="48" height="18" stroke="black" fill="white"></rect>
    <text x="268" y="208" font-size="9" stroke="grey" fill="black" >1.3.1.29</text>
</g>
<g>
    <rect rxns="rxn02878" x="370" y="195" width="48" height="18" stroke="black" fill="white"></rect>
    <text x="373" y="208" font-size="9" stroke="grey" fill="black" >1.13.11.56</text>
</g>
<g>
    <rect rxns="rxn03485" x="477" y="195" width="48" height="18" stroke="black" fill="white"></rect>
    <text x="480" y="208" font-size="9" stroke="grey" fill="black" >5.99.1.4</text>
</g>
<g>
    <rect rxns="rxn03484" x="584" y="195" width="48" height="18" stroke="black" fill="white"></rect>
    <text x="587" y="208" font-size="9" stroke="grey" fill="black" >4.1.2.45</text>
</g>
<g>
    <rect rxns="rxn02107" x="688" y="195" width="48" height="18" stroke="black" fill="white"></rect>
    <text x="691" y="208" font-size="9" stroke="grey" fill="black" >1.2.1.65</text>
</g>
<g>
    <rect rxns="rxn00589" x="801" y="196" width="48" height="18" stroke="black" fill="white"></rect>
    <text x="804" y="209" font-size="9" stroke="grey" fill="black" >1.14.13.1</text>
</g>
<g>
    <rect rxns="rxn07512,rxn07513" x="256" y="148" width="48" height="18" stroke="black" fill="white"></rect>
    <text x="259" y="161" font-size="9" stroke="grey" fill="black" >1.14.99.-</text>
</g>
<g>
    <rect rxns="rxn07523,rxn07524" x="749" y="150" width="48" height="18" stroke="black" fill="white"></rect>
    <text x="752" y="163" font-size="9" stroke="grey" fill="black" >1.14.13.-</text>
</g>
<g>
    <rect rxns="rxn07496,rxn07497" x="430" y="114" width="48" height="18" stroke="black" fill="white"></rect>
    <text x="433" y="127" font-size="9" stroke="grey" fill="black" >1.14.99.-</text>
</g>
<g>
    <rect rxns="rxn07498" x="534" y="115" width="48" height="18" stroke="black" fill="white"></rect>
    <text x="537" y="128" font-size="9" stroke="grey" fill="black" >1.13.11.-</text>
</g>
</svg>