<svg>
<g>
    <rect rxns="rxn03666" x="455" y="497" width="48" height="18" stroke="black" fill="white"></rect>
    <text x="458" y="510" font-size="9" stroke="grey" fill="black" >3.7.1.-</text>
</g>
<g>
    <rect rxns="rxn00540" x="748" y="273" width="48" height="18" stroke="black" fill="white"></rect>
    <text x="751" y="286" font-size="9" stroke="grey" fill="black" >4.1.3.39</text>
</g>
<g>
    <rect rxns="rxn03662" x="453" y="150" width="48" height="18" stroke="black" fill="white"></rect>
    <text x="456" y="163" font-size="9" stroke="grey" fill="black" >3.7.1.8</text>
</g>
<g>
    <rect rxns="rxn03661" x="453" y="274" width="45" height="18" stroke="black" fill="white"></rect>
    <text x="456" y="287" font-size="9" stroke="grey" fill="black" >3.7.1.8</text>
</g>
<g>
    <rect rxns="rxn03734" x="173" y="274" width="48" height="18" stroke="black" fill="white"></rect>
    <text x="176" y="287" font-size="9" stroke="grey" fill="black" >1.14.12.-</text>
</g>
<g>
    <rect rxns="rxn03575,rxn03576" x="173" y="340" width="48" height="18" stroke="black" fill="white"></rect>
    <text x="176" y="353" font-size="9" stroke="grey" fill="black" >1.14.12.18</text>
</g>
<g>
    <rect rxns="rxn03739" x="173" y="150" width="48" height="18" stroke="black" fill="white"></rect>
    <text x="176" y="163" font-size="9" stroke="grey" fill="black" >1.14.12.-</text>
</g>
<g>
    <rect rxns="rxn01898" x="452" y="340" width="45" height="18" stroke="black" fill="white"></rect>
    <text x="455" y="353" font-size="9" stroke="grey" fill="black" >3.7.1.8</text>
</g>
<g>
    <rect rxns="rxn03573,rxn03574" x="173" y="417" width="48" height="18" stroke="black" fill="white"></rect>
    <text x="176" y="430" font-size="9" stroke="grey" fill="black" >1.14.12.18</text>
</g>
<g>
    <rect rxns="rxn03556" x="271" y="417" width="48" height="18" stroke="black" fill="white"></rect>
    <text x="274" y="430" font-size="9" stroke="grey" fill="black" >1.3.1.56</text>
</g>
<g>
    <rect rxns="rxn03559" x="359" y="417" width="48" height="18" stroke="black" fill="white"></rect>
    <text x="362" y="430" font-size="9" stroke="grey" fill="black" >1.13.11.39</text>
</g>
<g>
    <rect rxns="rxn03660" x="454" y="417" width="45" height="18" stroke="black" fill="white"></rect>
    <text x="457" y="430" font-size="9" stroke="grey" fill="black" >3.7.1.8</text>
</g>
<g>
    <rect rxns="rxn00589" x="495" y="217" width="48" height="18" stroke="black" fill="white"></rect>
    <text x="498" y="230" font-size="9" stroke="grey" fill="black" >1.14.13.1</text>
</g>
<g>
    <rect rxns="rxn03554" x="273" y="340" width="48" height="18" stroke="black" fill="white"></rect>
    <text x="276" y="353" font-size="9" stroke="grey" fill="black" >1.3.1.56</text>
</g>
<g>
    <rect rxns="rxn02478" x="359" y="340" width="48" height="18" stroke="black" fill="white"></rect>
    <text x="362" y="353" font-size="9" stroke="grey" fill="black" >1.13.11.39</text>
</g>
<g>
    <rect rxns="rxn03715" x="359" y="497" width="48" height="18" stroke="black" fill="white"></rect>
    <text x="362" y="510" font-size="9" stroke="grey" fill="black" >1.13.11.-</text>
</g>
<g>
    <rect rxns="rxn03714,R09512" x="173" y="497" width="48" height="18" stroke="black" fill="white"></rect>
    <text x="176" y="510" font-size="9" stroke="grey" fill="black" >1.14.12.22</text>
</g>
<g>
    <rect rxns="rxn01893" x="659" y="274" width="48" height="18" stroke="black" fill="white"></rect>
    <text x="662" y="287" font-size="9" stroke="grey" fill="black" >4.2.1.80</text>
</g>
<g>
    <rect rxns="rxn02788" x="603" y="149" width="48" height="18" stroke="black" fill="white"></rect>
    <text x="606" y="162" font-size="9" stroke="grey" fill="black" >5.3.2.-</text>
</g>
<g>
    <rect rxns="rxn02948" x="710" y="219" width="48" height="18" stroke="black" fill="white"></rect>
    <text x="713" y="232" font-size="9" stroke="grey" fill="black" >4.1.1.-</text>
</g>
<g>
    <rect rxns="rxn00171" x="874" y="273" width="48" height="18" stroke="black" fill="white"></rect>
    <text x="877" y="286" font-size="9" stroke="grey" fill="black" >1.2.1.10</text>
</g>
<g>
    <rect rxns="rxn01894" x="616" y="219" width="48" height="18" stroke="black" fill="white"></rect>
    <text x="619" y="232" font-size="9" stroke="grey" fill="black" >4.1.1.77</text>
</g>
</svg>