<svg>
<g>
    <rect rxns="rxn07441" x="643" y="243" width="48" height="18" stroke="black" fill="white"></rect>
    <text x="646" y="256" font-size="9" stroke="grey" fill="black" >2.6.1.83</text>
</g>
<g>
    <rect rxns="R09778" x="707" y="495" width="48" height="18" stroke="black" fill="white"></rect>
    <text x="710" y="508" font-size="9" stroke="grey" fill="black" >2.6.1.-</text>
</g>
<g>
    <rect rxns="R09777" x="615" y="495" width="48" height="18" stroke="black" fill="white"></rect>
    <text x="618" y="508" font-size="9" stroke="grey" fill="black" >1.2.1.-</text>
</g>
<g>
    <rect rxns="R09776" x="522" y="495" width="48" height="18" stroke="black" fill="white"></rect>
    <text x="525" y="508" font-size="9" stroke="grey" fill="black" >2.7.2.-</text>
</g>
<g>
    <rect rxns="R09775" x="431" y="495" width="48" height="18" stroke="black" fill="white"></rect>
    <text x="434" y="508" font-size="9" stroke="grey" fill="black" >6.3.2.-</text>
</g>
<g>
    <rect rxns="rxn03164" x="963" y="314" width="48" height="18" stroke="black" fill="white"></rect>
    <text x="966" y="327" font-size="9" stroke="grey" fill="black" >6.3.2.10</text>
</g>
<g>
    <rect rxns="rxn00337" x="133" y="178" width="48" height="18" stroke="black" fill="white"></rect>
    <text x="136" y="191" font-size="9" stroke="grey" fill="black" >2.7.2.4</text>
</g>
<g>
    <rect rxns="rxn01643" x="225" y="178" width="48" height="18" stroke="black" fill="white"></rect>
    <text x="228" y="191" font-size="9" stroke="grey" fill="black" >1.2.1.11</text>
</g>
<g>
    <rect rxns="rxn01301,rxn01302" x="274" y="142" width="48" height="18" stroke="black" fill="white"></rect>
    <text x="277" y="155" font-size="9" stroke="grey" fill="black" >1.1.1.3</text>
</g>
<g>
    <rect rxns="R10147" x="317" y="178" width="48" height="18" stroke="black" fill="white"></rect>
    <text x="320" y="191" font-size="9" stroke="grey" fill="black" >4.3.3.7</text>
</g>
<g>
    <rect rxns="rxn02928,rxn02929" x="502" y="178" width="48" height="18" stroke="black" fill="white"></rect>
    <text x="505" y="191" font-size="9" stroke="grey" fill="black" >1.3.1.26</text>
</g>
<g>
    <rect rxns="rxn01991" x="643" y="314" width="48" height="18" stroke="black" fill="white"></rect>
    <text x="646" y="327" font-size="9" stroke="grey" fill="black" >1.4.1.16</text>
</g>
<g>
    <rect rxns="rxn03030" x="619" y="111" width="48" height="18" stroke="black" fill="white"></rect>
    <text x="622" y="124" font-size="9" stroke="grey" fill="black" >2.3.1.89</text>
</g>
<g>
    <rect rxns="rxn03031" x="596" y="178" width="48" height="18" stroke="black" fill="white"></rect>
    <text x="599" y="191" font-size="9" stroke="grey" fill="black" >2.3.1.117</text>
</g>
<g>
    <rect rxns="rxn03086" x="760" y="111" width="48" height="18" stroke="black" fill="white"></rect>
    <text x="763" y="124" font-size="9" stroke="grey" fill="black" >2.6.1.-</text>
</g>
<g>
    <rect rxns="rxn03087" x="704" y="178" width="48" height="18" stroke="black" fill="white"></rect>
    <text x="707" y="191" font-size="9" stroke="grey" fill="black" >2.6.1.17</text>
</g>
<g>
    <rect rxns="rxn01972" x="832" y="178" width="48" height="18" stroke="black" fill="white"></rect>
    <text x="835" y="191" font-size="9" stroke="grey" fill="black" >3.5.1.47</text>
</g>
<g>
    <rect rxns="rxn01973" x="755" y="207" width="48" height="18" stroke="black" fill="white"></rect>
    <text x="758" y="220" font-size="9" stroke="grey" fill="black" >3.5.1.18</text>
</g>
<g>
    <rect rxns="rxn01974" x="755" y="281" width="48" height="18" stroke="black" fill="white"></rect>
    <text x="758" y="294" font-size="9" stroke="grey" fill="black" >5.1.1.7</text>
</g>
<g>
    <rect rxns="rxn00313" x="755" y="368" width="48" height="18" stroke="black" fill="white"></rect>
    <text x="758" y="381" font-size="9" stroke="grey" fill="black" >4.1.1.20</text>
</g>
<g>
    <rect rxns="rxn00510" x="707" y="424" width="48" height="18" stroke="black" fill="white"></rect>
    <text x="710" y="437" font-size="9" stroke="grey" fill="black" >1.5.1.7</text>
</g>
<g>
    <rect rxns="rxn01663" x="615" y="424" width="48" height="18" stroke="black" fill="white"></rect>
    <text x="618" y="437" font-size="9" stroke="grey" fill="black" >1.5.1.10</text>
</g>
<g>
    <rect rxns="rxn06675" x="522" y="424" width="48" height="18" stroke="black" fill="white"></rect>
    <text x="525" y="437" font-size="9" stroke="grey" fill="black" >1.2.1.31</text>
</g>
<g>
    <rect rxns="rxn02224" x="387" y="461" width="48" height="18" stroke="black" fill="white"></rect>
    <text x="390" y="474" font-size="9" stroke="grey" fill="black" >1.2.1.31</text>
</g>
<g>
    <rect rxns="rxn01423" x="334" y="485" width="48" height="18" stroke="black" fill="white"></rect>
    <text x="337" y="498" font-size="9" stroke="grey" fill="black" >2.6.1.39</text>
</g>
<g>
    <rect rxns="rxn01419" x="259" y="461" width="48" height="18" stroke="black" fill="white"></rect>
    <text x="262" y="474" font-size="9" stroke="grey" fill="black" >1.1.1.87</text>
</g>
<g>
    <rect rxns="rxn03034" x="309" y="390" width="48" height="18" stroke="black" fill="white"></rect>
    <text x="312" y="403" font-size="9" stroke="grey" fill="black" >4.2.1.36</text>
</g>
<g>
    <rect rxns="rxn00202" x="146" y="353" width="48" height="18" stroke="black" fill="white"></rect>
    <text x="149" y="366" font-size="9" stroke="grey" fill="black" >2.3.3.14</text>
</g>
<g>
    <rect rxns="rxn06802" x="431" y="424" width="48" height="18" stroke="black" fill="white"></rect>
    <text x="434" y="437" font-size="9" stroke="grey" fill="black" >1.2.1.31</text>
</g>
<g>
    <rect rxns="rxn02011" x="828" y="314" width="48" height="18" stroke="black" fill="white"></rect>
    <text x="831" y="327" font-size="9" stroke="grey" fill="black" >6.3.2.13</text>
</g>
<g>
    <rect rxns="rxn01423" x="334" y="506" width="48" height="18" stroke="black" fill="white"></rect>
    <text x="337" y="519" font-size="9" stroke="grey" fill="black" >2.6.1.57</text>
</g>
<g>
    <rect rxns="rxn02466" x="237" y="353" width="48" height="18" stroke="black" fill="white"></rect>
    <text x="240" y="366" font-size="9" stroke="grey" fill="black" >4.2.1.114</text>
</g>
<g>
    <rect rxns="rxn01419" x="309" y="461" width="48" height="18" stroke="black" fill="white"></rect>
    <text x="312" y="474" font-size="9" stroke="grey" fill="black" >1.1.1.286</text>
</g>
<g>
    <rect rxns="rxn03034" x="259" y="390" width="48" height="18" stroke="black" fill="white"></rect>
    <text x="262" y="403" font-size="9" stroke="grey" fill="black" >4.2.1.114</text>
</g>
</svg>