<svg>
<g>
    <rect rxns="rxn01692,rxn01693" x="841" y="1150" width="48" height="18" stroke="black" fill="white"></rect>
    <text x="844" y="1163" font-size="9" stroke="grey" fill="black" >1.1.1.62</text>
</g>
<g>
    <rect rxns="rxn14180" x="239" y="173" width="48" height="18" stroke="black" fill="white"></rect>
    <text x="242" y="186" font-size="9" stroke="grey" fill="black" >3.1.6.2</text>
</g>
<g>
    <rect rxns="rxn14026" x="239" y="194" width="48" height="18" stroke="black" fill="white"></rect>
    <text x="242" y="207" font-size="9" stroke="grey" fill="black" >2.8.2.2</text>
</g>
<g>
    <rect rxns="rxn11562" x="274" y="242" width="48" height="18" stroke="black" fill="white"></rect>
    <text x="277" y="255" font-size="9" stroke="grey" fill="black" >1.14.15.6</text>
</g>
<g>
    <rect rxns="rxn11628" x="274" y="306" width="48" height="18" stroke="black" fill="white"></rect>
    <text x="277" y="319" font-size="9" stroke="grey" fill="black" >1.14.15.6</text>
</g>
<g>
    <rect rxns="rxn11557" x="129" y="244" width="48" height="18" stroke="black" fill="white"></rect>
    <text x="132" y="257" font-size="9" stroke="grey" fill="black" >1.14.15.6</text>
</g>
<g>
    <rect rxns="rxn11627" x="130" y="302" width="48" height="18" stroke="black" fill="white"></rect>
    <text x="133" y="315" font-size="9" stroke="grey" fill="black" >1.14.15.6</text>
</g>
<g>
    <rect rxns="rxn11614" x="133" y="617" width="48" height="18" stroke="black" fill="white"></rect>
    <text x="136" y="630" font-size="9" stroke="grey" fill="black" >1.14.15.6</text>
</g>
<g>
    <rect rxns="rxn11583" x="203" y="402" width="48" height="18" stroke="black" fill="white"></rect>
    <text x="206" y="415" font-size="9" stroke="grey" fill="black" >1.14.15.6</text>
</g>
<g>
    <rect rxns="rxn03320" x="99" y="416" width="48" height="18" stroke="black" fill="white"></rect>
    <text x="102" y="429" font-size="9" stroke="grey" fill="black" >1.14.99.9</text>
</g>
<g>
    <rect rxns="rxn06483" x="261" y="412" width="48" height="18" stroke="black" fill="white"></rect>
    <text x="264" y="425" font-size="9" stroke="grey" fill="black" >1.14.99.10</text>
</g>
<g>
    <rect rxns="rxn02905" x="312" y="392" width="48" height="18" stroke="black" fill="white"></rect>
    <text x="315" y="405" font-size="9" stroke="grey" fill="black" >5.3.3.1</text>
</g>
<g>
    <rect rxns="rxn02905" x="312" y="371" width="48" height="18" stroke="black" fill="white"></rect>
    <text x="315" y="384" font-size="9" stroke="grey" fill="black" >1.1.1.145</text>
</g>
<g>
    <rect rxns="rxn14164" x="297" y="465" width="48" height="18" stroke="black" fill="white"></rect>
    <text x="300" y="478" font-size="9" stroke="grey" fill="black" >1.14.13.100</text>
</g>
<g>
    <rect rxns="rxn14238" x="297" y="542" width="48" height="18" stroke="black" fill="white"></rect>
    <text x="300" y="555" font-size="9" stroke="grey" fill="black" >3.1.6.2</text>
</g>
<g>
    <rect rxns="rxn14214" x="297" y="563" width="48" height="18" stroke="black" fill="white"></rect>
    <text x="300" y="576" font-size="9" stroke="grey" fill="black" >2.8.2.2</text>
</g>
<g>
    <rect rxns="rxn01586" x="312" y="521" width="48" height="18" stroke="black" fill="white"></rect>
    <text x="315" y="534" font-size="9" stroke="grey" fill="black" >5.3.3.1</text>
</g>
<g>
    <rect rxns="rxn01586" x="312" y="500" width="48" height="18" stroke="black" fill="white"></rect>
    <text x="315" y="513" font-size="9" stroke="grey" fill="black" >1.1.1.145</text>
</g>
<g>
    <rect rxns="rxn02385" x="312" y="629" width="48" height="18" stroke="black" fill="white"></rect>
    <text x="315" y="642" font-size="9" stroke="grey" fill="black" >5.3.3.1</text>
</g>
<g>
    <rect rxns="rxn02385" x="312" y="608" width="48" height="18" stroke="black" fill="white"></rect>
    <text x="315" y="621" font-size="9" stroke="grey" fill="black" >1.1.1.145</text>
</g>
<g>
    <rect rxns="rxn03317" x="312" y="751" width="48" height="18" stroke="black" fill="white"></rect>
    <text x="315" y="764" font-size="9" stroke="grey" fill="black" >5.3.3.1</text>
</g>
<g>
    <rect rxns="rxn03317" x="312" y="730" width="48" height="18" stroke="black" fill="white"></rect>
    <text x="315" y="743" font-size="9" stroke="grey" fill="black" >1.1.1.145</text>
</g>
<g>
    <rect rxns="rxn02038" x="312" y="832" width="48" height="18" stroke="black" fill="white"></rect>
    <text x="315" y="845" font-size="9" stroke="grey" fill="black" >5.3.3.1</text>
</g>
<g>
    <rect rxns="rxn02038" x="312" y="811" width="48" height="18" stroke="black" fill="white"></rect>
    <text x="315" y="824" font-size="9" stroke="grey" fill="black" >1.1.1.145</text>
</g>
<g>
    <rect rxns="rxn12002" x="261" y="773" width="48" height="18" stroke="black" fill="white"></rect>
    <text x="264" y="786" font-size="9" stroke="grey" fill="black" >1.14.15.4</text>
</g>
<g>
    <rect rxns="rxn12159" x="161" y="796" width="48" height="18" stroke="black" fill="white"></rect>
    <text x="164" y="809" font-size="9" stroke="grey" fill="black" >4.1.2.30</text>
</g>
<g>
    <rect rxns="rxn02445" x="140" y="910" width="48" height="18" stroke="black" fill="white"></rect>
    <text x="143" y="923" font-size="9" stroke="grey" fill="black" >2.8.2.2</text>
</g>
<g>
    <rect rxns="rxn02444" x="140" y="937" width="48" height="18" stroke="black" fill="white"></rect>
    <text x="143" y="950" font-size="9" stroke="grey" fill="black" >3.1.6.2</text>
</g>
<g>
    <rect rxns="rxn02448" x="243" y="943" width="48" height="18" stroke="black" fill="white"></rect>
    <text x="246" y="956" font-size="9" stroke="grey" fill="black" >1.14.14.1</text>
</g>
<g>
    <rect rxns="rxn02446,rxn02447" x="188" y="963" width="48" height="18" stroke="black" fill="white"></rect>
    <text x="191" y="976" font-size="9" stroke="grey" fill="black" >1.1.1.51</text>
</g>
<g>
    <rect rxns="rxn03198" x="312" y="1020" width="48" height="18" stroke="black" fill="white"></rect>
    <text x="315" y="1033" font-size="9" stroke="grey" fill="black" >5.3.3.1</text>
</g>
<g>
    <rect rxns="rxn03198" x="312" y="999" width="48" height="18" stroke="black" fill="white"></rect>
    <text x="315" y="1012" font-size="9" stroke="grey" fill="black" >1.1.1.145</text>
</g>
<g>
    <rect rxns="rxn01809" x="312" y="1235" width="48" height="18" stroke="black" fill="white"></rect>
    <text x="315" y="1248" font-size="9" stroke="grey" fill="black" >5.3.3.1</text>
</g>
<g>
    <rect rxns="rxn01809" x="312" y="1214" width="48" height="18" stroke="black" fill="white"></rect>
    <text x="315" y="1227" font-size="9" stroke="grey" fill="black" >1.1.1.145</text>
</g>
<g>
    <rect rxns="rxn03196" x="263" y="665" width="48" height="18" stroke="black" fill="white"></rect>
    <text x="266" y="678" font-size="9" stroke="grey" fill="black" >1.14.99.10</text>
</g>
<g>
    <rect rxns="rxn01337" x="312" y="1104" width="48" height="18" stroke="black" fill="white"></rect>
    <text x="315" y="1117" font-size="9" stroke="grey" fill="black" >5.3.3.1</text>
</g>
<g>
    <rect rxns="rxn01337" x="312" y="1083" width="48" height="18" stroke="black" fill="white"></rect>
    <text x="315" y="1096" font-size="9" stroke="grey" fill="black" >1.1.1.145</text>
</g>
<g>
    <rect rxns="rxn06482" x="262" y="584" width="48" height="18" stroke="black" fill="white"></rect>
    <text x="265" y="597" font-size="9" stroke="grey" fill="black" >1.14.99.9</text>
</g>
<g>
    <rect rxns="rxn14322" x="633" y="177" width="48" height="18" stroke="black" fill="white"></rect>
    <text x="636" y="190" font-size="9" stroke="grey" fill="black" >1.3.1.30</text>
</g>
<g>
    <rect rxns="rxn14176" x="825" y="177" width="48" height="18" stroke="black" fill="white"></rect>
    <text x="828" y="190" font-size="9" stroke="grey" fill="black" >1.1.1.213</text>
</g>
<g>
    <rect rxns="rxn06351" x="592" y="295" width="48" height="18" stroke="black" fill="white"></rect>
    <text x="595" y="308" font-size="9" stroke="grey" fill="black" >1.14.15.5</text>
</g>
<g>
    <rect rxns="rxn02636" x="734" y="260" width="48" height="18" stroke="black" fill="white"></rect>
    <text x="737" y="273" font-size="9" stroke="grey" fill="black" >1.3.1.3</text>
</g>
<g>
    <rect rxns="rxn03305,rxn03306" x="818" y="261" width="48" height="18" stroke="black" fill="white"></rect>
    <text x="821" y="274" font-size="9" stroke="grey" fill="black" >1.1.1.50</text>
</g>
<g>
    <rect rxns="rxn06507" x="539" y="380" width="48" height="18" stroke="black" fill="white"></rect>
    <text x="542" y="393" font-size="9" stroke="grey" fill="black" >1.14.15.4</text>
</g>
<g>
    <rect rxns="rxn06130" x="435" y="412" width="48" height="18" stroke="black" fill="white"></rect>
    <text x="438" y="425" font-size="9" stroke="grey" fill="black" >1.14.99.10</text>
</g>
<g>
    <rect rxns="rxn06131" x="470" y="432" width="48" height="18" stroke="black" fill="white"></rect>
    <text x="473" y="445" font-size="9" stroke="grey" fill="black" >1.14.99.14</text>
</g>
<g>
    <rect rxns="rxn01582,rxn01584" x="471" y="469" width="48" height="18" stroke="black" fill="white"></rect>
    <text x="474" y="482" font-size="9" stroke="grey" fill="black" >1.1.1.149</text>
</g>
<g>
    <rect rxns="rxn02718" x="649" y="329" width="48" height="18" stroke="black" fill="white"></rect>
    <text x="652" y="342" font-size="9" stroke="grey" fill="black" >1.1.1.146</text>
</g>
<g>
    <rect rxns="rxn02717" x="700" y="359" width="48" height="18" stroke="black" fill="white"></rect>
    <text x="703" y="372" font-size="9" stroke="grey" fill="black" >1.1.1.-</text>
</g>
<g>
    <rect rxns="rxn03311,rxn03312" x="818" y="330" width="48" height="18" stroke="black" fill="white"></rect>
    <text x="821" y="343" font-size="9" stroke="grey" fill="black" >1.1.1.50</text>
</g>
<g>
    <rect rxns="rxn03310" x="822" y="382" width="48" height="18" stroke="black" fill="white"></rect>
    <text x="825" y="395" font-size="9" stroke="grey" fill="black" >1.1.1.146</text>
</g>
<g>
    <rect rxns="rxn03313" x="924" y="381" width="48" height="18" stroke="black" fill="white"></rect>
    <text x="927" y="394" font-size="9" stroke="grey" fill="black" >1.1.1.53</text>
</g>
<g>
    <rect rxns="rxn06133" x="538" y="512" width="48" height="18" stroke="black" fill="white"></rect>
    <text x="541" y="525" font-size="9" stroke="grey" fill="black" >1.14.15.4</text>
</g>
<g>
    <rect rxns="rxn06505" x="591" y="431" width="48" height="18" stroke="black" fill="white"></rect>
    <text x="594" y="444" font-size="9" stroke="grey" fill="black" >1.14.99.10</text>
</g>
<g>
    <rect rxns="rxn01588" x="650" y="501" width="48" height="18" stroke="black" fill="white"></rect>
    <text x="653" y="514" font-size="9" stroke="grey" fill="black" >1.3.1.3</text>
</g>
<g>
    <rect rxns="rxn06132,rxn01588" x="650" y="522" width="48" height="18" stroke="black" fill="white"></rect>
    <text x="653" y="535" font-size="9" stroke="grey" fill="black" >1.3.99.6</text>
</g>
<g>
    <rect rxns="rxn01583" x="650" y="596" width="48" height="18" stroke="black" fill="white"></rect>
    <text x="653" y="609" font-size="9" stroke="grey" fill="black" >1.3.1.30</text>
</g>
<g>
    <rect rxns="rxn03314,rxn03315" x="730" y="511" width="48" height="18" stroke="black" fill="white"></rect>
    <text x="733" y="524" font-size="9" stroke="grey" fill="black" >1.1.1.50</text>
</g>
<g>
    <rect rxns="rxn03316" x="818" y="512" width="48" height="18" stroke="black" fill="white"></rect>
    <text x="821" y="525" font-size="9" stroke="grey" fill="black" >1.1.1.53</text>
</g>
<g>
    <rect rxns="rxn14124" x="730" y="598" width="48" height="18" stroke="black" fill="white"></rect>
    <text x="733" y="611" font-size="9" stroke="grey" fill="black" >1.1.1.213</text>
</g>
<g>
    <rect rxns="rxn14179" x="818" y="598" width="48" height="18" stroke="black" fill="white"></rect>
    <text x="821" y="611" font-size="9" stroke="grey" fill="black" >1.1.1.53</text>
</g>
<g>
    <rect rxns="rxn14177" x="730" y="641" width="48" height="18" stroke="black" fill="white"></rect>
    <text x="733" y="654" font-size="9" stroke="grey" fill="black" >1.1.1.149</text>
</g>
<g>
    <rect rxns="rxn14375" x="818" y="641" width="48" height="18" stroke="black" fill="white"></rect>
    <text x="821" y="654" font-size="9" stroke="grey" fill="black" >1.1.1.213</text>
</g>
<g>
    <rect rxns="rxn06128" x="434" y="584" width="48" height="18" stroke="black" fill="white"></rect>
    <text x="437" y="597" font-size="9" stroke="grey" fill="black" >1.14.99.9</text>
</g>
<g>
    <rect rxns="rxn11982" x="538" y="619" width="48" height="18" stroke="black" fill="white"></rect>
    <text x="541" y="632" font-size="9" stroke="grey" fill="black" >1.14.15.4</text>
</g>
<g>
    <rect rxns="rxn06261" x="592" y="668" width="48" height="18" stroke="black" fill="white"></rect>
    <text x="595" y="681" font-size="9" stroke="grey" fill="black" >1.14.99.10</text>
</g>
<g>
    <rect rxns="rxn06361" x="436" y="667" width="48" height="18" stroke="black" fill="white"></rect>
    <text x="439" y="680" font-size="9" stroke="grey" fill="black" >1.14.99.10</text>
</g>
<g>
    <rect rxns="rxn14007,rxn14276" x="730" y="690" width="48" height="18" stroke="black" fill="white"></rect>
    <text x="733" y="703" font-size="9" stroke="grey" fill="black" >1.1.1.62</text>
</g>
<g>
    <rect rxns="rxn02039" x="650" y="741" width="48" height="18" stroke="black" fill="white"></rect>
    <text x="653" y="754" font-size="9" stroke="grey" fill="black" >1.3.1.3</text>
</g>
<g>
    <rect rxns="rxn03302,rxn03303" x="730" y="740" width="48" height="18" stroke="black" fill="white"></rect>
    <text x="733" y="753" font-size="9" stroke="grey" fill="black" >1.1.1.50</text>
</g>
<g>
    <rect rxns="rxn03304" x="818" y="741" width="48" height="18" stroke="black" fill="white"></rect>
    <text x="821" y="754" font-size="9" stroke="grey" fill="black" >1.1.1.53</text>
</g>
<g>
    <rect rxns="rxn06262" x="539" y="736" width="48" height="18" stroke="black" fill="white"></rect>
    <text x="542" y="749" font-size="9" stroke="grey" fill="black" >1.14.15.4</text>
</g>
<g>
    <rect rxns="rxn02070" x="650" y="844" width="48" height="18" stroke="black" fill="white"></rect>
    <text x="653" y="857" font-size="9" stroke="grey" fill="black" >1.3.1.3</text>
</g>
<g>
    <rect rxns="rxn03299,rxn03300" x="730" y="844" width="48" height="18" stroke="black" fill="white"></rect>
    <text x="733" y="857" font-size="9" stroke="grey" fill="black" >1.1.1.50</text>
</g>
<g>
    <rect rxns="rxn03301" x="818" y="844" width="48" height="18" stroke="black" fill="white"></rect>
    <text x="821" y="857" font-size="9" stroke="grey" fill="black" >1.1.1.53</text>
</g>
<g>
    <rect rxns="rxn01341" x="371" y="796" width="48" height="18" stroke="black" fill="white"></rect>
    <text x="374" y="809" font-size="9" stroke="grey" fill="black" >4.1.2.30</text>
</g>
<g>
    <rect rxns="rxn02035" x="568" y="796" width="48" height="18" stroke="black" fill="white"></rect>
    <text x="571" y="809" font-size="9" stroke="grey" fill="black" >1.1.1.146</text>
</g>
<g>
    <rect rxns="rxn02034" x="616" y="796" width="48" height="18" stroke="black" fill="white"></rect>
    <text x="619" y="809" font-size="9" stroke="grey" fill="black" >1.1.1.-</text>
</g>
<g>
    <rect rxns="rxn06797" x="592" y="584" width="48" height="18" stroke="black" fill="white"></rect>
    <text x="595" y="597" font-size="9" stroke="grey" fill="black" >1.14.99.9</text>
</g>
<g>
    <rect rxns="rxn01336,rxn01338" x="396" y="1148" width="48" height="18" stroke="black" fill="white"></rect>
    <text x="399" y="1161" font-size="9" stroke="grey" fill="black" >1.1.1.51</text>
</g>
<g>
    <rect rxns="rxn01338" x="372" y="1167" width="48" height="18" stroke="black" fill="white"></rect>
    <text x="375" y="1180" font-size="9" stroke="grey" fill="black" >1.1.1.64</text>
</g>
<g>
    <rect rxns="rxn01336" x="422" y="1167" width="48" height="18" stroke="black" fill="white"></rect>
    <text x="425" y="1180" font-size="9" stroke="grey" fill="black" >1.1.1.239</text>
</g>
<g>
    <rect rxns="rxn06229" x="452" y="922" width="48" height="18" stroke="black" fill="white"></rect>
    <text x="455" y="935" font-size="9" stroke="grey" fill="black" >1.14.15.4</text>
</g>
<g>
    <rect rxns="rxn03256" x="494" y="873" width="48" height="18" stroke="black" fill="white"></rect>
    <text x="497" y="886" font-size="9" stroke="grey" fill="black" >1.1.1.146</text>
</g>
<g>
    <rect rxns="rxn03000,rxn03001" x="608" y="921" width="48" height="18" stroke="black" fill="white"></rect>
    <text x="611" y="934" font-size="9" stroke="grey" fill="black" >1.1.1.50</text>
</g>
<g>
    <rect rxns="rxn14099" x="500" y="961" width="48" height="18" stroke="black" fill="white"></rect>
    <text x="503" y="974" font-size="9" stroke="grey" fill="black" >1.3.1.3</text>
</g>
<g>
    <rect rxns="rxn03000" x="607" y="961" width="48" height="18" stroke="black" fill="white"></rect>
    <text x="610" y="974" font-size="9" stroke="grey" fill="black" >1.1.1.152</text>
</g>
<g>
    <rect rxns="rxn03024" x="703" y="961" width="48" height="18" stroke="black" fill="white"></rect>
    <text x="706" y="974" font-size="9" stroke="grey" fill="black" >2.4.1.17</text>
</g>
<g>
    <rect rxns="rxn06053" x="503" y="1032" width="48" height="18" stroke="black" fill="white"></rect>
    <text x="506" y="1045" font-size="9" stroke="grey" fill="black" >1.3.99.5</text>
</g>
<g>
    <rect rxns="rxn01793,rxn01794" x="605" y="1031" width="48" height="18" stroke="black" fill="white"></rect>
    <text x="608" y="1044" font-size="9" stroke="grey" fill="black" >1.1.1.50</text>
</g>
<g>
    <rect rxns="rxn01795" x="702" y="1031" width="48" height="18" stroke="black" fill="white"></rect>
    <text x="705" y="1044" font-size="9" stroke="grey" fill="black" >2.4.1.17</text>
</g>
<g>
    <rect rxns="rxn11954" x="506" y="1094" width="48" height="18" stroke="black" fill="white"></rect>
    <text x="509" y="1107" font-size="9" stroke="grey" fill="black" >1.14.14.1</text>
</g>
<g>
    <rect rxns="rxn01696" x="912" y="1092" width="48" height="18" stroke="black" fill="white"></rect>
    <text x="915" y="1105" font-size="9" stroke="grey" fill="black" >1.14.14.1</text>
</g>
<g>
    <rect rxns="rxn06052" x="506" y="1155" width="48" height="18" stroke="black" fill="white"></rect>
    <text x="509" y="1168" font-size="9" stroke="grey" fill="black" >1.14.99.12</text>
</g>
<g>
    <rect rxns="rxn11958" x="506" y="1225" width="48" height="18" stroke="black" fill="white"></rect>
    <text x="509" y="1238" font-size="9" stroke="grey" fill="black" >1.14.14.1</text>
</g>
<g>
    <rect rxns="rxn02215" x="912" y="1224" width="48" height="18" stroke="black" fill="white"></rect>
    <text x="915" y="1237" font-size="9" stroke="grey" fill="black" >1.14.14.1</text>
</g>
<g>
    <rect rxns="rxn03202" x="1013" y="1223" width="48" height="18" stroke="black" fill="white"></rect>
    <text x="1016" y="1236" font-size="9" stroke="grey" fill="black" >2.4.1.17</text>
</g>
<g>
    <rect rxns="rxn03200,rxn03201" x="966" y="1149" width="48" height="18" stroke="black" fill="white"></rect>
    <text x="969" y="1162" font-size="9" stroke="grey" fill="black" >1.1.1.62</text>
</g>
<g>
    <rect rxns="rxn06174" x="506" y="1285" width="48" height="18" stroke="black" fill="white"></rect>
    <text x="509" y="1298" font-size="9" stroke="grey" fill="black" >1.3.99.5</text>
</g>
<g>
    <rect rxns="rxn14041" x="611" y="1286" width="48" height="18" stroke="black" fill="white"></rect>
    <text x="614" y="1299" font-size="9" stroke="grey" fill="black" >1.1.1.50</text>
</g>
<g>
    <rect rxns="rxn14291" x="506" y="1350" width="48" height="18" stroke="black" fill="white"></rect>
    <text x="509" y="1363" font-size="9" stroke="grey" fill="black" >1.3.1.3</text>
</g>
<g>
    <rect rxns="rxn01812" x="506" y="1414" width="48" height="18" stroke="black" fill="white"></rect>
    <text x="509" y="1427" font-size="9" stroke="grey" fill="black" >2.4.1.17</text>
</g>
<g>
    <rect rxns="rxn01697" x="912" y="935" width="48" height="18" stroke="black" fill="white"></rect>
    <text x="915" y="948" font-size="9" stroke="grey" fill="black" >2.4.1.17</text>
</g>
<g>
    <rect rxns="rxn01688,rxn01689" x="912" y="984" width="48" height="18" stroke="black" fill="white"></rect>
    <text x="915" y="997" font-size="9" stroke="grey" fill="black" >1.1.1.148</text>
</g>
<g>
    <rect rxns="rxn01694,rxn01695" x="912" y="1041" width="48" height="18" stroke="black" fill="white"></rect>
    <text x="915" y="1054" font-size="9" stroke="grey" fill="black" >1.14.14.1</text>
</g>
<g>
    <rect rxns="rxn03258" x="1007" y="1041" width="48" height="18" stroke="black" fill="white"></rect>
    <text x="1010" y="1054" font-size="9" stroke="grey" fill="black" >2.1.1.6</text>
</g>
<g>
    <rect rxns="rxn03025" x="1088" y="1017" width="48" height="18" stroke="black" fill="white"></rect>
    <text x="1091" y="1030" font-size="9" stroke="grey" fill="black" >2.4.1.17</text>
</g>
<g>
    <rect rxns="rxn00386" x="1087" y="1067" width="48" height="18" stroke="black" fill="white"></rect>
    <text x="1090" y="1080" font-size="9" stroke="grey" fill="black" >2.8.2.15</text>
</g>
<g>
    <rect rxns="rxn03026" x="1090" y="1251" width="48" height="18" stroke="black" fill="white"></rect>
    <text x="1093" y="1264" font-size="9" stroke="grey" fill="black" >2.4.1.17</text>
</g>
<g>
    <rect rxns="rxn00387" x="1090" y="1301" width="48" height="18" stroke="black" fill="white"></rect>
    <text x="1093" y="1314" font-size="9" stroke="grey" fill="black" >2.8.2.15</text>
</g>
<g>
    <rect rxns="rxn03260" x="1013" y="1275" width="48" height="18" stroke="black" fill="white"></rect>
    <text x="1016" y="1288" font-size="9" stroke="grey" fill="black" >2.1.1.6</text>
</g>
<g>
    <rect rxns="rxn02214,rxn02216" x="912" y="1276" width="48" height="18" stroke="black" fill="white"></rect>
    <text x="915" y="1289" font-size="9" stroke="grey" fill="black" >1.14.14.1</text>
</g>
<g>
    <rect rxns="rxn01690" x="843" y="912" width="48" height="18" stroke="black" fill="white"></rect>
    <text x="846" y="925" font-size="9" stroke="grey" fill="black" >2.8.2.4</text>
</g>
<g>
    <rect rxns="rxn01690" x="893" y="912" width="48" height="18" stroke="black" fill="white"></rect>
    <text x="896" y="925" font-size="9" stroke="grey" fill="black" >2.8.2.15</text>
</g>
<g>
    <rect rxns="rxn02798" x="816" y="953" width="48" height="18" stroke="black" fill="white"></rect>
    <text x="819" y="966" font-size="9" stroke="grey" fill="black" >3.1.6.1</text>
</g>
<g>
    <rect rxns="rxn01692,rxn01693" x="791" y="1150" width="48" height="18" stroke="black" fill="white"></rect>
    <text x="794" y="1163" font-size="9" stroke="grey" fill="black" >1.1.1.51</text>
</g>
<g>
    <rect rxns="rxn06310" x="913" y="1327" width="49" height="18" stroke="black" fill="white"></rect>
    <text x="916" y="1340" font-size="9" stroke="grey" fill="black" >1.14.99.11</text>
</g>
<g>
    <rect rxns="rxn02217" x="912" y="1378" width="48" height="18" stroke="black" fill="white"></rect>
    <text x="915" y="1391" font-size="9" stroke="grey" fill="black" >2.4.1.17</text>
</g>
<g>
    <rect rxns="rxn00385" x="869" y="1401" width="48" height="18" stroke="black" fill="white"></rect>
    <text x="872" y="1414" font-size="9" stroke="grey" fill="black" >2.8.2.15</text>
</g>
<g>
    <rect rxns="rxn03307,rxn03308" x="745" y="382" width="48" height="18" stroke="black" fill="white"></rect>
    <text x="748" y="395" font-size="9" stroke="grey" fill="black" >1.1.1.50</text>
</g>
<g>
    <rect rxns="rxn02384" x="471" y="644" width="48" height="18" stroke="black" fill="white"></rect>
    <text x="474" y="657" font-size="9" stroke="grey" fill="black" >1.1.1.149</text>
</g>
<g>
    <rect rxns="rxn14327" x="224" y="891" width="48" height="18" stroke="black" fill="white"></rect>
    <text x="227" y="904" font-size="9" stroke="grey" fill="black" >1.14.13.17</text>
</g>
<g>
    <rect rxns="rxn11980" x="650" y="260" width="48" height="18" stroke="black" fill="white"></rect>
    <text x="653" y="273" font-size="9" stroke="grey" fill="black" >1.14.15.4...</text>
</g>
<g>
    <rect rxns="rxn12000" x="605" y="1094" width="48" height="18" stroke="black" fill="white"></rect>
    <text x="608" y="1107" font-size="9" stroke="grey" fill="black" >1.14.14.1</text>
</g>
<g>
    <rect rxns="rxn11956" x="728" y="1094" width="48" height="18" stroke="black" fill="white"></rect>
    <text x="731" y="1107" font-size="9" stroke="grey" fill="black" >1.14.14.1</text>
</g>
<g>
    <rect rxns="rxn12001" x="605" y="1225" width="48" height="18" stroke="black" fill="white"></rect>
    <text x="608" y="1238" font-size="9" stroke="grey" fill="black" >1.14.14.1</text>
</g>
<g>
    <rect rxns="rxn11975" x="728" y="1225" width="48" height="18" stroke="black" fill="white"></rect>
    <text x="731" y="1238" font-size="9" stroke="grey" fill="black" >1.14.14.1</text>
</g>
<g>
    <rect rxns="rxn12161" x="421" y="796" width="48" height="18" stroke="black" fill="white"></rect>
    <text x="424" y="809" font-size="9" stroke="grey" fill="black" >1.14.99.9</text>
</g>
<g>
    <rect rxns="rxn12160" x="211" y="796" width="48" height="18" stroke="black" fill="white"></rect>
    <text x="214" y="809" font-size="9" stroke="grey" fill="black" >1.14.99.9</text>
</g>
</svg>