<svg>
<g>
    <rect rxns="R05970" x="263" y="121" width="48" height="18" stroke="black" fill="white"></rect>
    <text x="266" y="134" font-size="9" stroke="grey" fill="black" >2.4.1.141</text>
</g>
<g>
    <rect rxns="R06262" x="411" y="359" width="48" height="18" stroke="black" fill="white"></rect>
    <text x="414" y="372" font-size="9" stroke="grey" fill="black" >2.4.1.267</text>
</g>
<g>
    <rect rxns="R06260" x="547" y="309" width="48" height="18" stroke="black" fill="white"></rect>
    <text x="550" y="322" font-size="9" stroke="grey" fill="black" >2.4.1.260</text>
</g>
<g>
    <rect rxns="R06259" x="639" y="309" width="48" height="18" stroke="black" fill="white"></rect>
    <text x="642" y="322" font-size="9" stroke="grey" fill="black" >2.4.1.259</text>
</g>
<g>
    <rect rxns="R06258" x="695" y="265" width="48" height="18" stroke="black" fill="white"></rect>
    <text x="698" y="278" font-size="9" stroke="grey" fill="black" >2.4.1.258</text>
</g>
<g>
    <rect rxns="R05991" x="547" y="676" width="48" height="18" stroke="black" fill="white"></rect>
    <text x="550" y="689" font-size="9" stroke="grey" fill="black" >2.4.1.155</text>
</g>
<g>
    <rect rxns="rxn05913" x="137" y="400" width="48" height="18" stroke="black" fill="white"></rect>
    <text x="140" y="413" font-size="9" stroke="grey" fill="black" >3.6.1.43</text>
</g>
<g>
    <rect rxns="R05988" x="639" y="722" width="48" height="18" stroke="black" fill="white"></rect>
    <text x="642" y="735" font-size="9" stroke="grey" fill="black" >2.4.1.68</text>
</g>
<g>
    <rect rxns="R05992" x="456" y="676" width="48" height="18" stroke="black" fill="white"></rect>
    <text x="459" y="689" font-size="9" stroke="grey" fill="black" >2.4.1.201</text>
</g>
<g>
    <rect rxns="R05989" x="547" y="723" width="48" height="18" stroke="black" fill="white"></rect>
    <text x="550" y="736" font-size="9" stroke="grey" fill="black" >2.4.1.38</text>
</g>
<g>
    <rect rxns="R05990" x="456" y="723" width="48" height="18" stroke="black" fill="white"></rect>
    <text x="459" y="736" font-size="9" stroke="grey" fill="black" >2.4.99.1</text>
</g>
<g>
    <rect rxns="R05986" x="639" y="631" width="48" height="18" stroke="black" fill="white"></rect>
    <text x="642" y="644" font-size="9" stroke="grey" fill="black" >2.4.1.144</text>
</g>
<g>
    <rect rxns="R05985" x="695" y="594" width="48" height="18" stroke="black" fill="white"></rect>
    <text x="698" y="607" font-size="9" stroke="grey" fill="black" >2.4.1.143</text>
</g>
<g>
    <rect rxns="R05984" x="695" y="524" width="48" height="18" stroke="black" fill="white"></rect>
    <text x="698" y="537" font-size="9" stroke="grey" fill="black" >3.2.1.114</text>
</g>
<g>
    <rect rxns="R05982" x="547" y="492" width="48" height="18" stroke="black" fill="white"></rect>
    <text x="550" y="505" font-size="9" stroke="grey" fill="black" >3.2.1.113</text>
</g>
<g>
    <rect rxns="R05987" x="639" y="676" width="48" height="18" stroke="black" fill="white"></rect>
    <text x="642" y="689" font-size="9" stroke="grey" fill="black" >2.4.1.145</text>
</g>
<g>
    <rect rxns="R05980" x="365" y="492" width="48" height="18" stroke="black" fill="white"></rect>
    <text x="368" y="505" font-size="9" stroke="grey" fill="black" >3.2.1.84</text>
</g>
<g>
    <rect rxns="R05979" x="263" y="492" width="48" height="18" stroke="black" fill="white"></rect>
    <text x="266" y="505" font-size="9" stroke="grey" fill="black" >3.2.1.106</text>
</g>
<g>
    <rect rxns="R06128" x="695" y="181" width="48" height="18" stroke="black" fill="white"></rect>
    <text x="698" y="194" font-size="9" stroke="grey" fill="black" >2.4.1.131</text>
</g>
<g>
    <rect rxns="R05976" x="196" y="446" width="48" height="18" stroke="black" fill="white"></rect>
    <text x="199" y="459" font-size="9" stroke="grey" fill="black" >2.4.99.18</text>
</g>
<g>
    <rect rxns="rxn05914" x="229" y="337" width="48" height="18" stroke="black" fill="white"></rect>
    <text x="232" y="350" font-size="9" stroke="grey" fill="black" >2.4.1.117</text>
</g>
<g>
    <rect rxns="rxn05915" x="229" y="318" width="48" height="18" stroke="black" fill="white"></rect>
    <text x="232" y="331" font-size="9" stroke="grey" fill="black" >3.1.4.48</text>
</g>
<g>
    <rect rxns="R05973" x="456" y="113" width="48" height="18" stroke="black" fill="white"></rect>
    <text x="459" y="126" font-size="9" stroke="grey" fill="black" >2.4.1.132</text>
</g>
<g>
    <rect rxns="R05972" x="365" y="113" width="48" height="18" stroke="black" fill="white"></rect>
    <text x="368" y="126" font-size="9" stroke="grey" fill="black" >2.4.1.142</text>
</g>
<g>
    <rect rxns="R05970" x="263" y="104" width="48" height="18" stroke="black" fill="white"></rect>
    <text x="266" y="117" font-size="9" stroke="grey" fill="black" >2.4.1.141</text>
</g>
<g>
    <rect rxns="rxn05918" x="390" y="230" width="48" height="18" stroke="black" fill="white"></rect>
    <text x="393" y="243" font-size="9" stroke="grey" fill="black" >2.4.1.83</text>
</g>
<g>
    <rect rxns="R05969" x="171" y="113" width="48" height="18" stroke="black" fill="white"></rect>
    <text x="174" y="126" font-size="9" stroke="grey" fill="black" >2.7.8.15</text>
</g>
<g>
    <rect rxns="rxn05912" x="73" y="337" width="48" height="18" stroke="black" fill="white"></rect>
    <text x="76" y="350" font-size="9" stroke="grey" fill="black" >3.1.3.51</text>
</g>
<g>
    <rect rxns="rxn05920" x="73" y="318" width="48" height="18" stroke="black" fill="white"></rect>
    <text x="76" y="331" font-size="9" stroke="grey" fill="black" >2.7.1.108</text>
</g>
<g>
    <rect rxns="R06238" x="547" y="113" width="48" height="18" stroke="black" fill="white"></rect>
    <text x="550" y="126" font-size="9" stroke="grey" fill="black" >2.4.1.257</text>
</g>
<g>
    <rect rxns="R06127" x="639" y="113" width="48" height="18" stroke="black" fill="white"></rect>
    <text x="642" y="126" font-size="9" stroke="grey" fill="black" >2.4.1.131</text>
</g>
<g>
    <rect rxns="R06261" x="456" y="308" width="48" height="18" stroke="black" fill="white"></rect>
    <text x="459" y="321" font-size="9" stroke="grey" fill="black" >2.4.1.261</text>
</g>
<g>
    <rect rxns="R06263" x="365" y="400" width="48" height="18" stroke="black" fill="white"></rect>
    <text x="368" y="413" font-size="9" stroke="grey" fill="black" >2.4.1.265</text>
</g>
<g>
    <rect rxns="R06264" x="263" y="400" width="48" height="18" stroke="black" fill="white"></rect>
    <text x="266" y="413" font-size="9" stroke="grey" fill="black" >2.4.1.256</text>
</g>
<g>
    <rect rxns="R05981" x="456" y="492" width="48" height="18" stroke="black" fill="white"></rect>
    <text x="459" y="505" font-size="9" stroke="grey" fill="black" >3.2.1.84</text>
</g>
<g>
    <rect rxns="R05983" x="639" y="492" width="48" height="18" stroke="black" fill="white"></rect>
    <text x="642" y="505" font-size="9" stroke="grey" fill="black" >2.4.1.101</text>
</g>
</svg>