<svg>
<g>
    <rect rxns="rxn04086" x="216" y="686" width="48" height="18" stroke="black" fill="white"></rect>
    <text x="219" y="699" font-size="9" stroke="grey" fill="black" >1.14.13.73</text>
</g>
<g>
    <rect rxns="rxn02704" x="411" y="290" width="48" height="18" stroke="black" fill="white"></rect>
    <text x="414" y="303" font-size="9" stroke="grey" fill="black" >3.2.1.105</text>
</g>
<g>
    <rect rxns="rxn02655" x="411" y="235" width="48" height="18" stroke="black" fill="white"></rect>
    <text x="414" y="248" font-size="9" stroke="grey" fill="black" >4.3.3.2</text>
</g>
<g>
    <rect rxns="rxn04108" x="529" y="662" width="48" height="18" stroke="black" fill="white"></rect>
    <text x="532" y="675" font-size="9" stroke="grey" fill="black" >1.5.1.32</text>
</g>
<g>
    <rect rxns="rxn04112" x="564" y="685" width="48" height="18" stroke="black" fill="white"></rect>
    <text x="567" y="698" font-size="9" stroke="grey" fill="black" >2.4.1.219</text>
</g>
<g>
    <rect rxns="rxn04107" x="564" y="628" width="48" height="18" stroke="black" fill="white"></rect>
    <text x="567" y="641" font-size="9" stroke="grey" fill="black" >1.14.13.75</text>
</g>
<g>
    <rect rxns="rxn04058" x="564" y="509" width="48" height="18" stroke="black" fill="white"></rect>
    <text x="567" y="522" font-size="9" stroke="grey" fill="black" >3.1.1.78</text>
</g>
<g>
    <rect rxns="rxn02722" x="487" y="444" width="48" height="18" stroke="black" fill="white"></rect>
    <text x="490" y="457" font-size="9" stroke="grey" fill="black" >1.3.1.36</text>
</g>
<g>
    <rect rxns="rxn02819" x="178" y="575" width="48" height="18" stroke="black" fill="white"></rect>
    <text x="181" y="588" font-size="9" stroke="grey" fill="black" >2.1.1.99</text>
</g>
<g>
    <rect rxns="rxn04109" x="483" y="687" width="48" height="18" stroke="black" fill="white"></rect>
    <text x="486" y="700" font-size="9" stroke="grey" fill="black" >1.3.1.73</text>
</g>
<g>
    <rect rxns="rxn04088" x="178" y="520" width="48" height="18" stroke="black" fill="white"></rect>
    <text x="181" y="533" font-size="9" stroke="grey" fill="black" >1.14.11.20</text>
</g>
<g>
    <rect rxns="rxn02311" x="142" y="486" width="48" height="18" stroke="black" fill="white"></rect>
    <text x="145" y="499" font-size="9" stroke="grey" fill="black" >2.3.1.107</text>
</g>
<g>
    <rect rxns="rxn04114" x="216" y="631" width="48" height="18" stroke="black" fill="white"></rect>
    <text x="219" y="644" font-size="9" stroke="grey" fill="black" >2.1.1.94</text>
</g>
<g>
    <rect rxns="rxn04106" x="564" y="574" width="48" height="18" stroke="black" fill="white"></rect>
    <text x="567" y="587" font-size="9" stroke="grey" fill="black" >2.3.1.160</text>
</g>
<g>
    <rect rxns="rxn02631" x="600" y="705" width="48" height="18" stroke="black" fill="white"></rect>
    <text x="603" y="718" font-size="9" stroke="grey" fill="black" >3.2.1.125</text>
</g>
<g>
    <rect rxns="rxn04060" x="672" y="574" width="48" height="18" stroke="black" fill="white"></rect>
    <text x="675" y="587" font-size="9" stroke="grey" fill="black" >1.1.1.273</text>
</g>
<g>
    <rect rxns="rxn00484" x="411" y="154" width="48" height="18" stroke="black" fill="white"></rect>
    <text x="414" y="167" font-size="9" stroke="grey" fill="black" >4.1.1.28</text>
</g>
</svg>