<svg>
<g>
    <rect rxns="rxn06905" x="271" y="369" width="48" height="18" stroke="black" fill="white"></rect>
    <text x="274" y="382" font-size="9" stroke="grey" fill="black" >3.7.1.-</text>
</g>
<g>
    <rect rxns="rxn03569" x="271" y="302" width="48" height="18" stroke="black" fill="white"></rect>
    <text x="274" y="315" font-size="9" stroke="grey" fill="black" >1.13.11.-</text>
</g>
<g>
    <rect rxns="rxn03567,rxn03568" x="148" y="302" width="48" height="18" stroke="black" fill="white"></rect>
    <text x="151" y="315" font-size="9" stroke="grey" fill="black" >1.3.1.-</text>
</g>
<g>
    <rect rxns="rxn03580" x="329" y="210" width="48" height="18" stroke="black" fill="white"></rect>
    <text x="332" y="223" font-size="9" stroke="grey" fill="black" >1.97.1.-</text>
</g>
<g>
    <rect rxns="rxn03677" x="486" y="369" width="48" height="18" stroke="black" fill="white"></rect>
    <text x="489" y="382" font-size="9" stroke="grey" fill="black" >4.1.1.-</text>
</g>
<g>
    <rect rxns="rxn03566" x="205" y="503" width="48" height="18" stroke="black" fill="white"></rect>
    <text x="208" y="516" font-size="9" stroke="grey" fill="black" >1.2.-.-</text>
</g>
<g>
    <rect rxns="rxn03686" x="534" y="210" width="48" height="18" stroke="black" fill="white"></rect>
    <text x="537" y="223" font-size="9" stroke="grey" fill="black" >4.5.1.-</text>
</g>
<g>
    <rect rxns="rxn03570" x="148" y="369" width="48" height="18" stroke="black" fill="white"></rect>
    <text x="151" y="382" font-size="9" stroke="grey" fill="black" >1.13.11.-</text>
</g>
<g>
    <rect rxns="rxn03116" x="207" y="210" width="48" height="18" stroke="black" fill="white"></rect>
    <text x="210" y="223" font-size="9" stroke="grey" fill="black" >4.5.1.1</text>
</g>
<g>
    <rect rxns="rxn03685" x="329" y="136" width="48" height="18" stroke="black" fill="white"></rect>
    <text x="332" y="149" font-size="9" stroke="grey" fill="black" >4.5.1.-</text>
</g>
<g>
    <rect rxns="rxn03785" x="148" y="239" width="48" height="18" stroke="black" fill="white"></rect>
    <text x="151" y="252" font-size="9" stroke="grey" fill="black" >1.14.99.-</text>
</g>
<g>
    <rect rxns="rxn06911" x="432" y="210" width="48" height="18" stroke="black" fill="white"></rect>
    <text x="435" y="223" font-size="9" stroke="grey" fill="black" >1.3.-.-</text>
</g>
</svg>