<svg>
<g>
    <rect rxns="rxn02182" x="701" y="632" width="48" height="18" stroke="black" fill="white"></rect>
    <text x="704" y="645" font-size="9" stroke="grey" fill="black" >4.3.1.6</text>
</g>
<g>
    <rect rxns="rxn00673" x="766" y="596" width="48" height="18" stroke="black" fill="white"></rect>
    <text x="769" y="609" font-size="9" stroke="grey" fill="black" >1.3.8.7</text>
</g>
<g>
    <rect rxns="rxn02181" x="636" y="596" width="48" height="18" stroke="black" fill="white"></rect>
    <text x="639" y="609" font-size="9" stroke="grey" fill="black" >4.2.1.17</text>
</g>
<g>
    <rect rxns="rxn02261" x="505" y="596" width="48" height="18" stroke="black" fill="white"></rect>
    <text x="508" y="609" font-size="9" stroke="grey" fill="black" >3.1.2.4</text>
</g>
<g>
    <rect rxns="rxn01174" x="366" y="596" width="48" height="18" stroke="black" fill="white"></rect>
    <text x="369" y="609" font-size="9" stroke="grey" fill="black" >1.1.1.59</text>
</g>
<g>
    <rect rxns="rxn01172,rxn01173" x="136" y="603" width="48" height="18" stroke="black" fill="white"></rect>
    <text x="139" y="616" font-size="9" stroke="grey" fill="black" >1.2.1.15</text>
</g>
<g>
    <rect rxns="rxn00534" x="73" y="564" width="48" height="18" stroke="black" fill="white"></rect>
    <text x="76" y="577" font-size="9" stroke="grey" fill="black" >2.8.3.3</text>
</g>
<g>
    <rect rxns="rxn00174" x="122" y="524" width="48" height="18" stroke="black" fill="white"></rect>
    <text x="125" y="537" font-size="9" stroke="grey" fill="black" >4.1.1.9</text>
</g>
<g>
    <rect rxns="rxn00501,rxn00502" x="180" y="565" width="48" height="18" stroke="black" fill="white"></rect>
    <text x="183" y="578" font-size="9" stroke="grey" fill="black" >1.2.1.18</text>
</g>
<g>
    <rect rxns="rxn01177" x="292" y="634" width="48" height="18" stroke="black" fill="white"></rect>
    <text x="295" y="647" font-size="9" stroke="grey" fill="black" >4.2.1.27</text>
</g>
<g>
    <rect rxns="rxn00656" x="292" y="423" width="48" height="18" stroke="black" fill="white"></rect>
    <text x="295" y="436" font-size="9" stroke="grey" fill="black" >2.6.1.18</text>
</g>
<g>
    <rect rxns="rxn00657" x="243" y="423" width="48" height="18" stroke="black" fill="white"></rect>
    <text x="246" y="436" font-size="9" stroke="grey" fill="black" >2.6.1.55</text>
</g>
<g>
    <rect rxns="rxn00657" x="193" y="423" width="48" height="18" stroke="black" fill="white"></rect>
    <text x="196" y="436" font-size="9" stroke="grey" fill="black" >2.6.1.19</text>
</g>
<g>
    <rect rxns="rxn01791" x="341" y="423" width="48" height="18" stroke="black" fill="white"></rect>
    <text x="344" y="436" font-size="9" stroke="grey" fill="black" >6.3.2.1</text>
</g>
<g>
    <rect rxns="rxn00660" x="498" y="471" width="48" height="18" stroke="black" fill="white"></rect>
    <text x="501" y="484" font-size="9" stroke="grey" fill="black" >3.4.13.4</text>
</g>
<g>
    <rect rxns="rxn00661" x="498" y="419" width="48" height="18" stroke="black" fill="white"></rect>
    <text x="501" y="432" font-size="9" stroke="grey" fill="black" >6.3.2.11</text>
</g>
<g>
    <rect rxns="rxn00346" x="554" y="141" width="48" height="18" stroke="black" fill="white"></rect>
    <text x="557" y="154" font-size="9" stroke="grey" fill="black" >4.1.1.15</text>
</g>
<g>
    <rect rxns="rxn00346" x="554" y="120" width="48" height="18" stroke="black" fill="white"></rect>
    <text x="557" y="133" font-size="9" stroke="grey" fill="black" >4.1.1.11</text>
</g>
<g>
    <rect rxns="rxn00658" x="463" y="97" width="48" height="18" stroke="black" fill="white"></rect>
    <text x="466" y="110" font-size="9" stroke="grey" fill="black" >3.5.1.21</text>
</g>
<g>
    <rect rxns="rxn02061" x="786" y="294" width="48" height="18" stroke="black" fill="white"></rect>
    <text x="789" y="307" font-size="9" stroke="grey" fill="black" >2.5.1.22</text>
</g>
<g>
    <rect rxns="rxn02061" x="786" y="273" width="48" height="18" stroke="black" fill="white"></rect>
    <text x="789" y="286" font-size="9" stroke="grey" fill="black" >2.5.1.16</text>
</g>
<g>
    <rect rxns="rxn01401" x="671" y="284" width="48" height="18" stroke="black" fill="white"></rect>
    <text x="674" y="297" font-size="9" stroke="grey" fill="black" >1.5.99.6</text>
</g>
<g>
    <rect rxns="rxn01851" x="678" y="324" width="48" height="18" stroke="black" fill="white"></rect>
    <text x="681" y="337" font-size="9" stroke="grey" fill="black" >1.2.1.19</text>
</g>
<g>
    <rect rxns="rxn02250" x="554" y="284" width="48" height="18" stroke="black" fill="white"></rect>
    <text x="557" y="297" font-size="9" stroke="grey" fill="black" >1.4.3.21</text>
</g>
<g>
    <rect rxns="rxn00653" x="444" y="273" width="48" height="18" stroke="black" fill="white"></rect>
    <text x="447" y="286" font-size="9" stroke="grey" fill="black" >1.2.1.3</text>
</g>
<g>
    <rect rxns="rxn00654" x="317" y="252" width="48" height="18" stroke="black" fill="white"></rect>
    <text x="320" y="265" font-size="9" stroke="grey" fill="black" >3.5.1.6</text>
</g>
<g>
    <rect rxns="rxn01626" x="201" y="252" width="48" height="18" stroke="black" fill="white"></rect>
    <text x="204" y="265" font-size="9" stroke="grey" fill="black" >3.5.2.2</text>
</g>
<g>
    <rect rxns="rxn00720" x="100" y="263" width="48" height="18" stroke="black" fill="white"></rect>
    <text x="103" y="276" font-size="9" stroke="grey" fill="black" >1.3.1.2</text>
</g>
<g>
    <rect rxns="rxn00719" x="100" y="241" width="48" height="18" stroke="black" fill="white"></rect>
    <text x="103" y="254" font-size="9" stroke="grey" fill="black" >1.3.1.1</text>
</g>
<g>
    <rect rxns="rxn00864" x="498" y="393" width="48" height="18" stroke="black" fill="white"></rect>
    <text x="501" y="406" font-size="9" stroke="grey" fill="black" >6.3.2.11</text>
</g>
<g>
    <rect rxns="rxn00659" x="498" y="445" width="48" height="18" stroke="black" fill="white"></rect>
    <text x="501" y="458" font-size="9" stroke="grey" fill="black" >6.3.2.11</text>
</g>
<g>
    <rect rxns="rxn00865" x="498" y="368" width="48" height="18" stroke="black" fill="white"></rect>
    <text x="501" y="381" font-size="9" stroke="grey" fill="black" >3.4.13.20</text>
</g>
<g>
    <rect rxns="rxn02353" x="554" y="166" width="48" height="18" stroke="black" fill="white"></rect>
    <text x="557" y="179" font-size="9" stroke="grey" fill="black" >3.4.13.5</text>
</g>
<g>
    <rect rxns="rxn02352" x="554" y="210" width="48" height="18" stroke="black" fill="white"></rect>
    <text x="557" y="223" font-size="9" stroke="grey" fill="black" >6.3.2.11</text>
</g>
<g>
    <rect rxns="rxn02766" x="498" y="498" width="48" height="18" stroke="black" fill="white"></rect>
    <text x="501" y="511" font-size="9" stroke="grey" fill="black" >3.4.13.4</text>
</g>
<g>
    <rect rxns="rxn02353" x="554" y="187" width="48" height="18" stroke="black" fill="white"></rect>
    <text x="557" y="200" font-size="9" stroke="grey" fill="black" >3.4.13.20</text>
</g>
<g>
    <rect rxns="rxn00653" x="444" y="294" width="48" height="18" stroke="black" fill="white"></rect>
    <text x="447" y="307" font-size="9" stroke="grey" fill="black" >1.2.1.5</text>
</g>
<g>
    <rect rxns="R09076" x="786" y="227" width="48" height="18" stroke="black" fill="white"></rect>
    <text x="789" y="240" font-size="9" stroke="grey" fill="black" >1.5.3.17</text>
</g>
<g>
    <rect rxns="R09077" x="617" y="242" width="48" height="18" stroke="black" fill="white"></rect>
    <text x="620" y="255" font-size="9" stroke="grey" fill="black" >1.5.3.17</text>
</g>
<g>
    <rect rxns="rxn00865" x="498" y="347" width="48" height="18" stroke="black" fill="white"></rect>
    <text x="501" y="360" font-size="9" stroke="grey" fill="black" >3.4.13.18</text>
</g>
</svg>