<svg>
<g>
    <rect rxns="rxn07618" x="899" y="212" width="48" height="18" stroke="black" fill="white"></rect>
    <text x="902" y="225" font-size="9" stroke="grey" fill="black" >1.13.11.39</text>
</g>
<g>
    <rect rxns="rxn04666" x="1153" y="888" width="48" height="18" stroke="black" fill="white"></rect>
    <text x="1156" y="901" font-size="9" stroke="grey" fill="black" >1.14.13.-</text>
</g>
<g>
    <rect rxns="rxn04653" x="1192" y="251" width="48" height="18" stroke="black" fill="white"></rect>
    <text x="1195" y="264" font-size="9" stroke="grey" fill="black" >3.1.1.45</text>
</g>
<g>
    <rect rxns="rxn07169" x="1009" y="251" width="48" height="18" stroke="black" fill="white"></rect>
    <text x="1012" y="264" font-size="9" stroke="grey" fill="black" >5.5.1.7</text>
</g>
<g>
    <rect rxns="rxn04654" x="899" y="249" width="48" height="18" stroke="black" fill="white"></rect>
    <text x="902" y="262" font-size="9" stroke="grey" fill="black" >1.13.11.1</text>
</g>
<g>
    <rect rxns="rxn04672" x="785" y="250" width="48" height="18" stroke="black" fill="white"></rect>
    <text x="788" y="263" font-size="9" stroke="grey" fill="black" >1.3.1.19</text>
</g>
<g>
    <rect rxns="rxn04671" x="670" y="251" width="48" height="18" stroke="black" fill="white"></rect>
    <text x="673" y="264" font-size="9" stroke="grey" fill="black" >1.14.12.-</text>
</g>
<g>
    <rect rxns="rxn04647" x="786" y="725" width="48" height="18" stroke="black" fill="white"></rect>
    <text x="789" y="738" font-size="9" stroke="grey" fill="black" >1.3.1.19</text>
</g>
<g>
    <rect rxns="rxn04646" x="670" y="724" width="48" height="18" stroke="black" fill="white"></rect>
    <text x="673" y="737" font-size="9" stroke="grey" fill="black" >1.14.12.-</text>
</g>
<g>
    <rect rxns="rxn03560" x="1195" y="846" width="48" height="18" stroke="black" fill="white"></rect>
    <text x="1198" y="859" font-size="9" stroke="grey" fill="black" >1.13.11.-</text>
</g>
<g>
    <rect rxns="rxn03551" x="1286" y="846" width="48" height="18" stroke="black" fill="white"></rect>
    <text x="1289" y="859" font-size="9" stroke="grey" fill="black" >1.2.1.61</text>
</g>
<g>
    <rect rxns="rxn03581" x="958" y="845" width="48" height="18" stroke="black" fill="white"></rect>
    <text x="961" y="858" font-size="9" stroke="grey" fill="black" >2.5.1.-</text>
</g>
<g>
    <rect rxns="rxn06893" x="1087" y="846" width="48" height="18" stroke="black" fill="white"></rect>
    <text x="1090" y="859" font-size="9" stroke="grey" fill="black" >2.5.1.-</text>
</g>
<g>
    <rect rxns="rxn03670" x="285" y="527" width="48" height="18" stroke="black" fill="white"></rect>
    <text x="288" y="540" font-size="9" stroke="grey" fill="black" >3.8.1.5</text>
</g>
<g>
    <rect rxns="rxn03687" x="129" y="249" width="48" height="18" stroke="black" fill="white"></rect>
    <text x="132" y="262" font-size="9" stroke="grey" fill="black" >4.5.1.-</text>
</g>
<g>
    <rect rxns="rxn03671" x="371" y="845" width="48" height="18" stroke="black" fill="white"></rect>
    <text x="374" y="858" font-size="9" stroke="grey" fill="black" >3.8.1.5</text>
</g>
<g>
    <rect rxns="rxn03557" x="639" y="856" width="48" height="18" stroke="black" fill="white"></rect>
    <text x="642" y="869" font-size="9" stroke="grey" fill="black" >1.3.1.-</text>
</g>
<g>
    <rect rxns="rxn03688" x="231" y="249" width="48" height="18" stroke="black" fill="white"></rect>
    <text x="234" y="262" font-size="9" stroke="grey" fill="black" >4.5.1.-</text>
</g>
<g>
    <rect rxns="rxn03557" x="639" y="835" width="48" height="18" stroke="black" fill="white"></rect>
    <text x="642" y="848" font-size="9" stroke="grey" fill="black" >1.3.1.-</text>
</g>
<g>
    <rect rxns="rxn03599" x="1514" y="735" width="48" height="18" stroke="black" fill="white"></rect>
    <text x="1517" y="748" font-size="9" stroke="grey" fill="black" >3.8.1.3</text>
</g>
<g>
    <rect rxns="rxn03599" x="1514" y="714" width="48" height="18" stroke="black" fill="white"></rect>
    <text x="1517" y="727" font-size="9" stroke="grey" fill="black" >3.8.1.2</text>
</g>
<g>
    <rect rxns="rxn04663" x="1288" y="725" width="48" height="18" stroke="black" fill="white"></rect>
    <text x="1291" y="738" font-size="9" stroke="grey" fill="black" >1.3.1.32</text>
</g>
<g>
    <rect rxns="rxn04650" x="1196" y="724" width="48" height="18" stroke="black" fill="white"></rect>
    <text x="1199" y="737" font-size="9" stroke="grey" fill="black" >3.1.1.45</text>
</g>
<g>
    <rect rxns="rxn04649" x="1009" y="725" width="48" height="18" stroke="black" fill="white"></rect>
    <text x="1012" y="738" font-size="9" stroke="grey" fill="black" >5.5.1.7</text>
</g>
<g>
    <rect rxns="rxn04648" x="895" y="725" width="48" height="18" stroke="black" fill="white"></rect>
    <text x="898" y="738" font-size="9" stroke="grey" fill="black" >1.13.11.1</text>
</g>
<g>
    <rect rxns="rxn02526" x="673" y="154" width="48" height="18" stroke="black" fill="white"></rect>
    <text x="676" y="167" font-size="9" stroke="grey" fill="black" >1.14.12.3</text>
</g>
<g>
    <rect rxns="rxn00583" x="780" y="154" width="48" height="18" stroke="black" fill="white"></rect>
    <text x="783" y="167" font-size="9" stroke="grey" fill="black" >1.3.1.19</text>
</g>
<g>
    <rect rxns="rxn07484" x="123" y="126" width="48" height="18" stroke="black" fill="white"></rect>
    <text x="126" y="139" font-size="9" stroke="grey" fill="black" >3.8.1.5</text>
</g>
<g>
    <rect rxns="rxn07485" x="243" y="127" width="48" height="18" stroke="black" fill="white"></rect>
    <text x="246" y="140" font-size="9" stroke="grey" fill="black" >3.8.1.5</text>
</g>
<g>
    <rect rxns="rxn03746" x="876" y="888" width="48" height="18" stroke="black" fill="white"></rect>
    <text x="879" y="901" font-size="9" stroke="grey" fill="black" >1.5.1.37</text>
</g>
<g>
    <rect rxns="rxn03746" x="922" y="888" width="48" height="18" stroke="black" fill="white"></rect>
    <text x="925" y="901" font-size="9" stroke="grey" fill="black" >1.14.13.-</text>
</g>
<g>
    <rect rxns="rxn06908" x="960" y="935" width="48" height="18" stroke="black" fill="white"></rect>
    <text x="963" y="948" font-size="9" stroke="grey" fill="black" >4.5.1.-</text>
</g>
<g>
    <rect rxns="rxn03699" x="1089" y="935" width="48" height="18" stroke="black" fill="white"></rect>
    <text x="1092" y="948" font-size="9" stroke="grey" fill="black" >1.6.5.7</text>
</g>
<g>
    <rect rxns="rxn02745" x="1240" y="935" width="48" height="18" stroke="black" fill="white"></rect>
    <text x="1243" y="948" font-size="9" stroke="grey" fill="black" >1.13.11.37</text>
</g>
<g>
    <rect rxns="rxn03747" x="755" y="777" width="48" height="18" stroke="black" fill="white"></rect>
    <text x="758" y="790" font-size="9" stroke="grey" fill="black" >1.5.1.37</text>
</g>
<g>
    <rect rxns="rxn03747" x="755" y="794" width="48" height="18" stroke="black" fill="white"></rect>
    <text x="758" y="807" font-size="9" stroke="grey" fill="black" >1.14.13.-</text>
</g>
<g>
    <rect rxns="rxn11653" x="605" y="794" width="48" height="18" stroke="black" fill="white"></rect>
    <text x="608" y="807" font-size="9" stroke="grey" fill="black" >1.14.13.-</text>
</g>
<g>
    <rect rxns="rxn11653" x="605" y="777" width="48" height="18" stroke="black" fill="white"></rect>
    <text x="608" y="790" font-size="9" stroke="grey" fill="black" >1.14.13.-</text>
</g>
<g>
    <rect rxns="rxn02747" x="1195" y="560" width="48" height="18" stroke="black" fill="white"></rect>
    <text x="1198" y="573" font-size="9" stroke="grey" fill="black" >3.1.1.45</text>
</g>
<g>
    <rect rxns="rxn06912" x="605" y="487" width="48" height="18" stroke="black" fill="white"></rect>
    <text x="608" y="500" font-size="9" stroke="grey" fill="black" >1.14.11.-</text>
</g>
<g>
    <rect rxns="rxn02807" x="755" y="487" width="48" height="18" stroke="black" fill="white"></rect>
    <text x="758" y="500" font-size="9" stroke="grey" fill="black" >1.14.13.20</text>
</g>
<g>
    <rect rxns="rxn03707" x="895" y="487" width="48" height="18" stroke="black" fill="white"></rect>
    <text x="898" y="500" font-size="9" stroke="grey" fill="black" >1.13.11.-</text>
</g>
<g>
    <rect rxns="rxn03694" x="1009" y="487" width="48" height="18" stroke="black" fill="white"></rect>
    <text x="1012" y="500" font-size="9" stroke="grey" fill="black" >5.5.1.11</text>
</g>
<g>
    <rect rxns="rxn03142" x="1102" y="486" width="48" height="18" stroke="black" fill="white"></rect>
    <text x="1105" y="499" font-size="9" stroke="grey" fill="black" >5.2.1.10</text>
</g>
<g>
    <rect rxns="rxn03801" x="1195" y="487" width="48" height="18" stroke="black" fill="white"></rect>
    <text x="1198" y="500" font-size="9" stroke="grey" fill="black" >3.1.1.45</text>
</g>
<g>
    <rect rxns="rxn06904" x="1292" y="488" width="48" height="18" stroke="black" fill="white"></rect>
    <text x="1295" y="501" font-size="9" stroke="grey" fill="black" >1.3.1.32</text>
</g>
<g>
    <rect rxns="rxn03693" x="1009" y="435" width="48" height="18" stroke="black" fill="white"></rect>
    <text x="1012" y="448" font-size="9" stroke="grey" fill="black" >5.5.1.7</text>
</g>
<g>
    <rect rxns="rxn03709" x="894" y="435" width="48" height="18" stroke="black" fill="white"></rect>
    <text x="897" y="448" font-size="9" stroke="grey" fill="black" >1.13.11.-</text>
</g>
<g>
    <rect rxns="rxn03698" x="785" y="435" width="48" height="18" stroke="black" fill="white"></rect>
    <text x="788" y="448" font-size="9" stroke="grey" fill="black" >1.3.1.-</text>
</g>
<g>
    <rect rxns="rxn03729" x="670" y="435" width="48" height="18" stroke="black" fill="white"></rect>
    <text x="673" y="448" font-size="9" stroke="grey" fill="black" >1.14.12.-</text>
</g>
<g>
    <rect rxns="rxn06927" x="541" y="519" width="48" height="18" stroke="black" fill="white"></rect>
    <text x="544" y="532" font-size="9" stroke="grey" fill="black" >1.97.1.-</text>
</g>
<g>
    <rect rxns="rxn03786" x="605" y="560" width="48" height="18" stroke="black" fill="white"></rect>
    <text x="608" y="573" font-size="9" stroke="grey" fill="black" >1.14.11.-</text>
</g>
<g>
    <rect rxns="rxn03741" x="755" y="561" width="48" height="18" stroke="black" fill="white"></rect>
    <text x="758" y="574" font-size="9" stroke="grey" fill="black" >1.14.13.20</text>
</g>
<g>
    <rect rxns="rxn03706" x="895" y="663" width="48" height="18" stroke="black" fill="white"></rect>
    <text x="898" y="676" font-size="9" stroke="grey" fill="black" >1.13.11.2</text>
</g>
<g>
    <rect rxns="rxn02969" x="895" y="560" width="48" height="18" stroke="black" fill="white"></rect>
    <text x="898" y="573" font-size="9" stroke="grey" fill="black" >1.13.11.1</text>
</g>
<g>
    <rect rxns="rxn02970" x="1009" y="560" width="48" height="18" stroke="black" fill="white"></rect>
    <text x="1012" y="573" font-size="9" stroke="grey" fill="black" >5.5.1.7</text>
</g>
<g>
    <rect rxns="rxn03795" x="1025" y="662" width="48" height="18" stroke="black" fill="white"></rect>
    <text x="1028" y="675" font-size="9" stroke="grey" fill="black" >1.97.1.-</text>
</g>
<g>
    <rect rxns="rxn03691" x="1009" y="626" width="48" height="18" stroke="black" fill="white"></rect>
    <text x="1012" y="639" font-size="9" stroke="grey" fill="black" >5.5.1.1</text>
</g>
<g>
    <rect rxns="rxn03800" x="1195" y="626" width="48" height="18" stroke="black" fill="white"></rect>
    <text x="1198" y="639" font-size="9" stroke="grey" fill="black" >3.1.1.45</text>
</g>
<g>
    <rect rxns="rxn06545" x="755" y="348" width="48" height="18" stroke="black" fill="white"></rect>
    <text x="758" y="361" font-size="9" stroke="grey" fill="black" >1.14.13.50</text>
</g>
<g>
    <rect rxns="rxn03702" x="958" y="347" width="48" height="18" stroke="black" fill="white"></rect>
    <text x="961" y="360" font-size="9" stroke="grey" fill="black" >2.5.1.-</text>
</g>
<g>
    <rect rxns="rxn03703" x="1089" y="347" width="48" height="18" stroke="black" fill="white"></rect>
    <text x="1092" y="360" font-size="9" stroke="grey" fill="black" >2.5.1.-</text>
</g>
<g>
    <rect rxns="rxn03708" x="1195" y="418" width="48" height="18" stroke="black" fill="white"></rect>
    <text x="1198" y="431" font-size="9" stroke="grey" fill="black" >1.13.11.-</text>
</g>
<g>
    <rect rxns="rxn03748" x="755" y="382" width="48" height="18" stroke="black" fill="white"></rect>
    <text x="758" y="395" font-size="9" stroke="grey" fill="black" >1.14.13.-</text>
</g>
<g>
    <rect rxns="R09130,R09131" x="670" y="1013" width="48" height="18" stroke="black" fill="white"></rect>
    <text x="673" y="1026" font-size="9" stroke="grey" fill="black" >1.14.12.-</text>
</g>
<g>
    <rect rxns="R09132,R09133" x="786" y="1013" width="48" height="18" stroke="black" fill="white"></rect>
    <text x="789" y="1026" font-size="9" stroke="grey" fill="black" >1.3.1.-</text>
</g>
<g>
    <rect rxns="R09134" x="895" y="1013" width="48" height="18" stroke="black" fill="white"></rect>
    <text x="898" y="1026" font-size="9" stroke="grey" fill="black" >1.13.11.1</text>
</g>
<g>
    <rect rxns="R09135" x="1009" y="1013" width="48" height="18" stroke="black" fill="white"></rect>
    <text x="1012" y="1026" font-size="9" stroke="grey" fill="black" >5.5.1.7</text>
</g>
<g>
    <rect rxns="R09137,R09138" x="1288" y="1013" width="48" height="18" stroke="black" fill="white"></rect>
    <text x="1291" y="1026" font-size="9" stroke="grey" fill="black" >1.3.1.32</text>
</g>
<g>
    <rect rxns="R09136" x="1196" y="1013" width="48" height="18" stroke="black" fill="white"></rect>
    <text x="1199" y="1026" font-size="9" stroke="grey" fill="black" >3.1.1.45</text>
</g>
<g>
    <rect rxns="rxn07600" x="794" y="626" width="48" height="18" stroke="black" fill="white"></rect>
    <text x="797" y="639" font-size="9" stroke="grey" fill="black" >1.14.-.-</text>
</g>
<g>
    <rect rxns="rxn07601" x="674" y="626" width="48" height="18" stroke="black" fill="white"></rect>
    <text x="677" y="639" font-size="9" stroke="grey" fill="black" >1.97.1.-</text>
</g>
<g>
    <rect rxns="rxn03563" x="1100" y="905" width="48" height="18" stroke="black" fill="white"></rect>
    <text x="1103" y="918" font-size="9" stroke="grey" fill="black" >1.14.13.7</text>
</g>
<g>
    <rect rxns="rxn03749" x="755" y="307" width="48" height="18" stroke="black" fill="white"></rect>
    <text x="758" y="320" font-size="9" stroke="grey" fill="black" >1.14.13.-</text>
</g>
<g>
    <rect rxns="rxn03749" x="755" y="290" width="48" height="18" stroke="black" fill="white"></rect>
    <text x="758" y="303" font-size="9" stroke="grey" fill="black" >1.5.1.37</text>
</g>
<g>
    <rect rxns="R10042" x="673" y="113" width="48" height="18" stroke="black" fill="white"></rect>
    <text x="676" y="126" font-size="9" stroke="grey" fill="black" >1.14.13.-</text>
</g>
<g>
    <rect rxns="R10043" x="780" y="112" width="48" height="18" stroke="black" fill="white"></rect>
    <text x="783" y="125" font-size="9" stroke="grey" fill="black" >1.14.13.-</text>
</g>
</svg>