<svg>
<g>
    <rect rxns="rxn11810,rxn11811" x="794" y="216" width="48" height="18" stroke="black" fill="white"></rect>
    <text x="797" y="229" font-size="9" stroke="grey" fill="black" >1.2.1.5</text>
</g>
<g>
    <rect rxns="rxn11794" x="117" y="239" width="48" height="18" stroke="black" fill="white"></rect>
    <text x="120" y="252" font-size="9" stroke="grey" fill="black" >1.14.13.8</text>
</g>
<g>
    <rect rxns="rxn11799" x="240" y="162" width="48" height="18" stroke="black" fill="white"></rect>
    <text x="243" y="175" font-size="9" stroke="grey" fill="black" >1.14.14.1</text>
</g>
<g>
    <rect rxns="rxn11802" x="240" y="208" width="48" height="18" stroke="black" fill="white"></rect>
    <text x="243" y="221" font-size="9" stroke="grey" fill="black" >1.14.14.1</text>
</g>
<g>
    <rect rxns="rxn11796" x="128" y="297" width="48" height="18" stroke="black" fill="white"></rect>
    <text x="131" y="310" font-size="9" stroke="grey" fill="black" >1.14.14.1</text>
</g>
<g>
    <rect rxns="rxn11797" x="133" y="396" width="48" height="18" stroke="black" fill="white"></rect>
    <text x="136" y="409" font-size="9" stroke="grey" fill="black" >1.14.14.1</text>
</g>
<g>
    <rect rxns="rxn11795" x="77" y="349" width="48" height="18" stroke="black" fill="white"></rect>
    <text x="80" y="362" font-size="9" stroke="grey" fill="black" >1.14.14.1</text>
</g>
<g>
    <rect rxns="rxn11798" x="196" y="348" width="48" height="18" stroke="black" fill="white"></rect>
    <text x="199" y="361" font-size="9" stroke="grey" fill="black" >1.14.14.1</text>
</g>
<g>
    <rect rxns="rxn11800" x="240" y="296" width="48" height="18" stroke="black" fill="white"></rect>
    <text x="243" y="309" font-size="9" stroke="grey" fill="black" >1.14.14.1</text>
</g>
<g>
    <rect rxns="rxn11821" x="977" y="550" width="48" height="18" stroke="black" fill="white"></rect>
    <text x="980" y="563" font-size="9" stroke="grey" fill="black" >1.14.14.1</text>
</g>
<g>
    <rect rxns="rxn11822" x="951" y="573" width="48" height="18" stroke="black" fill="white"></rect>
    <text x="954" y="586" font-size="9" stroke="grey" fill="black" >1.14.14.1</text>
</g>
<g>
    <rect rxns="rxn11822" x="901" y="573" width="48" height="18" stroke="black" fill="white"></rect>
    <text x="904" y="586" font-size="9" stroke="grey" fill="black" >1.14.14.1</text>
</g>
<g>
    <rect rxns="rxn11821" x="977" y="529" width="48" height="18" stroke="black" fill="white"></rect>
    <text x="980" y="542" font-size="9" stroke="grey" fill="black" >1.14.14.1</text>
</g>
<g>
    <rect rxns="rxn11805" x="664" y="212" width="48" height="18" stroke="black" fill="white"></rect>
    <text x="667" y="225" font-size="9" stroke="grey" fill="black" >1.14.14.1</text>
</g>
<g>
    <rect rxns="rxn11813" x="589" y="327" width="48" height="18" stroke="black" fill="white"></rect>
    <text x="592" y="340" font-size="9" stroke="grey" fill="black" >1.14.14.1</text>
</g>
<g>
    <rect rxns="rxn11804" x="535" y="212" width="48" height="18" stroke="black" fill="white"></rect>
    <text x="538" y="225" font-size="9" stroke="grey" fill="black" >1.14.14.1</text>
</g>
<g>
    <rect rxns="rxn11803" x="589" y="264" width="48" height="18" stroke="black" fill="white"></rect>
    <text x="592" y="277" font-size="9" stroke="grey" fill="black" >1.14.14.1</text>
</g>
<g>
    <rect rxns="rxn11814,rxn11815" x="510" y="347" width="48" height="18" stroke="black" fill="white"></rect>
    <text x="513" y="360" font-size="9" stroke="grey" fill="black" >1.14.14.1</text>
</g>
<g>
    <rect rxns="rxn11814,rxn11815" x="560" y="347" width="48" height="18" stroke="black" fill="white"></rect>
    <text x="563" y="360" font-size="9" stroke="grey" fill="black" >1.14.14.1</text>
</g>
<g>
    <rect rxns="rxn11803" x="589" y="245" width="48" height="18" stroke="black" fill="white"></rect>
    <text x="592" y="258" font-size="9" stroke="grey" fill="black" >1.14.14.1</text>
</g>
<g>
    <rect rxns="rxn11803" x="589" y="226" width="48" height="18" stroke="black" fill="white"></rect>
    <text x="592" y="239" font-size="9" stroke="grey" fill="black" >1.14.14.1</text>
</g>
<g>
    <rect rxns="rxn11813" x="589" y="308" width="48" height="18" stroke="black" fill="white"></rect>
    <text x="592" y="321" font-size="9" stroke="grey" fill="black" >1.14.14.1</text>
</g>
<g>
    <rect rxns="rxn11808" x="743" y="183" width="48" height="18" stroke="black" fill="white"></rect>
    <text x="746" y="196" font-size="9" stroke="grey" fill="black" >2.5.1.18</text>
</g>
<g>
    <rect rxns="rxn11809" x="794" y="197" width="48" height="18" stroke="black" fill="white"></rect>
    <text x="797" y="210" font-size="9" stroke="grey" fill="black" >1.1.1.1</text>
</g>
<g>
    <rect rxns="rxn11992" x="68" y="570" width="48" height="18" stroke="black" fill="white"></rect>
    <text x="71" y="583" font-size="9" stroke="grey" fill="black" >1.14.14.1</text>
</g>
<g>
    <rect rxns="rxn11789" x="117" y="497" width="48" height="18" stroke="black" fill="white"></rect>
    <text x="120" y="510" font-size="9" stroke="grey" fill="black" >2.4.1.17</text>
</g>
<g>
    <rect rxns="rxn11790" x="116" y="647" width="48" height="18" stroke="black" fill="white"></rect>
    <text x="119" y="660" font-size="9" stroke="grey" fill="black" >2.4.1.17</text>
</g>
<g>
    <rect rxns="rxn11851,rxn11852,rxn11853" x="1073" y="894" width="48" height="18" stroke="black" fill="white"></rect>
    <text x="1076" y="907" font-size="9" stroke="grey" fill="black" >1.14.14.1</text>
</g>
<g>
    <rect rxns="rxn11851,rxn11852,rxn11853" x="1097" y="875" width="48" height="18" stroke="black" fill="white"></rect>
    <text x="1100" y="888" font-size="9" stroke="grey" fill="black" >1.14.14.1</text>
</g>
<g>
    <rect rxns="rxn11851,rxn11852,rxn11853" x="1123" y="894" width="48" height="18" stroke="black" fill="white"></rect>
    <text x="1126" y="907" font-size="9" stroke="grey" fill="black" >1.14.14.1</text>
</g>
<g>
    <rect rxns="rxn11866" x="483" y="540" width="48" height="18" stroke="black" fill="white"></rect>
    <text x="486" y="553" font-size="9" stroke="grey" fill="black" >1.14.14.1</text>
</g>
<g>
    <rect rxns="rxn11868" x="481" y="619" width="48" height="18" stroke="black" fill="white"></rect>
    <text x="484" y="632" font-size="9" stroke="grey" fill="black" >1.14.14.1</text>
</g>
<g>
    <rect rxns="rxn11840" x="616" y="928" width="48" height="18" stroke="black" fill="white"></rect>
    <text x="619" y="941" font-size="9" stroke="grey" fill="black" >1.14.14.1</text>
</g>
<g>
    <rect rxns="rxn11870" x="1197" y="255" width="48" height="18" stroke="black" fill="white"></rect>
    <text x="1200" y="268" font-size="9" stroke="grey" fill="black" >1.14.14.1</text>
</g>
<g>
    <rect rxns="rxn11872" x="1172" y="322" width="48" height="18" stroke="black" fill="white"></rect>
    <text x="1175" y="335" font-size="9" stroke="grey" fill="black" >1.14.14.1</text>
</g>
<g>
    <rect rxns="rxn11870" x="1172" y="236" width="48" height="18" stroke="black" fill="white"></rect>
    <text x="1175" y="249" font-size="9" stroke="grey" fill="black" >1.14.14.1</text>
</g>
<g>
    <rect rxns="rxn12038" x="1224" y="208" width="48" height="18" stroke="black" fill="white"></rect>
    <text x="1227" y="221" font-size="9" stroke="grey" fill="black" >1.4.3.4</text>
</g>
<g>
    <rect rxns="rxn12039" x="1224" y="291" width="48" height="18" stroke="black" fill="white"></rect>
    <text x="1227" y="304" font-size="9" stroke="grey" fill="black" >1.4.3.4</text>
</g>
<g>
    <rect rxns="rxn11875" x="1224" y="360" width="48" height="18" stroke="black" fill="white"></rect>
    <text x="1227" y="373" font-size="9" stroke="grey" fill="black" >1.4.3.4</text>
</g>
<g>
    <rect rxns="rxn11876" x="1325" y="291" width="48" height="18" stroke="black" fill="white"></rect>
    <text x="1328" y="304" font-size="9" stroke="grey" fill="black" >1.2.3.1</text>
</g>
<g>
    <rect rxns="rxn11831" x="51" y="834" width="48" height="18" stroke="black" fill="white"></rect>
    <text x="54" y="847" font-size="9" stroke="grey" fill="black" >1.14.14.1</text>
</g>
<g>
    <rect rxns="rxn11832" x="51" y="889" width="48" height="18" stroke="black" fill="white"></rect>
    <text x="54" y="902" font-size="9" stroke="grey" fill="black" >1.14.14.1</text>
</g>
<g>
    <rect rxns="rxn11832" x="101" y="889" width="48" height="18" stroke="black" fill="white"></rect>
    <text x="104" y="902" font-size="9" stroke="grey" fill="black" >1.14.14.1</text>
</g>
<g>
    <rect rxns="rxn11831" x="101" y="834" width="48" height="18" stroke="black" fill="white"></rect>
    <text x="104" y="847" font-size="9" stroke="grey" fill="black" >1.14.14.1</text>
</g>
<g>
    <rect rxns="rxn11834" x="198" y="861" width="48" height="18" stroke="black" fill="white"></rect>
    <text x="201" y="874" font-size="9" stroke="grey" fill="black" >1.1.1.1</text>
</g>
<g>
    <rect rxns="rxn11838" x="288" y="932" width="48" height="18" stroke="black" fill="white"></rect>
    <text x="291" y="945" font-size="9" stroke="grey" fill="black" >1.1.1.1</text>
</g>
<g>
    <rect rxns="rxn11835" x="288" y="861" width="48" height="18" stroke="black" fill="white"></rect>
    <text x="291" y="874" font-size="9" stroke="grey" fill="black" >1.2.1.5</text>
</g>
<g>
    <rect rxns="rxn12031" x="127" y="539" width="48" height="18" stroke="black" fill="white"></rect>
    <text x="130" y="552" font-size="9" stroke="grey" fill="black" >1.14.14.1</text>
</g>
<g>
    <rect rxns="rxn11791" x="116" y="684" width="48" height="18" stroke="black" fill="white"></rect>
    <text x="119" y="697" font-size="9" stroke="grey" fill="black" >2.4.1.17</text>
</g>
<g>
    <rect rxns="rxn11813" x="589" y="289" width="48" height="18" stroke="black" fill="white"></rect>
    <text x="592" y="302" font-size="9" stroke="grey" fill="black" >1.14.14.1</text>
</g>
<g>
    <rect rxns="rxn11842" x="717" y="940" width="48" height="18" stroke="black" fill="white"></rect>
    <text x="720" y="953" font-size="9" stroke="grey" fill="black" >3.3.2.-</text>
</g>
<g>
    <rect rxns="rxn11841" x="616" y="883" width="48" height="18" stroke="black" fill="white"></rect>
    <text x="619" y="896" font-size="9" stroke="grey" fill="black" >1.14.14.1</text>
</g>
<g>
    <rect rxns="rxn11846" x="671" y="805" width="48" height="18" stroke="black" fill="white"></rect>
    <text x="674" y="818" font-size="9" stroke="grey" fill="black" >1.14.14.1</text>
</g>
<g>
    <rect rxns="rxn11841" x="616" y="904" width="48" height="18" stroke="black" fill="white"></rect>
    <text x="619" y="917" font-size="9" stroke="grey" fill="black" >1.14.14.1</text>
</g>
<g>
    <rect rxns="rxn11840" x="616" y="949" width="48" height="18" stroke="black" fill="white"></rect>
    <text x="619" y="962" font-size="9" stroke="grey" fill="black" >1.14.14.1</text>
</g>
<g>
    <rect rxns="rxn11854" x="1141" y="920" width="48" height="18" stroke="black" fill="white"></rect>
    <text x="1144" y="933" font-size="9" stroke="grey" fill="black" >1.14.14.1</text>
</g>
<g>
    <rect rxns="rxn11869" x="604" y="620" width="48" height="18" stroke="black" fill="white"></rect>
    <text x="607" y="633" font-size="9" stroke="grey" fill="black" >1.14.14.1</text>
</g>
<g>
    <rect rxns="rxn11867" x="602" y="540" width="48" height="18" stroke="black" fill="white"></rect>
    <text x="605" y="553" font-size="9" stroke="grey" fill="black" >1.14.14.1</text>
</g>
<g>
    <rect rxns="rxn11870" x="1147" y="255" width="48" height="18" stroke="black" fill="white"></rect>
    <text x="1150" y="268" font-size="9" stroke="grey" fill="black" >1.14.14.1</text>
</g>
<g>
    <rect rxns="rxn11871" x="1215" y="162" width="48" height="18" stroke="black" fill="white"></rect>
    <text x="1218" y="175" font-size="9" stroke="grey" fill="black" >1.14.14.1</text>
</g>
</svg>