<svg>
<g>
    <rect rxns="rxn01471" x="334" y="157" width="48" height="18" stroke="black" fill="white"></rect>
    <text x="337" y="170" font-size="9" stroke="grey" fill="black" >4.2.3.15</text>
</g>
<g>
    <rect rxns="rxn07448" x="386" y="157" width="48" height="18" stroke="black" fill="white"></rect>
    <text x="389" y="170" font-size="9" stroke="grey" fill="black" >4.2.3.26</text>
</g>
<g>
    <rect rxns="rxn12058" x="102" y="157" width="48" height="18" stroke="black" fill="white"></rect>
    <text x="105" y="170" font-size="9" stroke="grey" fill="black" >3.1.7.3</text>
</g>
<g>
    <rect rxns="rxn14390" x="102" y="218" width="48" height="18" stroke="black" fill="white"></rect>
    <text x="105" y="231" font-size="9" stroke="grey" fill="black" >1.14.13.152</text>
</g>
<g>
    <rect rxns="rxn02535" x="150" y="499" width="48" height="18" stroke="black" fill="white"></rect>
    <text x="153" y="512" font-size="9" stroke="grey" fill="black" >2.1.1.50</text>
</g>
<g>
    <rect rxns="rxn02537" x="102" y="465" width="48" height="18" stroke="black" fill="white"></rect>
    <text x="105" y="478" font-size="9" stroke="grey" fill="black" >1.14.13.74</text>
</g>
<g>
    <rect rxns="rxn02536" x="102" y="524" width="48" height="18" stroke="black" fill="white"></rect>
    <text x="105" y="537" font-size="9" stroke="grey" fill="black" >1.3.3.9</text>
</g>
<g>
    <rect rxns="rxn04065" x="201" y="465" width="48" height="18" stroke="black" fill="white"></rect>
    <text x="204" y="478" font-size="9" stroke="grey" fill="black" >1.14.13.74</text>
</g>
<g>
    <rect rxns="rxn04066" x="201" y="524" width="48" height="18" stroke="black" fill="white"></rect>
    <text x="204" y="537" font-size="9" stroke="grey" fill="black" >1.3.3.9</text>
</g>
<g>
    <rect rxns="rxn04067" x="150" y="560" width="48" height="18" stroke="black" fill="white"></rect>
    <text x="153" y="573" font-size="9" stroke="grey" fill="black" >2.1.1.50</text>
</g>
<g>
    <rect rxns="rxn01468" x="956" y="157" width="48" height="18" stroke="black" fill="white"></rect>
    <text x="959" y="170" font-size="9" stroke="grey" fill="black" >4.2.3.11</text>
</g>
<g>
    <rect rxns="rxn01467" x="893" y="157" width="48" height="18" stroke="black" fill="white"></rect>
    <text x="896" y="170" font-size="9" stroke="grey" fill="black" >4.2.3.10</text>
</g>
<g>
    <rect rxns="rxn04019" x="831" y="157" width="48" height="18" stroke="black" fill="white"></rect>
    <text x="834" y="170" font-size="9" stroke="grey" fill="black" >4.2.3.120</text>
</g>
<g>
    <rect rxns="rxn04018" x="769" y="157" width="48" height="18" stroke="black" fill="white"></rect>
    <text x="772" y="170" font-size="9" stroke="grey" fill="black" >4.2.3.119</text>
</g>
<g>
    <rect rxns="rxn04136" x="710" y="157" width="48" height="18" stroke="black" fill="white"></rect>
    <text x="713" y="170" font-size="9" stroke="grey" fill="black" >4.2.3.20</text>
</g>
<g>
    <rect rxns="rxn01473" x="540" y="157" width="48" height="18" stroke="black" fill="white"></rect>
    <text x="543" y="170" font-size="9" stroke="grey" fill="black" >4.2.3.16</text>
</g>
<g>
    <rect rxns="rxn01469" x="710" y="94" width="48" height="18" stroke="black" fill="white"></rect>
    <text x="713" y="107" font-size="9" stroke="grey" fill="black" >5.5.1.8</text>
</g>
<g>
    <rect rxns="rxn04134" x="710" y="296" width="48" height="18" stroke="black" fill="white"></rect>
    <text x="713" y="309" font-size="9" stroke="grey" fill="black" >1.1.1.275</text>
</g>
<g>
    <rect rxns="rxn02234" x="540" y="296" width="48" height="18" stroke="black" fill="white"></rect>
    <text x="543" y="309" font-size="9" stroke="grey" fill="black" >1.1.1.243</text>
</g>
<g>
    <rect rxns="rxn02336" x="473" y="296" width="48" height="18" stroke="black" fill="white"></rect>
    <text x="476" y="309" font-size="9" stroke="grey" fill="black" >1.1.1.223</text>
</g>
<g>
    <rect rxns="rxn04135" x="710" y="232" width="48" height="18" stroke="black" fill="white"></rect>
    <text x="713" y="245" font-size="9" stroke="grey" fill="black" >1.14.13.80</text>
</g>
<g>
    <rect rxns="rxn01788" x="608" y="232" width="48" height="18" stroke="black" fill="white"></rect>
    <text x="611" y="245" font-size="9" stroke="grey" fill="black" >1.14.13.49</text>
</g>
<g>
    <rect rxns="rxn01786" x="540" y="232" width="48" height="18" stroke="black" fill="white"></rect>
    <text x="543" y="245" font-size="9" stroke="grey" fill="black" >1.14.13.48</text>
</g>
<g>
    <rect rxns="rxn01787" x="473" y="232" width="48" height="18" stroke="black" fill="white"></rect>
    <text x="476" y="245" font-size="9" stroke="grey" fill="black" >1.14.13.47</text>
</g>
<g>
    <rect rxns="rxn01850" x="540" y="557" width="48" height="18" stroke="black" fill="white"></rect>
    <text x="543" y="570" font-size="9" stroke="grey" fill="black" >1.1.1.208</text>
</g>
<g>
    <rect rxns="rxn01566" x="473" y="557" width="48" height="18" stroke="black" fill="white"></rect>
    <text x="476" y="570" font-size="9" stroke="grey" fill="black" >1.1.1.207</text>
</g>
<g>
    <rect rxns="rxn14271" x="473" y="363" width="48" height="18" stroke="black" fill="white"></rect>
    <text x="476" y="376" font-size="9" stroke="grey" fill="black" >1.3.1.82</text>
</g>
<g>
    <rect rxns="rxn14337" x="769" y="94" width="48" height="18" stroke="black" fill="white"></rect>
    <text x="772" y="107" font-size="9" stroke="grey" fill="black" >4.2.3.-</text>
</g>
<g>
    <rect rxns="rxn04283" x="1018" y="157" width="48" height="18" stroke="black" fill="white"></rect>
    <text x="1021" y="170" font-size="9" stroke="grey" fill="black" >4.2.3.108</text>
</g>
<g>
    <rect rxns="rxn04284" x="1018" y="233" width="48" height="18" stroke="black" fill="white"></rect>
    <text x="1021" y="246" font-size="9" stroke="grey" fill="black" >4.2.3.108</text>
</g>
<g>
    <rect rxns="rxn02147" x="1018" y="370" width="48" height="18" stroke="black" fill="white"></rect>
    <text x="1021" y="383" font-size="9" stroke="grey" fill="black" >1.1.1.241</text>
</g>
<g>
    <rect rxns="rxn02148" x="1018" y="428" width="48" height="18" stroke="black" fill="white"></rect>
    <text x="1021" y="441" font-size="9" stroke="grey" fill="black" >1.14.13.51</text>
</g>
<g>
    <rect rxns="rxn04281" x="473" y="468" width="48" height="18" stroke="black" fill="white"></rect>
    <text x="476" y="481" font-size="9" stroke="grey" fill="black" >1.3.1.81</text>
</g>
<g>
    <rect rxns="rxn04282" x="607" y="468" width="48" height="18" stroke="black" fill="white"></rect>
    <text x="610" y="481" font-size="9" stroke="grey" fill="black" >1.3.1.81</text>
</g>
<g>
    <rect rxns="rxn14129" x="539" y="468" width="48" height="18" stroke="black" fill="white"></rect>
    <text x="542" y="481" font-size="9" stroke="grey" fill="black" >1.14.13.104</text>
</g>
<g>
    <rect rxns="rxn13988" x="607" y="557" width="48" height="18" stroke="black" fill="white"></rect>
    <text x="610" y="570" font-size="9" stroke="grey" fill="black" >1.14.13.105</text>
</g>
<g>
    <rect rxns="rxn07447" x="251" y="157" width="48" height="18" stroke="black" fill="white"></rect>
    <text x="254" y="170" font-size="9" stroke="grey" fill="black" >4.2.3.25</text>
</g>
<g>
    <rect rxns="R09708" x="160" y="194" width="48" height="18" stroke="black" fill="white"></rect>
    <text x="163" y="207" font-size="9" stroke="grey" fill="black" >5.4.4.4</text>
</g>
<g>
    <rect rxns="R09702" x="296" y="194" width="48" height="18" stroke="black" fill="white"></rect>
    <text x="299" y="207" font-size="9" stroke="grey" fill="black" >4.2.1.127</text>
</g>
<g>
    <rect rxns="R09922" x="252" y="232" width="48" height="18" stroke="black" fill="white"></rect>
    <text x="255" y="245" font-size="9" stroke="grey" fill="black" >1.14.13.151</text>
</g>
<g>
    <rect rxns="R09923" x="386" y="232" width="48" height="18" stroke="black" fill="white"></rect>
    <text x="389" y="245" font-size="9" stroke="grey" fill="black" >1.14.13.151</text>
</g>
<g>
    <rect rxns="R09924" x="317" y="296" width="48" height="18" stroke="black" fill="white"></rect>
    <text x="320" y="309" font-size="9" stroke="grey" fill="black" >1.14.13.151</text>
</g>
<g>
    <rect rxns="rxn14222" x="102" y="270" width="48" height="18" stroke="black" fill="white"></rect>
    <text x="105" y="283" font-size="9" stroke="grey" fill="black" >1.1.1.324</text>
</g>
<g>
    <rect rxns="R08784" x="1017" y="300" width="48" height="18" stroke="black" fill="white"></rect>
    <text x="1020" y="313" font-size="9" stroke="grey" fill="black" >1.14.13.156</text>
</g>
</svg>