<svg>
<g>
    <rect rxns="rxn00216" x="211" y="153" width="48" height="18" stroke="black" fill="white"></rect>
    <text x="214" y="166" font-size="9" stroke="grey" fill="black" >2.7.1.2</text>
</g>
<g>
    <rect rxns="rxn00216" x="161" y="153" width="48" height="18" stroke="black" fill="white"></rect>
    <text x="164" y="166" font-size="9" stroke="grey" fill="black" >2.7.1.1</text>
</g>
<g>
    <rect rxns="rxn02426" x="76" y="371" width="48" height="18" stroke="black" fill="white"></rect>
    <text x="79" y="384" font-size="9" stroke="grey" fill="black" >2.7.1.65</text>
</g>
<g>
    <rect rxns="rxn00883" x="76" y="216" width="48" height="18" stroke="black" fill="white"></rect>
    <text x="79" y="229" font-size="9" stroke="grey" fill="black" >3.1.3.25</text>
</g>
<g>
    <rect rxns="rxn05072" x="138" y="195" width="48" height="18" stroke="black" fill="white"></rect>
    <text x="141" y="208" font-size="9" stroke="grey" fill="black" >5.5.1.4</text>
</g>
<g>
    <rect rxns="rxn02003" x="299" y="511" width="48" height="18" stroke="black" fill="white"></rect>
    <text x="302" y="524" font-size="9" stroke="grey" fill="black" >1.1.1.133</text>
</g>
<g>
    <rect rxns="rxn01593" x="144" y="869" width="48" height="18" stroke="black" fill="white"></rect>
    <text x="147" y="882" font-size="9" stroke="grey" fill="black" >2.7.1.72</text>
</g>
<g>
    <rect rxns="rxn01596" x="144" y="838" width="48" height="18" stroke="black" fill="white"></rect>
    <text x="147" y="851" font-size="9" stroke="grey" fill="black" >3.1.3.39</text>
</g>
<g>
    <rect rxns="rxn02000" x="299" y="419" width="48" height="18" stroke="black" fill="white"></rect>
    <text x="302" y="432" font-size="9" stroke="grey" fill="black" >5.1.3.13</text>
</g>
<g>
    <rect rxns="rxn01997" x="299" y="327" width="48" height="18" stroke="black" fill="white"></rect>
    <text x="302" y="340" font-size="9" stroke="grey" fill="black" >4.2.1.46</text>
</g>
<g>
    <rect rxns="rxn01675" x="299" y="235" width="48" height="18" stroke="black" fill="white"></rect>
    <text x="302" y="248" font-size="9" stroke="grey" fill="black" >2.7.7.24</text>
</g>
<g>
    <rect rxns="rxn00704" x="241" y="195" width="48" height="18" stroke="black" fill="white"></rect>
    <text x="244" y="208" font-size="9" stroke="grey" fill="black" >5.4.2.2</text>
</g>
<g>
    <rect rxns="rxn02488" x="76" y="423" width="48" height="18" stroke="black" fill="white"></rect>
    <text x="79" y="436" font-size="9" stroke="grey" fill="black" >2.1.4.2</text>
</g>
<g>
    <rect rxns="rxn00879" x="76" y="268" width="48" height="18" stroke="black" fill="white"></rect>
    <text x="79" y="281" font-size="9" stroke="grey" fill="black" >1.1.1.18</text>
</g>
<g>
    <rect rxns="rxn02006" x="76" y="319" width="48" height="18" stroke="black" fill="white"></rect>
    <text x="79" y="332" font-size="9" stroke="grey" fill="black" >2.6.1.50</text>
</g>
<g>
    <rect rxns="rxn02499" x="76" y="475" width="48" height="18" stroke="black" fill="white"></rect>
    <text x="79" y="488" font-size="9" stroke="grey" fill="black" >3.1.3.40</text>
</g>
<g>
    <rect rxns="rxn02502" x="76" y="569" width="48" height="18" stroke="black" fill="white"></rect>
    <text x="79" y="582" font-size="9" stroke="grey" fill="black" >2.6.1.56</text>
</g>
<g>
    <rect rxns="rxn02947" x="299" y="722" width="48" height="18" stroke="black" fill="white"></rect>
    <text x="302" y="735" font-size="9" stroke="grey" fill="black" >2.4.2.27</text>
</g>
</svg>