<svg>
<g>
    <rect rxns="rxn05109" x="452" y="209" width="48" height="18" stroke="black" fill="white"></rect>
    <text x="455" y="222" font-size="9" stroke="grey" fill="black" >2.3.1.182</text>
</g>
<g>
    <rect rxns="rxn02751" x="247" y="174" width="48" height="18" stroke="black" fill="white"></rect>
    <text x="250" y="187" font-size="9" stroke="grey" fill="black" >4.2.1.35</text>
</g>
<g>
    <rect rxns="rxn00735" x="156" y="199" width="48" height="18" stroke="black" fill="white"></rect>
    <text x="159" y="212" font-size="9" stroke="grey" fill="black" >1.1.1.85</text>
</g>
<g>
    <rect rxns="rxn00737" x="106" y="231" width="48" height="18" stroke="black" fill="white"></rect>
    <text x="109" y="244" font-size="9" stroke="grey" fill="black" >4.3.1.19</text>
</g>
<g>
    <rect rxns="rxn01575" x="131" y="556" width="48" height="18" stroke="black" fill="white"></rect>
    <text x="134" y="569" font-size="9" stroke="grey" fill="black" >2.6.1.42</text>
</g>
<g>
    <rect rxns="rxn00806" x="679" y="676" width="48" height="18" stroke="black" fill="white"></rect>
    <text x="682" y="689" font-size="9" stroke="grey" fill="black" >2.6.1.6</text>
</g>
<g>
    <rect rxns="rxn00806" x="653" y="695" width="48" height="18" stroke="black" fill="white"></rect>
    <text x="656" y="708" font-size="9" stroke="grey" fill="black" >2.6.1.42</text>
</g>
<g>
    <rect rxns="rxn03435" x="156" y="420" width="48" height="18" stroke="black" fill="white"></rect>
    <text x="159" y="433" font-size="9" stroke="grey" fill="black" >1.1.1.86</text>
</g>
<g>
    <rect rxns="rxn02789" x="510" y="521" width="48" height="18" stroke="black" fill="white"></rect>
    <text x="513" y="534" font-size="9" stroke="grey" fill="black" >4.2.1.33</text>
</g>
<g>
    <rect rxns="rxn03062" x="679" y="556" width="48" height="18" stroke="black" fill="white"></rect>
    <text x="682" y="569" font-size="9" stroke="grey" fill="black" >1.1.1.85</text>
</g>
<g>
    <rect rxns="rxn02811" x="622" y="521" width="48" height="18" stroke="black" fill="white"></rect>
    <text x="625" y="534" font-size="9" stroke="grey" fill="black" >4.2.1.33</text>
</g>
<g>
    <rect rxns="rxn00902" x="388" y="515" width="48" height="18" stroke="black" fill="white"></rect>
    <text x="391" y="528" font-size="9" stroke="grey" fill="black" >2.3.3.13</text>
</g>
<g>
    <rect rxns="rxn00904" x="373" y="556" width="48" height="18" stroke="black" fill="white"></rect>
    <text x="376" y="569" font-size="9" stroke="grey" fill="black" >2.6.1.66</text>
</g>
<g>
    <rect rxns="rxn00903" x="273" y="556" width="48" height="18" stroke="black" fill="white"></rect>
    <text x="276" y="569" font-size="9" stroke="grey" fill="black" >2.6.1.42</text>
</g>
<g>
    <rect rxns="rxn00898" x="298" y="486" width="48" height="18" stroke="black" fill="white"></rect>
    <text x="301" y="499" font-size="9" stroke="grey" fill="black" >4.2.1.9</text>
</g>
<g>
    <rect rxns="rxn03436" x="131" y="352" width="48" height="18" stroke="black" fill="white"></rect>
    <text x="134" y="365" font-size="9" stroke="grey" fill="black" >1.1.1.86</text>
</g>
<g>
    <rect rxns="rxn03436" x="181" y="352" width="48" height="18" stroke="black" fill="white"></rect>
    <text x="184" y="365" font-size="9" stroke="grey" fill="black" >5.4.99.3</text>
</g>
<g>
    <rect rxns="rxn02187" x="273" y="352" width="48" height="18" stroke="black" fill="white"></rect>
    <text x="276" y="365" font-size="9" stroke="grey" fill="black" >1.1.1.86</text>
</g>
<g>
    <rect rxns="rxn03437" x="156" y="486" width="48" height="18" stroke="black" fill="white"></rect>
    <text x="159" y="499" font-size="9" stroke="grey" fill="black" >4.2.1.9</text>
</g>
<g>
    <rect rxns="rxn03068" x="298" y="420" width="48" height="18" stroke="black" fill="white"></rect>
    <text x="301" y="433" font-size="9" stroke="grey" fill="black" >1.1.1.86</text>
</g>
<g>
    <rect rxns="rxn08043" x="156" y="284" width="48" height="18" stroke="black" fill="white"></rect>
    <text x="159" y="297" font-size="9" stroke="grey" fill="black" >2.2.1.6</text>
</g>
<g>
    <rect rxns="rxn02187" x="323" y="352" width="48" height="18" stroke="black" fill="white"></rect>
    <text x="326" y="365" font-size="9" stroke="grey" fill="black" >5.4.99.3</text>
</g>
<g>
    <rect rxns="rxn00804" x="703" y="695" width="48" height="18" stroke="black" fill="white"></rect>
    <text x="706" y="708" font-size="9" stroke="grey" fill="black" >1.4.1.9</text>
</g>
<g>
    <rect rxns="rxn01045" x="323" y="556" width="48" height="18" stroke="black" fill="white"></rect>
    <text x="326" y="569" font-size="9" stroke="grey" fill="black" >1.4.1.9</text>
</g>
<g>
    <rect rxns="rxn01573" x="181" y="556" width="48" height="18" stroke="black" fill="white"></rect>
    <text x="184" y="569" font-size="9" stroke="grey" fill="black" >1.4.1.9</text>
</g>
<g>
    <rect rxns="rxn02749" x="388" y="173" width="48" height="18" stroke="black" fill="white"></rect>
    <text x="391" y="186" font-size="9" stroke="grey" fill="black" >4.2.1.35</text>
</g>
<g>
    <rect rxns="rxn00003" x="298" y="284" width="48" height="18" stroke="black" fill="white"></rect>
    <text x="301" y="297" font-size="9" stroke="grey" fill="black" >2.2.1.6</text>
</g>
</svg>