<svg>
<g>
    <rect rxns="rxn06313" x="527" y="798" width="48" height="18" stroke="black" fill="white"></rect>
    <text x="530" y="811" font-size="9" stroke="grey" fill="black" >2.3.1.25</text>
</g>
<g>
    <rect rxns="rxn06313" x="527" y="819" width="48" height="18" stroke="black" fill="white"></rect>
    <text x="530" y="832" font-size="9" stroke="grey" fill="black" >2.3.1.104</text>
</g>
<g>
    <rect rxns="rxn06601" x="302" y="229" width="48" height="18" stroke="black" fill="white"></rect>
    <text x="305" y="242" font-size="9" stroke="grey" fill="black" >2.7.1.93</text>
</g>
<g>
    <rect rxns="rxn06663" x="372" y="229" width="48" height="18" stroke="black" fill="white"></rect>
    <text x="375" y="242" font-size="9" stroke="grey" fill="black" >1.1.1.101</text>
</g>
<g>
    <rect rxns="rxn06644" x="373" y="159" width="48" height="18" stroke="black" fill="white"></rect>
    <text x="376" y="172" font-size="9" stroke="grey" fill="black" >2.5.1.26</text>
</g>
<g>
    <rect rxns="rxn06664" x="590" y="304" width="48" height="18" stroke="black" fill="white"></rect>
    <text x="593" y="317" font-size="9" stroke="grey" fill="black" >2.3.1.-</text>
</g>
<g>
    <rect rxns="rxn06610" x="590" y="374" width="48" height="18" stroke="black" fill="white"></rect>
    <text x="593" y="387" font-size="9" stroke="grey" fill="black" >3.1.3.4</text>
</g>
<g>
    <rect rxns="rxn06386" x="157" y="304" width="48" height="18" stroke="black" fill="white"></rect>
    <text x="160" y="317" font-size="9" stroke="grey" fill="black" >2.3.1.105</text>
</g>
<g>
    <rect rxns="rxn06385" x="157" y="374" width="48" height="18" stroke="black" fill="white"></rect>
    <text x="160" y="387" font-size="9" stroke="grey" fill="black" >3.1.3.59</text>
</g>
<g>
    <rect rxns="rxn06652" x="157" y="444" width="48" height="18" stroke="black" fill="white"></rect>
    <text x="160" y="457" font-size="9" stroke="grey" fill="black" >2.7.8.2</text>
</g>
<g>
    <rect rxns="rxn07100" x="590" y="444" width="48" height="18" stroke="black" fill="white"></rect>
    <text x="593" y="457" font-size="9" stroke="grey" fill="black" >2.7.8.1</text>
</g>
<g>
    <rect rxns="rxn07266" x="291" y="444" width="48" height="18" stroke="black" fill="white"></rect>
    <text x="294" y="457" font-size="9" stroke="grey" fill="black" >2.7.8.2</text>
</g>
<g>
    <rect rxns="rxn06666" x="108" y="412" width="48" height="18" stroke="black" fill="white"></rect>
    <text x="111" y="425" font-size="9" stroke="grey" fill="black" >2.3.1.125</text>
</g>
<g>
    <rect rxns="rxn03077" x="136" y="512" width="48" height="18" stroke="black" fill="white"></rect>
    <text x="139" y="525" font-size="9" stroke="grey" fill="black" >3.1.1.47</text>
</g>
<g>
    <rect rxns="rxn07264" x="248" y="549" width="48" height="18" stroke="black" fill="white"></rect>
    <text x="251" y="562" font-size="9" stroke="grey" fill="black" >3.1.1.4</text>
</g>
<g>
    <rect rxns="rxn06379" x="200" y="567" width="48" height="18" stroke="black" fill="white"></rect>
    <text x="203" y="580" font-size="9" stroke="grey" fill="black" >2.3.1.63</text>
</g>
<g>
    <rect rxns="rxn02462" x="180" y="532" width="48" height="18" stroke="black" fill="white"></rect>
    <text x="183" y="545" font-size="9" stroke="grey" fill="black" >2.3.1.67</text>
</g>
<g>
    <rect rxns="rxn07256" x="518" y="566" width="48" height="18" stroke="black" fill="white"></rect>
    <text x="521" y="579" font-size="9" stroke="grey" fill="black" >3.1.1.4</text>
</g>
<g>
    <rect rxns="rxn06686" x="518" y="547" width="48" height="18" stroke="black" fill="white"></rect>
    <text x="521" y="560" font-size="9" stroke="grey" fill="black" >2.3.1.121</text>
</g>
<g>
    <rect rxns="rxn06730" x="589" y="507" width="48" height="18" stroke="black" fill="white"></rect>
    <text x="592" y="520" font-size="9" stroke="grey" fill="black" >1.14.99.19</text>
</g>
<g>
    <rect rxns="rxn06374" x="462" y="516" width="48" height="18" stroke="black" fill="white"></rect>
    <text x="465" y="529" font-size="9" stroke="grey" fill="black" >3.3.2.5</text>
</g>
<g>
    <rect rxns="rxn07261" x="570" y="647" width="48" height="18" stroke="black" fill="white"></rect>
    <text x="573" y="660" font-size="9" stroke="grey" fill="black" >2.7.8.1</text>
</g>
<g>
    <rect rxns="rxn07262" x="518" y="647" width="48" height="18" stroke="black" fill="white"></rect>
    <text x="521" y="660" font-size="9" stroke="grey" fill="black" >3.1.4.4</text>
</g>
<g>
    <rect rxns="rxn07258" x="615" y="669" width="48" height="18" stroke="black" fill="white"></rect>
    <text x="618" y="682" font-size="9" stroke="grey" fill="black" >3.1.4.3</text>
</g>
<g>
    <rect rxns="rxn07263" x="727" y="669" width="48" height="18" stroke="black" fill="white"></rect>
    <text x="730" y="682" font-size="9" stroke="grey" fill="black" >2.6.-.-</text>
</g>
<g>
    <rect rxns="rxn06314" x="589" y="771" width="48" height="18" stroke="black" fill="white"></rect>
    <text x="592" y="784" font-size="9" stroke="grey" fill="black" >2.7.8.22</text>
</g>
<g>
    <rect rxns="rxn06232" x="482" y="845" width="48" height="18" stroke="black" fill="white"></rect>
    <text x="485" y="858" font-size="9" stroke="grey" fill="black" >3.3.2.2</text>
</g>
<g>
    <rect rxns="rxn07265" x="446" y="586" width="48" height="18" stroke="black" fill="white"></rect>
    <text x="449" y="599" font-size="9" stroke="grey" fill="black" >3.1.4.39</text>
</g>
<g>
    <rect rxns="rxn07259" x="446" y="655" width="48" height="18" stroke="black" fill="white"></rect>
    <text x="449" y="668" font-size="9" stroke="grey" fill="black" >2.3.1.-</text>
</g>
<g>
    <rect rxns="rxn07260" x="518" y="718" width="48" height="18" stroke="black" fill="white"></rect>
    <text x="521" y="731" font-size="9" stroke="grey" fill="black" >3.1.3.-</text>
</g>
<g>
    <rect rxns="rxn07257" x="400" y="557" width="48" height="18" stroke="black" fill="white"></rect>
    <text x="403" y="570" font-size="9" stroke="grey" fill="black" >3.1.4.-</text>
</g>
</svg>