<svg>
<g>
    <rect rxns="rxn00968" x="585" y="673" width="48" height="18" stroke="black" fill="white"></rect>
    <text x="588" y="686" font-size="9" stroke="grey" fill="black" >1.13.11.41</text>
</g>
<g>
    <rect rxns="rxn04698" x="499" y="581" width="48" height="18" stroke="black" fill="white"></rect>
    <text x="502" y="594" font-size="9" stroke="grey" fill="black" >1.13.-.-</text>
</g>
<g>
    <rect rxns="rxn04701" x="278" y="704" width="48" height="18" stroke="black" fill="white"></rect>
    <text x="281" y="717" font-size="9" stroke="grey" fill="black" >1.14.13.84</text>
</g>
<g>
    <rect rxns="rxn04695" x="277" y="581" width="48" height="18" stroke="black" fill="white"></rect>
    <text x="280" y="594" font-size="9" stroke="grey" fill="black" >1.3.-.-</text>
</g>
<g>
    <rect rxns="rxn04693" x="425" y="432" width="48" height="18" stroke="black" fill="white"></rect>
    <text x="428" y="445" font-size="9" stroke="grey" fill="black" >1.14.13.-</text>
</g>
<g>
    <rect rxns="rxn04686" x="352" y="183" width="48" height="18" stroke="black" fill="white"></rect>
    <text x="355" y="196" font-size="9" stroke="grey" fill="black" >1.97.1.-</text>
</g>
<g>
    <rect rxns="rxn04702" x="278" y="783" width="48" height="18" stroke="black" fill="white"></rect>
    <text x="281" y="796" font-size="9" stroke="grey" fill="black" >3.1.1.2</text>
</g>
<g>
    <rect rxns="rxn04694" x="278" y="509" width="48" height="18" stroke="black" fill="white"></rect>
    <text x="281" y="522" font-size="9" stroke="grey" fill="black" >4.2.1.-</text>
</g>
<g>
    <rect rxns="rxn04692" x="278" y="432" width="48" height="18" stroke="black" fill="white"></rect>
    <text x="281" y="445" font-size="9" stroke="grey" fill="black" >1.14.-.-</text>
</g>
<g>
    <rect rxns="rxn04688" x="352" y="340" width="48" height="18" stroke="black" fill="white"></rect>
    <text x="355" y="353" font-size="9" stroke="grey" fill="black" >1.97.1.-</text>
</g>
<g>
    <rect rxns="rxn04697" x="500" y="509" width="48" height="18" stroke="black" fill="white"></rect>
    <text x="503" y="522" font-size="9" stroke="grey" fill="black" >1.14.-.-</text>
</g>
<g>
    <rect rxns="rxn04685" x="352" y="104" width="48" height="18" stroke="black" fill="white"></rect>
    <text x="355" y="117" font-size="9" stroke="grey" fill="black" >1.97.1.-</text>
</g>
<g>
    <rect rxns="rxn04687" x="352" y="262" width="48" height="18" stroke="black" fill="white"></rect>
    <text x="355" y="275" font-size="9" stroke="grey" fill="black" >1.97.1.-</text>
</g>
<g>
    <rect rxns="R09102" x="711" y="432" width="48" height="18" stroke="black" fill="white"></rect>
    <text x="714" y="445" font-size="9" stroke="grey" fill="black" >1.14.-.-</text>
</g>
<g>
    <rect rxns="R09103" x="711" y="546" width="48" height="18" stroke="black" fill="white"></rect>
    <text x="714" y="559" font-size="9" stroke="grey" fill="black" >1.1.-.-</text>
</g>
<g>
    <rect rxns="R09104" x="710" y="704" width="48" height="18" stroke="black" fill="white"></rect>
    <text x="713" y="717" font-size="9" stroke="grey" fill="black" >1.14.-.-</text>
</g>
<g>
    <rect rxns="R09105" x="710" y="783" width="48" height="18" stroke="black" fill="white"></rect>
    <text x="713" y="796" font-size="9" stroke="grey" fill="black" >3.1.1.-</text>
</g>
<g>
    <rect rxns="rxn04699" x="108" y="670" width="48" height="18" stroke="black" fill="white"></rect>
    <text x="111" y="683" font-size="9" stroke="grey" fill="black" >1.14.13.-</text>
</g>
<g>
    <rect rxns="rxn04700" x="218" y="670" width="48" height="18" stroke="black" fill="white"></rect>
    <text x="221" y="683" font-size="9" stroke="grey" fill="black" >1.1.1.-</text>
</g>
</svg>