<svg>
<g>
    <rect rxns="rxn03602,rxn03603" x="402" y="155" width="48" height="18" stroke="black" fill="white"></rect>
    <text x="405" y="168" font-size="9" stroke="grey" fill="black" >1.14.12.-</text>
</g>
<g>
    <rect rxns="rxn03728" x="402" y="258" width="48" height="18" stroke="black" fill="white"></rect>
    <text x="405" y="271" font-size="9" stroke="grey" fill="black" >1.14.12.-</text>
</g>
<g>
    <rect rxns="rxn03936" x="402" y="339" width="48" height="18" stroke="black" fill="white"></rect>
    <text x="405" y="352" font-size="9" stroke="grey" fill="black" >1.14.12.-</text>
</g>
<g>
    <rect rxns="rxn03604,rxn03605" x="504" y="157" width="48" height="18" stroke="black" fill="white"></rect>
    <text x="507" y="170" font-size="9" stroke="grey" fill="black" >1.3.1.67</text>
</g>
<g>
    <rect rxns="rxn03625" x="504" y="258" width="48" height="18" stroke="black" fill="white"></rect>
    <text x="507" y="271" font-size="9" stroke="grey" fill="black" >1.3.1.68</text>
</g>
<g>
    <rect rxns="rxn03935" x="302" y="328" width="48" height="18" stroke="black" fill="white"></rect>
    <text x="305" y="341" font-size="9" stroke="grey" fill="black" >1.2.1.7</text>
</g>
<g>
    <rect rxns="rxn03934" x="302" y="246" width="48" height="18" stroke="black" fill="white"></rect>
    <text x="305" y="259" font-size="9" stroke="grey" fill="black" >1.2.1.7</text>
</g>
<g>
    <rect rxns="rxn03935" x="302" y="349" width="48" height="18" stroke="black" fill="white"></rect>
    <text x="305" y="362" font-size="9" stroke="grey" fill="black" >1.2.1.28</text>
</g>
<g>
    <rect rxns="rxn03934" x="302" y="267" width="48" height="18" stroke="black" fill="white"></rect>
    <text x="305" y="280" font-size="9" stroke="grey" fill="black" >1.2.1.28</text>
</g>
<g>
    <rect rxns="rxn03594" x="202" y="156" width="48" height="18" stroke="black" fill="white"></rect>
    <text x="205" y="169" font-size="9" stroke="grey" fill="black" >1.1.1.90</text>
</g>
<g>
    <rect rxns="rxn03649" x="202" y="339" width="48" height="18" stroke="black" fill="white"></rect>
    <text x="205" y="352" font-size="9" stroke="grey" fill="black" >1.1.1.90</text>
</g>
<g>
    <rect rxns="rxn03650" x="202" y="257" width="48" height="18" stroke="black" fill="white"></rect>
    <text x="205" y="270" font-size="9" stroke="grey" fill="black" >1.1.1.90</text>
</g>
<g>
    <rect rxns="rxn03600" x="103" y="147" width="48" height="18" stroke="black" fill="white"></rect>
    <text x="106" y="160" font-size="9" stroke="grey" fill="black" >1.14.15.-</text>
</g>
<g>
    <rect rxns="rxn03743" x="103" y="331" width="48" height="18" stroke="black" fill="white"></rect>
    <text x="106" y="344" font-size="9" stroke="grey" fill="black" >1.14.15.-</text>
</g>
<g>
    <rect rxns="rxn03742" x="103" y="248" width="48" height="18" stroke="black" fill="white"></rect>
    <text x="106" y="261" font-size="9" stroke="grey" fill="black" >1.14.15.-</text>
</g>
<g>
    <rect rxns="rxn03600" x="103" y="164" width="48" height="18" stroke="black" fill="white"></rect>
    <text x="106" y="177" font-size="9" stroke="grey" fill="black" >1.18.1.3</text>
</g>
<g>
    <rect rxns="rxn03743" x="103" y="347" width="48" height="18" stroke="black" fill="white"></rect>
    <text x="106" y="360" font-size="9" stroke="grey" fill="black" >1.18.1.3</text>
</g>
<g>
    <rect rxns="rxn03742" x="103" y="265" width="48" height="18" stroke="black" fill="white"></rect>
    <text x="106" y="278" font-size="9" stroke="grey" fill="black" >1.18.1.3</text>
</g>
<g>
    <rect rxns="rxn03601" x="302" y="145" width="48" height="18" stroke="black" fill="white"></rect>
    <text x="305" y="158" font-size="9" stroke="grey" fill="black" >1.2.1.7</text>
</g>
<g>
    <rect rxns="rxn03601" x="302" y="166" width="48" height="18" stroke="black" fill="white"></rect>
    <text x="305" y="179" font-size="9" stroke="grey" fill="black" >1.2.1.28</text>
</g>
<g>
    <rect rxns="rxn03620" x="504" y="340" width="48" height="18" stroke="black" fill="white"></rect>
    <text x="507" y="353" font-size="9" stroke="grey" fill="black" >1.3.1.-</text>
</g>
<g>
    <rect rxns="rxn03561" x="402" y="432" width="48" height="18" stroke="black" fill="white"></rect>
    <text x="405" y="445" font-size="9" stroke="grey" fill="black" >1.14.12.-</text>
</g>
<g>
    <rect rxns="rxn03555" x="504" y="433" width="48" height="18" stroke="black" fill="white"></rect>
    <text x="507" y="446" font-size="9" stroke="grey" fill="black" >1.3.1.58</text>
</g>
<g>
    <rect rxns="rxn03547" x="202" y="433" width="48" height="18" stroke="black" fill="white"></rect>
    <text x="205" y="446" font-size="9" stroke="grey" fill="black" >1.1.1.-</text>
</g>
<g>
    <rect rxns="rxn03578" x="104" y="432" width="48" height="18" stroke="black" fill="white"></rect>
    <text x="107" y="445" font-size="9" stroke="grey" fill="black" >1.14.13.-</text>
</g>
<g>
    <rect rxns="rxn03550" x="302" y="422" width="48" height="18" stroke="black" fill="white"></rect>
    <text x="305" y="435" font-size="9" stroke="grey" fill="black" >1.2.1.29</text>
</g>
<g>
    <rect rxns="rxn03562" x="603" y="432" width="48" height="18" stroke="black" fill="white"></rect>
    <text x="606" y="445" font-size="9" stroke="grey" fill="black" >1.13.11.-</text>
</g>
<g>
    <rect rxns="rxn03678" x="706" y="432" width="48" height="18" stroke="black" fill="white"></rect>
    <text x="709" y="445" font-size="9" stroke="grey" fill="black" >4.1.1.-</text>
</g>
<g>
    <rect rxns="rxn03665" x="758" y="341" width="48" height="18" stroke="black" fill="white"></rect>
    <text x="761" y="354" font-size="9" stroke="grey" fill="black" >3.7.1.-</text>
</g>
<g>
    <rect rxns="rxn02861" x="602" y="246" width="48" height="18" stroke="black" fill="white"></rect>
    <text x="605" y="259" font-size="9" stroke="grey" fill="black" >1.13.11.2</text>
</g>
<g>
    <rect rxns="rxn03486" x="704" y="256" width="48" height="18" stroke="black" fill="white"></rect>
    <text x="707" y="269" font-size="9" stroke="grey" fill="black" >3.7.1.-</text>
</g>
<g>
    <rect rxns="rxn03607" x="602" y="155" width="48" height="18" stroke="black" fill="white"></rect>
    <text x="605" y="168" font-size="9" stroke="grey" fill="black" >1.13.11.2</text>
</g>
<g>
    <rect rxns="rxn04096" x="704" y="155" width="48" height="18" stroke="black" fill="white"></rect>
    <text x="707" y="168" font-size="9" stroke="grey" fill="black" >3.7.1.9</text>
</g>
<g>
    <rect rxns="rxn01893" x="805" y="256" width="48" height="18" stroke="black" fill="white"></rect>
    <text x="808" y="269" font-size="9" stroke="grey" fill="black" >4.2.1.80</text>
</g>
<g>
    <rect rxns="rxn00540" x="907" y="256" width="48" height="18" stroke="black" fill="white"></rect>
    <text x="910" y="269" font-size="9" stroke="grey" fill="black" >4.1.3.39</text>
</g>
<g>
    <rect rxns="rxn04095" x="804" y="155" width="48" height="18" stroke="black" fill="white"></rect>
    <text x="807" y="168" font-size="9" stroke="grey" fill="black" >4.2.1.80</text>
</g>
<g>
    <rect rxns="rxn03610" x="907" y="155" width="48" height="18" stroke="black" fill="white"></rect>
    <text x="910" y="168" font-size="9" stroke="grey" fill="black" >4.1.3.39</text>
</g>
<g>
    <rect rxns="rxn03654" x="657" y="126" width="48" height="18" stroke="black" fill="white"></rect>
    <text x="660" y="139" font-size="9" stroke="grey" fill="black" >1.2.1.32</text>
</g>
<g>
    <rect rxns="rxn03690" x="705" y="84" width="48" height="18" stroke="black" fill="white"></rect>
    <text x="708" y="97" font-size="9" stroke="grey" fill="black" >5.3.2.-</text>
</g>
<g>
    <rect rxns="rxn03675" x="757" y="123" width="48" height="18" stroke="black" fill="white"></rect>
    <text x="760" y="136" font-size="9" stroke="grey" fill="black" >4.1.1.77</text>
</g>
<g>
    <rect rxns="rxn00171" x="1029" y="257" width="48" height="18" stroke="black" fill="white"></rect>
    <text x="1032" y="270" font-size="9" stroke="grey" fill="black" >1.2.1.10</text>
</g>
<g>
    <rect rxns="rxn02861" x="602" y="267" width="48" height="18" stroke="black" fill="white"></rect>
    <text x="605" y="280" font-size="9" stroke="grey" fill="black" >1.13.11.-</text>
</g>
</svg>