<svg>
<g>
    <rect rxns="rxn04986" x="155" y="210" width="48" height="18" stroke="black" fill="white"></rect>
    <text x="158" y="223" font-size="9" stroke="grey" fill="black" >1.14.13.98</text>
</g>
<g>
    <rect rxns="rxn03499" x="516" y="281" width="48" height="18" stroke="black" fill="white"></rect>
    <text x="519" y="294" font-size="9" stroke="grey" fill="black" >1.14.13.100</text>
</g>
<g>
    <rect rxns="rxn03499" x="466" y="281" width="48" height="18" stroke="black" fill="white"></rect>
    <text x="469" y="294" font-size="9" stroke="grey" fill="black" >1.14.13.17</text>
</g>
<g>
    <rect rxns="rxn04988" x="276" y="279" width="48" height="18" stroke="black" fill="white"></rect>
    <text x="279" y="292" font-size="9" stroke="grey" fill="black" >1.14.13.100</text>
</g>
<g>
    <rect rxns="rxn14371" x="560" y="257" width="48" height="18" stroke="black" fill="white"></rect>
    <text x="563" y="270" font-size="9" stroke="grey" fill="black" >1.14.13.15</text>
</g>
<g>
    <rect rxns="rxn14236" x="560" y="391" width="48" height="18" stroke="black" fill="white"></rect>
    <text x="563" y="404" font-size="9" stroke="grey" fill="black" >1.14.13.15</text>
</g>
<g>
    <rect rxns="rxn03291" x="179" y="515" width="48" height="18" stroke="black" fill="white"></rect>
    <text x="182" y="528" font-size="9" stroke="grey" fill="black" >1.3.1.3</text>
</g>
<g>
    <rect rxns="rxn03295,rxn03296" x="493" y="572" width="48" height="18" stroke="black" fill="white"></rect>
    <text x="496" y="585" font-size="9" stroke="grey" fill="black" >1.1.1.50</text>
</g>
<g>
    <rect rxns="rxn03284" x="495" y="627" width="48" height="18" stroke="black" fill="white"></rect>
    <text x="498" y="640" font-size="9" stroke="grey" fill="black" >1.14.13.15</text>
</g>
<g>
    <rect rxns="rxn14311" x="494" y="847" width="48" height="18" stroke="black" fill="white"></rect>
    <text x="497" y="860" font-size="9" stroke="grey" fill="black" >5.1.99.4</text>
</g>
<g>
    <rect rxns="rxn14367" x="495" y="904" width="48" height="18" stroke="black" fill="white"></rect>
    <text x="498" y="917" font-size="9" stroke="grey" fill="black" >1.17.99.3</text>
</g>
<g>
    <rect rxns="rxn03292,rxn03293" x="179" y="573" width="48" height="18" stroke="black" fill="white"></rect>
    <text x="182" y="586" font-size="9" stroke="grey" fill="black" >1.1.1.50</text>
</g>
<g>
    <rect rxns="rxn07205" x="274" y="210" width="48" height="18" stroke="black" fill="white"></rect>
    <text x="277" y="223" font-size="9" stroke="grey" fill="black" >1.14.99.38</text>
</g>
<g>
    <rect rxns="rxn01067" x="329" y="279" width="48" height="18" stroke="black" fill="white"></rect>
    <text x="332" y="292" font-size="9" stroke="grey" fill="black" >1.14.13.17</text>
</g>
<g>
    <rect rxns="rxn03290" x="495" y="960" width="48" height="18" stroke="black" fill="white"></rect>
    <text x="498" y="973" font-size="9" stroke="grey" fill="black" >4.2.1.107</text>
</g>
<g>
    <rect rxns="rxn02639" x="494" y="1072" width="48" height="18" stroke="black" fill="white"></rect>
    <text x="497" y="1085" font-size="9" stroke="grey" fill="black" >2.3.1.176</text>
</g>
<g>
    <rect rxns="rxn14138" x="179" y="1071" width="48" height="18" stroke="black" fill="white"></rect>
    <text x="182" y="1084" font-size="9" stroke="grey" fill="black" >2.3.1.176</text>
</g>
<g>
    <rect rxns="rxn02794" x="157" y="1199" width="48" height="18" stroke="black" fill="white"></rect>
    <text x="160" y="1212" font-size="9" stroke="grey" fill="black" >6.2.1.7</text>
</g>
<g>
    <rect rxns="rxn14193" x="257" y="1150" width="48" height="18" stroke="black" fill="white"></rect>
    <text x="260" y="1163" font-size="9" stroke="grey" fill="black" >2.3.1.65</text>
</g>
<g>
    <rect rxns="rxn02795" x="257" y="1219" width="48" height="18" stroke="black" fill="white"></rect>
    <text x="260" y="1232" font-size="9" stroke="grey" fill="black" >3.5.1.24</text>
</g>
<g>
    <rect rxns="R08759" x="494" y="684" width="48" height="18" stroke="black" fill="white"></rect>
    <text x="497" y="697" font-size="9" stroke="grey" fill="black" >1.14.13.15</text>
</g>
<g>
    <rect rxns="rxn14149" x="493" y="739" width="48" height="18" stroke="black" fill="white"></rect>
    <text x="496" y="752" font-size="9" stroke="grey" fill="black" >1.14.13.15</text>
</g>
<g>
    <rect rxns="rxn14072" x="491" y="213" width="48" height="18" stroke="black" fill="white"></rect>
    <text x="494" y="226" font-size="9" stroke="grey" fill="black" >1.14.13.15</text>
</g>
<g>
    <rect rxns="rxn14049" x="624" y="345" width="48" height="18" stroke="black" fill="white"></rect>
    <text x="627" y="358" font-size="9" stroke="grey" fill="black" >1.1.1.181</text>
</g>
<g>
    <rect rxns="rxn14174" x="491" y="345" width="48" height="18" stroke="black" fill="white"></rect>
    <text x="494" y="358" font-size="9" stroke="grey" fill="black" >1.1.1.181</text>
</g>
<g>
    <rect rxns="rxn02972" x="329" y="342" width="48" height="18" stroke="black" fill="white"></rect>
    <text x="332" y="355" font-size="9" stroke="grey" fill="black" >1.1.1.181</text>
</g>
<g>
    <rect rxns="rxn13980" x="275" y="342" width="48" height="18" stroke="black" fill="white"></rect>
    <text x="278" y="355" font-size="9" stroke="grey" fill="black" >1.1.1.181</text>
</g>
<g>
    <rect rxns="rxn14228" x="98" y="1150" width="48" height="18" stroke="black" fill="white"></rect>
    <text x="101" y="1163" font-size="9" stroke="grey" fill="black" >2.3.1.65</text>
</g>
<g>
    <rect rxns="rxn02014" x="473" y="1199" width="48" height="18" stroke="black" fill="white"></rect>
    <text x="476" y="1212" font-size="9" stroke="grey" fill="black" >6.2.1.7</text>
</g>
<g>
    <rect rxns="rxn02638" x="570" y="1151" width="48" height="18" stroke="black" fill="white"></rect>
    <text x="573" y="1164" font-size="9" stroke="grey" fill="black" >2.3.1.65</text>
</g>
<g>
    <rect rxns="rxn04068" x="569" y="1221" width="48" height="18" stroke="black" fill="white"></rect>
    <text x="572" y="1234" font-size="9" stroke="grey" fill="black" >3.5.1.24</text>
</g>
<g>
    <rect rxns="rxn02015" x="421" y="1220" width="48" height="18" stroke="black" fill="white"></rect>
    <text x="424" y="1233" font-size="9" stroke="grey" fill="black" >3.5.1.24</text>
</g>
<g>
    <rect rxns="rxn02640" x="421" y="1151" width="48" height="18" stroke="black" fill="white"></rect>
    <text x="424" y="1164" font-size="9" stroke="grey" fill="black" >2.3.1.65</text>
</g>
<g>
    <rect rxns="rxn14052" x="423" y="466" width="48" height="18" stroke="black" fill="white"></rect>
    <text x="426" y="479" font-size="9" stroke="grey" fill="black" >1.14.13.96</text>
</g>
<g>
    <rect rxns="rxn04987" x="152" y="278" width="48" height="18" stroke="black" fill="white"></rect>
    <text x="155" y="291" font-size="9" stroke="grey" fill="black" >1.14.13.99</text>
</g>
<g>
    <rect rxns="rxn14212" x="179" y="791" width="48" height="18" stroke="black" fill="white"></rect>
    <text x="182" y="804" font-size="9" stroke="grey" fill="black" >6.2.1.7</text>
</g>
<g>
    <rect rxns="rxn03283" x="179" y="625" width="48" height="18" stroke="black" fill="white"></rect>
    <text x="182" y="638" font-size="9" stroke="grey" fill="black" >1.14.13.15</text>
</g>
<g>
    <rect rxns="R08758" x="179" y="682" width="48" height="18" stroke="black" fill="white"></rect>
    <text x="182" y="695" font-size="9" stroke="grey" fill="black" >1.14.13.15</text>
</g>
<g>
    <rect rxns="rxn13953" x="178" y="737" width="48" height="18" stroke="black" fill="white"></rect>
    <text x="181" y="750" font-size="9" stroke="grey" fill="black" >1.14.13.15</text>
</g>
<g>
    <rect rxns="rxn14274" x="180" y="848" width="48" height="18" stroke="black" fill="white"></rect>
    <text x="183" y="861" font-size="9" stroke="grey" fill="black" >5.1.99.4</text>
</g>
<g>
    <rect rxns="rxn14015" x="179" y="902" width="48" height="18" stroke="black" fill="white"></rect>
    <text x="182" y="915" font-size="9" stroke="grey" fill="black" >1.17.99.3</text>
</g>
<g>
    <rect rxns="rxn03286" x="178" y="957" width="48" height="18" stroke="black" fill="white"></rect>
    <text x="181" y="970" font-size="9" stroke="grey" fill="black" >4.2.1.107</text>
</g>
<g>
    <rect rxns="rxn14296" x="493" y="791" width="48" height="18" stroke="black" fill="white"></rect>
    <text x="496" y="804" font-size="9" stroke="grey" fill="black" >6.2.1.7</text>
</g>
<g>
    <rect rxns="rxn02796" x="98" y="1219" width="48" height="18" stroke="black" fill="white"></rect>
    <text x="101" y="1232" font-size="9" stroke="grey" fill="black" >3.5.1.24</text>
</g>
<g>
    <rect rxns="rxn14092" x="493" y="514" width="48" height="18" stroke="black" fill="white"></rect>
    <text x="496" y="527" font-size="9" stroke="grey" fill="black" >1.3.1.3</text>
</g>
<g>
    <rect rxns="rxn03287" x="178" y="1013" width="48" height="18" stroke="black" fill="white"></rect>
    <text x="181" y="1026" font-size="9" stroke="grey" fill="black" >1.1.1.35</text>
</g>
<g>
    <rect rxns="rxn03289" x="494" y="1014" width="48" height="18" stroke="black" fill="white"></rect>
    <text x="497" y="1027" font-size="9" stroke="grey" fill="black" >1.1.1.35</text>
</g>
<g>
    <rect rxns="rxn14303" x="625" y="281" width="48" height="18" stroke="black" fill="white"></rect>
    <text x="628" y="294" font-size="9" stroke="grey" fill="black" >1.14.13.100</text>
</g>
<g>
    <rect rxns="rxn14319" x="153" y="343" width="48" height="18" stroke="black" fill="white"></rect>
    <text x="156" y="356" font-size="9" stroke="grey" fill="black" >1.1.1.181</text>
</g>
<g>
    <rect rxns="rxn05049" x="515" y="1166" width="48" height="18" stroke="black" fill="white"></rect>
    <text x="518" y="1179" font-size="9" stroke="grey" fill="black" >3.1.2.27</text>
</g>
<g>
    <rect rxns="rxn14344" x="199" y="1166" width="48" height="18" stroke="black" fill="white"></rect>
    <text x="202" y="1179" font-size="9" stroke="grey" fill="black" >3.1.2.27</text>
</g>
</svg>