<svg>
<g>
    <rect rxns="rxn00680" x="260" y="330" width="48" height="18" stroke="black" fill="white"></rect>
    <text x="263" y="343" font-size="9" stroke="grey" fill="black" >2.3.3.11</text>
</g>
<g>
    <rect rxns="rxn01956" x="339" y="578" width="48" height="18" stroke="black" fill="white"></rect>
    <text x="342" y="591" font-size="9" stroke="grey" fill="black" >6.3.1.7</text>
</g>
<g>
    <rect rxns="rxn01957" x="339" y="557" width="48" height="18" stroke="black" fill="white"></rect>
    <text x="342" y="570" font-size="9" stroke="grey" fill="black" >3.5.1.67</text>
</g>
<g>
    <rect rxns="rxn02749" x="153" y="451" width="48" height="18" stroke="black" fill="white"></rect>
    <text x="156" y="464" font-size="9" stroke="grey" fill="black" >4.2.1.35</text>
</g>
<g>
    <rect rxns="rxn00004" x="46" y="384" width="48" height="18" stroke="black" fill="white"></rect>
    <text x="49" y="397" font-size="9" stroke="grey" fill="black" >4.1.3.17</text>
</g>
<g>
    <rect rxns="rxn00195" x="561" y="432" width="48" height="18" stroke="black" fill="white"></rect>
    <text x="564" y="445" font-size="9" stroke="grey" fill="black" >5.4.99.1</text>
</g>
<g>
    <rect rxns="rxn02625" x="561" y="375" width="48" height="18" stroke="black" fill="white"></rect>
    <text x="564" y="388" font-size="9" stroke="grey" fill="black" >4.3.1.2</text>
</g>
<g>
    <rect rxns="rxn02622" x="560" y="290" width="48" height="18" stroke="black" fill="white"></rect>
    <text x="563" y="303" font-size="9" stroke="grey" fill="black" >4.2.1.34</text>
</g>
<g>
    <rect rxns="rxn00234" x="357" y="255" width="48" height="18" stroke="black" fill="white"></rect>
    <text x="360" y="268" font-size="9" stroke="grey" fill="black" >4.1.3.22</text>
</g>
<g>
    <rect rxns="rxn02257" x="435" y="211" width="48" height="18" stroke="black" fill="white"></rect>
    <text x="438" y="224" font-size="9" stroke="grey" fill="black" >2.8.3.11</text>
</g>
<g>
    <rect rxns="rxn02258" x="488" y="211" width="48" height="18" stroke="black" fill="white"></rect>
    <text x="491" y="224" font-size="9" stroke="grey" fill="black" >2.8.3.7</text>
</g>
<g>
    <rect rxns="rxn01605" x="716" y="167" width="48" height="18" stroke="black" fill="white"></rect>
    <text x="719" y="180" font-size="9" stroke="grey" fill="black" >4.1.1.6</text>
</g>
<g>
    <rect rxns="rxn01731" x="611" y="178" width="48" height="18" stroke="black" fill="white"></rect>
    <text x="614" y="191" font-size="9" stroke="grey" fill="black" >6.2.1.5</text>
</g>
<g>
    <rect rxns="rxn01734" x="611" y="157" width="48" height="18" stroke="black" fill="white"></rect>
    <text x="614" y="170" font-size="9" stroke="grey" fill="black" >2.8.3.7</text>
</g>
<g>
    <rect rxns="rxn01805" x="495" y="165" width="48" height="18" stroke="black" fill="white"></rect>
    <text x="498" y="178" font-size="9" stroke="grey" fill="black" >4.2.1.56</text>
</g>
<g>
    <rect rxns="rxn00177" x="357" y="172" width="48" height="18" stroke="black" fill="white"></rect>
    <text x="360" y="185" font-size="9" stroke="grey" fill="black" >4.1.3.25</text>
</g>
<g>
    <rect rxns="rxn00003" x="189" y="217" width="48" height="18" stroke="black" fill="white"></rect>
    <text x="192" y="230" font-size="9" stroke="grey" fill="black" >2.2.1.6</text>
</g>
<g>
    <rect rxns="rxn02113" x="189" y="159" width="48" height="18" stroke="black" fill="white"></rect>
    <text x="192" y="172" font-size="9" stroke="grey" fill="black" >4.1.1.5</text>
</g>
<g>
    <rect rxns="rxn00682" x="357" y="345" width="48" height="18" stroke="black" fill="white"></rect>
    <text x="360" y="358" font-size="9" stroke="grey" fill="black" >4.1.3.24</text>
</g>
</svg>