<svg>
<g>
    <rect rxns="rxn01980" x="639" y="451" width="48" height="18" stroke="black" fill="white"></rect>
    <text x="642" y="464" font-size="9" stroke="grey" fill="black" >1.8.1.13</text>
</g>
<g>
    <rect rxns="rxn12003" x="569" y="506" width="48" height="18" stroke="black" fill="white"></rect>
    <text x="572" y="519" font-size="9" stroke="grey" fill="black" >3.4.11.2</text>
</g>
<g>
    <rect rxns="rxn11997" x="466" y="517" width="48" height="18" stroke="black" fill="white"></rect>
    <text x="469" y="530" font-size="9" stroke="grey" fill="black" >2.3.2.2</text>
</g>
<g>
    <rect rxns="rxn00205" x="194" y="558" width="48" height="18" stroke="black" fill="white"></rect>
    <text x="197" y="571" font-size="9" stroke="grey" fill="black" >1.11.1.9</text>
</g>
<g>
    <rect rxns="rxn00822" x="171" y="583" width="48" height="18" stroke="black" fill="white"></rect>
    <text x="174" y="596" font-size="9" stroke="grey" fill="black" >1.8.4.4</text>
</g>
<g>
    <rect rxns="rxn00956" x="123" y="583" width="48" height="18" stroke="black" fill="white"></rect>
    <text x="126" y="596" font-size="9" stroke="grey" fill="black" >1.8.4.1</text>
</g>
<g>
    <rect rxns="rxn06060" x="219" y="583" width="48" height="18" stroke="black" fill="white"></rect>
    <text x="222" y="596" font-size="9" stroke="grey" fill="black" >2.8.1.3</text>
</g>
<g>
    <rect rxns="rxn00821" x="98" y="604" width="48" height="18" stroke="black" fill="white"></rect>
    <text x="101" y="617" font-size="9" stroke="grey" fill="black" >1.8.5.1</text>
</g>
<g>
    <rect rxns="rxn00824" x="194" y="604" width="48" height="18" stroke="black" fill="white"></rect>
    <text x="197" y="617" font-size="9" stroke="grey" fill="black" >1.8.4.3</text>
</g>
<g>
    <rect rxns="rxn00090" x="146" y="558" width="48" height="18" stroke="black" fill="white"></rect>
    <text x="149" y="571" font-size="9" stroke="grey" fill="black" >1.8.3.3</text>
</g>
<g>
    <rect rxns="rxn06330" x="194" y="537" width="48" height="18" stroke="black" fill="white"></rect>
    <text x="197" y="550" font-size="9" stroke="grey" fill="black" >1.11.1.12</text>
</g>
<g>
    <rect rxns="rxn06527,rxn11967" x="146" y="537" width="48" height="18" stroke="black" fill="white"></rect>
    <text x="149" y="550" font-size="9" stroke="grey" fill="black" >1.8.4.2</text>
</g>
<g>
    <rect rxns="rxn06547" x="146" y="604" width="48" height="18" stroke="black" fill="white"></rect>
    <text x="149" y="617" font-size="9" stroke="grey" fill="black" >1.5.4.1</text>
</g>
<g>
    <rect rxns="rxn01975" x="194" y="502" width="48" height="18" stroke="black" fill="white"></rect>
    <text x="197" y="515" font-size="9" stroke="grey" fill="black" >1.1.1.49</text>
</g>
<g>
    <rect rxns="rxn01475" x="194" y="481" width="48" height="18" stroke="black" fill="white"></rect>
    <text x="197" y="494" font-size="9" stroke="grey" fill="black" >1.1.1.43</text>
</g>
<g>
    <rect rxns="rxn00198" x="146" y="481" width="48" height="18" stroke="black" fill="white"></rect>
    <text x="149" y="494" font-size="9" stroke="grey" fill="black" >1.1.1.42</text>
</g>
<g>
    <rect rxns="rxn00351" x="435" y="448" width="48" height="18" stroke="black" fill="white"></rect>
    <text x="438" y="461" font-size="9" stroke="grey" fill="black" >6.3.2.3</text>
</g>
<g>
    <rect rxns="rxn00646" x="519" y="266" width="48" height="18" stroke="black" fill="white"></rect>
    <text x="522" y="279" font-size="9" stroke="grey" fill="black" >6.3.2.2</text>
</g>
<g>
    <rect rxns="rxn00350" x="310" y="422" width="48" height="18" stroke="black" fill="white"></rect>
    <text x="313" y="435" font-size="9" stroke="grey" fill="black" >2.3.2.2</text>
</g>
<g>
    <rect rxns="rxn00650" x="334" y="314" width="48" height="18" stroke="black" fill="white"></rect>
    <text x="337" y="327" font-size="9" stroke="grey" fill="black" >3.4.11.2</text>
</g>
<g>
    <rect rxns="rxn00186" x="351" y="135" width="48" height="18" stroke="black" fill="white"></rect>
    <text x="354" y="148" font-size="9" stroke="grey" fill="black" >3.5.2.9</text>
</g>
<g>
    <rect rxns="rxn01981" x="426" y="94" width="48" height="18" stroke="black" fill="white"></rect>
    <text x="429" y="107" font-size="9" stroke="grey" fill="black" >2.3.2.4</text>
</g>
<g>
    <rect rxns="rxn05952" x="172" y="394" width="48" height="18" stroke="black" fill="white"></rect>
    <text x="175" y="407" font-size="9" stroke="grey" fill="black" >2.3.2.2</text>
</g>
<g>
    <rect rxns="rxn06472" x="173" y="227" width="48" height="18" stroke="black" fill="white"></rect>
    <text x="176" y="240" font-size="9" stroke="grey" fill="black" >2.3.2.4</text>
</g>
<g>
    <rect rxns="rxn06626" x="778" y="517" width="48" height="18" stroke="black" fill="white"></rect>
    <text x="781" y="530" font-size="9" stroke="grey" fill="black" >2.3.1.80</text>
</g>
<g>
    <rect rxns="rxn06401" x="365" y="517" width="48" height="18" stroke="black" fill="white"></rect>
    <text x="368" y="530" font-size="9" stroke="grey" fill="black" >2.5.1.18</text>
</g>
<g>
    <rect rxns="rxn01403" x="394" y="665" width="48" height="18" stroke="black" fill="white"></rect>
    <text x="397" y="678" font-size="9" stroke="grey" fill="black" >6.3.1.8</text>
</g>
<g>
    <rect rxns="rxn01404" x="394" y="583" width="48" height="18" stroke="black" fill="white"></rect>
    <text x="397" y="596" font-size="9" stroke="grey" fill="black" >3.5.1.78</text>
</g>
<g>
    <rect rxns="rxn00086" x="146" y="449" width="48" height="18" stroke="black" fill="white"></rect>
    <text x="149" y="462" font-size="9" stroke="grey" fill="black" >1.8.1.7</text>
</g>
<g>
    <rect rxns="rxn06564" x="242" y="604" width="48" height="18" stroke="black" fill="white"></rect>
    <text x="245" y="617" font-size="9" stroke="grey" fill="black" >1.8.4.7</text>
</g>
<g>
    <rect rxns="rxn01115" x="146" y="502" width="48" height="18" stroke="black" fill="white"></rect>
    <text x="149" y="515" font-size="9" stroke="grey" fill="black" >1.1.1.44</text>
</g>
<g>
    <rect rxns="rxn00470" x="185" y="674" width="48" height="18" stroke="black" fill="white"></rect>
    <text x="188" y="687" font-size="9" stroke="grey" fill="black" >4.1.1.17</text>
</g>
<g>
    <rect rxns="rxn01406" x="267" y="634" width="48" height="18" stroke="black" fill="white"></rect>
    <text x="270" y="647" font-size="9" stroke="grey" fill="black" >2.5.1.16</text>
</g>
<g>
    <rect rxns="rxn01404" x="394" y="604" width="48" height="18" stroke="black" fill="white"></rect>
    <text x="397" y="617" font-size="9" stroke="grey" fill="black" >3.5.1.-</text>
</g>
<g>
    <rect rxns="rxn01403" x="394" y="686" width="48" height="18" stroke="black" fill="white"></rect>
    <text x="397" y="699" font-size="9" stroke="grey" fill="black" >6.3.1.9</text>
</g>
<g>
    <rect rxns="rxn12040" x="534" y="620" width="48" height="18" stroke="black" fill="white"></rect>
    <text x="537" y="633" font-size="9" stroke="grey" fill="black" >3.5.1.-</text>
</g>
<g>
    <rect rxns="rxn02706" x="534" y="676" width="48" height="18" stroke="black" fill="white"></rect>
    <text x="537" y="689" font-size="9" stroke="grey" fill="black" >6.3.1.9</text>
</g>
<g>
    <rect rxns="rxn02061" x="346" y="718" width="48" height="18" stroke="black" fill="white"></rect>
    <text x="349" y="731" font-size="9" stroke="grey" fill="black" >2.5.1.22</text>
</g>
<g>
    <rect rxns="rxn12042" x="394" y="856" width="48" height="18" stroke="black" fill="white"></rect>
    <text x="397" y="869" font-size="9" stroke="grey" fill="black" >6.3.1.9</text>
</g>
<g>
    <rect rxns="rxn12043" x="534" y="856" width="48" height="18" stroke="black" fill="white"></rect>
    <text x="537" y="869" font-size="9" stroke="grey" fill="black" >6.3.1.9</text>
</g>
<g>
    <rect rxns="rxn12049" x="214" y="912" width="48" height="18" stroke="black" fill="white"></rect>
    <text x="217" y="925" font-size="9" stroke="grey" fill="black" >2.5.1.16</text>
</g>
<g>
    <rect rxns="rxn12044" x="394" y="912" width="48" height="18" stroke="black" fill="white"></rect>
    <text x="397" y="925" font-size="9" stroke="grey" fill="black" >6.3.1.9</text>
</g>
<g>
    <rect rxns="rxn12045" x="534" y="922" width="48" height="18" stroke="black" fill="white"></rect>
    <text x="537" y="935" font-size="9" stroke="grey" fill="black" >6.3.1.9</text>
</g>
<g>
    <rect rxns="rxn12041" x="534" y="903" width="48" height="18" stroke="black" fill="white"></rect>
    <text x="537" y="916" font-size="9" stroke="grey" fill="black" >3.5.1.-</text>
</g>
<g>
    <rect rxns="rxn00444" x="713" y="641" width="48" height="18" stroke="black" fill="white"></rect>
    <text x="716" y="654" font-size="9" stroke="grey" fill="black" >1.11.1.11</text>
</g>
<g>
    <rect rxns="rxn02705" x="713" y="594" width="48" height="18" stroke="black" fill="white"></rect>
    <text x="716" y="607" font-size="9" stroke="grey" fill="black" >1.8.1.12</text>
</g>
<g>
    <rect rxns="rxn12053" x="713" y="720" width="48" height="18" stroke="black" fill="white"></rect>
    <text x="716" y="733" font-size="9" stroke="grey" fill="black" >1.17.4.1</text>
</g>
<g>
    <rect rxns="rxn12050" x="688" y="699" width="48" height="18" stroke="black" fill="white"></rect>
    <text x="691" y="712" font-size="9" stroke="grey" fill="black" >1.11.1.15</text>
</g>
<g>
    <rect rxns="rxn12054" x="713" y="781" width="48" height="18" stroke="black" fill="white"></rect>
    <text x="716" y="794" font-size="9" stroke="grey" fill="black" >1.17.4.1</text>
</g>
<g>
    <rect rxns="rxn12052" x="713" y="760" width="48" height="18" stroke="black" fill="white"></rect>
    <text x="716" y="773" font-size="9" stroke="grey" fill="black" >1.11.1.15</text>
</g>
<g>
    <rect rxns="rxn12046" x="713" y="848" width="48" height="18" stroke="black" fill="white"></rect>
    <text x="716" y="861" font-size="9" stroke="grey" fill="black" >1.8.1.12</text>
</g>
<g>
    <rect rxns="rxn12047" x="713" y="904" width="48" height="18" stroke="black" fill="white"></rect>
    <text x="716" y="917" font-size="9" stroke="grey" fill="black" >1.8.1.12</text>
</g>
<g>
    <rect rxns="rxn00650" x="284" y="314" width="48" height="18" stroke="black" fill="white"></rect>
    <text x="287" y="327" font-size="9" stroke="grey" fill="black" >3.4.11.1</text>
</g>
<g>
    <rect rxns="rxn12003" x="569" y="527" width="48" height="18" stroke="black" fill="white"></rect>
    <text x="572" y="540" font-size="9" stroke="grey" fill="black" >3.4.11.1</text>
</g>
<g>
    <rect rxns="rxn00650" x="284" y="333" width="48" height="18" stroke="black" fill="white"></rect>
    <text x="287" y="346" font-size="9" stroke="grey" fill="black" >3.4.11.23</text>
</g>
<g>
    <rect rxns="rxn12003" x="617" y="527" width="48" height="18" stroke="black" fill="white"></rect>
    <text x="620" y="540" font-size="9" stroke="grey" fill="black" >3.4.11.23</text>
</g>
<g>
    <rect rxns="rxn00650" x="284" y="352" width="48" height="18" stroke="black" fill="white"></rect>
    <text x="287" y="365" font-size="9" stroke="grey" fill="black" >3.4.13.-</text>
</g>
<g>
    <rect rxns="rxn12003" x="665" y="527" width="48" height="18" stroke="black" fill="white"></rect>
    <text x="668" y="540" font-size="9" stroke="grey" fill="black" >3.4.13.-</text>
</g>
<g>
    <rect rxns="rxn00650" x="334" y="333" width="48" height="18" stroke="black" fill="white"></rect>
    <text x="337" y="346" font-size="9" stroke="grey" fill="black" >3.4.11.1</text>
</g>
<g>
    <rect rxns="rxn12003" x="617" y="506" width="48" height="18" stroke="black" fill="white"></rect>
    <text x="620" y="519" font-size="9" stroke="grey" fill="black" >3.4.11.1</text>
</g>
<g>
    <rect rxns="rxn12050" x="736" y="699" width="48" height="18" stroke="black" fill="white"></rect>
    <text x="739" y="712" font-size="9" stroke="grey" fill="black" >1.11.1.-</text>
</g>
<g>
    <rect rxns="rxn00650" x="334" y="353" width="48" height="18" stroke="black" fill="white"></rect>
    <text x="337" y="366" font-size="9" stroke="grey" fill="black" >3.4.13.-</text>
</g>
<g>
    <rect rxns="rxn12003" x="665" y="506" width="48" height="18" stroke="black" fill="white"></rect>
    <text x="668" y="519" font-size="9" stroke="grey" fill="black" >3.4.13.-</text>
</g>
</svg>