<svg>
<g>
    <rect rxns="rxn00996" x="277" y="645" width="48" height="18" stroke="black" fill="white"></rect>
    <text x="280" y="658" font-size="9" stroke="grey" fill="black" >4.2.1.27</text>
</g>
<g>
    <rect rxns="rxn00992" x="327" y="564" width="48" height="18" stroke="black" fill="white"></rect>
    <text x="330" y="577" font-size="9" stroke="grey" fill="black" >1.1.1.30</text>
</g>
<g>
    <rect rxns="rxn00038" x="327" y="502" width="48" height="18" stroke="black" fill="white"></rect>
    <text x="330" y="515" font-size="9" stroke="grey" fill="black" >3.1.1.22</text>
</g>
<g>
    <rect rxns="rxn00290" x="481" y="650" width="48" height="18" stroke="black" fill="white"></rect>
    <text x="484" y="663" font-size="9" stroke="grey" fill="black" >2.8.3.5</text>
</g>
<g>
    <rect rxns="rxn00988" x="486" y="580" width="48" height="18" stroke="black" fill="white"></rect>
    <text x="489" y="593" font-size="9" stroke="grey" fill="black" >6.2.1.16</text>
</g>
<g>
    <rect rxns="rxn00991" x="807" y="666" width="48" height="18" stroke="black" fill="white"></rect>
    <text x="810" y="679" font-size="9" stroke="grey" fill="black" >4.1.3.4</text>
</g>
<g>
    <rect rxns="rxn01454" x="807" y="618" width="48" height="18" stroke="black" fill="white"></rect>
    <text x="810" y="631" font-size="9" stroke="grey" fill="black" >2.3.3.10</text>
</g>
<g>
    <rect rxns="rxn00178" x="807" y="580" width="48" height="18" stroke="black" fill="white"></rect>
    <text x="810" y="593" font-size="9" stroke="grey" fill="black" >2.3.1.9</text>
</g>
<g>
    <rect rxns="rxn01452" x="667" y="523" width="48" height="18" stroke="black" fill="white"></rect>
    <text x="670" y="536" font-size="9" stroke="grey" fill="black" >1.1.1.157</text>
</g>
<g>
    <rect rxns="rxn01451" x="617" y="523" width="48" height="18" stroke="black" fill="white"></rect>
    <text x="620" y="536" font-size="9" stroke="grey" fill="black" >1.1.1.35</text>
</g>
<g>
    <rect rxns="rxn01453" x="536" y="524" width="48" height="18" stroke="black" fill="white"></rect>
    <text x="539" y="537" font-size="9" stroke="grey" fill="black" >1.1.1.36</text>
</g>
<g>
    <rect rxns="rxn02345" x="590" y="470" width="48" height="18" stroke="black" fill="white"></rect>
    <text x="593" y="483" font-size="9" stroke="grey" fill="black" >5.1.2.3</text>
</g>
<g>
    <rect rxns="R04254" x="483" y="471" width="48" height="18" stroke="black" fill="white"></rect>
    <text x="486" y="484" font-size="9" stroke="grey" fill="black" >2.3.1.-</text>
</g>
<g>
    <rect rxns="rxn06858" x="378" y="471" width="48" height="18" stroke="black" fill="white"></rect>
    <text x="381" y="484" font-size="9" stroke="grey" fill="black" >3.1.1.75</text>
</g>
<g>
    <rect rxns="rxn02167" x="643" y="433" width="48" height="18" stroke="black" fill="white"></rect>
    <text x="646" y="446" font-size="9" stroke="grey" fill="black" >4.2.1.17</text>
</g>
<g>
    <rect rxns="rxn02168" x="536" y="422" width="48" height="18" stroke="black" fill="white"></rect>
    <text x="539" y="435" font-size="9" stroke="grey" fill="black" >4.2.1.55</text>
</g>
<g>
    <rect rxns="rxn02171" x="586" y="388" width="51" height="18" stroke="black" fill="white"></rect>
    <text x="589" y="401" font-size="9" stroke="grey" fill="black" >5.3.3.3</text>
</g>
<g>
    <rect rxns="rxn01201" x="352" y="392" width="48" height="18" stroke="black" fill="white"></rect>
    <text x="355" y="405" font-size="9" stroke="grey" fill="black" >1.1.1.61</text>
</g>
<g>
    <rect rxns="rxn01204" x="247" y="392" width="48" height="18" stroke="black" fill="white"></rect>
    <text x="250" y="405" font-size="9" stroke="grey" fill="black" >2.6.1.19</text>
</g>
<g>
    <rect rxns="rxn00194" x="146" y="392" width="48" height="18" stroke="black" fill="white"></rect>
    <text x="149" y="405" font-size="9" stroke="grey" fill="black" >4.1.1.15</text>
</g>
<g>
    <rect rxns="rxn13974" x="1025" y="382" width="48" height="18" stroke="black" fill="white"></rect>
    <text x="1028" y="395" font-size="9" stroke="grey" fill="black" >1.2.7.1</text>
</g>
<g>
    <rect rxns="rxn00157" x="976" y="382" width="48" height="18" stroke="black" fill="white"></rect>
    <text x="979" y="395" font-size="9" stroke="grey" fill="black" >2.3.1.54</text>
</g>
<g>
    <rect rxns="rxn00868" x="667" y="358" width="48" height="18" stroke="black" fill="white"></rect>
    <text x="670" y="371" font-size="9" stroke="grey" fill="black" >1.3.1.44</text>
</g>
<g>
    <rect rxns="rxn00868" x="617" y="358" width="48" height="18" stroke="black" fill="white"></rect>
    <text x="620" y="371" font-size="9" stroke="grey" fill="black" >1.3.8.1</text>
</g>
<g>
    <rect rxns="rxn00871" x="754" y="291" width="48" height="18" stroke="black" fill="white"></rect>
    <text x="757" y="304" font-size="9" stroke="grey" fill="black" >2.3.1.19</text>
</g>
<g>
    <rect rxns="rxn00869,rxn00870" x="581" y="330" width="48" height="18" stroke="black" fill="white"></rect>
    <text x="584" y="343" font-size="9" stroke="grey" fill="black" >1.2.1.57</text>
</g>
<g>
    <rect rxns="rxn00869" x="581" y="309" width="48" height="18" stroke="black" fill="white"></rect>
    <text x="584" y="322" font-size="9" stroke="grey" fill="black" >1.2.1.10</text>
</g>
<g>
    <rect rxns="rxn02527,rxn02528" x="471" y="320" width="48" height="18" stroke="black" fill="white"></rect>
    <text x="474" y="333" font-size="9" stroke="grey" fill="black" >1.1.1.-</text>
</g>
<g>
    <rect rxns="rxn00508" x="321" y="306" width="48" height="18" stroke="black" fill="white"></rect>
    <text x="324" y="319" font-size="9" stroke="grey" fill="black" >1.2.1.24</text>
</g>
<g>
    <rect rxns="rxn00508,rxn00509" x="271" y="306" width="48" height="18" stroke="black" fill="white"></rect>
    <text x="274" y="319" font-size="9" stroke="grey" fill="black" >1.2.1.16</text>
</g>
<g>
    <rect rxns="rxn00873" x="666" y="286" width="48" height="18" stroke="black" fill="white"></rect>
    <text x="669" y="299" font-size="9" stroke="grey" fill="black" >6.2.1.2</text>
</g>
<g>
    <rect rxns="rxn00875" x="617" y="286" width="48" height="18" stroke="black" fill="white"></rect>
    <text x="620" y="299" font-size="9" stroke="grey" fill="black" >2.8.3.8</text>
</g>
<g>
    <rect rxns="rxn01236" x="699" y="255" width="48" height="18" stroke="black" fill="white"></rect>
    <text x="702" y="268" font-size="9" stroke="grey" fill="black" >2.7.2.7</text>
</g>
<g>
    <rect rxns="rxn00160" x="892" y="216" width="48" height="18" stroke="black" fill="white"></rect>
    <text x="895" y="229" font-size="9" stroke="grey" fill="black" >1.1.1.83</text>
</g>
<g>
    <rect rxns="rxn01745" x="721" y="216" width="48" height="18" stroke="black" fill="white"></rect>
    <text x="724" y="229" font-size="9" stroke="grey" fill="black" >4.2.1.31</text>
</g>
<g>
    <rect rxns="rxn00803" x="551" y="216" width="48" height="18" stroke="black" fill="white"></rect>
    <text x="554" y="229" font-size="9" stroke="grey" fill="black" >5.2.1.1</text>
</g>
<g>
    <rect rxns="rxn00288" x="381" y="216" width="48" height="18" stroke="black" fill="white"></rect>
    <text x="384" y="229" font-size="9" stroke="grey" fill="black" >1.3.99.1</text>
</g>
<g>
    <rect rxns="rxn00011" x="884" y="144" width="48" height="18" stroke="black" fill="white"></rect>
    <text x="887" y="157" font-size="9" stroke="grey" fill="black" >2.2.1.6</text>
</g>
<g>
    <rect rxns="rxn02185" x="792" y="134" width="48" height="18" stroke="black" fill="white"></rect>
    <text x="795" y="147" font-size="9" stroke="grey" fill="black" >2.2.1.6</text>
</g>
<g>
    <rect rxns="rxn02113" x="695" y="134" width="48" height="18" stroke="black" fill="white"></rect>
    <text x="698" y="147" font-size="9" stroke="grey" fill="black" >4.1.1.5</text>
</g>
<g>
    <rect rxns="rxn02115" x="644" y="93" width="48" height="18" stroke="black" fill="white"></rect>
    <text x="647" y="106" font-size="9" stroke="grey" fill="black" >5.1.2.4</text>
</g>
<g>
    <rect rxns="rxn02112" x="583" y="134" width="48" height="18" stroke="black" fill="white"></rect>
    <text x="586" y="147" font-size="9" stroke="grey" fill="black" >1.1.1.4</text>
</g>
<g>
    <rect rxns="rxn02632" x="583" y="54" width="48" height="18" stroke="black" fill="white"></rect>
    <text x="586" y="67" font-size="9" stroke="grey" fill="black" >1.1.1.76</text>
</g>
<g>
    <rect rxns="rxn02768" x="784" y="395" width="48" height="18" stroke="black" fill="white"></rect>
    <text x="787" y="408" font-size="9" stroke="grey" fill="black" >4.2.1.-</text>
</g>
<g>
    <rect rxns="rxn02810" x="836" y="426" width="48" height="18" stroke="black" fill="white"></rect>
    <text x="839" y="439" font-size="9" stroke="grey" fill="black" >2.8.3.12</text>
</g>
<g>
    <rect rxns="rxn02169" x="691" y="395" width="48" height="18" stroke="black" fill="white"></rect>
    <text x="694" y="408" font-size="9" stroke="grey" fill="black" >4.1.1.70</text>
</g>
<g>
    <rect rxns="rxn02519" x="836" y="488" width="48" height="18" stroke="black" fill="white"></rect>
    <text x="839" y="501" font-size="9" stroke="grey" fill="black" >1.1.99.2</text>
</g>
<g>
    <rect rxns="rxn00989" x="529" y="638" width="48" height="18" stroke="black" fill="white"></rect>
    <text x="532" y="651" font-size="9" stroke="grey" fill="black" >3.1.2.11</text>
</g>
<g>
    <rect rxns="rxn00011" x="884" y="123" width="48" height="18" stroke="black" fill="white"></rect>
    <text x="887" y="136" font-size="9" stroke="grey" fill="black" >1.2.4.1</text>
</g>
<g>
    <rect rxns="rxn01685" x="583" y="109" width="48" height="18" stroke="black" fill="white"></rect>
    <text x="586" y="122" font-size="9" stroke="grey" fill="black" >1.1.1.303</text>
</g>
<g>
    <rect rxns="R09078" x="583" y="80" width="48" height="18" stroke="black" fill="white"></rect>
    <text x="586" y="93" font-size="9" stroke="grey" fill="black" >1.1.1.304</text>
</g>
</svg>