<svg>
<g>
    <rect rxns="rxn06064" x="490" y="158" width="48" height="18" stroke="black" fill="white"></rect>
    <text x="493" y="171" font-size="9" stroke="grey" fill="black" >3.2.1.15</text>
</g>
<g>
    <rect rxns="rxn04928" x="723" y="508" width="48" height="18" stroke="black" fill="white"></rect>
    <text x="726" y="521" font-size="9" stroke="grey" fill="black" >4.1.1.85</text>
</g>
<g>
    <rect rxns="rxn04930" x="688" y="432" width="48" height="18" stroke="black" fill="white"></rect>
    <text x="691" y="445" font-size="9" stroke="grey" fill="black" >2.7.1.53</text>
</g>
<g>
    <rect rxns="rxn06005" x="490" y="339" width="48" height="18" stroke="black" fill="white"></rect>
    <text x="493" y="352" font-size="9" stroke="grey" fill="black" >3.2.1.31</text>
</g>
<g>
    <rect rxns="rxn03644" x="426" y="867" width="48" height="18" stroke="black" fill="white"></rect>
    <text x="429" y="880" font-size="9" stroke="grey" fill="black" >5.3.1.27</text>
</g>
<g>
    <rect rxns="rxn03643" x="526" y="822" width="48" height="18" stroke="black" fill="white"></rect>
    <text x="529" y="835" font-size="9" stroke="grey" fill="black" >4.1.2.43</text>
</g>
<g>
    <rect rxns="rxn01292" x="854" y="615" width="48" height="18" stroke="black" fill="white"></rect>
    <text x="857" y="628" font-size="9" stroke="grey" fill="black" >5.3.1.4</text>
</g>
<g>
    <rect rxns="rxn01764" x="750" y="648" width="48" height="18" stroke="black" fill="white"></rect>
    <text x="753" y="661" font-size="9" stroke="grey" fill="black" >1.1.1.13</text>
</g>
<g>
    <rect rxns="rxn01763" x="712" y="679" width="48" height="18" stroke="black" fill="white"></rect>
    <text x="715" y="692" font-size="9" stroke="grey" fill="black" >2.7.1.16</text>
</g>
<g>
    <rect rxns="rxn01383" x="619" y="775" width="48" height="18" stroke="black" fill="white"></rect>
    <text x="622" y="788" font-size="9" stroke="grey" fill="black" >1.1.1.56</text>
</g>
<g>
    <rect rxns="rxn01114" x="584" y="753" width="48" height="18" stroke="black" fill="white"></rect>
    <text x="587" y="766" font-size="9" stroke="grey" fill="black" >2.7.1.47</text>
</g>
<g>
    <rect rxns="rxn01114" x="584" y="732" width="48" height="18" stroke="black" fill="white"></rect>
    <text x="587" y="745" font-size="9" stroke="grey" fill="black" >2.7.1.16</text>
</g>
<g>
    <rect rxns="rxn01116" x="521" y="710" width="48" height="18" stroke="black" fill="white"></rect>
    <text x="524" y="723" font-size="9" stroke="grey" fill="black" >5.1.3.1</text>
</g>
<g>
    <rect rxns="rxn04082" x="584" y="679" width="48" height="18" stroke="black" fill="white"></rect>
    <text x="587" y="692" font-size="9" stroke="grey" fill="black" >5.1.3.4</text>
</g>
<g>
    <rect rxns="rxn01112,rxn01113" x="466" y="743" width="48" height="18" stroke="black" fill="white"></rect>
    <text x="469" y="756" font-size="9" stroke="grey" fill="black" >1.1.1.137</text>
</g>
<g>
    <rect rxns="rxn02089" x="356" y="743" width="48" height="18" stroke="black" fill="white"></rect>
    <text x="359" y="756" font-size="9" stroke="grey" fill="black" >2.7.7.40</text>
</g>
<g>
    <rect rxns="rxn02321" x="643" y="650" width="48" height="18" stroke="black" fill="white"></rect>
    <text x="646" y="663" font-size="9" stroke="grey" fill="black" >5.-.-.-</text>
</g>
<g>
    <rect rxns="rxn03883" x="480" y="621" width="48" height="18" stroke="black" fill="white"></rect>
    <text x="483" y="634" font-size="9" stroke="grey" fill="black" >1.1.1.11</text>
</g>
<g>
    <rect rxns="rxn01199" x="423" y="655" width="48" height="18" stroke="black" fill="white"></rect>
    <text x="426" y="668" font-size="9" stroke="grey" fill="black" >2.7.1.17</text>
</g>
<g>
    <rect rxns="rxn01386" x="367" y="655" width="48" height="18" stroke="black" fill="white"></rect>
    <text x="370" y="668" font-size="9" stroke="grey" fill="black" >5.3.1.15</text>
</g>
<g>
    <rect rxns="rxn01306" x="228" y="717" width="48" height="18" stroke="black" fill="white"></rect>
    <text x="231" y="730" font-size="9" stroke="grey" fill="black" >4.1.2.28</text>
</g>
<g>
    <rect rxns="rxn01753" x="228" y="654" width="48" height="18" stroke="black" fill="white"></rect>
    <text x="231" y="667" font-size="9" stroke="grey" fill="black" >4.2.1.82</text>
</g>
<g>
    <rect rxns="rxn01389" x="643" y="591" width="48" height="18" stroke="black" fill="white"></rect>
    <text x="646" y="604" font-size="9" stroke="grey" fill="black" >2.7.1.53</text>
</g>
<g>
    <rect rxns="rxn01394" x="586" y="591" width="48" height="18" stroke="black" fill="white"></rect>
    <text x="589" y="604" font-size="9" stroke="grey" fill="black" >5.3.1.-</text>
</g>
<g>
    <rect rxns="rxn01385" x="423" y="591" width="48" height="18" stroke="black" fill="white"></rect>
    <text x="426" y="604" font-size="9" stroke="grey" fill="black" >1.1.1.9</text>
</g>
<g>
    <rect rxns="rxn01044" x="321" y="591" width="48" height="18" stroke="black" fill="white"></rect>
    <text x="324" y="604" font-size="9" stroke="grey" fill="black" >5.3.1.5</text>
</g>
<g>
    <rect rxns="rxn01751" x="228" y="592" width="48" height="18" stroke="black" fill="white"></rect>
    <text x="231" y="605" font-size="9" stroke="grey" fill="black" >3.1.1.68</text>
</g>
<g>
    <rect rxns="rxn01290,rxn01291" x="801" y="560" width="48" height="18" stroke="black" fill="white"></rect>
    <text x="804" y="573" font-size="9" stroke="grey" fill="black" >1.1.1.21</text>
</g>
<g>
    <rect rxns="rxn01391" x="695" y="560" width="48" height="18" stroke="black" fill="white"></rect>
    <text x="698" y="573" font-size="9" stroke="grey" fill="black" >1.1.1.12</text>
</g>
<g>
    <rect rxns="rxn01392" x="505" y="566" width="48" height="18" stroke="black" fill="white"></rect>
    <text x="508" y="579" font-size="9" stroke="grey" fill="black" >1.1.1.10</text>
</g>
<g>
    <rect rxns="rxn01043" x="373" y="560" width="48" height="18" stroke="black" fill="white"></rect>
    <text x="376" y="573" font-size="9" stroke="grey" fill="black" >1.1.1.21</text>
</g>
<g>
    <rect rxns="rxn01041" x="272" y="549" width="48" height="18" stroke="black" fill="white"></rect>
    <text x="275" y="562" font-size="9" stroke="grey" fill="black" >1.1.1.175</text>
</g>
<g>
    <rect rxns="rxn01393" x="648" y="456" width="48" height="18" stroke="black" fill="white"></rect>
    <text x="651" y="469" font-size="9" stroke="grey" fill="black" >4.1.1.34</text>
</g>
<g>
    <rect rxns="rxn01913" x="648" y="337" width="48" height="18" stroke="black" fill="white"></rect>
    <text x="651" y="350" font-size="9" stroke="grey" fill="black" >1.1.1.45</text>
</g>
<g>
    <rect rxns="rxn00213" x="335" y="423" width="48" height="18" stroke="black" fill="white"></rect>
    <text x="338" y="436" font-size="9" stroke="grey" fill="black" >2.7.7.9</text>
</g>
<g>
    <rect rxns="rxn03884" x="153" y="398" width="48" height="18" stroke="black" fill="white"></rect>
    <text x="156" y="411" font-size="9" stroke="grey" fill="black" >4.1.2.14</text>
</g>
<g>
    <rect rxns="rxn14014" x="386" y="339" width="48" height="18" stroke="black" fill="white"></rect>
    <text x="389" y="352" font-size="9" stroke="grey" fill="black" >2.4.1.17</text>
</g>
<g>
    <rect rxns="rxn00211" x="335" y="357" width="48" height="18" stroke="black" fill="white"></rect>
    <text x="338" y="370" font-size="9" stroke="grey" fill="black" >1.1.1.22</text>
</g>
<g>
    <rect rxns="rxn01079" x="592" y="306" width="48" height="18" stroke="black" fill="white"></rect>
    <text x="595" y="319" font-size="9" stroke="grey" fill="black" >1.1.1.19</text>
</g>
<g>
    <rect rxns="rxn01077" x="489" y="306" width="48" height="18" stroke="black" fill="white"></rect>
    <text x="492" y="319" font-size="9" stroke="grey" fill="black" >2.7.1.43</text>
</g>
<g>
    <rect rxns="rxn01006" x="386" y="316" width="48" height="18" stroke="black" fill="white"></rect>
    <text x="389" y="329" font-size="9" stroke="grey" fill="black" >2.7.7.64</text>
</g>
<g>
    <rect rxns="rxn01123" x="153" y="317" width="48" height="18" stroke="black" fill="white"></rect>
    <text x="156" y="330" font-size="9" stroke="grey" fill="black" >2.7.1.45</text>
</g>
<g>
    <rect rxns="rxn01080" x="491" y="266" width="48" height="18" stroke="black" fill="white"></rect>
    <text x="494" y="279" font-size="9" stroke="grey" fill="black" >5.3.1.12</text>
</g>
<g>
    <rect rxns="rxn01775" x="374" y="266" width="48" height="18" stroke="black" fill="white"></rect>
    <text x="377" y="279" font-size="9" stroke="grey" fill="black" >1.1.1.57</text>
</g>
<g>
    <rect rxns="rxn03885" x="231" y="266" width="48" height="18" stroke="black" fill="white"></rect>
    <text x="234" y="279" font-size="9" stroke="grey" fill="black" >4.2.1.8</text>
</g>
<g>
    <rect rxns="rxn01122" x="154" y="234" width="48" height="18" stroke="black" fill="white"></rect>
    <text x="157" y="247" font-size="9" stroke="grey" fill="black" >4.2.1.7</text>
</g>
<g>
    <rect rxns="rxn01457" x="374" y="212" width="48" height="18" stroke="black" fill="white"></rect>
    <text x="377" y="225" font-size="9" stroke="grey" fill="black" >5.3.1.12</text>
</g>
<g>
    <rect rxns="rxn01857" x="231" y="212" width="48" height="18" stroke="black" fill="white"></rect>
    <text x="234" y="225" font-size="9" stroke="grey" fill="black" >1.1.1.58</text>
</g>
<g>
    <rect rxns="rxn01382" x="667" y="775" width="48" height="18" stroke="black" fill="white"></rect>
    <text x="670" y="788" font-size="9" stroke="grey" fill="black" >1.1.2.2</text>
</g>
<g>
    <rect rxns="rxn04064" x="553" y="552" width="48" height="18" stroke="black" fill="white"></rect>
    <text x="556" y="565" font-size="9" stroke="grey" fill="black" >1.1.1.15</text>
</g>
<g>
    <rect rxns="rxn01911,rxn01912" x="690" y="365" width="48" height="18" stroke="black" fill="white"></rect>
    <text x="693" y="378" font-size="9" stroke="grey" fill="black" >1.1.1.130</text>
</g>
<g>
    <rect rxns="rxn05122" x="438" y="182" width="48" height="18" stroke="black" fill="white"></rect>
    <text x="441" y="195" font-size="9" stroke="grey" fill="black" >3.2.1.67</text>
</g>
<g>
    <rect rxns="rxn06156" x="438" y="131" width="48" height="18" stroke="black" fill="white"></rect>
    <text x="441" y="144" font-size="9" stroke="grey" fill="black" >3.2.1.15</text>
</g>
<g>
    <rect rxns="R02362" x="437" y="80" width="48" height="18" stroke="black" fill="white"></rect>
    <text x="440" y="93" font-size="9" stroke="grey" fill="black" >3.1.1.11</text>
</g>
<g>
    <rect rxns="rxn14062" x="374" y="99" width="48" height="18" stroke="black" fill="white"></rect>
    <text x="377" y="112" font-size="9" stroke="grey" fill="black" >4.2.2.2</text>
</g>
<g>
    <rect rxns="rxn03042" x="308" y="131" width="48" height="18" stroke="black" fill="white"></rect>
    <text x="311" y="144" font-size="9" stroke="grey" fill="black" >4.2.2.6</text>
</g>
<g>
    <rect rxns="rxn03043" x="188" y="163" width="48" height="18" stroke="black" fill="white"></rect>
    <text x="191" y="176" font-size="9" stroke="grey" fill="black" >5.3.1.17</text>
</g>
<g>
    <rect rxns="rxn01124" x="98" y="218" width="48" height="18" stroke="black" fill="white"></rect>
    <text x="101" y="231" font-size="9" stroke="grey" fill="black" >1.1.1.125</text>
</g>
<g>
    <rect rxns="rxn01124" x="48" y="218" width="48" height="18" stroke="black" fill="white"></rect>
    <text x="51" y="231" font-size="9" stroke="grey" fill="black" >1.1.1.127</text>
</g>
<g>
    <rect rxns="rxn01390" x="605" y="503" width="48" height="18" stroke="black" fill="white"></rect>
    <text x="608" y="516" font-size="9" stroke="grey" fill="black" >2.7.1.5</text>
</g>
<g>
    <rect rxns="rxn01308" x="512" y="503" width="48" height="18" stroke="black" fill="white"></rect>
    <text x="515" y="516" font-size="9" stroke="grey" fill="black" >4.1.2.19</text>
</g>
<g>
    <rect rxns="rxn14062" x="374" y="120" width="48" height="18" stroke="black" fill="white"></rect>
    <text x="377" y="133" font-size="9" stroke="grey" fill="black" >4.2.2.9</text>
</g>
<g>
    <rect rxns="rxn01042" x="272" y="570" width="48" height="18" stroke="black" fill="white"></rect>
    <text x="275" y="583" font-size="9" stroke="grey" fill="black" >1.1.1.179</text>
</g>
<g>
    <rect rxns="R09186" x="199" y="684" width="48" height="18" stroke="black" fill="white"></rect>
    <text x="202" y="697" font-size="9" stroke="grey" fill="black" >4.2.1.-</text>
</g>
<g>
    <rect rxns="rxn00196" x="126" y="684" width="48" height="18" stroke="black" fill="white"></rect>
    <text x="129" y="697" font-size="9" stroke="grey" fill="black" >1.2.1.3</text>
</g>
<g>
    <rect rxns="rxn01006" x="386" y="295" width="48" height="18" stroke="black" fill="white"></rect>
    <text x="389" y="308" font-size="9" stroke="grey" fill="black" >2.7.7.44</text>
</g>
</svg>