<svg>
<g>
    <rect rxns="rxn00792" x="318" y="756" width="48" height="18" stroke="black" fill="white"></rect>
    <text x="321" y="769" font-size="9" stroke="grey" fill="black" >6.3.4.9</text>
</g>
<g>
    <rect rxns="rxn06864" x="307" y="867" width="48" height="18" stroke="black" fill="white"></rect>
    <text x="310" y="880" font-size="9" stroke="grey" fill="black" >6.3.4.11</text>
</g>
<g>
    <rect rxns="rxn06864" x="355" y="867" width="48" height="18" stroke="black" fill="white"></rect>
    <text x="358" y="880" font-size="9" stroke="grey" fill="black" >6.3.4.15</text>
</g>
<g>
    <rect rxns="rxn06864" x="307" y="846" width="48" height="18" stroke="black" fill="white"></rect>
    <text x="310" y="859" font-size="9" stroke="grey" fill="black" >6.3.4.9</text>
</g>
<g>
    <rect rxns="rxn00792" x="366" y="775" width="48" height="18" stroke="black" fill="white"></rect>
    <text x="369" y="788" font-size="9" stroke="grey" fill="black" >6.3.4.15</text>
</g>
<g>
    <rect rxns="rxn00792" x="318" y="775" width="48" height="18" stroke="black" fill="white"></rect>
    <text x="321" y="788" font-size="9" stroke="grey" fill="black" >6.3.4.11</text>
</g>
<g>
    <rect rxns="rxn14045" x="391" y="678" width="48" height="18" stroke="black" fill="white"></rect>
    <text x="394" y="691" font-size="9" stroke="grey" fill="black" >2.8.1.6</text>
</g>
<g>
    <rect rxns="rxn02277" x="392" y="614" width="48" height="18" stroke="black" fill="white"></rect>
    <text x="395" y="627" font-size="9" stroke="grey" fill="black" >6.3.3.3</text>
</g>
<g>
    <rect rxns="rxn02312" x="392" y="549" width="48" height="18" stroke="black" fill="white"></rect>
    <text x="395" y="562" font-size="9" stroke="grey" fill="black" >2.6.1.62</text>
</g>
<g>
    <rect rxns="R04869" x="258" y="822" width="48" height="18" stroke="black" fill="white"></rect>
    <text x="261" y="835" font-size="9" stroke="grey" fill="black" >3.4.-.-</text>
</g>
<g>
    <rect rxns="rxn02297" x="560" y="484" width="48" height="18" stroke="black" fill="white"></rect>
    <text x="563" y="497" font-size="9" stroke="grey" fill="black" >2.3.1.47</text>
</g>
<g>
    <rect rxns="rxn02296" x="560" y="396" width="48" height="18" stroke="black" fill="white"></rect>
    <text x="563" y="409" font-size="9" stroke="grey" fill="black" >6.2.1.14</text>
</g>
<g>
    <rect rxns="rxn06864" x="355" y="846" width="48" height="18" stroke="black" fill="white"></rect>
    <text x="358" y="859" font-size="9" stroke="grey" fill="black" >6.3.4.10</text>
</g>
<g>
    <rect rxns="rxn02669" x="439" y="811" width="48" height="18" stroke="black" fill="white"></rect>
    <text x="442" y="824" font-size="9" stroke="grey" fill="black" >6.2.1.11</text>
</g>
<g>
    <rect rxns="rxn00792" x="416" y="765" width="48" height="18" stroke="black" fill="white"></rect>
    <text x="419" y="778" font-size="9" stroke="grey" fill="black" >6.2.1.11</text>
</g>
<g>
    <rect rxns="rxn00792" x="366" y="756" width="48" height="18" stroke="black" fill="white"></rect>
    <text x="369" y="769" font-size="9" stroke="grey" fill="black" >6.3.4.10</text>
</g>
<g>
    <rect rxns="R09725" x="326" y="443" width="48" height="18" stroke="black" fill="white"></rect>
    <text x="329" y="456" font-size="9" stroke="grey" fill="black" >3.1.1.85</text>
</g>
<g>
    <rect rxns="R10124" x="392" y="484" width="48" height="18" stroke="black" fill="white"></rect>
    <text x="395" y="497" font-size="9" stroke="grey" fill="black" >2.3.1.47</text>
</g>
<g>
    <rect rxns="R09543" x="96" y="163" width="48" height="18" stroke="black" fill="white"></rect>
    <text x="99" y="176" font-size="9" stroke="grey" fill="black" >2.1.1.197</text>
</g>
<g>
    <rect rxns="R10116" x="156" y="286" width="48" height="18" stroke="black" fill="white"></rect>
    <text x="159" y="299" font-size="9" stroke="grey" fill="black" >1.1.1.100</text>
</g>
<g>
    <rect rxns="R10117" x="156" y="352" width="48" height="18" stroke="black" fill="white"></rect>
    <text x="159" y="365" font-size="9" stroke="grey" fill="black" >4.2.1.59</text>
</g>
<g>
    <rect rxns="R10118" x="156" y="418" width="48" height="18" stroke="black" fill="white"></rect>
    <text x="159" y="431" font-size="9" stroke="grey" fill="black" >1.3.1.10</text>
</g>
<g>
    <rect rxns="R10119" x="245" y="220" width="48" height="18" stroke="black" fill="white"></rect>
    <text x="248" y="233" font-size="9" stroke="grey" fill="black" >2.3.1.41</text>
</g>
<g>
    <rect rxns="R10120" x="271" y="286" width="48" height="18" stroke="black" fill="white"></rect>
    <text x="274" y="299" font-size="9" stroke="grey" fill="black" >1.1.1.100</text>
</g>
<g>
    <rect rxns="R10121" x="271" y="352" width="48" height="18" stroke="black" fill="white"></rect>
    <text x="274" y="365" font-size="9" stroke="grey" fill="black" >4.2.1.59</text>
</g>
<g>
    <rect rxns="R10122" x="271" y="418" width="48" height="18" stroke="black" fill="white"></rect>
    <text x="274" y="431" font-size="9" stroke="grey" fill="black" >1.3.1.10</text>
</g>
<g>
    <rect rxns="R10119" x="295" y="220" width="48" height="18" stroke="black" fill="white"></rect>
    <text x="298" y="233" font-size="9" stroke="grey" fill="black" >2.3.1.179</text>
</g>
<g>
    <rect rxns="R10123" x="392" y="396" width="48" height="18" stroke="black" fill="white"></rect>
    <text x="395" y="409" font-size="9" stroke="grey" fill="black" >1.14.-.-</text>
</g>
<g>
    <rect rxns="rxn00795" x="258" y="758" width="48" height="18" stroke="black" fill="white"></rect>
    <text x="261" y="771" font-size="9" stroke="grey" fill="black" >3.5.1.12</text>
</g>
<g>
    <rect rxns="R10127" x="441" y="727" width="48" height="18" stroke="black" fill="white"></rect>
    <text x="444" y="740" font-size="9" stroke="grey" fill="black" >1.-.-.-</text>
</g>
<g>
    <rect rxns="R10115" x="130" y="220" width="48" height="18" stroke="black" fill="white"></rect>
    <text x="133" y="233" font-size="9" stroke="grey" fill="black" >2.3.1.41</text>
</g>
<g>
    <rect rxns="R10115" x="180" y="220" width="48" height="18" stroke="black" fill="white"></rect>
    <text x="183" y="233" font-size="9" stroke="grey" fill="black" >2.3.1.179</text>
</g>
</svg>