<svg>
<g>
    <rect rxns="rxn01823" x="468" y="166" width="48" height="18" stroke="black" fill="white"></rect>
    <text x="471" y="179" font-size="9" stroke="grey" fill="black" >1.14.13.63</text>
</g>
<g>
    <rect rxns="rxn07645" x="166" y="154" width="48" height="18" stroke="black" fill="white"></rect>
    <text x="169" y="167" font-size="9" stroke="grey" fill="black" >3.5.5.1</text>
</g>
<g>
    <rect rxns="rxn01843" x="271" y="154" width="48" height="18" stroke="black" fill="white"></rect>
    <text x="274" y="167" font-size="9" stroke="grey" fill="black" >3.5.1.4</text>
</g>
<g>
    <rect rxns="rxn07644" x="214" y="125" width="48" height="18" stroke="black" fill="white"></rect>
    <text x="217" y="138" font-size="9" stroke="grey" fill="black" >4.2.1.84</text>
</g>
<g>
    <rect rxns="rxn07454" x="111" y="125" width="48" height="18" stroke="black" fill="white"></rect>
    <text x="114" y="138" font-size="9" stroke="grey" fill="black" >4.99.1.7</text>
</g>
<g>
    <rect rxns="rxn03798" x="721" y="375" width="48" height="18" stroke="black" fill="white"></rect>
    <text x="724" y="388" font-size="9" stroke="grey" fill="black" >2.8.3.1</text>
</g>
<g>
    <rect rxns="rxn00993" x="706" y="207" width="48" height="18" stroke="black" fill="white"></rect>
    <text x="709" y="220" font-size="9" stroke="grey" fill="black" >3.7.1.2</text>
</g>
<g>
    <rect rxns="rxn02123" x="611" y="375" width="48" height="18" stroke="black" fill="white"></rect>
    <text x="614" y="388" font-size="9" stroke="grey" fill="black" >4.2.1.54</text>
</g>
<g>
    <rect rxns="rxn02276" x="613" y="207" width="48" height="18" stroke="black" fill="white"></rect>
    <text x="616" y="220" font-size="9" stroke="grey" fill="black" >5.2.1.2</text>
</g>
<g>
    <rect rxns="rxn03799" x="491" y="376" width="48" height="18" stroke="black" fill="white"></rect>
    <text x="494" y="389" font-size="9" stroke="grey" fill="black" >2.8.3.12</text>
</g>
<g>
    <rect rxns="rxn03839" x="361" y="380" width="48" height="18" stroke="black" fill="white"></rect>
    <text x="364" y="393" font-size="9" stroke="grey" fill="black" >3.5.1.4</text>
</g>
<g>
    <rect rxns="rxn03717" x="114" y="285" width="48" height="18" stroke="black" fill="white"></rect>
    <text x="117" y="298" font-size="9" stroke="grey" fill="black" >1.14.12.-</text>
</g>
<g>
    <rect rxns="rxn01840" x="213" y="207" width="48" height="18" stroke="black" fill="white"></rect>
    <text x="216" y="220" font-size="9" stroke="grey" fill="black" >1.2.1.39</text>
</g>
<g>
    <rect rxns="rxn03783" x="312" y="207" width="48" height="18" stroke="black" fill="white"></rect>
    <text x="315" y="220" font-size="9" stroke="grey" fill="black" >1.14.13.-</text>
</g>
<g>
    <rect rxns="rxn03680" x="306" y="346" width="48" height="18" stroke="black" fill="white"></rect>
    <text x="309" y="359" font-size="9" stroke="grey" fill="black" >4.2.1.84</text>
</g>
<g>
    <rect rxns="rxn03659" x="361" y="319" width="48" height="18" stroke="black" fill="white"></rect>
    <text x="364" y="332" font-size="9" stroke="grey" fill="black" >3.5.5.7</text>
</g>
<g>
    <rect rxns="rxn03750" x="412" y="207" width="48" height="18" stroke="black" fill="white"></rect>
    <text x="415" y="220" font-size="9" stroke="grey" fill="black" >1.14.13.-</text>
</g>
<g>
    <rect rxns="rxn06921" x="69" y="249" width="48" height="18" stroke="black" fill="white"></rect>
    <text x="72" y="262" font-size="9" stroke="grey" fill="black" >1.14.13.-</text>
</g>
<g>
    <rect rxns="rxn01825" x="511" y="207" width="48" height="18" stroke="black" fill="white"></rect>
    <text x="514" y="220" font-size="9" stroke="grey" fill="black" >1.13.11.5</text>
</g>
<g>
    <rect rxns="rxn03704" x="296" y="285" width="48" height="18" stroke="black" fill="white"></rect>
    <text x="299" y="298" font-size="9" stroke="grey" fill="black" >1.13.11.2</text>
</g>
<g>
    <rect rxns="rxn01904" x="113" y="207" width="48" height="18" stroke="black" fill="white"></rect>
    <text x="116" y="220" font-size="9" stroke="grey" fill="black" >5.3.99.7</text>
</g>
<g>
    <rect rxns="rxn03655" x="206" y="285" width="48" height="18" stroke="black" fill="white"></rect>
    <text x="209" y="298" font-size="9" stroke="grey" fill="black" >1.3.1.19</text>
</g>
<g>
    <rect rxns="rxn03663" x="398" y="285" width="48" height="18" stroke="black" fill="white"></rect>
    <text x="401" y="298" font-size="9" stroke="grey" fill="black" >3.7.1.9</text>
</g>
</svg>