<svg>
<g>
    <rect rxns="rxn00113" x="625" y="182" width="48" height="18" stroke="black" fill="white"></rect>
    <text x="628" y="195" font-size="9" stroke="grey" fill="black" >6.3.4.16</text>
</g>
<g>
    <rect rxns="rxn00114" x="625" y="161" width="48" height="18" stroke="black" fill="white"></rect>
    <text x="628" y="174" font-size="9" stroke="grey" fill="black" >2.7.2.2</text>
</g>
<g>
    <rect rxns="rxn00347" x="490" y="448" width="48" height="18" stroke="black" fill="white"></rect>
    <text x="493" y="461" font-size="9" stroke="grey" fill="black" >4.3.1.1</text>
</g>
<g>
    <rect rxns="rxn00347" x="490" y="469" width="48" height="18" stroke="black" fill="white"></rect>
    <text x="493" y="482" font-size="9" stroke="grey" fill="black" >3.5.1.38</text>
</g>
<g>
    <rect rxns="rxn00340" x="628" y="407" width="48" height="18" stroke="black" fill="white"></rect>
    <text x="631" y="420" font-size="9" stroke="grey" fill="black" >6.3.1.1</text>
</g>
<g>
    <rect rxns="rxn00339" x="628" y="428" width="48" height="18" stroke="black" fill="white"></rect>
    <text x="631" y="441" font-size="9" stroke="grey" fill="black" >6.3.1.4</text>
</g>
<g>
    <rect rxns="rxn00182" x="629" y="509" width="48" height="18" stroke="black" fill="white"></rect>
    <text x="632" y="522" font-size="9" stroke="grey" fill="black" >1.4.1.2</text>
</g>
<g>
    <rect rxns="rxn00182,rxn00184" x="605" y="530" width="48" height="18" stroke="black" fill="white"></rect>
    <text x="608" y="543" font-size="9" stroke="grey" fill="black" >1.4.1.3</text>
</g>
<g>
    <rect rxns="rxn00182,rxn00184" x="653" y="530" width="48" height="18" stroke="black" fill="white"></rect>
    <text x="656" y="543" font-size="9" stroke="grey" fill="black" >1.4.1.4</text>
</g>
<g>
    <rect rxns="rxn00085" x="605" y="556" width="48" height="18" stroke="black" fill="white"></rect>
    <text x="608" y="569" font-size="9" stroke="grey" fill="black" >1.4.1.13</text>
</g>
<g>
    <rect rxns="rxn00189" x="492" y="577" width="48" height="18" stroke="black" fill="white"></rect>
    <text x="495" y="590" font-size="9" stroke="grey" fill="black" >3.5.1.2</text>
</g>
<g>
    <rect rxns="rxn00189" x="492" y="601" width="48" height="18" stroke="black" fill="white"></rect>
    <text x="495" y="614" font-size="9" stroke="grey" fill="black" >3.5.1.38</text>
</g>
<g>
    <rect rxns="rxn00069" x="605" y="577" width="48" height="18" stroke="black" fill="white"></rect>
    <text x="608" y="590" font-size="9" stroke="grey" fill="black" >1.4.1.14</text>
</g>
<g>
    <rect rxns="rxn12822" x="653" y="577" width="48" height="18" stroke="black" fill="white"></rect>
    <text x="656" y="590" font-size="9" stroke="grey" fill="black" >1.4.7.1</text>
</g>
<g>
    <rect rxns="rxn00416" x="653" y="556" width="48" height="18" stroke="black" fill="white"></rect>
    <text x="656" y="569" font-size="9" stroke="grey" fill="black" >6.3.5.4</text>
</g>
<g>
    <rect rxns="rxn00570" x="268" y="347" width="48" height="18" stroke="black" fill="white"></rect>
    <text x="271" y="360" font-size="9" stroke="grey" fill="black" >1.7.3.4</text>
</g>
<g>
    <rect rxns="rxn00571" x="84" y="463" width="48" height="18" stroke="black" fill="white"></rect>
    <text x="87" y="476" font-size="9" stroke="grey" fill="black" >1.7.1.1</text>
</g>
<g>
    <rect rxns="rxn00571,rxn00572" x="132" y="463" width="48" height="18" stroke="black" fill="white"></rect>
    <text x="135" y="476" font-size="9" stroke="grey" fill="black" >1.7.1.2</text>
</g>
<g>
    <rect rxns="rxn00572" x="84" y="482" width="48" height="18" stroke="black" fill="white"></rect>
    <text x="87" y="495" font-size="9" stroke="grey" fill="black" >1.7.1.3</text>
</g>
<g>
    <rect rxns="rxn05895,rxn11973" x="132" y="444" width="48" height="18" stroke="black" fill="white"></rect>
    <text x="135" y="457" font-size="9" stroke="grey" fill="black" >1.9.6.1</text>
</g>
<g>
    <rect rxns="rxn14358" x="132" y="482" width="48" height="18" stroke="black" fill="white"></rect>
    <text x="135" y="495" font-size="9" stroke="grey" fill="black" >1.7.99.4</text>
</g>
<g>
    <rect rxns="rxn05894" x="84" y="444" width="48" height="18" stroke="black" fill="white"></rect>
    <text x="87" y="457" font-size="9" stroke="grey" fill="black" >1.7.7.2</text>
</g>
<g>
    <rect rxns="rxn14250" x="169" y="347" width="48" height="18" stroke="black" fill="white"></rect>
    <text x="172" y="360" font-size="9" stroke="grey" fill="black" >1.13.12.16</text>
</g>
<g>
    <rect rxns="rxn00573" x="219" y="347" width="48" height="18" stroke="black" fill="white"></rect>
    <text x="222" y="360" font-size="9" stroke="grey" fill="black" >1.7.3.1</text>
</g>
<g>
    <rect rxns="rxn00109" x="314" y="381" width="48" height="18" stroke="black" fill="white"></rect>
    <text x="317" y="394" font-size="9" stroke="grey" fill="black" >1.7.1.10</text>
</g>
<g>
    <rect rxns="rxn00109" x="364" y="381" width="48" height="18" stroke="black" fill="white"></rect>
    <text x="367" y="394" font-size="9" stroke="grey" fill="black" >1.7.99.1</text>
</g>
<g>
    <rect rxns="rxn03978" x="306" y="482" width="48" height="18" stroke="black" fill="white"></rect>
    <text x="309" y="495" font-size="9" stroke="grey" fill="black" >1.7.2.2</text>
</g>
<g>
    <rect rxns="rxn14028,rxn14395" x="306" y="444" width="48" height="18" stroke="black" fill="white"></rect>
    <text x="309" y="457" font-size="9" stroke="grey" fill="black" >1.7.1.4</text>
</g>
<g>
    <rect rxns="rxn05893" x="306" y="463" width="48" height="18" stroke="black" fill="white"></rect>
    <text x="309" y="476" font-size="9" stroke="grey" fill="black" >1.7.7.1</text>
</g>
<g>
    <rect rxns="rxn00567,rxn05890" x="192" y="505" width="48" height="18" stroke="black" fill="white"></rect>
    <text x="195" y="518" font-size="9" stroke="grey" fill="black" >1.7.2.1</text>
</g>
<g>
    <rect rxns="rxn06874" x="343" y="507" width="48" height="18" stroke="black" fill="white"></rect>
    <text x="346" y="520" font-size="9" stroke="grey" fill="black" >1.18.6.1</text>
</g>
<g>
    <rect rxns="R05186" x="393" y="507" width="48" height="18" stroke="black" fill="white"></rect>
    <text x="396" y="520" font-size="9" stroke="grey" fill="black" >1.19.6.1</text>
</g>
<g>
    <rect rxns="rxn06246" x="318" y="553" width="48" height="18" stroke="black" fill="white"></rect>
    <text x="321" y="566" font-size="9" stroke="grey" fill="black" >1.7.2.4</text>
</g>
<g>
    <rect rxns="rxn00187" x="492" y="556" width="48" height="18" stroke="black" fill="white"></rect>
    <text x="495" y="569" font-size="9" stroke="grey" fill="black" >6.3.1.2</text>
</g>
<g>
    <rect rxns="rxn00388" x="492" y="633" width="48" height="18" stroke="black" fill="white"></rect>
    <text x="495" y="646" font-size="9" stroke="grey" fill="black" >3.5.5.1</text>
</g>
<g>
    <rect rxns="rxn00388" x="492" y="654" width="48" height="18" stroke="black" fill="white"></rect>
    <text x="495" y="667" font-size="9" stroke="grey" fill="black" >3.5.5.2</text>
</g>
<g>
    <rect rxns="rxn00908" x="628" y="308" width="48" height="18" stroke="black" fill="white"></rect>
    <text x="631" y="321" font-size="9" stroke="grey" fill="black" >2.1.2.10</text>
</g>
<g>
    <rect rxns="rxn00374" x="422" y="149" width="48" height="18" stroke="black" fill="white"></rect>
    <text x="425" y="162" font-size="9" stroke="grey" fill="black" >3.5.1.49</text>
</g>
<g>
    <rect rxns="rxn00102" x="625" y="214" width="48" height="18" stroke="black" fill="white"></rect>
    <text x="628" y="227" font-size="9" stroke="grey" fill="black" >4.2.1.1</text>
</g>
<g>
    <rect rxns="rxn02529" x="626" y="244" width="48" height="18" stroke="black" fill="white"></rect>
    <text x="629" y="257" font-size="9" stroke="grey" fill="black" >4.2.1.104</text>
</g>
<g>
    <rect rxns="rxn01016" x="713" y="209" width="48" height="18" stroke="black" fill="white"></rect>
    <text x="716" y="222" font-size="9" stroke="grey" fill="black" >2.7.2.2</text>
</g>
<g>
    <rect rxns="rxn00342" x="628" y="364" width="48" height="18" stroke="black" fill="white"></rect>
    <text x="631" y="377" font-size="9" stroke="grey" fill="black" >3.5.1.1</text>
</g>
<g>
    <rect rxns="rxn07198" x="284" y="701" width="48" height="18" stroke="black" fill="white"></rect>
    <text x="287" y="714" font-size="9" stroke="grey" fill="black" >1.7.99.8</text>
</g>
<g>
    <rect rxns="rxn05801" x="232" y="544" width="48" height="18" stroke="black" fill="white"></rect>
    <text x="235" y="557" font-size="9" stroke="grey" fill="black" >1.7.2.5</text>
</g>
<g>
    <rect rxns="rxn14010" x="384" y="319" width="48" height="18" stroke="black" fill="white"></rect>
    <text x="387" y="332" font-size="9" stroke="grey" fill="black" >1.14.99.39</text>
</g>
<g>
    <rect rxns="rxn01806,R09446,R09808,R09809" x="232" y="565" width="48" height="18" stroke="black" fill="white"></rect>
    <text x="235" y="578" font-size="9" stroke="grey" fill="black" >1.7.1.14</text>
</g>
</svg>