<svg>
<g>
    <rect rxns="R09115" x="826" y="316" width="48" height="18" stroke="black" fill="white"></rect>
    <text x="829" y="329" font-size="9" stroke="grey" fill="black" >4.2.3.33</text>
</g>
<g>
    <rect rxns="rxn04177" x="924" y="584" width="48" height="18" stroke="black" fill="white"></rect>
    <text x="927" y="597" font-size="9" stroke="grey" fill="black" >4.2.3.32</text>
</g>
<g>
    <rect rxns="rxn04178" x="1020" y="584" width="48" height="18" stroke="black" fill="white"></rect>
    <text x="1023" y="597" font-size="9" stroke="grey" fill="black" >4.2.3.32</text>
</g>
<g>
    <rect rxns="R09120" x="622" y="367" width="48" height="18" stroke="black" fill="white"></rect>
    <text x="625" y="380" font-size="9" stroke="grey" fill="black" >4.2.3.29</text>
</g>
<g>
    <rect rxns="rxn04175" x="734" y="584" width="48" height="18" stroke="black" fill="white"></rect>
    <text x="737" y="597" font-size="9" stroke="grey" fill="black" >4.2.3.18</text>
</g>
<g>
    <rect rxns="rxn04176" x="828" y="584" width="48" height="18" stroke="black" fill="white"></rect>
    <text x="831" y="597" font-size="9" stroke="grey" fill="black" >4.2.3.32</text>
</g>
<g>
    <rect rxns="R09121" x="680" y="399" width="48" height="18" stroke="black" fill="white"></rect>
    <text x="683" y="412" font-size="9" stroke="grey" fill="black" >4.2.3.30</text>
</g>
<g>
    <rect rxns="rxn04186" x="1007" y="316" width="48" height="18" stroke="black" fill="white"></rect>
    <text x="1010" y="329" font-size="9" stroke="grey" fill="black" >4.2.3.42</text>
</g>
<g>
    <rect rxns="rxn01490" x="363" y="174" width="48" height="18" stroke="black" fill="white"></rect>
    <text x="366" y="187" font-size="9" stroke="grey" fill="black" >5.5.1.13</text>
</g>
<g>
    <rect rxns="rxn01490" x="734" y="174" width="48" height="18" stroke="black" fill="white"></rect>
    <text x="737" y="187" font-size="9" stroke="grey" fill="black" >5.5.1.12</text>
</g>
<g>
    <rect rxns="rxn01488" x="949" y="174" width="48" height="18" stroke="black" fill="white"></rect>
    <text x="952" y="187" font-size="9" stroke="grey" fill="black" >4.2.3.8</text>
</g>
<g>
    <rect rxns="rxn04179" x="94" y="174" width="48" height="18" stroke="black" fill="white"></rect>
    <text x="97" y="187" font-size="9" stroke="grey" fill="black" >4.2.3.17</text>
</g>
<g>
    <rect rxns="rxn04185" x="827" y="174" width="48" height="18" stroke="black" fill="white"></rect>
    <text x="830" y="187" font-size="9" stroke="grey" fill="black" >5.5.1.14</text>
</g>
<g>
    <rect rxns="rxn07097" x="94" y="229" width="48" height="18" stroke="black" fill="white"></rect>
    <text x="97" y="242" font-size="9" stroke="grey" fill="black" >1.14.99.37</text>
</g>
<g>
    <rect rxns="rxn03452" x="363" y="230" width="48" height="18" stroke="black" fill="white"></rect>
    <text x="366" y="243" font-size="9" stroke="grey" fill="black" >4.2.3.19</text>
</g>
<g>
    <rect rxns="rxn04180" x="223" y="289" width="48" height="18" stroke="black" fill="white"></rect>
    <text x="226" y="302" font-size="9" stroke="grey" fill="black" >2.3.1.162</text>
</g>
<g>
    <rect rxns="rxn04165" x="363" y="289" width="48" height="18" stroke="black" fill="white"></rect>
    <text x="366" y="302" font-size="9" stroke="grey" fill="black" >1.14.13.78</text>
</g>
<g>
    <rect rxns="rxn04181" x="94" y="289" width="48" height="18" stroke="black" fill="white"></rect>
    <text x="97" y="302" font-size="9" stroke="grey" fill="black" >1.14.13.77</text>
</g>
<g>
    <rect rxns="rxn04182" x="223" y="340" width="48" height="18" stroke="black" fill="white"></rect>
    <text x="226" y="353" font-size="9" stroke="grey" fill="black" >1.14.13.76</text>
</g>
<g>
    <rect rxns="rxn04166" x="363" y="347" width="48" height="18" stroke="black" fill="white"></rect>
    <text x="366" y="360" font-size="9" stroke="grey" fill="black" >1.14.13.78</text>
</g>
<g>
    <rect rxns="rxn04167" x="363" y="407" width="48" height="18" stroke="black" fill="white"></rect>
    <text x="366" y="420" font-size="9" stroke="grey" fill="black" >1.14.13.78</text>
</g>
<g>
    <rect rxns="rxn04168" x="363" y="464" width="48" height="18" stroke="black" fill="white"></rect>
    <text x="366" y="477" font-size="9" stroke="grey" fill="black" >1.14.13.79</text>
</g>
<g>
    <rect rxns="rxn04183" x="94" y="458" width="48" height="18" stroke="black" fill="white"></rect>
    <text x="97" y="471" font-size="9" stroke="grey" fill="black" >2.3.1.166</text>
</g>
<g>
    <rect rxns="rxn04169" x="363" y="525" width="48" height="18" stroke="black" fill="white"></rect>
    <text x="366" y="538" font-size="9" stroke="grey" fill="black" >1.14.13.79</text>
</g>
<g>
    <rect rxns="rxn04170" x="408" y="500" width="48" height="18" stroke="black" fill="white"></rect>
    <text x="411" y="513" font-size="9" stroke="grey" fill="black" >1.14.13.79</text>
</g>
<g>
    <rect rxns="rxn04184" x="94" y="525" width="48" height="18" stroke="black" fill="white"></rect>
    <text x="97" y="538" font-size="9" stroke="grey" fill="black" >2.3.1.167</text>
</g>
<g>
    <rect rxns="rxn12020" x="94" y="701" width="48" height="18" stroke="black" fill="white"></rect>
    <text x="97" y="714" font-size="9" stroke="grey" fill="black" >2.3.1.-</text>
</g>
<g>
    <rect rxns="rxn04199" x="363" y="760" width="48" height="18" stroke="black" fill="white"></rect>
    <text x="366" y="773" font-size="9" stroke="grey" fill="black" >1.14.11.12</text>
</g>
<g>
    <rect rxns="rxn04196" x="363" y="701" width="48" height="18" stroke="black" fill="white"></rect>
    <text x="366" y="714" font-size="9" stroke="grey" fill="black" >1.14.11.12</text>
</g>
<g>
    <rect rxns="rxn04195" x="363" y="642" width="48" height="18" stroke="black" fill="white"></rect>
    <text x="366" y="655" font-size="9" stroke="grey" fill="black" >1.14.11.12</text>
</g>
<g>
    <rect rxns="rxn04171" x="363" y="585" width="48" height="18" stroke="black" fill="white"></rect>
    <text x="366" y="598" font-size="9" stroke="grey" fill="black" >1.14.13.79</text>
</g>
<g>
    <rect rxns="rxn02698" x="537" y="758" width="48" height="18" stroke="black" fill="white"></rect>
    <text x="540" y="771" font-size="9" stroke="grey" fill="black" >1.14.11.12</text>
</g>
<g>
    <rect rxns="rxn02697" x="537" y="699" width="48" height="18" stroke="black" fill="white"></rect>
    <text x="540" y="712" font-size="9" stroke="grey" fill="black" >1.14.11.12</text>
</g>
<g>
    <rect rxns="rxn03453" x="537" y="640" width="48" height="18" stroke="black" fill="white"></rect>
    <text x="540" y="653" font-size="9" stroke="grey" fill="black" >1.14.11.12</text>
</g>
<g>
    <rect rxns="rxn02699" x="599" y="824" width="48" height="18" stroke="black" fill="white"></rect>
    <text x="602" y="837" font-size="9" stroke="grey" fill="black" >1.14.11.13</text>
</g>
<g>
    <rect rxns="rxn02157" x="538" y="994" width="48" height="18" stroke="black" fill="white"></rect>
    <text x="541" y="1007" font-size="9" stroke="grey" fill="black" >1.14.11.13</text>
</g>
<g>
    <rect rxns="rxn04220" x="476" y="914" width="48" height="18" stroke="black" fill="white"></rect>
    <text x="479" y="927" font-size="9" stroke="grey" fill="black" >1.14.11.-</text>
</g>
<g>
    <rect rxns="rxn04219" x="476" y="833" width="48" height="18" stroke="black" fill="white"></rect>
    <text x="479" y="846" font-size="9" stroke="grey" fill="black" >1.14.11.-</text>
</g>
<g>
    <rect rxns="rxn04223" x="281" y="879" width="48" height="18" stroke="black" fill="white"></rect>
    <text x="284" y="892" font-size="9" stroke="grey" fill="black" >1.14.11.-</text>
</g>
<g>
    <rect rxns="rxn04210" x="363" y="824" width="48" height="18" stroke="black" fill="white"></rect>
    <text x="366" y="837" font-size="9" stroke="grey" fill="black" >1.14.11.13</text>
</g>
<g>
    <rect rxns="rxn04222" x="312" y="833" width="48" height="18" stroke="black" fill="white"></rect>
    <text x="315" y="846" font-size="9" stroke="grey" fill="black" >1.14.11.-</text>
</g>
<g>
    <rect rxns="rxn04211" x="130" y="824" width="48" height="18" stroke="black" fill="white"></rect>
    <text x="133" y="837" font-size="9" stroke="grey" fill="black" >1.14.11.13</text>
</g>
<g>
    <rect rxns="rxn04209" x="281" y="792" width="48" height="18" stroke="black" fill="white"></rect>
    <text x="284" y="805" font-size="9" stroke="grey" fill="black" >1.14.11.15</text>
</g>
<g>
    <rect rxns="rxn04215" x="130" y="878" width="48" height="18" stroke="black" fill="white"></rect>
    <text x="133" y="891" font-size="9" stroke="grey" fill="black" >1.14.11.13</text>
</g>
<g>
    <rect rxns="rxn04217" x="599" y="878" width="48" height="18" stroke="black" fill="white"></rect>
    <text x="602" y="891" font-size="9" stroke="grey" fill="black" >1.14.11.13</text>
</g>
<g>
    <rect rxns="rxn04218" x="661" y="989" width="48" height="18" stroke="black" fill="white"></rect>
    <text x="664" y="1002" font-size="9" stroke="grey" fill="black" >1.14.11.13</text>
</g>
<g>
    <rect rxns="rxn02158" x="537" y="912" width="48" height="18" stroke="black" fill="white"></rect>
    <text x="540" y="925" font-size="9" stroke="grey" fill="black" >1.14.11.15</text>
</g>
<g>
    <rect rxns="rxn04216" x="363" y="878" width="48" height="18" stroke="black" fill="white"></rect>
    <text x="366" y="891" font-size="9" stroke="grey" fill="black" >1.14.11.13</text>
</g>
<g>
    <rect rxns="rxn12022" x="94" y="642" width="48" height="18" stroke="black" fill="white"></rect>
    <text x="97" y="655" font-size="9" stroke="grey" fill="black" >1.14.-.-</text>
</g>
<g>
    <rect rxns="rxn12021" x="94" y="585" width="48" height="18" stroke="black" fill="white"></rect>
    <text x="97" y="598" font-size="9" stroke="grey" fill="black" >2.3.2.-</text>
</g>
<g>
    <rect rxns="rxn04230" x="734" y="769" width="48" height="18" stroke="black" fill="white"></rect>
    <text x="737" y="782" font-size="9" stroke="grey" fill="black" >1.2.1.74</text>
</g>
<g>
    <rect rxns="R09111" x="1114" y="584" width="48" height="18" stroke="black" fill="white"></rect>
    <text x="1117" y="597" font-size="9" stroke="grey" fill="black" >4.2.3.44</text>
</g>
<g>
    <rect rxns="rxn04224" x="734" y="650" width="48" height="18" stroke="black" fill="white"></rect>
    <text x="737" y="663" font-size="9" stroke="grey" fill="black" >1.14.13.108</text>
</g>
<g>
    <rect rxns="rxn14096" x="1083" y="174" width="48" height="18" stroke="black" fill="white"></rect>
    <text x="1086" y="187" font-size="9" stroke="grey" fill="black" >3.1.7.4</text>
</g>
<g>
    <rect rxns="R09119" x="552" y="231" width="48" height="18" stroke="black" fill="white"></rect>
    <text x="555" y="244" font-size="9" stroke="grey" fill="black" >4.2.3.28</text>
</g>
<g>
    <rect rxns="rxn04227" x="734" y="707" width="48" height="18" stroke="black" fill="white"></rect>
    <text x="737" y="720" font-size="9" stroke="grey" fill="black" >1.14.13.109</text>
</g>
<g>
    <rect rxns="R09116" x="918" y="316" width="48" height="18" stroke="black" fill="white"></rect>
    <text x="921" y="329" font-size="9" stroke="grey" fill="black" >4.2.3.34</text>
</g>
<g>
    <rect rxns="R09117" x="1115" y="316" width="48" height="18" stroke="black" fill="white"></rect>
    <text x="1118" y="329" font-size="9" stroke="grey" fill="black" >4.2.3.35</text>
</g>
<g>
    <rect rxns="rxn14153,rxn14239" x="1115" y="487" width="48" height="18" stroke="black" fill="white"></rect>
    <text x="1118" y="500" font-size="9" stroke="grey" fill="black" >1.1.1.295</text>
</g>
<g>
    <rect rxns="rxn14009" x="1223" y="174" width="48" height="18" stroke="black" fill="white"></rect>
    <text x="1226" y="187" font-size="9" stroke="grey" fill="black" >3.1.7.5</text>
</g>
<g>
    <rect rxns="R09122" x="1223" y="241" width="48" height="18" stroke="black" fill="white"></rect>
    <text x="1226" y="254" font-size="9" stroke="grey" fill="black" >1.14.13.110</text>
</g>
<g>
    <rect rxns="R09123" x="1154" y="174" width="48" height="18" stroke="black" fill="white"></rect>
    <text x="1157" y="187" font-size="9" stroke="grey" fill="black" >4.2.3.43</text>
</g>
<g>
    <rect rxns="R09112" x="1115" y="650" width="48" height="18" stroke="black" fill="white"></rect>
    <text x="1118" y="663" font-size="9" stroke="grey" fill="black" >1.14.13.-</text>
</g>
<g>
    <rect rxns="R09113" x="1115" y="707" width="48" height="18" stroke="black" fill="white"></rect>
    <text x="1118" y="720" font-size="9" stroke="grey" fill="black" >1.14.13.-</text>
</g>
<g>
    <rect rxns="R09109" x="1020" y="707" width="48" height="18" stroke="black" fill="white"></rect>
    <text x="1023" y="720" font-size="9" stroke="grey" fill="black" >1.14.13.-</text>
</g>
<g>
    <rect rxns="R09108" x="1020" y="650" width="48" height="18" stroke="black" fill="white"></rect>
    <text x="1023" y="663" font-size="9" stroke="grey" fill="black" >1.14.13.-</text>
</g>
<g>
    <rect rxns="rxn04226" x="924" y="650" width="48" height="18" stroke="black" fill="white"></rect>
    <text x="927" y="663" font-size="9" stroke="grey" fill="black" >1.14.13.-</text>
</g>
<g>
    <rect rxns="rxn04225" x="828" y="650" width="48" height="18" stroke="black" fill="white"></rect>
    <text x="831" y="663" font-size="9" stroke="grey" fill="black" >1.14.13.-</text>
</g>
<g>
    <rect rxns="rxn04228" x="828" y="707" width="48" height="18" stroke="black" fill="white"></rect>
    <text x="831" y="720" font-size="9" stroke="grey" fill="black" >1.14.13.-</text>
</g>
<g>
    <rect rxns="rxn04229" x="924" y="707" width="48" height="18" stroke="black" fill="white"></rect>
    <text x="927" y="720" font-size="9" stroke="grey" fill="black" >1.14.13.-</text>
</g>
<g>
    <rect rxns="R09903" x="484" y="231" width="48" height="18" stroke="black" fill="white"></rect>
    <text x="487" y="244" font-size="9" stroke="grey" fill="black" >4.2.3.103</text>
</g>
<g>
    <rect rxns="R09861" x="484" y="289" width="48" height="18" stroke="black" fill="white"></rect>
    <text x="487" y="302" font-size="9" stroke="grey" fill="black" >1.14.13.143</text>
</g>
<g>
    <rect rxns="R09865" x="1115" y="375" width="48" height="18" stroke="black" fill="white"></rect>
    <text x="1118" y="388" font-size="9" stroke="grey" fill="black" >1.14.13.144</text>
</g>
<g>
    <rect rxns="R09866" x="552" y="289" width="48" height="18" stroke="black" fill="white"></rect>
    <text x="555" y="302" font-size="9" stroke="grey" fill="black" >1.14.13.145</text>
</g>
<g>
    <rect rxns="R09867" x="222" y="396" width="48" height="18" stroke="black" fill="white"></rect>
    <text x="225" y="409" font-size="9" stroke="grey" fill="black" >1.14.13.146</text>
</g>
<g>
    <rect rxns="R09874" x="1019" y="174" width="48" height="18" stroke="black" fill="white"></rect>
    <text x="1022" y="187" font-size="9" stroke="grey" fill="black" >3.1.7.10</text>
</g>
<g>
    <rect rxns="R09921" x="917" y="375" width="48" height="18" stroke="black" fill="white"></rect>
    <text x="920" y="388" font-size="9" stroke="grey" fill="black" >1.14.13.144</text>
</g>
</svg>