<svg>
<g>
    <rect rxns="rxn05022" x="577" y="629" width="48" height="18" stroke="black" fill="white"></rect>
    <text x="580" y="642" font-size="9" stroke="grey" fill="black" >2.4.1.215</text>
</g>
<g>
    <rect rxns="rxn07865" x="434" y="629" width="48" height="18" stroke="black" fill="white"></rect>
    <text x="437" y="642" font-size="9" stroke="grey" fill="black" >2.4.1.-</text>
</g>
<g>
    <rect rxns="rxn03972" x="434" y="567" width="48" height="18" stroke="black" fill="white"></rect>
    <text x="437" y="580" font-size="9" stroke="grey" fill="black" >1.3.1.69</text>
</g>
<g>
    <rect rxns="rxn02836" x="143" y="409" width="48" height="18" stroke="black" fill="white"></rect>
    <text x="146" y="422" font-size="9" stroke="grey" fill="black" >2.5.1.27</text>
</g>
<g>
    <rect rxns="rxn14073" x="577" y="211" width="48" height="18" stroke="black" fill="white"></rect>
    <text x="580" y="224" font-size="9" stroke="grey" fill="black" >2.5.1.75</text>
</g>
<g>
    <rect rxns="rxn02645" x="143" y="629" width="48" height="18" stroke="black" fill="white"></rect>
    <text x="146" y="642" font-size="9" stroke="grey" fill="black" >2.5.1.24</text>
</g>
<g>
    <rect rxns="rxn06952" x="143" y="567" width="48" height="18" stroke="black" fill="white"></rect>
    <text x="146" y="580" font-size="9" stroke="grey" fill="black" >1.5.99.12</text>
</g>
<g>
    <rect rxns="rxn01528" x="293" y="835" width="48" height="18" stroke="black" fill="white"></rect>
    <text x="296" y="848" font-size="9" stroke="grey" fill="black" >2.4.2.40</text>
</g>
<g>
    <rect rxns="rxn01527" x="293" y="694" width="48" height="18" stroke="black" fill="white"></rect>
    <text x="296" y="707" font-size="9" stroke="grey" fill="black" >2.4.1.203</text>
</g>
<g>
    <rect rxns="rxn02247" x="293" y="629" width="48" height="18" stroke="black" fill="white"></rect>
    <text x="296" y="642" font-size="9" stroke="grey" fill="black" >2.5.1.50</text>
</g>
<g>
    <rect rxns="rxn07864" x="292" y="768" width="48" height="18" stroke="black" fill="white"></rect>
    <text x="295" y="781" font-size="9" stroke="grey" fill="black" >2.4.1.-</text>
</g>
</svg>