<svg>
<g>
    <rect rxns="rxn07364" x="135" y="619" width="48" height="18" stroke="black" fill="white"></rect>
    <text x="138" y="632" font-size="9" stroke="grey" fill="black" >2.1.1.210</text>
</g>
<g>
    <rect rxns="rxn07646" x="300" y="638" width="48" height="18" stroke="black" fill="white"></rect>
    <text x="303" y="651" font-size="9" stroke="grey" fill="black" >5.5.1.19</text>
</g>
<g>
    <rect rxns="rxn11625" x="302" y="542" width="48" height="18" stroke="black" fill="white"></rect>
    <text x="305" y="555" font-size="9" stroke="grey" fill="black" >5.5.1.19</text>
</g>
<g>
    <rect rxns="rxn04760" x="1376" y="794" width="48" height="18" stroke="black" fill="white"></rect>
    <text x="1379" y="807" font-size="9" stroke="grey" fill="black" >5.3.99.9</text>
</g>
<g>
    <rect rxns="rxn07469" x="450" y="193" width="48" height="18" stroke="black" fill="white"></rect>
    <text x="453" y="206" font-size="9" stroke="grey" fill="black" >1.14.99.44</text>
</g>
<g>
    <rect rxns="rxn07471" x="308" y="230" width="48" height="18" stroke="black" fill="white"></rect>
    <text x="311" y="243" font-size="9" stroke="grey" fill="black" >2.3.1.-</text>
</g>
<g>
    <rect rxns="rxn07631" x="888" y="344" width="48" height="18" stroke="black" fill="white"></rect>
    <text x="891" y="357" font-size="9" stroke="grey" fill="black" >5.5.1.18</text>
</g>
<g>
    <rect rxns="rxn07362" x="1026" y="497" width="48" height="18" stroke="black" fill="white"></rect>
    <text x="1029" y="510" font-size="9" stroke="grey" fill="black" >1.14.13.129</text>
</g>
<g>
    <rect rxns="rxn07361" x="887" y="499" width="48" height="18" stroke="black" fill="white"></rect>
    <text x="890" y="512" font-size="9" stroke="grey" fill="black" >1.14.99.45</text>
</g>
<g>
    <rect rxns="rxn07470" x="398" y="230" width="48" height="18" stroke="black" fill="white"></rect>
    <text x="401" y="243" font-size="9" stroke="grey" fill="black" >2.4.1.-</text>
</g>
<g>
    <rect rxns="rxn07468" x="397" y="158" width="48" height="18" stroke="black" fill="white"></rect>
    <text x="400" y="171" font-size="9" stroke="grey" fill="black" >1.3.8.2</text>
</g>
<g>
    <rect rxns="R09793" x="299" y="159" width="48" height="18" stroke="black" fill="white"></rect>
    <text x="302" y="172" font-size="9" stroke="grey" fill="black" >2.5.1.96</text>
</g>
<g>
    <rect rxns="rxn07406" x="1213" y="1005" width="48" height="18" stroke="black" fill="white"></rect>
    <text x="1216" y="1018" font-size="9" stroke="grey" fill="black" >2.4.1.263</text>
</g>
<g>
    <rect rxns="rxn07405" x="1112" y="599" width="48" height="18" stroke="black" fill="white"></rect>
    <text x="1115" y="612" font-size="9" stroke="grey" fill="black" >2.4.1.276</text>
</g>
<g>
    <rect rxns="rxn04757" x="1422" y="702" width="48" height="18" stroke="black" fill="white"></rect>
    <text x="1425" y="715" font-size="9" stroke="grey" fill="black" >5.3.99.9</text>
</g>
<g>
    <rect rxns="rxn05068" x="1341" y="599" width="48" height="18" stroke="black" fill="white"></rect>
    <text x="1344" y="612" font-size="9" stroke="grey" fill="black" >5.3.99.8</text>
</g>
<g>
    <rect rxns="rxn05069" x="1230" y="599" width="48" height="18" stroke="black" fill="white"></rect>
    <text x="1233" y="612" font-size="9" stroke="grey" fill="black" >5.3.99.8</text>
</g>
<g>
    <rect rxns="rxn07369" x="86" y="850" width="48" height="18" stroke="black" fill="white"></rect>
    <text x="89" y="863" font-size="9" stroke="grey" fill="black" >1.14.15.9</text>
</g>
<g>
    <rect rxns="rxn07368" x="176" y="850" width="48" height="18" stroke="black" fill="white"></rect>
    <text x="179" y="863" font-size="9" stroke="grey" fill="black" >1.14.15.9</text>
</g>
<g>
    <rect rxns="rxn07357" x="1295" y="158" width="48" height="18" stroke="black" fill="white"></rect>
    <text x="1298" y="171" font-size="9" stroke="grey" fill="black" >1.14.15.9</text>
</g>
<g>
    <rect rxns="rxn07356" x="1200" y="158" width="48" height="18" stroke="black" fill="white"></rect>
    <text x="1203" y="171" font-size="9" stroke="grey" fill="black" >1.14.15.9</text>
</g>
<g>
    <rect rxns="rxn07366" x="176" y="732" width="48" height="18" stroke="black" fill="white"></rect>
    <text x="179" y="745" font-size="9" stroke="grey" fill="black" >2.1.1.210</text>
</g>
<g>
    <rect rxns="rxn07355" x="1107" y="158" width="48" height="18" stroke="black" fill="white"></rect>
    <text x="1110" y="171" font-size="9" stroke="grey" fill="black" >2.1.1.210</text>
</g>
<g>
    <rect rxns="rxn07360" x="919" y="230" width="48" height="18" stroke="black" fill="white"></rect>
    <text x="922" y="243" font-size="9" stroke="grey" fill="black" >2.1.1.210</text>
</g>
<g>
    <rect rxns="rxn07358" x="733" y="230" width="48" height="18" stroke="black" fill="white"></rect>
    <text x="736" y="243" font-size="9" stroke="grey" fill="black" >2.1.1.210</text>
</g>
<g>
    <rect rxns="rxn07352" x="825" y="158" width="48" height="18" stroke="black" fill="white"></rect>
    <text x="828" y="171" font-size="9" stroke="grey" fill="black" >2.1.1.210</text>
</g>
<g>
    <rect rxns="R07523" x="1012" y="158" width="48" height="18" stroke="black" fill="white"></rect>
    <text x="1015" y="171" font-size="9" stroke="grey" fill="black" >1.3.99.27</text>
</g>
<g>
    <rect rxns="R07534" x="176" y="645" width="48" height="18" stroke="black" fill="white"></rect>
    <text x="179" y="658" font-size="9" stroke="grey" fill="black" >1.3.99.27</text>
</g>
<g>
    <rect rxns="R07520" x="733" y="158" width="48" height="18" stroke="black" fill="white"></rect>
    <text x="736" y="171" font-size="9" stroke="grey" fill="black" >1.3.99.27</text>
</g>
<g>
    <rect rxns="rxn07359" x="826" y="230" width="48" height="18" stroke="black" fill="white"></rect>
    <text x="829" y="243" font-size="9" stroke="grey" fill="black" >4.2.1.131</text>
</g>
<g>
    <rect rxns="rxn07353" x="919" y="158" width="48" height="18" stroke="black" fill="white"></rect>
    <text x="922" y="171" font-size="9" stroke="grey" fill="black" >4.2.1.131</text>
</g>
<g>
    <rect rxns="rxn07350" x="684" y="268" width="48" height="18" stroke="black" fill="white"></rect>
    <text x="687" y="281" font-size="9" stroke="grey" fill="black" >4.2.1.131</text>
</g>
<g>
    <rect rxns="rxn07347" x="609" y="573" width="48" height="18" stroke="black" fill="white"></rect>
    <text x="612" y="586" font-size="9" stroke="grey" fill="black" >4.2.1.131</text>
</g>
<g>
    <rect rxns="rxn07370" x="135" y="923" width="48" height="18" stroke="black" fill="white"></rect>
    <text x="138" y="936" font-size="9" stroke="grey" fill="black" >4.2.1.131</text>
</g>
<g>
    <rect rxns="rxn07367" x="135" y="792" width="48" height="18" stroke="black" fill="white"></rect>
    <text x="138" y="805" font-size="9" stroke="grey" fill="black" >4.2.1.131</text>
</g>
<g>
    <rect rxns="rxn07374" x="418" y="648" width="48" height="18" stroke="black" fill="white"></rect>
    <text x="421" y="661" font-size="9" stroke="grey" fill="black" >4.2.1.131</text>
</g>
<g>
    <rect rxns="rxn07363" x="176" y="570" width="48" height="18" stroke="black" fill="white"></rect>
    <text x="179" y="583" font-size="9" stroke="grey" fill="black" >4.2.1.131</text>
</g>
<g>
    <rect rxns="rxn04981" x="1213" y="976" width="48" height="18" stroke="black" fill="white"></rect>
    <text x="1216" y="989" font-size="9" stroke="grey" fill="black" >1.14.13.93</text>
</g>
<g>
    <rect rxns="rxn04766" x="1227" y="852" width="48" height="18" stroke="black" fill="white"></rect>
    <text x="1230" y="865" font-size="9" stroke="grey" fill="black" >1.2.3.14</text>
</g>
<g>
    <rect rxns="rxn04763" x="1307" y="852" width="48" height="18" stroke="black" fill="white"></rect>
    <text x="1310" y="865" font-size="9" stroke="grey" fill="black" >1.1.1.288</text>
</g>
<g>
    <rect rxns="rxn04761" x="1384" y="851" width="48" height="18" stroke="black" fill="white"></rect>
    <text x="1387" y="864" font-size="9" stroke="grey" fill="black" >1.13.11.51</text>
</g>
<g>
    <rect rxns="rxn04762" x="1340" y="820" width="48" height="18" stroke="black" fill="white"></rect>
    <text x="1343" y="833" font-size="9" stroke="grey" fill="black" >1.13.11.51</text>
</g>
<g>
    <rect rxns="rxn04962" x="1287" y="708" width="48" height="18" stroke="black" fill="white"></rect>
    <text x="1290" y="721" font-size="9" stroke="grey" fill="black" >1.10.99.3</text>
</g>
<g>
    <rect rxns="rxn04963" x="1174" y="708" width="48" height="18" stroke="black" fill="white"></rect>
    <text x="1177" y="721" font-size="9" stroke="grey" fill="black" >1.10.99.3</text>
</g>
<g>
    <rect rxns="rxn04756,rxn04979" x="1287" y="656" width="48" height="18" stroke="black" fill="white"></rect>
    <text x="1290" y="669" font-size="9" stroke="grey" fill="black" >1.14.13.90</text>
</g>
<g>
    <rect rxns="rxn04755,rxn04978" x="1174" y="656" width="48" height="18" stroke="black" fill="white"></rect>
    <text x="1177" y="669" font-size="9" stroke="grey" fill="black" >1.14.13.90</text>
</g>
<g>
    <rect rxns="rxn07392" x="892" y="862" width="48" height="18" stroke="black" fill="white"></rect>
    <text x="895" y="875" font-size="9" stroke="grey" fill="black" >1.14.13.129</text>
</g>
<g>
    <rect rxns="rxn07399" x="913" y="928" width="48" height="18" stroke="black" fill="white"></rect>
    <text x="916" y="941" font-size="9" stroke="grey" fill="black" >1.14.13.129</text>
</g>
<g>
    <rect rxns="rxn07403" x="1048" y="926" width="48" height="18" stroke="black" fill="white"></rect>
    <text x="1051" y="939" font-size="9" stroke="grey" fill="black" >1.14.13.129</text>
</g>
<g>
    <rect rxns="rxn07400" x="1069" y="853" width="48" height="18" stroke="black" fill="white"></rect>
    <text x="1072" y="866" font-size="9" stroke="grey" fill="black" >1.14.13.129</text>
</g>
<g>
    <rect rxns="rxn07400" x="1069" y="795" width="48" height="18" stroke="black" fill="white"></rect>
    <text x="1072" y="808" font-size="9" stroke="grey" fill="black" >1.14.13.129</text>
</g>
<g>
    <rect rxns="rxn07392" x="892" y="795" width="48" height="18" stroke="black" fill="white"></rect>
    <text x="895" y="808" font-size="9" stroke="grey" fill="black" >1.14.13.129</text>
</g>
<g>
    <rect rxns="rxn07385" x="538" y="892" width="48" height="18" stroke="black" fill="white"></rect>
    <text x="541" y="905" font-size="9" stroke="grey" fill="black" >1.14.13.-</text>
</g>
<g>
    <rect rxns="rxn07387" x="695" y="892" width="48" height="18" stroke="black" fill="white"></rect>
    <text x="698" y="905" font-size="9" stroke="grey" fill="black" >1.14.13.-</text>
</g>
<g>
    <rect rxns="rxn07362" x="1027" y="423" width="48" height="18" stroke="black" fill="white"></rect>
    <text x="1030" y="436" font-size="9" stroke="grey" fill="black" >1.14.99.45</text>
</g>
<g>
    <rect rxns="rxn07390" x="1066" y="692" width="48" height="18" stroke="black" fill="white"></rect>
    <text x="1069" y="705" font-size="9" stroke="grey" fill="black" >1.14.13.129</text>
</g>
<g>
    <rect rxns="rxn07389" x="889" y="692" width="48" height="18" stroke="black" fill="white"></rect>
    <text x="892" y="705" font-size="9" stroke="grey" fill="black" >1.14.13.129</text>
</g>
<g>
    <rect rxns="rxn07361" x="886" y="430" width="48" height="18" stroke="black" fill="white"></rect>
    <text x="889" y="443" font-size="9" stroke="grey" fill="black" >1.14.13.129</text>
</g>
<g>
    <rect rxns="rxn11574" x="802" y="620" width="48" height="18" stroke="black" fill="white"></rect>
    <text x="805" y="633" font-size="9" stroke="grey" fill="black" >5.5.1.19</text>
</g>
<g>
    <rect rxns="rxn03646" x="714" y="465" width="48" height="18" stroke="black" fill="white"></rect>
    <text x="717" y="478" font-size="9" stroke="grey" fill="black" >5.5.1.19</text>
</g>
<g>
    <rect rxns="rxn04771" x="829" y="374" width="48" height="18" stroke="black" fill="white"></rect>
    <text x="832" y="387" font-size="9" stroke="grey" fill="black" >5.5.1.19</text>
</g>
<g>
    <rect rxns="rxn04772" x="749" y="343" width="48" height="18" stroke="black" fill="white"></rect>
    <text x="752" y="356" font-size="9" stroke="grey" fill="black" >5.5.1.18</text>
</g>
<g>
    <rect rxns="rxn06792" x="640" y="430" width="48" height="18" stroke="black" fill="white"></rect>
    <text x="643" y="443" font-size="9" stroke="grey" fill="black" >1.3.5.6</text>
</g>
<g>
    <rect rxns="rxn06790" x="437" y="449" width="48" height="18" stroke="black" fill="white"></rect>
    <text x="440" y="462" font-size="9" stroke="grey" fill="black" >1.3.5.6</text>
</g>
<g>
    <rect rxns="rxn11620" x="285" y="449" width="48" height="18" stroke="black" fill="white"></rect>
    <text x="288" y="462" font-size="9" stroke="grey" fill="black" >1.3.5.5</text>
</g>
<g>
    <rect rxns="rxn11619" x="137" y="449" width="48" height="18" stroke="black" fill="white"></rect>
    <text x="140" y="462" font-size="9" stroke="grey" fill="black" >1.3.5.5</text>
</g>
<g>
    <rect rxns="R08990" x="777" y="852" width="48" height="18" stroke="black" fill="white"></rect>
    <text x="780" y="865" font-size="9" stroke="grey" fill="black" >1.14.13.-</text>
</g>
<g>
    <rect rxns="rxn02945,rxn05031" x="95" y="303" width="48" height="18" stroke="black" fill="white"></rect>
    <text x="98" y="316" font-size="9" stroke="grey" fill="black" >2.5.1.32</text>
</g>
<g>
    <rect rxns="rxn01489" x="96" y="246" width="48" height="18" stroke="black" fill="white"></rect>
    <text x="99" y="259" font-size="9" stroke="grey" fill="black" >2.5.1.32</text>
</g>
<g>
    <rect rxns="R09653" x="138" y="341" width="48" height="18" stroke="black" fill="white"></rect>
    <text x="141" y="354" font-size="9" stroke="grey" fill="black" >1.3.5.5</text>
</g>
<g>
    <rect rxns="R09654" x="235" y="342" width="48" height="18" stroke="black" fill="white"></rect>
    <text x="238" y="355" font-size="9" stroke="grey" fill="black" >1.3.5.5</text>
</g>
<g>
    <rect rxns="R09655" x="338" y="344" width="48" height="18" stroke="black" fill="white"></rect>
    <text x="341" y="357" font-size="9" stroke="grey" fill="black" >5.2.1.12</text>
</g>
<g>
    <rect rxns="R09656" x="433" y="345" width="48" height="18" stroke="black" fill="white"></rect>
    <text x="436" y="358" font-size="9" stroke="grey" fill="black" >1.3.5.6</text>
</g>
<g>
    <rect rxns="R09658" x="532" y="344" width="48" height="18" stroke="black" fill="white"></rect>
    <text x="535" y="357" font-size="9" stroke="grey" fill="black" >1.3.5.6</text>
</g>
<g>
    <rect rxns="rxn07343" x="630" y="344" width="48" height="18" stroke="black" fill="white"></rect>
    <text x="633" y="357" font-size="9" stroke="grey" fill="black" >5.2.1.13</text>
</g>
<g>
    <rect rxns="R09692" x="137" y="409" width="48" height="18" stroke="black" fill="white"></rect>
    <text x="140" y="422" font-size="9" stroke="grey" fill="black" >1.3.99.29</text>
</g>
<g>
    <rect rxns="rxn06792" x="592" y="409" width="48" height="18" stroke="black" fill="white"></rect>
    <text x="595" y="422" font-size="9" stroke="grey" fill="black" >1.3.99.26</text>
</g>
<g>
    <rect rxns="rxn06790" x="437" y="409" width="48" height="18" stroke="black" fill="white"></rect>
    <text x="440" y="422" font-size="9" stroke="grey" fill="black" >1.3.99.26</text>
</g>
<g>
    <rect rxns="rxn11620" x="285" y="409" width="48" height="18" stroke="black" fill="white"></rect>
    <text x="288" y="422" font-size="9" stroke="grey" fill="black" >1.3.99.29</text>
</g>
<g>
    <rect rxns="R09692" x="186" y="409" width="48" height="18" stroke="black" fill="white"></rect>
    <text x="189" y="422" font-size="9" stroke="grey" fill="black" >1.3.99.28</text>
</g>
<g>
    <rect rxns="rxn11620" x="333" y="409" width="48" height="18" stroke="black" fill="white"></rect>
    <text x="336" y="422" font-size="9" stroke="grey" fill="black" >1.3.99.28</text>
</g>
<g>
    <rect rxns="R09692" x="137" y="430" width="48" height="18" stroke="black" fill="white"></rect>
    <text x="140" y="443" font-size="9" stroke="grey" fill="black" >1.3.99.30</text>
</g>
<g>
    <rect rxns="rxn06790" x="485" y="409" width="48" height="18" stroke="black" fill="white"></rect>
    <text x="488" y="422" font-size="9" stroke="grey" fill="black" >1.3.99.28</text>
</g>
<g>
    <rect rxns="rxn06790" x="437" y="430" width="48" height="18" stroke="black" fill="white"></rect>
    <text x="440" y="443" font-size="9" stroke="grey" fill="black" >1.3.99.30</text>
</g>
<g>
    <rect rxns="rxn11620" x="285" y="430" width="48" height="18" stroke="black" fill="white"></rect>
    <text x="288" y="443" font-size="9" stroke="grey" fill="black" >1.3.99.30</text>
</g>
<g>
    <rect rxns="rxn06792" x="640" y="409" width="48" height="18" stroke="black" fill="white"></rect>
    <text x="643" y="422" font-size="9" stroke="grey" fill="black" >1.3.99.30</text>
</g>
<g>
    <rect rxns="R09692" x="185" y="430" width="48" height="18" stroke="black" fill="white"></rect>
    <text x="188" y="443" font-size="9" stroke="grey" fill="black" >1.3.99.31</text>
</g>
<g>
    <rect rxns="rxn11620" x="333" y="430" width="48" height="18" stroke="black" fill="white"></rect>
    <text x="336" y="443" font-size="9" stroke="grey" fill="black" >1.3.99.31</text>
</g>
<g>
    <rect rxns="R07518" x="728" y="420" width="48" height="18" stroke="black" fill="white"></rect>
    <text x="731" y="433" font-size="9" stroke="grey" fill="black" >1.3.99.30</text>
</g>
<g>
    <rect rxns="rxn06792" x="592" y="430" width="48" height="18" stroke="black" fill="white"></rect>
    <text x="595" y="443" font-size="9" stroke="grey" fill="black" >1.3.99.31</text>
</g>
<g>
    <rect rxns="rxn06790" x="485" y="430" width="48" height="18" stroke="black" fill="white"></rect>
    <text x="488" y="443" font-size="9" stroke="grey" fill="black" >1.3.99.31</text>
</g>
<g>
    <rect rxns="R09746" x="491" y="158" width="48" height="18" stroke="black" fill="white"></rect>
    <text x="494" y="171" font-size="9" stroke="grey" fill="black" >1.3.8.2</text>
</g>
<g>
    <rect rxns="R09671" x="544" y="193" width="48" height="18" stroke="black" fill="white"></rect>
    <text x="547" y="206" font-size="9" stroke="grey" fill="black" >1.14.99.44</text>
</g>
<g>
    <rect rxns="rxn07389" x="889" y="671" width="48" height="18" stroke="black" fill="white"></rect>
    <text x="892" y="684" font-size="9" stroke="grey" fill="black" >1.14.13.-</text>
</g>
<g>
    <rect rxns="rxn07390" x="1065" y="671" width="48" height="18" stroke="black" fill="white"></rect>
    <text x="1068" y="684" font-size="9" stroke="grey" fill="black" >1.14.13.-</text>
</g>
<g>
    <rect rxns="rxn07392" x="891" y="841" width="48" height="18" stroke="black" fill="white"></rect>
    <text x="894" y="854" font-size="9" stroke="grey" fill="black" >1.14.13.-</text>
</g>
<g>
    <rect rxns="rxn07361" x="886" y="409" width="48" height="18" stroke="black" fill="white"></rect>
    <text x="889" y="422" font-size="9" stroke="grey" fill="black" >1.14.-.-</text>
</g>
<g>
    <rect rxns="rxn07389" x="938" y="671" width="48" height="18" stroke="black" fill="white"></rect>
    <text x="941" y="684" font-size="9" stroke="grey" fill="black" >1.14.-.-</text>
</g>
<g>
    <rect rxns="rxn07390" x="1016" y="671" width="48" height="18" stroke="black" fill="white"></rect>
    <text x="1019" y="684" font-size="9" stroke="grey" fill="black" >1.14.-.-</text>
</g>
<g>
    <rect rxns="rxn00498" x="199" y="159" width="48" height="18" stroke="black" fill="white"></rect>
    <text x="202" y="172" font-size="9" stroke="grey" fill="black" >2.5.1.96</text>
</g>
<g>
    <rect rxns="R09723" x="1213" y="1027" width="48" height="18" stroke="black" fill="white"></rect>
    <text x="1216" y="1040" font-size="9" stroke="grey" fill="black" >3.2.1.175</text>
</g>
</svg>