<svg>
<g>
    <rect rxns="rxn04651" x="605" y="596" width="48" height="18" stroke="black" fill="white"></rect>
    <text x="608" y="609" font-size="9" stroke="grey" fill="black" >2.7.4.23</text>
</g>
<g>
    <rect rxns="rxn01977" x="179" y="342" width="48" height="18" stroke="black" fill="white"></rect>
    <text x="182" y="355" font-size="9" stroke="grey" fill="black" >5.3.1.9</text>
</g>
<g>
    <rect rxns="rxn03884" x="729" y="301" width="48" height="18" stroke="black" fill="white"></rect>
    <text x="732" y="314" font-size="9" stroke="grey" fill="black" >4.1.2.14</text>
</g>
<g>
    <rect rxns="rxn01987" x="378" y="654" width="48" height="18" stroke="black" fill="white"></rect>
    <text x="381" y="667" font-size="9" stroke="grey" fill="black" >2.7.1.15</text>
</g>
<g>
    <rect rxns="rxn01986" x="379" y="686" width="48" height="18" stroke="black" fill="white"></rect>
    <text x="382" y="699" font-size="9" stroke="grey" fill="black" >5.4.2.7</text>
</g>
<g>
    <rect rxns="rxn00784" x="239" y="686" width="48" height="18" stroke="black" fill="white"></rect>
    <text x="242" y="699" font-size="9" stroke="grey" fill="black" >4.1.2.4</text>
</g>
<g>
    <rect rxns="rxn00770" x="506" y="558" width="48" height="18" stroke="black" fill="white"></rect>
    <text x="509" y="571" font-size="9" stroke="grey" fill="black" >2.7.6.1</text>
</g>
<g>
    <rect rxns="rxn00778" x="605" y="532" width="48" height="18" stroke="black" fill="white"></rect>
    <text x="608" y="545" font-size="9" stroke="grey" fill="black" >5.4.2.7</text>
</g>
<g>
    <rect rxns="rxn00772" x="605" y="511" width="48" height="18" stroke="black" fill="white"></rect>
    <text x="608" y="524" font-size="9" stroke="grey" fill="black" >2.7.1.15</text>
</g>
<g>
    <rect rxns="rxn01200" x="397" y="551" width="48" height="18" stroke="black" fill="white"></rect>
    <text x="400" y="564" font-size="9" stroke="grey" fill="black" >2.2.1.1</text>
</g>
<g>
    <rect rxns="rxn00777" x="508" y="476" width="48" height="18" stroke="black" fill="white"></rect>
    <text x="511" y="489" font-size="9" stroke="grey" fill="black" >5.3.1.6</text>
</g>
<g>
    <rect rxns="rxn01116" x="453" y="437" width="48" height="18" stroke="black" fill="white"></rect>
    <text x="456" y="450" font-size="9" stroke="grey" fill="black" >5.1.3.1</text>
</g>
<g>
    <rect rxns="rxn00785" x="282" y="437" width="48" height="18" stroke="black" fill="white"></rect>
    <text x="285" y="450" font-size="9" stroke="grey" fill="black" >2.2.1.1</text>
</g>
<g>
    <rect rxns="rxn00786" x="177" y="553" width="48" height="18" stroke="black" fill="white"></rect>
    <text x="180" y="566" font-size="9" stroke="grey" fill="black" >4.1.2.13</text>
</g>
<g>
    <rect rxns="rxn00545" x="153" y="484" width="48" height="18" stroke="black" fill="white"></rect>
    <text x="156" y="497" font-size="9" stroke="grey" fill="black" >2.7.1.11</text>
</g>
<g>
    <rect rxns="rxn00549" x="117" y="461" width="48" height="18" stroke="black" fill="white"></rect>
    <text x="120" y="474" font-size="9" stroke="grey" fill="black" >3.1.3.11</text>
</g>
<g>
    <rect rxns="rxn00558" x="179" y="408" width="48" height="18" stroke="black" fill="white"></rect>
    <text x="182" y="421" font-size="9" stroke="grey" fill="black" >5.3.1.9</text>
</g>
<g>
    <rect rxns="rxn01474,rxn01475" x="466" y="268" width="48" height="18" stroke="black" fill="white"></rect>
    <text x="469" y="281" font-size="9" stroke="grey" fill="black" >1.1.1.43</text>
</g>
<g>
    <rect rxns="rxn14220" x="428" y="232" width="48" height="18" stroke="black" fill="white"></rect>
    <text x="431" y="245" font-size="9" stroke="grey" fill="black" >2.7.1.13</text>
</g>
<g>
    <rect rxns="rxn01115" x="507" y="357" width="48" height="18" stroke="black" fill="white"></rect>
    <text x="510" y="370" font-size="9" stroke="grey" fill="black" >1.1.1.44</text>
</g>
<g>
    <rect rxns="rxn01476" x="428" y="311" width="48" height="18" stroke="black" fill="white"></rect>
    <text x="431" y="324" font-size="9" stroke="grey" fill="black" >3.1.1.31</text>
</g>
<g>
    <rect rxns="rxn01975" x="257" y="311" width="48" height="18" stroke="black" fill="white"></rect>
    <text x="260" y="324" font-size="9" stroke="grey" fill="black" >1.1.1.49</text>
</g>
<g>
    <rect rxns="rxn01126" x="666" y="101" width="48" height="18" stroke="black" fill="white"></rect>
    <text x="669" y="114" font-size="9" stroke="grey" fill="black" >4.3.1.9</text>
</g>
<g>
    <rect rxns="rxn01123" x="668" y="232" width="48" height="18" stroke="black" fill="white"></rect>
    <text x="671" y="245" font-size="9" stroke="grey" fill="black" >2.7.1.45</text>
</g>
<g>
    <rect rxns="rxn01477" x="585" y="312" width="48" height="18" stroke="black" fill="white"></rect>
    <text x="588" y="325" font-size="9" stroke="grey" fill="black" >4.2.1.12</text>
</g>
<g>
    <rect rxns="rxn01275" x="509" y="232" width="48" height="18" stroke="black" fill="white"></rect>
    <text x="512" y="245" font-size="9" stroke="grey" fill="black" >2.7.1.12</text>
</g>
<g>
    <rect rxns="rxn01121" x="585" y="147" width="48" height="18" stroke="black" fill="white"></rect>
    <text x="588" y="160" font-size="9" stroke="grey" fill="black" >4.2.1.39</text>
</g>
<g>
    <rect rxns="rxn01107" x="398" y="147" width="48" height="18" stroke="black" fill="white"></rect>
    <text x="401" y="160" font-size="9" stroke="grey" fill="black" >3.1.1.17</text>
</g>
<g>
    <rect rxns="rxn07122" x="244" y="205" width="48" height="18" stroke="black" fill="white"></rect>
    <text x="247" y="218" font-size="9" stroke="grey" fill="black" >1.1.5.2</text>
</g>
<g>
    <rect rxns="rxn05806" x="244" y="184" width="48" height="18" stroke="black" fill="white"></rect>
    <text x="247" y="197" font-size="9" stroke="grey" fill="black" >1.1.99.10</text>
</g>
<g>
    <rect rxns="rxn01110" x="244" y="136" width="48" height="18" stroke="black" fill="white"></rect>
    <text x="247" y="149" font-size="9" stroke="grey" fill="black" >1.1.3.4</text>
</g>
<g>
    <rect rxns="rxn01108,rxn01109" x="244" y="116" width="48" height="18" stroke="black" fill="white"></rect>
    <text x="247" y="129" font-size="9" stroke="grey" fill="black" >1.1.1.47</text>
</g>
<g>
    <rect rxns="rxn01110" x="244" y="157" width="48" height="18" stroke="black" fill="white"></rect>
    <text x="247" y="170" font-size="9" stroke="grey" fill="black" >1.1.3.5</text>
</g>
<g>
    <rect rxns="rxn14117" x="428" y="176" width="48" height="18" stroke="black" fill="white"></rect>
    <text x="431" y="189" font-size="9" stroke="grey" fill="black" >1.1.99.3</text>
</g>
<g>
    <rect rxns="rxn01333" x="341" y="517" width="48" height="18" stroke="black" fill="white"></rect>
    <text x="344" y="530" font-size="9" stroke="grey" fill="black" >2.2.1.2</text>
</g>
<g>
    <rect rxns="rxn00778" x="605" y="553" width="48" height="18" stroke="black" fill="white"></rect>
    <text x="608" y="566" font-size="9" stroke="grey" fill="black" >5.4.2.2</text>
</g>
<g>
    <rect rxns="R08570" x="727" y="146" width="48" height="18" stroke="black" fill="white"></rect>
    <text x="730" y="159" font-size="9" stroke="grey" fill="black" >4.1.2.-</text>
</g>
<g>
    <rect rxns="rxn14108" x="833" y="147" width="48" height="18" stroke="black" fill="white"></rect>
    <text x="836" y="160" font-size="9" stroke="grey" fill="black" >1.2.7.5</text>
</g>
<g>
    <rect rxns="rxn08647" x="923" y="147" width="48" height="18" stroke="black" fill="white"></rect>
    <text x="926" y="160" font-size="9" stroke="grey" fill="black" >2.7.1.165</text>
</g>
<g>
    <rect rxns="rxn03884" x="729" y="322" width="48" height="18" stroke="black" fill="white"></rect>
    <text x="732" y="335" font-size="9" stroke="grey" fill="black" >4.1.2.-</text>
</g>
<g>
    <rect rxns="rxn01187" x="240" y="630" width="48" height="18" stroke="black" fill="white"></rect>
    <text x="243" y="643" font-size="9" stroke="grey" fill="black" >4.1.2.9</text>
</g>
<g>
    <rect rxns="rxn14160" x="483" y="176" width="48" height="18" stroke="black" fill="white"></rect>
    <text x="486" y="189" font-size="9" stroke="grey" fill="black" >1.1.1.215</text>
</g>
<g>
    <rect rxns="R09084" x="203" y="484" width="48" height="18" stroke="black" fill="white"></rect>
    <text x="206" y="497" font-size="9" stroke="grey" fill="black" >2.7.1.146</text>
</g>
<g>
    <rect rxns="rxn03643" x="428" y="374" width="48" height="18" stroke="black" fill="white"></rect>
    <text x="431" y="387" font-size="9" stroke="grey" fill="black" >4.1.2.43</text>
</g>
<g>
    <rect rxns="R09780" x="257" y="374" width="48" height="18" stroke="black" fill="white"></rect>
    <text x="260" y="387" font-size="9" stroke="grey" fill="black" >5.3.1.27</text>
</g>
</svg>