<svg>
<g>
    <rect rxns="rxn01530" x="229" y="250" width="48" height="18" stroke="black" fill="white"></rect>
    <text x="232" y="263" font-size="9" stroke="grey" fill="black" >1.1.1.1</text>
</g>
<g>
    <rect rxns="rxn00025" x="336" y="224" width="48" height="18" stroke="black" fill="white"></rect>
    <text x="339" y="237" font-size="9" stroke="grey" fill="black" >1.14.99.36</text>
</g>
<g>
    <rect rxns="rxn01529" x="444" y="209" width="48" height="18" stroke="black" fill="white"></rect>
    <text x="447" y="222" font-size="9" stroke="grey" fill="black" >1.2.1.36</text>
</g>
<g>
    <rect rxns="rxn01531" x="444" y="188" width="48" height="18" stroke="black" fill="white"></rect>
    <text x="447" y="201" font-size="9" stroke="grey" fill="black" >1.2.3.11</text>
</g>
<g>
    <rect rxns="rxn11897" x="200" y="330" width="48" height="18" stroke="black" fill="white"></rect>
    <text x="203" y="343" font-size="9" stroke="grey" fill="black" >2.3.1.135</text>
</g>
<g>
    <rect rxns="rxn02183,rxn11891" x="246" y="469" width="48" height="18" stroke="black" fill="white"></rect>
    <text x="249" y="482" font-size="9" stroke="grey" fill="black" >1.1.1.-</text>
</g>
<g>
    <rect rxns="rxn07195" x="127" y="200" width="48" height="18" stroke="black" fill="white"></rect>
    <text x="130" y="213" font-size="9" stroke="grey" fill="black" >1.3.99.23</text>
</g>
<g>
    <rect rxns="rxn11898" x="175" y="410" width="48" height="18" stroke="black" fill="white"></rect>
    <text x="178" y="423" font-size="9" stroke="grey" fill="black" >3.1.1.64</text>
</g>
<g>
    <rect rxns="rxn11893,rxn11894" x="253" y="130" width="48" height="18" stroke="black" fill="white"></rect>
    <text x="256" y="143" font-size="9" stroke="grey" fill="black" >1.1.1.-</text>
</g>
<g>
    <rect rxns="rxn11892" x="150" y="532" width="48" height="18" stroke="black" fill="white"></rect>
    <text x="153" y="545" font-size="9" stroke="grey" fill="black" >2.3.1.76</text>
</g>
<g>
    <rect rxns="rxn11899" x="200" y="532" width="48" height="18" stroke="black" fill="white"></rect>
    <text x="203" y="545" font-size="9" stroke="grey" fill="black" >2.3.1.135</text>
</g>
<g>
    <rect rxns="rxn06160,rxn01701" x="150" y="330" width="48" height="18" stroke="black" fill="white"></rect>
    <text x="153" y="343" font-size="9" stroke="grey" fill="black" >2.3.1.76</text>
</g>
<g>
    <rect rxns="rxn11902" x="619" y="210" width="48" height="18" stroke="black" fill="white"></rect>
    <text x="622" y="223" font-size="9" stroke="grey" fill="black" >1.14.14.1</text>
</g>
<g>
    <rect rxns="rxn11902" x="619" y="189" width="48" height="18" stroke="black" fill="white"></rect>
    <text x="622" y="202" font-size="9" stroke="grey" fill="black" >1.14.14.1</text>
</g>
<g>
    <rect rxns="rxn01530,rxn11890" x="229" y="271" width="48" height="18" stroke="black" fill="white"></rect>
    <text x="232" y="284" font-size="9" stroke="grey" fill="black" >1.1.1.-</text>
</g>
<g>
    <rect rxns="rxn01530,rxn11890" x="277" y="271" width="48" height="18" stroke="black" fill="white"></rect>
    <text x="280" y="284" font-size="9" stroke="grey" fill="black" >1.1.-.-</text>
</g>
<g>
    <rect rxns="rxn11901" x="594" y="304" width="48" height="18" stroke="black" fill="white"></rect>
    <text x="597" y="317" font-size="9" stroke="grey" fill="black" >1.14.14.1</text>
</g>
<g>
    <rect rxns="rxn11901" x="594" y="325" width="48" height="18" stroke="black" fill="white"></rect>
    <text x="597" y="338" font-size="9" stroke="grey" fill="black" >1.14.14.1</text>
</g>
<g>
    <rect rxns="rxn11900" x="570" y="274" width="48" height="18" stroke="black" fill="white"></rect>
    <text x="573" y="287" font-size="9" stroke="grey" fill="black" >1.14.14.1</text>
</g>
<g>
    <rect rxns="rxn11900" x="570" y="253" width="48" height="18" stroke="black" fill="white"></rect>
    <text x="573" y="266" font-size="9" stroke="grey" fill="black" >1.14.14.1</text>
</g>
<g>
    <rect rxns="rxn11900" x="618" y="274" width="48" height="18" stroke="black" fill="white"></rect>
    <text x="621" y="287" font-size="9" stroke="grey" fill="black" >1.14.15.3</text>
</g>
<g>
    <rect rxns="rxn11900" x="618" y="253" width="48" height="18" stroke="black" fill="white"></rect>
    <text x="621" y="266" font-size="9" stroke="grey" fill="black" >1.14.14.1</text>
</g>
<g>
    <rect rxns="rxn11902" x="571" y="210" width="48" height="18" stroke="black" fill="white"></rect>
    <text x="574" y="223" font-size="9" stroke="grey" fill="black" >1.14.14.1</text>
</g>
<g>
    <rect rxns="rxn11894" x="253" y="109" width="48" height="18" stroke="black" fill="white"></rect>
    <text x="256" y="122" font-size="9" stroke="grey" fill="black" >1.1.-.-</text>
</g>
<g>
    <rect rxns="rxn11895" x="444" y="109" width="48" height="18" stroke="black" fill="white"></rect>
    <text x="447" y="122" font-size="9" stroke="grey" fill="black" >1.2.3.11</text>
</g>
<g>
    <rect rxns="rxn11896" x="444" y="130" width="48" height="18" stroke="black" fill="white"></rect>
    <text x="447" y="143" font-size="9" stroke="grey" fill="black" >1.2.1.36</text>
</g>
<g>
    <rect rxns="rxn02078" x="594" y="364" width="48" height="18" stroke="black" fill="white"></rect>
    <text x="597" y="377" font-size="9" stroke="grey" fill="black" >2.4.1.17</text>
</g>
<g>
    <rect rxns="rxn01702" x="117" y="305" width="48" height="18" stroke="black" fill="white"></rect>
    <text x="120" y="318" font-size="9" stroke="grey" fill="black" >3.1.1.-</text>
</g>
<g>
    <rect rxns="rxn02184" x="116" y="510" width="48" height="18" stroke="black" fill="white"></rect>
    <text x="119" y="523" font-size="9" stroke="grey" fill="black" >3.1.1.63</text>
</g>
<g>
    <rect rxns="rxn01530" x="277" y="250" width="48" height="18" stroke="black" fill="white"></rect>
    <text x="280" y="263" font-size="9" stroke="grey" fill="black" >1.1.1.105</text>
</g>
</svg>