<svg>
<g>
    <rect rxns="rxn03796" x="388" y="328" width="48" height="18" stroke="black" fill="white"></rect>
    <text x="391" y="341" font-size="9" stroke="grey" fill="black" >2.3.1.16</text>
</g>
<g>
    <rect rxns="rxn03624" x="140" y="215" width="48" height="18" stroke="black" fill="white"></rect>
    <text x="143" y="228" font-size="9" stroke="grey" fill="black" >1.3.1.66</text>
</g>
<g>
    <rect rxns="rxn06960" x="287" y="113" width="48" height="18" stroke="black" fill="white"></rect>
    <text x="290" y="126" font-size="9" stroke="grey" fill="black" >1.17.99.2</text>
</g>
<g>
    <rect rxns="rxn03724" x="231" y="151" width="48" height="18" stroke="black" fill="white"></rect>
    <text x="234" y="164" font-size="9" stroke="grey" fill="black" >1.14.12.12</text>
</g>
<g>
    <rect rxns="rxn11656" x="287" y="134" width="48" height="18" stroke="black" fill="white"></rect>
    <text x="290" y="147" font-size="9" stroke="grey" fill="black" >1.14.12.12</text>
</g>
<g>
    <rect rxns="rxn11657" x="388" y="150" width="48" height="18" stroke="black" fill="white"></rect>
    <text x="391" y="163" font-size="9" stroke="grey" fill="black" >1.14.12.12</text>
</g>
<g>
    <rect rxns="rxn03667" x="141" y="329" width="48" height="18" stroke="black" fill="white"></rect>
    <text x="144" y="342" font-size="9" stroke="grey" fill="black" >3.7.1.-</text>
</g>
<g>
    <rect rxns="rxn11652" x="438" y="150" width="48" height="18" stroke="black" fill="white"></rect>
    <text x="441" y="163" font-size="9" stroke="grey" fill="black" >1.1.1.311</text>
</g>
<g>
    <rect rxns="rxn03752" x="413" y="274" width="48" height="18" stroke="black" fill="white"></rect>
    <text x="416" y="287" font-size="9" stroke="grey" fill="black" >6.2.1.-</text>
</g>
<g>
    <rect rxns="rxn03796" x="438" y="328" width="48" height="18" stroke="black" fill="white"></rect>
    <text x="441" y="341" font-size="9" stroke="grey" fill="black" >2.3.1.-</text>
</g>
<g>
    <rect rxns="rxn03753" x="414" y="213" width="48" height="18" stroke="black" fill="white"></rect>
    <text x="417" y="226" font-size="9" stroke="grey" fill="black" >6.4.1.8</text>
</g>
<g>
    <rect rxns="rxn03727" x="355" y="212" width="48" height="18" stroke="black" fill="white"></rect>
    <text x="358" y="225" font-size="9" stroke="grey" fill="black" >1.14.12.12</text>
</g>
</svg>