<svg>
<g>
    <rect rxns="rxn11703" x="808" y="481" width="48" height="18" stroke="black" fill="white"></rect>
    <text x="811" y="494" font-size="9" stroke="grey" fill="black" >4.2.99.20</text>
</g>
<g>
    <rect rxns="rxn05024" x="808" y="701" width="48" height="18" stroke="black" fill="white"></rect>
    <text x="811" y="714" font-size="9" stroke="grey" fill="black" >4.1.3.36</text>
</g>
<g>
    <rect rxns="rxn02831" x="809" y="625" width="48" height="18" stroke="black" fill="white"></rect>
    <text x="812" y="638" font-size="9" stroke="grey" fill="black" >6.2.1.26</text>
</g>
<g>
    <rect rxns="rxn02832" x="808" y="554" width="48" height="18" stroke="black" fill="white"></rect>
    <text x="811" y="567" font-size="9" stroke="grey" fill="black" >4.2.1.113</text>
</g>
<g>
    <rect rxns="rxn11702" x="808" y="413" width="48" height="18" stroke="black" fill="white"></rect>
    <text x="811" y="426" font-size="9" stroke="grey" fill="black" >2.2.1.9</text>
</g>
<g>
    <rect rxns="rxn14029,rxn03395" x="473" y="771" width="48" height="18" stroke="black" fill="white"></rect>
    <text x="476" y="784" font-size="9" stroke="grey" fill="black" >2.1.1.222</text>
</g>
<g>
    <rect rxns="rxn11642,rxn03393" x="473" y="610" width="48" height="18" stroke="black" fill="white"></rect>
    <text x="476" y="623" font-size="9" stroke="grey" fill="black" >4.1.1.-</text>
</g>
<g>
    <rect rxns="rxn11643,rxn03894,rxn05034" x="384" y="541" width="48" height="18" stroke="black" fill="white"></rect>
    <text x="387" y="554" font-size="9" stroke="grey" fill="black" >2.5.1.39</text>
</g>
<g>
    <rect rxns="R08781,rxn11946" x="434" y="1080" width="48" height="18" stroke="black" fill="white"></rect>
    <text x="437" y="1093" font-size="9" stroke="grey" fill="black" >2.1.1.64</text>
</g>
<g>
    <rect rxns="rxn14042,rxn03224" x="346" y="690" width="48" height="18" stroke="black" fill="white"></rect>
    <text x="349" y="703" font-size="9" stroke="grey" fill="black" >2.1.1.114</text>
</g>
<g>
    <rect rxns="rxn00966" x="492" y="392" width="48" height="18" stroke="black" fill="white"></rect>
    <text x="495" y="405" font-size="9" stroke="grey" fill="black" >4.1.3.40</text>
</g>
<g>
    <rect rxns="rxn01258" x="708" y="389" width="48" height="18" stroke="black" fill="white"></rect>
    <text x="711" y="402" font-size="9" stroke="grey" fill="black" >5.4.4.2</text>
</g>
<g>
    <rect rxns="rxn14263" x="668" y="535" width="48" height="18" stroke="black" fill="white"></rect>
    <text x="671" y="548" font-size="9" stroke="grey" fill="black" >3.2.2.26</text>
</g>
<g>
    <rect rxns="R08588" x="669" y="651" width="48" height="18" stroke="black" fill="white"></rect>
    <text x="672" y="664" font-size="9" stroke="grey" fill="black" >1.21.-.-</text>
</g>
<g>
    <rect rxns="R08589" x="670" y="763" width="48" height="18" stroke="black" fill="white"></rect>
    <text x="673" y="776" font-size="9" stroke="grey" fill="black" >1.14.-.-</text>
</g>
<g>
    <rect rxns="R08586" x="670" y="435" width="48" height="18" stroke="black" fill="white"></rect>
    <text x="673" y="448" font-size="9" stroke="grey" fill="black" >4.1.99.-</text>
</g>
<g>
    <rect rxns="rxn05023" x="808" y="769" width="48" height="18" stroke="black" fill="white"></rect>
    <text x="811" y="782" font-size="9" stroke="grey" fill="black" >3.1.2.28</text>
</g>
<g>
    <rect rxns="rxn00965" x="329" y="393" width="48" height="18" stroke="black" fill="white"></rect>
    <text x="332" y="406" font-size="9" stroke="grey" fill="black" >3.1.2.23</text>
</g>
<g>
    <rect rxns="rxn01827" x="322" y="191" width="48" height="18" stroke="black" fill="white"></rect>
    <text x="325" y="204" font-size="9" stroke="grey" fill="black" >1.13.11.27</text>
</g>
<g>
    <rect rxns="rxn11643,rxn03893" x="434" y="541" width="48" height="18" stroke="black" fill="white"></rect>
    <text x="437" y="554" font-size="9" stroke="grey" fill="black" >2.5.1.-</text>
</g>
<g>
    <rect rxns="rxn07332" x="569" y="270" width="48" height="18" stroke="black" fill="white"></rect>
    <text x="572" y="283" font-size="9" stroke="grey" fill="black" >2.1.1.-</text>
</g>
<g>
    <rect rxns="R08783" x="565" y="123" width="48" height="18" stroke="black" fill="white"></rect>
    <text x="568" y="136" font-size="9" stroke="grey" fill="black" >2.1.1.-</text>
</g>
<g>
    <rect rxns="rxn00527" x="248" y="226" width="48" height="18" stroke="black" fill="white"></rect>
    <text x="251" y="239" font-size="9" stroke="grey" fill="black" >2.6.1.5</text>
</g>
<g>
    <rect rxns="rxn02392" x="185" y="191" width="48" height="18" stroke="black" fill="white"></rect>
    <text x="188" y="204" font-size="9" stroke="grey" fill="black" >1.1.1.237</text>
</g>
<g>
    <rect rxns="rxn01182" x="113" y="332" width="48" height="18" stroke="black" fill="white"></rect>
    <text x="116" y="345" font-size="9" stroke="grey" fill="black" >6.2.1.12</text>
</g>
<g>
    <rect rxns="rxn04674" x="990" y="972" width="48" height="18" stroke="black" fill="white"></rect>
    <text x="993" y="985" font-size="9" stroke="grey" fill="black" >2.1.1.163</text>
</g>
<g>
    <rect rxns="rxn06831" x="809" y="972" width="48" height="18" stroke="black" fill="white"></rect>
    <text x="812" y="985" font-size="9" stroke="grey" fill="black" >2.1.1.163</text>
</g>
<g>
    <rect rxns="rxn06943" x="808" y="908" width="48" height="18" stroke="black" fill="white"></rect>
    <text x="811" y="921" font-size="9" stroke="grey" fill="black" >2.5.1.74</text>
</g>
<g>
    <rect rxns="rxn04673" x="990" y="907" width="48" height="18" stroke="black" fill="white"></rect>
    <text x="993" y="920" font-size="9" stroke="grey" fill="black" >2.5.1.-</text>
</g>
<g>
    <rect rxns="rxn07335" x="694" y="230" width="48" height="18" stroke="black" fill="white"></rect>
    <text x="697" y="243" font-size="9" stroke="grey" fill="black" >2.1.1.95</text>
</g>
<g>
    <rect rxns="rxn05004" x="806" y="270" width="48" height="18" stroke="black" fill="white"></rect>
    <text x="809" y="283" font-size="9" stroke="grey" fill="black" >2.1.1.95</text>
</g>
<g>
    <rect rxns="rxn07331" x="471" y="270" width="48" height="18" stroke="black" fill="white"></rect>
    <text x="474" y="283" font-size="9" stroke="grey" fill="black" >2.5.1.-</text>
</g>
<g>
    <rect rxns="R08773,rxn03390" x="384" y="840" width="48" height="18" stroke="black" fill="white"></rect>
    <text x="387" y="853" font-size="9" stroke="grey" fill="black" >1.14.13.-</text>
</g>
<g>
    <rect rxns="R08774,rxn03391" x="384" y="924" width="48" height="18" stroke="black" fill="white"></rect>
    <text x="387" y="937" font-size="9" stroke="grey" fill="black" >2.1.1.201</text>
</g>
<g>
    <rect rxns="R08775,rxn03392" x="384" y="1004" width="48" height="18" stroke="black" fill="white"></rect>
    <text x="387" y="1017" font-size="9" stroke="grey" fill="black" >1.14.13.-</text>
</g>
<g>
    <rect rxns="R08781,rxn13186,rxn05003" x="384" y="1080" width="48" height="18" stroke="black" fill="white"></rect>
    <text x="387" y="1093" font-size="9" stroke="grey" fill="black" >2.1.1.114</text>
</g>
<g>
    <rect rxns="R08773,rxn03396" x="434" y="840" width="48" height="18" stroke="black" fill="white"></rect>
    <text x="437" y="853" font-size="9" stroke="grey" fill="black" >1.14.13.-</text>
</g>
<g>
    <rect rxns="R08774,rxn03397" x="434" y="924" width="48" height="18" stroke="black" fill="white"></rect>
    <text x="437" y="937" font-size="9" stroke="grey" fill="black" >2.1.1.201</text>
</g>
<g>
    <rect rxns="R08775,rxn04139" x="434" y="1004" width="48" height="18" stroke="black" fill="white"></rect>
    <text x="437" y="1017" font-size="9" stroke="grey" fill="black" >1.14.13.-</text>
</g>
<g>
    <rect rxns="rxn14085" x="471" y="123" width="48" height="18" stroke="black" fill="white"></rect>
    <text x="474" y="136" font-size="9" stroke="grey" fill="black" >2.5.1.-</text>
</g>
<g>
    <rect rxns="R09040" x="115" y="541" width="48" height="18" stroke="black" fill="white"></rect>
    <text x="118" y="554" font-size="9" stroke="grey" fill="black" >2.5.1.93</text>
</g>
<g>
    <rect rxns="R09042" x="114" y="675" width="48" height="18" stroke="black" fill="white"></rect>
    <text x="117" y="688" font-size="9" stroke="grey" fill="black" >1.14.13.116</text>
</g>
<g>
    <rect rxns="rxn00967" x="463" y="460" width="48" height="18" stroke="black" fill="white"></rect>
    <text x="466" y="473" font-size="9" stroke="grey" fill="black" >2.4.1.194</text>
</g>
<g>
    <rect rxns="R09039" x="463" y="480" width="48" height="18" stroke="black" fill="white"></rect>
    <text x="466" y="493" font-size="9" stroke="grey" fill="black" >3.2.1.-</text>
</g>
<g>
    <rect rxns="rxn12005" x="988" y="1132" width="48" height="18" stroke="black" fill="white"></rect>
    <text x="991" y="1145" font-size="9" stroke="grey" fill="black" >4.1.1.90</text>
</g>
<g>
    <rect rxns="R09992" x="758" y="1095" width="48" height="18" stroke="black" fill="white"></rect>
    <text x="761" y="1108" font-size="9" stroke="grey" fill="black" >1.1.4.1</text>
</g>
<g>
    <rect rxns="rxn11156" x="807" y="1053" width="48" height="18" stroke="black" fill="white"></rect>
    <text x="810" y="1066" font-size="9" stroke="grey" fill="black" >1.6.5.2</text>
</g>
<g>
    <rect rxns="rxn11994" x="989" y="1053" width="48" height="18" stroke="black" fill="white"></rect>
    <text x="992" y="1066" font-size="9" stroke="grey" fill="black" >1.6.5.2</text>
</g>
<g>
    <rect rxns="R09991" x="808" y="1132" width="48" height="18" stroke="black" fill="white"></rect>
    <text x="811" y="1145" font-size="9" stroke="grey" fill="black" >4.1.1.90</text>
</g>
<g>
    <rect rxns="rxn02509" x="1037" y="1095" width="48" height="18" stroke="black" fill="white"></rect>
    <text x="1040" y="1108" font-size="9" stroke="grey" fill="black" >1.1.4.1</text>
</g>
</svg>