<svg>
<g>
    <rect rxns="R05974" x="477" y="609" width="48" height="18" stroke="black" fill="white"></rect>
    <text x="480" y="622" font-size="9" stroke="grey" fill="black" >2.4.1.-</text>
</g>
<g>
    <rect rxns="R06230" x="760" y="534" width="48" height="18" stroke="black" fill="white"></rect>
    <text x="763" y="547" font-size="9" stroke="grey" fill="black" >2.4.1.152</text>
</g>
<g>
    <rect rxns="R06224" x="370" y="905" width="48" height="18" stroke="black" fill="white"></rect>
    <text x="373" y="918" font-size="9" stroke="grey" fill="black" >2.4.1.152</text>
</g>
<g>
    <rect rxns="R06222" x="370" y="834" width="48" height="18" stroke="black" fill="white"></rect>
    <text x="373" y="847" font-size="9" stroke="grey" fill="black" >2.4.1.152</text>
</g>
<g>
    <rect rxns="R06227" x="830" y="834" width="48" height="18" stroke="black" fill="white"></rect>
    <text x="833" y="847" font-size="9" stroke="grey" fill="black" >2.4.1.152</text>
</g>
<g>
    <rect rxns="R06221" x="540" y="853" width="48" height="18" stroke="black" fill="white"></rect>
    <text x="543" y="866" font-size="9" stroke="grey" fill="black" >2.4.1.-</text>
</g>
<g>
    <rect rxns="R06221" x="514" y="834" width="48" height="18" stroke="black" fill="white"></rect>
    <text x="517" y="847" font-size="9" stroke="grey" fill="black" >2.4.1.65</text>
</g>
<g>
    <rect rxns="R06222" x="320" y="834" width="48" height="18" stroke="black" fill="white"></rect>
    <text x="323" y="847" font-size="9" stroke="grey" fill="black" >2.4.1.65</text>
</g>
<g>
    <rect rxns="R06224" x="320" y="905" width="48" height="18" stroke="black" fill="white"></rect>
    <text x="323" y="918" font-size="9" stroke="grey" fill="black" >2.4.1.65</text>
</g>
<g>
    <rect rxns="R06230" x="712" y="534" width="48" height="18" stroke="black" fill="white"></rect>
    <text x="715" y="547" font-size="9" stroke="grey" fill="black" >2.4.1.65</text>
</g>
<g>
    <rect rxns="R06227" x="780" y="834" width="48" height="18" stroke="black" fill="white"></rect>
    <text x="783" y="847" font-size="9" stroke="grey" fill="black" >2.4.1.65</text>
</g>
<g>
    <rect rxns="R06033" x="827" y="402" width="48" height="18" stroke="black" fill="white"></rect>
    <text x="830" y="415" font-size="9" stroke="grey" fill="black" >2.4.1.-</text>
</g>
<g>
    <rect rxns="R06033" x="777" y="402" width="48" height="18" stroke="black" fill="white"></rect>
    <text x="780" y="415" font-size="9" stroke="grey" fill="black" >2.4.1.-</text>
</g>
<g>
    <rect rxns="R05977" x="500" y="194" width="48" height="18" stroke="black" fill="white"></rect>
    <text x="503" y="207" font-size="9" stroke="grey" fill="black" >2.4.1.-</text>
</g>
<g>
    <rect rxns="R05977" x="452" y="194" width="48" height="18" stroke="black" fill="white"></rect>
    <text x="455" y="207" font-size="9" stroke="grey" fill="black" >2.4.1.-</text>
</g>
<g>
    <rect rxns="R05977" x="500" y="173" width="48" height="18" stroke="black" fill="white"></rect>
    <text x="503" y="186" font-size="9" stroke="grey" fill="black" >2.4.1.-</text>
</g>
<g>
    <rect rxns="R05975" x="739" y="334" width="48" height="18" stroke="black" fill="white"></rect>
    <text x="742" y="347" font-size="9" stroke="grey" fill="black" >2.4.1.-</text>
</g>
<g>
    <rect rxns="R06039" x="346" y="782" width="48" height="18" stroke="black" fill="white"></rect>
    <text x="349" y="795" font-size="9" stroke="grey" fill="black" >2.4.1.-</text>
</g>
<g>
    <rect rxns="R06038" x="540" y="782" width="48" height="18" stroke="black" fill="white"></rect>
    <text x="543" y="795" font-size="9" stroke="grey" fill="black" >2.4.1.-</text>
</g>
<g>
    <rect rxns="R06076" x="806" y="782" width="48" height="18" stroke="black" fill="white"></rect>
    <text x="809" y="795" font-size="9" stroke="grey" fill="black" >2.4.1.-</text>
</g>
<g>
    <rect rxns="R06095" x="540" y="445" width="48" height="18" stroke="black" fill="white"></rect>
    <text x="543" y="458" font-size="9" stroke="grey" fill="black" >2.4.1.-</text>
</g>
<g>
    <rect rxns="R06075" x="739" y="259" width="48" height="18" stroke="black" fill="white"></rect>
    <text x="742" y="272" font-size="9" stroke="grey" fill="black" >2.4.1.-</text>
</g>
<g>
    <rect rxns="R06025" x="477" y="337" width="48" height="18" stroke="black" fill="white"></rect>
    <text x="480" y="350" font-size="9" stroke="grey" fill="black" >2.4.1.-</text>
</g>
<g>
    <rect rxns="R06038" x="514" y="763" width="48" height="18" stroke="black" fill="white"></rect>
    <text x="517" y="776" font-size="9" stroke="grey" fill="black" >2.4.1.65</text>
</g>
<g>
    <rect rxns="R06039" x="320" y="763" width="48" height="18" stroke="black" fill="white"></rect>
    <text x="323" y="776" font-size="9" stroke="grey" fill="black" >2.4.1.65</text>
</g>
<g>
    <rect rxns="R06076" x="780" y="763" width="48" height="18" stroke="black" fill="white"></rect>
    <text x="783" y="776" font-size="9" stroke="grey" fill="black" >2.4.1.65</text>
</g>
<g>
    <rect rxns="R06095" x="514" y="426" width="48" height="18" stroke="black" fill="white"></rect>
    <text x="517" y="439" font-size="9" stroke="grey" fill="black" >2.4.1.65</text>
</g>
<g>
    <rect rxns="R06025" x="452" y="316" width="48" height="18" stroke="black" fill="white"></rect>
    <text x="455" y="329" font-size="9" stroke="grey" fill="black" >2.4.1.65</text>
</g>
<g>
    <rect rxns="R05975" x="756" y="313" width="48" height="18" stroke="black" fill="white"></rect>
    <text x="759" y="326" font-size="9" stroke="grey" fill="black" >2.4.1.163</text>
</g>
<g>
    <rect rxns="R06221" x="564" y="834" width="48" height="18" stroke="black" fill="white"></rect>
    <text x="567" y="847" font-size="9" stroke="grey" fill="black" >2.4.1.152</text>
</g>
<g>
    <rect rxns="R06191" x="639" y="881" width="48" height="18" stroke="black" fill="white"></rect>
    <text x="642" y="894" font-size="9" stroke="grey" fill="black" >2.4.1.40</text>
</g>
<g>
    <rect rxns="R06085,R06086,R06089,R06090" x="959" y="703" width="48" height="18" stroke="black" fill="white"></rect>
    <text x="962" y="716" font-size="9" stroke="grey" fill="black" >2.4.1.69</text>
</g>
<g>
    <rect rxns="R06232" x="506" y="812" width="48" height="18" stroke="black" fill="white"></rect>
    <text x="509" y="825" font-size="9" stroke="grey" fill="black" >2.4.99.-</text>
</g>
<g>
    <rect rxns="R06038" x="564" y="763" width="48" height="18" stroke="black" fill="white"></rect>
    <text x="567" y="776" font-size="9" stroke="grey" fill="black" >2.4.1.152</text>
</g>
<g>
    <rect rxns="R06222" x="346" y="853" width="48" height="18" stroke="black" fill="white"></rect>
    <text x="349" y="866" font-size="9" stroke="grey" fill="black" >2.4.1.-</text>
</g>
<g>
    <rect rxns="R06039" x="370" y="763" width="48" height="18" stroke="black" fill="white"></rect>
    <text x="373" y="776" font-size="9" stroke="grey" fill="black" >2.4.1.152</text>
</g>
<g>
    <rect rxns="R06230" x="739" y="555" width="48" height="18" stroke="black" fill="white"></rect>
    <text x="742" y="568" font-size="9" stroke="grey" fill="black" >2.4.1.-</text>
</g>
<g>
    <rect rxns="R06037" x="861" y="474" width="48" height="18" stroke="black" fill="white"></rect>
    <text x="864" y="487" font-size="9" stroke="grey" fill="black" >2.4.99.10</text>
</g>
<g>
    <rect rxns="R06216" x="861" y="544" width="48" height="18" stroke="black" fill="white"></rect>
    <text x="864" y="557" font-size="9" stroke="grey" fill="black" >2.4.99.-</text>
</g>
<g>
    <rect rxns="R06021" x="959" y="637" width="48" height="18" stroke="black" fill="white"></rect>
    <text x="962" y="650" font-size="9" stroke="grey" fill="black" >2.4.1.-</text>
</g>
<g>
    <rect rxns="R06224" x="346" y="924" width="48" height="18" stroke="black" fill="white"></rect>
    <text x="349" y="937" font-size="9" stroke="grey" fill="black" >2.4.1.-</text>
</g>
<g>
    <rect rxns="R06227" x="806" y="853" width="48" height="18" stroke="black" fill="white"></rect>
    <text x="809" y="866" font-size="9" stroke="grey" fill="black" >2.4.1.-</text>
</g>
<g>
    <rect rxns="R06193" x="739" y="740" width="48" height="18" stroke="black" fill="white"></rect>
    <text x="742" y="753" font-size="9" stroke="grey" fill="black" >2.4.1.40</text>
</g>
<g>
    <rect rxns="R06041" x="671" y="842" width="48" height="18" stroke="black" fill="white"></rect>
    <text x="674" y="855" font-size="9" stroke="grey" fill="black" >2.4.1.69</text>
</g>
<g>
    <rect rxns="R05974" x="477" y="588" width="48" height="18" stroke="black" fill="white"></rect>
    <text x="480" y="601" font-size="9" stroke="grey" fill="black" >2.4.1.149</text>
</g>
<g>
    <rect rxns="R06192" x="671" y="771" width="48" height="18" stroke="black" fill="white"></rect>
    <text x="674" y="784" font-size="9" stroke="grey" fill="black" >2.4.1.-</text>
</g>
<g>
    <rect rxns="R06198" x="409" y="436" width="48" height="18" stroke="black" fill="white"></rect>
    <text x="412" y="449" font-size="9" stroke="grey" fill="black" >2.4.1.-</text>
</g>
<g>
    <rect rxns="R06190" x="861" y="740" width="48" height="18" stroke="black" fill="white"></rect>
    <text x="864" y="753" font-size="9" stroke="grey" fill="black" >2.4.1.37</text>
</g>
<g>
    <rect rxns="R06189" x="861" y="598" width="48" height="18" stroke="black" fill="white"></rect>
    <text x="864" y="611" font-size="9" stroke="grey" fill="black" >2.4.1.150</text>
</g>
<g>
    <rect rxns="R06076" x="830" y="763" width="48" height="18" stroke="black" fill="white"></rect>
    <text x="833" y="776" font-size="9" stroke="grey" fill="black" >2.4.1.152</text>
</g>
<g>
    <rect rxns="R06097" x="346" y="637" width="48" height="18" stroke="black" fill="white"></rect>
    <text x="349" y="650" font-size="9" stroke="grey" fill="black" >2.4.1.-</text>
</g>
<g>
    <rect rxns="R06032" x="670" y="211" width="48" height="18" stroke="black" fill="white"></rect>
    <text x="673" y="224" font-size="9" stroke="grey" fill="black" >2.4.99.8</text>
</g>
<g>
    <rect rxns="R06075" x="739" y="238" width="48" height="18" stroke="black" fill="white"></rect>
    <text x="742" y="251" font-size="9" stroke="grey" fill="black" >2.4.1.65</text>
</g>
<g>
    <rect rxns="R06215" x="600" y="292" width="48" height="18" stroke="black" fill="white"></rect>
    <text x="603" y="305" font-size="9" stroke="grey" fill="black" >2.4.99.-</text>
</g>
<g>
    <rect rxns="R06026" x="600" y="249" width="48" height="18" stroke="black" fill="white"></rect>
    <text x="603" y="262" font-size="9" stroke="grey" fill="black" >2.4.99.10</text>
</g>
<g>
    <rect rxns="R06025" x="500" y="316" width="48" height="18" stroke="black" fill="white"></rect>
    <text x="503" y="329" font-size="9" stroke="grey" fill="black" >2.4.1.152</text>
</g>
<g>
    <rect rxns="R05975" x="708" y="313" width="48" height="18" stroke="black" fill="white"></rect>
    <text x="711" y="326" font-size="9" stroke="grey" fill="black" >2.4.1.149</text>
</g>
<g>
    <rect rxns="R06033" x="801" y="383" width="48" height="18" stroke="black" fill="white"></rect>
    <text x="804" y="396" font-size="9" stroke="grey" fill="black" >2.4.1.-</text>
</g>
<g>
    <rect rxns="R05978" x="600" y="336" width="48" height="18" stroke="black" fill="white"></rect>
    <text x="603" y="349" font-size="9" stroke="grey" fill="black" >2.4.1.87</text>
</g>
<g>
    <rect rxns="R06029" x="600" y="402" width="48" height="18" stroke="black" fill="white"></rect>
    <text x="603" y="415" font-size="9" stroke="grey" fill="black" >2.4.1.37</text>
</g>
<g>
    <rect rxns="R06024" x="540" y="367" width="48" height="18" stroke="black" fill="white"></rect>
    <text x="543" y="380" font-size="9" stroke="grey" fill="black" >2.4.1.69</text>
</g>
<g>
    <rect rxns="R06027" x="671" y="367" width="48" height="18" stroke="black" fill="white"></rect>
    <text x="674" y="380" font-size="9" stroke="grey" fill="black" >2.4.1.69</text>
</g>
<g>
    <rect rxns="R05971" x="346" y="144" width="48" height="18" stroke="black" fill="white"></rect>
    <text x="349" y="157" font-size="9" stroke="grey" fill="black" >2.4.1.206</text>
</g>
<g>
    <rect rxns="R06095" x="564" y="426" width="48" height="18" stroke="black" fill="white"></rect>
    <text x="567" y="439" font-size="9" stroke="grey" fill="black" >2.4.1.152</text>
</g>
<g>
    <rect rxns="R06187" x="477" y="402" width="48" height="18" stroke="black" fill="white"></rect>
    <text x="480" y="415" font-size="9" stroke="grey" fill="black" >2.4.1.40</text>
</g>
<g>
    <rect rxns="R06035" x="806" y="703" width="48" height="18" stroke="black" fill="white"></rect>
    <text x="809" y="716" font-size="9" stroke="grey" fill="black" >2.4.1.69</text>
</g>
<g>
    <rect rxns="R06197" x="375" y="544" width="48" height="18" stroke="black" fill="white"></rect>
    <text x="378" y="557" font-size="9" stroke="grey" fill="black" >2.4.1.40</text>
</g>
<g>
    <rect rxns="R05977" x="452" y="173" width="48" height="18" stroke="black" fill="white"></rect>
    <text x="455" y="186" font-size="9" stroke="grey" fill="black" >2.4.1.-</text>
</g>
<g>
    <rect rxns="R06031" x="409" y="503" width="48" height="18" stroke="black" fill="white"></rect>
    <text x="412" y="516" font-size="9" stroke="grey" fill="black" >2.4.1.69</text>
</g>
<g>
    <rect rxns="R06006" x="199" y="173" width="48" height="18" stroke="black" fill="white"></rect>
    <text x="202" y="186" font-size="9" stroke="grey" fill="black" >2.4.1.-</text>
</g>
<g>
    <rect rxns="R06006" x="247" y="173" width="48" height="18" stroke="black" fill="white"></rect>
    <text x="250" y="186" font-size="9" stroke="grey" fill="black" >2.4.1.-</text>
</g>
<g>
    <rect rxns="R06006" x="224" y="194" width="48" height="18" stroke="black" fill="white"></rect>
    <text x="227" y="207" font-size="9" stroke="grey" fill="black" >2.4.1.-</text>
</g>
<g>
    <rect rxns="R06156" x="157" y="367" width="48" height="18" stroke="black" fill="white"></rect>
    <text x="160" y="380" font-size="9" stroke="grey" fill="black" >2.4.1.69</text>
</g>
<g>
    <rect rxns="R06170" x="287" y="367" width="48" height="18" stroke="black" fill="white"></rect>
    <text x="290" y="380" font-size="9" stroke="grey" fill="black" >2.4.1.69</text>
</g>
<g>
    <rect rxns="R06169" x="224" y="325" width="48" height="18" stroke="black" fill="white"></rect>
    <text x="227" y="338" font-size="9" stroke="grey" fill="black" >2.4.1.87</text>
</g>
<g>
    <rect rxns="R06168" x="224" y="402" width="48" height="18" stroke="black" fill="white"></rect>
    <text x="227" y="415" font-size="9" stroke="grey" fill="black" >2.4.1.37</text>
</g>
<g>
    <rect rxns="R06163" x="157" y="436" width="48" height="18" stroke="black" fill="white"></rect>
    <text x="160" y="449" font-size="9" stroke="grey" fill="black" >2.4.1.65</text>
</g>
<g>
    <rect rxns="R06164" x="287" y="436" width="48" height="18" stroke="black" fill="white"></rect>
    <text x="290" y="449" font-size="9" stroke="grey" fill="black" >2.4.1.65</text>
</g>
<g>
    <rect rxns="R06167" x="89" y="402" width="48" height="18" stroke="black" fill="white"></rect>
    <text x="92" y="415" font-size="9" stroke="grey" fill="black" >2.4.1.40</text>
</g>
<g>
    <rect rxns="R06162" x="24" y="436" width="48" height="18" stroke="black" fill="white"></rect>
    <text x="27" y="449" font-size="9" stroke="grey" fill="black" >2.4.1.65</text>
</g>
<g>
    <rect rxns="R06155" x="89" y="324" width="48" height="18" stroke="black" fill="white"></rect>
    <text x="92" y="337" font-size="9" stroke="grey" fill="black" >2.4.1.65</text>
</g>
<g>
    <rect rxns="R06153" x="224" y="238" width="48" height="18" stroke="black" fill="white"></rect>
    <text x="227" y="251" font-size="9" stroke="grey" fill="black" >2.4.99.6</text>
</g>
<g>
    <rect rxns="R06153" x="224" y="259" width="48" height="18" stroke="black" fill="white"></rect>
    <text x="227" y="272" font-size="9" stroke="grey" fill="black" >2.4.99.4</text>
</g>
<g>
    <rect rxns="R06165" x="346" y="249" width="48" height="18" stroke="black" fill="white"></rect>
    <text x="349" y="262" font-size="9" stroke="grey" fill="black" >2.4.1.65</text>
</g>
</svg>