<svg>
<g>
    <rect rxns="rxn06440" x="852" y="326" width="48" height="18" stroke="black" fill="white"></rect>
    <text x="855" y="339" font-size="9" stroke="grey" fill="black" >6.1.1.5</text>
</g>
<g>
    <rect rxns="rxn06434" x="248" y="574" width="48" height="18" stroke="black" fill="white"></rect>
    <text x="251" y="587" font-size="9" stroke="grey" fill="black" >6.1.1.22</text>
</g>
<g>
    <rect rxns="rxn06439" x="852" y="807" width="48" height="18" stroke="black" fill="white"></rect>
    <text x="855" y="820" font-size="9" stroke="grey" fill="black" >6.1.1.21</text>
</g>
<g>
    <rect rxns="rxn06444" x="852" y="896" width="48" height="18" stroke="black" fill="white"></rect>
    <text x="855" y="909" font-size="9" stroke="grey" fill="black" >6.1.1.20</text>
</g>
<g>
    <rect rxns="rxn06432" x="852" y="628" width="48" height="18" stroke="black" fill="white"></rect>
    <text x="855" y="641" font-size="9" stroke="grey" fill="black" >6.1.1.19</text>
</g>
<g>
    <rect rxns="rxn06437" x="248" y="272" width="48" height="18" stroke="black" fill="white"></rect>
    <text x="251" y="285" font-size="9" stroke="grey" fill="black" >6.1.1.18</text>
</g>
<g>
    <rect rxns="rxn06435" x="248" y="1067" width="48" height="18" stroke="black" fill="white"></rect>
    <text x="251" y="1080" font-size="9" stroke="grey" fill="black" >6.1.1.16</text>
</g>
<g>
    <rect rxns="rxn06438" x="248" y="663" width="48" height="18" stroke="black" fill="white"></rect>
    <text x="251" y="676" font-size="9" stroke="grey" fill="black" >6.1.1.14</text>
</g>
<g>
    <rect rxns="rxn06936" x="248" y="439" width="48" height="18" stroke="black" fill="white"></rect>
    <text x="251" y="452" font-size="9" stroke="grey" fill="black" >6.1.1.12</text>
</g>
<g>
    <rect rxns="rxn06446" x="248" y="841" width="48" height="18" stroke="black" fill="white"></rect>
    <text x="251" y="854" font-size="9" stroke="grey" fill="black" >6.1.1.11</text>
</g>
<g>
    <rect rxns="rxn06443" x="248" y="1156" width="48" height="18" stroke="black" fill="white"></rect>
    <text x="251" y="1169" font-size="9" stroke="grey" fill="black" >6.1.1.10</text>
</g>
<g>
    <rect rxns="rxn06449" x="852" y="148" width="48" height="18" stroke="black" fill="white"></rect>
    <text x="855" y="161" font-size="9" stroke="grey" fill="black" >6.1.1.9</text>
</g>
<g>
    <rect rxns="rxn06300" x="248" y="362" width="48" height="18" stroke="black" fill="white"></rect>
    <text x="251" y="375" font-size="9" stroke="grey" fill="black" >6.1.1.7</text>
</g>
<g>
    <rect rxns="rxn06442" x="852" y="415" width="48" height="18" stroke="black" fill="white"></rect>
    <text x="855" y="428" font-size="9" stroke="grey" fill="black" >6.1.1.6</text>
</g>
<g>
    <rect rxns="rxn06441" x="852" y="237" width="48" height="18" stroke="black" fill="white"></rect>
    <text x="855" y="250" font-size="9" stroke="grey" fill="black" >6.1.1.4</text>
</g>
<g>
    <rect rxns="rxn06447" x="248" y="752" width="48" height="18" stroke="black" fill="white"></rect>
    <text x="251" y="765" font-size="9" stroke="grey" fill="black" >6.1.1.3</text>
</g>
<g>
    <rect rxns="rxn06448" x="852" y="1074" width="48" height="18" stroke="black" fill="white"></rect>
    <text x="855" y="1087" font-size="9" stroke="grey" fill="black" >6.1.1.2</text>
</g>
<g>
    <rect rxns="rxn06538" x="386" y="1156" width="48" height="18" stroke="black" fill="white"></rect>
    <text x="389" y="1169" font-size="9" stroke="grey" fill="black" >2.1.2.9</text>
</g>
<g>
    <rect rxns="rxn06280" x="852" y="985" width="48" height="18" stroke="black" fill="white"></rect>
    <text x="855" y="998" font-size="9" stroke="grey" fill="black" >6.1.1.1</text>
</g>
<g>
    <rect rxns="rxn06445" x="852" y="718" width="48" height="18" stroke="black" fill="white"></rect>
    <text x="855" y="731" font-size="9" stroke="grey" fill="black" >6.1.1.15</text>
</g>
<g>
    <rect rxns="rxn06937" x="248" y="137" width="48" height="18" stroke="black" fill="white"></rect>
    <text x="251" y="150" font-size="9" stroke="grey" fill="black" >6.1.1.17</text>
</g>
<g>
    <rect rxns="rxn10534" x="315" y="236" width="48" height="18" stroke="black" fill="white"></rect>
    <text x="318" y="249" font-size="9" stroke="grey" fill="black" >6.3.5.7</text>
</g>
<g>
    <rect rxns="rxn06436" x="248" y="208" width="48" height="18" stroke="black" fill="white"></rect>
    <text x="251" y="221" font-size="9" stroke="grey" fill="black" >6.1.1.24</text>
</g>
<g>
    <rect rxns="rxn11595" x="314" y="539" width="48" height="18" stroke="black" fill="white"></rect>
    <text x="317" y="552" font-size="9" stroke="grey" fill="black" >6.3.5.6</text>
</g>
<g>
    <rect rxns="rxn06433" x="248" y="509" width="48" height="18" stroke="black" fill="white"></rect>
    <text x="251" y="522" font-size="9" stroke="grey" fill="black" >6.1.1.23</text>
</g>
<g>
    <rect rxns="rxn14388" x="314" y="1028" width="48" height="18" stroke="black" fill="white"></rect>
    <text x="317" y="1041" font-size="9" stroke="grey" fill="black" >2.5.1.73</text>
</g>
<g>
    <rect rxns="rxn14309" x="248" y="1002" width="48" height="18" stroke="black" fill="white"></rect>
    <text x="251" y="1015" font-size="9" stroke="grey" fill="black" >6.1.1.27</text>
</g>
<g>
    <rect rxns="rxn11747" x="248" y="921" width="48" height="18" stroke="black" fill="white"></rect>
    <text x="251" y="934" font-size="9" stroke="grey" fill="black" >6.1.1.11</text>
</g>
<g>
    <rect rxns="rxn11751" x="360" y="920" width="48" height="18" stroke="black" fill="white"></rect>
    <text x="363" y="933" font-size="9" stroke="grey" fill="black" >2.7.1.164</text>
</g>
<g>
    <rect rxns="rxn11752" x="457" y="921" width="48" height="18" stroke="black" fill="white"></rect>
    <text x="460" y="934" font-size="9" stroke="grey" fill="black" >2.9.1.2</text>
</g>
<g>
    <rect rxns="rxn09244" x="412" y="884" width="48" height="18" stroke="black" fill="white"></rect>
    <text x="415" y="897" font-size="9" stroke="grey" fill="black" >2.9.1.1</text>
</g>
<g>
    <rect rxns="rxn14187" x="852" y="540" width="48" height="18" stroke="black" fill="white"></rect>
    <text x="855" y="553" font-size="9" stroke="grey" fill="black" >6.1.1.26</text>
</g>
<g>
    <rect rxns="rxn07461" x="852" y="475" width="48" height="18" stroke="black" fill="white"></rect>
    <text x="855" y="488" font-size="9" stroke="grey" fill="black" >6.1.1.25</text>
</g>
<g>
    <rect rxns="rxn06937" x="248" y="158" width="48" height="18" stroke="black" fill="white"></rect>
    <text x="251" y="171" font-size="9" stroke="grey" fill="black" >6.1.1.24</text>
</g>
<g>
    <rect rxns="rxn06936" x="248" y="460" width="48" height="18" stroke="black" fill="white"></rect>
    <text x="251" y="473" font-size="9" stroke="grey" fill="black" >6.1.1.23</text>
</g>
</svg>