<svg>
<g>
    <rect rxns="rxn11764" x="158" y="224" width="48" height="18" stroke="black" fill="white"></rect>
    <text x="161" y="237" font-size="9" stroke="grey" fill="black" >2.1.1.67</text>
</g>
<g>
    <rect rxns="rxn11767" x="271" y="224" width="48" height="18" stroke="black" fill="white"></rect>
    <text x="274" y="237" font-size="9" stroke="grey" fill="black" >2.1.1.67</text>
</g>
<g>
    <rect rxns="rxn11774" x="479" y="223" width="48" height="18" stroke="black" fill="white"></rect>
    <text x="482" y="236" font-size="9" stroke="grey" fill="black" >2.1.1.67</text>
</g>
<g>
    <rect rxns="rxn11766" x="215" y="179" width="48" height="18" stroke="black" fill="white"></rect>
    <text x="218" y="192" font-size="9" stroke="grey" fill="black" >2.4.2.8</text>
</g>
<g>
    <rect rxns="rxn11765" x="214" y="262" width="48" height="18" stroke="black" fill="white"></rect>
    <text x="217" y="275" font-size="9" stroke="grey" fill="black" >2.4.2.8</text>
</g>
<g>
    <rect rxns="rxn11773" x="479" y="304" width="48" height="18" stroke="black" fill="white"></rect>
    <text x="482" y="317" font-size="9" stroke="grey" fill="black" >2.4.2.8</text>
</g>
<g>
    <rect rxns="rxn11772" x="426" y="263" width="48" height="18" stroke="black" fill="white"></rect>
    <text x="429" y="276" font-size="9" stroke="grey" fill="black" >6.3.5.2</text>
</g>
<g>
    <rect rxns="rxn11771" x="308" y="344" width="48" height="18" stroke="black" fill="white"></rect>
    <text x="311" y="357" font-size="9" stroke="grey" fill="black" >3.6.1.19</text>
</g>
<g>
    <rect rxns="rxn11763" x="158" y="313" width="48" height="18" stroke="black" fill="white"></rect>
    <text x="161" y="326" font-size="9" stroke="grey" fill="black" >1.17.3.2</text>
</g>
<g>
    <rect rxns="rxn11776" x="831" y="606" width="48" height="18" stroke="black" fill="white"></rect>
    <text x="834" y="619" font-size="9" stroke="grey" fill="black" >2.3.1.5</text>
</g>
<g>
    <rect rxns="rxn11778" x="1026" y="606" width="48" height="18" stroke="black" fill="white"></rect>
    <text x="1029" y="619" font-size="9" stroke="grey" fill="black" >2.3.1.5</text>
</g>
<g>
    <rect rxns="rxn12025" x="271" y="305" width="48" height="18" stroke="black" fill="white"></rect>
    <text x="274" y="318" font-size="9" stroke="grey" fill="black" >2.7.4.-</text>
</g>
<g>
    <rect rxns="rxn12026" x="271" y="377" width="48" height="18" stroke="black" fill="white"></rect>
    <text x="274" y="390" font-size="9" stroke="grey" fill="black" >2.7.4.-</text>
</g>
<g>
    <rect rxns="rxn11777" x="925" y="606" width="48" height="18" stroke="black" fill="white"></rect>
    <text x="928" y="619" font-size="9" stroke="grey" fill="black" >3.-.-.-</text>
</g>
<g>
    <rect rxns="rxn11757" x="308" y="701" width="48" height="18" stroke="black" fill="white"></rect>
    <text x="311" y="714" font-size="9" stroke="grey" fill="black" >2.4.2.3</text>
</g>
<g>
    <rect rxns="rxn11758" x="308" y="754" width="48" height="18" stroke="black" fill="white"></rect>
    <text x="311" y="767" font-size="9" stroke="grey" fill="black" >2.4.2.4</text>
</g>
<g>
    <rect rxns="rxn11754" x="298" y="619" width="48" height="18" stroke="black" fill="white"></rect>
    <text x="301" y="632" font-size="9" stroke="grey" fill="black" >1.3.1.2</text>
</g>
<g>
    <rect rxns="rxn11755" x="399" y="618" width="48" height="18" stroke="black" fill="white"></rect>
    <text x="402" y="631" font-size="9" stroke="grey" fill="black" >3.5.2.2</text>
</g>
<g>
    <rect rxns="rxn11756" x="498" y="618" width="48" height="18" stroke="black" fill="white"></rect>
    <text x="501" y="631" font-size="9" stroke="grey" fill="black" >3.5.1.6</text>
</g>
<g>
    <rect rxns="rxn11759" x="372" y="658" width="48" height="18" stroke="black" fill="white"></rect>
    <text x="375" y="671" font-size="9" stroke="grey" fill="black" >2.4.2.10</text>
</g>
<g>
    <rect rxns="rxn11760" x="431" y="701" width="48" height="18" stroke="black" fill="white"></rect>
    <text x="434" y="714" font-size="9" stroke="grey" fill="black" >2.7.1.48</text>
</g>
<g>
    <rect rxns="rxn11761" x="431" y="755" width="48" height="18" stroke="black" fill="white"></rect>
    <text x="434" y="768" font-size="9" stroke="grey" fill="black" >2.7.1.21</text>
</g>
<g>
    <rect rxns="rxn11768" x="331" y="263" width="48" height="18" stroke="black" fill="white"></rect>
    <text x="334" y="276" font-size="9" stroke="grey" fill="black" >1.1.1.205</text>
</g>
<g>
    <rect rxns="rxn12024" x="254" y="574" width="48" height="18" stroke="black" fill="white"></rect>
    <text x="257" y="587" font-size="9" stroke="grey" fill="black" >1.14.14.1</text>
</g>
<g>
    <rect rxns="rxn11750" x="204" y="619" width="48" height="18" stroke="black" fill="white"></rect>
    <text x="207" y="632" font-size="9" stroke="grey" fill="black" >2.4.2.4</text>
</g>
<g>
    <rect rxns="rxn11749" x="107" y="617" width="48" height="18" stroke="black" fill="white"></rect>
    <text x="110" y="630" font-size="9" stroke="grey" fill="black" >3.5.4.5</text>
</g>
<g>
    <rect rxns="rxn12023" x="60" y="574" width="48" height="18" stroke="black" fill="white"></rect>
    <text x="63" y="587" font-size="9" stroke="grey" fill="black" >3.1.1.1</text>
</g>
<g>
    <rect rxns="rxn11787" x="949" y="229" width="48" height="18" stroke="black" fill="white"></rect>
    <text x="952" y="242" font-size="9" stroke="grey" fill="black" >2.4.1.17</text>
</g>
<g>
    <rect rxns="rxn11784,rxn12029" x="786" y="229" width="48" height="18" stroke="black" fill="white"></rect>
    <text x="789" y="242" font-size="9" stroke="grey" fill="black" >1.14.14.1</text>
</g>
<g>
    <rect rxns="rxn11788" x="1003" y="229" width="48" height="18" stroke="black" fill="white"></rect>
    <text x="1006" y="242" font-size="9" stroke="grey" fill="black" >3.2.1.31</text>
</g>
<g>
    <rect rxns="rxn12030" x="884" y="229" width="48" height="18" stroke="black" fill="white"></rect>
    <text x="887" y="242" font-size="9" stroke="grey" fill="black" >3.1.1.1</text>
</g>
<g>
    <rect rxns="rxn12028" x="847" y="181" width="48" height="18" stroke="black" fill="white"></rect>
    <text x="850" y="194" font-size="9" stroke="grey" fill="black" >3.1.1.1</text>
</g>
</svg>