<svg>
<g>
    <rect rxns="rxn07480" x="261" y="376" width="48" height="18" stroke="black" fill="white"></rect>
    <text x="264" y="389" font-size="9" stroke="grey" fill="black" >1.14.13.-</text>
</g>
<g>
    <rect rxns="rxn02887" x="417" y="377" width="48" height="18" stroke="black" fill="white"></rect>
    <text x="420" y="390" font-size="9" stroke="grey" fill="black" >1.1.1.97</text>
</g>
<g>
    <rect rxns="rxn07481" x="543" y="377" width="48" height="18" stroke="black" fill="white"></rect>
    <text x="546" y="390" font-size="9" stroke="grey" fill="black" >1.2.1.7</text>
</g>
<g>
    <rect rxns="rxn07482" x="543" y="358" width="48" height="18" stroke="black" fill="white"></rect>
    <text x="546" y="371" font-size="9" stroke="grey" fill="black" >1.2.1.64</text>
</g>
<g>
    <rect rxns="rxn07482" x="543" y="396" width="48" height="18" stroke="black" fill="white"></rect>
    <text x="546" y="409" font-size="9" stroke="grey" fill="black" >1.2.1.28</text>
</g>
<g>
    <rect rxns="rxn02539" x="119" y="282" width="48" height="18" stroke="black" fill="white"></rect>
    <text x="122" y="295" font-size="9" stroke="grey" fill="black" >1.14.12.11</text>
</g>
<g>
    <rect rxns="rxn02860" x="261" y="282" width="48" height="18" stroke="black" fill="white"></rect>
    <text x="264" y="295" font-size="9" stroke="grey" fill="black" >1.3.1.19</text>
</g>
<g>
    <rect rxns="rxn01032" x="543" y="444" width="48" height="18" stroke="black" fill="white"></rect>
    <text x="546" y="457" font-size="9" stroke="grey" fill="black" >1.2.1.28</text>
</g>
<g>
    <rect rxns="rxn01033" x="543" y="423" width="48" height="18" stroke="black" fill="white"></rect>
    <text x="546" y="436" font-size="9" stroke="grey" fill="black" >1.2.1.7</text>
</g>
<g>
    <rect rxns="rxn01293" x="417" y="434" width="48" height="18" stroke="black" fill="white"></rect>
    <text x="420" y="447" font-size="9" stroke="grey" fill="black" >1.1.1.90</text>
</g>
<g>
    <rect rxns="rxn03877" x="102" y="157" width="48" height="18" stroke="black" fill="white"></rect>
    <text x="105" y="170" font-size="9" stroke="grey" fill="black" >4.1.99.11</text>
</g>
<g>
    <rect rxns="rxn05836" x="157" y="112" width="48" height="18" stroke="black" fill="white"></rect>
    <text x="160" y="125" font-size="9" stroke="grey" fill="black" >1.3.99.1</text>
</g>
<g>
    <rect rxns="rxn03868" x="211" y="157" width="48" height="18" stroke="black" fill="white"></rect>
    <text x="214" y="170" font-size="9" stroke="grey" fill="black" >2.8.3.15</text>
</g>
<g>
    <rect rxns="rxn06940" x="336" y="157" width="48" height="18" stroke="black" fill="white"></rect>
    <text x="339" y="170" font-size="9" stroke="grey" fill="black" >1.3.8.3</text>
</g>
<g>
    <rect rxns="rxn03878" x="460" y="157" width="48" height="18" stroke="black" fill="white"></rect>
    <text x="463" y="170" font-size="9" stroke="grey" fill="black" >4.2.1.-</text>
</g>
<g>
    <rect rxns="rxn03860" x="582" y="157" width="48" height="18" stroke="black" fill="white"></rect>
    <text x="585" y="170" font-size="9" stroke="grey" fill="black" >1.1.1.35</text>
</g>
<g>
    <rect rxns="rxn03867" x="701" y="157" width="48" height="18" stroke="black" fill="white"></rect>
    <text x="704" y="170" font-size="9" stroke="grey" fill="black" >2.3.1.-</text>
</g>
<g>
    <rect rxns="rxn07478" x="190" y="553" width="48" height="18" stroke="black" fill="white"></rect>
    <text x="193" y="566" font-size="9" stroke="grey" fill="black" >1.14.13.-</text>
</g>
<g>
    <rect rxns="rxn03612" x="498" y="597" width="48" height="18" stroke="black" fill="white"></rect>
    <text x="501" y="610" font-size="9" stroke="grey" fill="black" >5.5.1.1</text>
</g>
<g>
    <rect rxns="rxn00957" x="543" y="516" width="48" height="18" stroke="black" fill="white"></rect>
    <text x="546" y="529" font-size="9" stroke="grey" fill="black" >1.2.1.28</text>
</g>
<g>
    <rect rxns="rxn00958" x="543" y="497" width="48" height="18" stroke="black" fill="white"></rect>
    <text x="546" y="510" font-size="9" stroke="grey" fill="black" >1.2.1.7</text>
</g>
<g>
    <rect rxns="rxn00957" x="543" y="478" width="48" height="18" stroke="black" fill="white"></rect>
    <text x="546" y="491" font-size="9" stroke="grey" fill="black" >1.2.1.64</text>
</g>
<g>
    <rect rxns="rxn03611" x="391" y="597" width="48" height="18" stroke="black" fill="white"></rect>
    <text x="394" y="610" font-size="9" stroke="grey" fill="black" >1.13.11.1</text>
</g>
<g>
    <rect rxns="rxn14227" x="378" y="497" width="48" height="18" stroke="black" fill="white"></rect>
    <text x="381" y="510" font-size="9" stroke="grey" fill="black" >1.17.99.1</text>
</g>
<g>
    <rect rxns="rxn03583" x="417" y="668" width="48" height="18" stroke="black" fill="white"></rect>
    <text x="420" y="681" font-size="9" stroke="grey" fill="black" >1.1.1.257</text>
</g>
<g>
    <rect rxns="rxn03584" x="543" y="669" width="48" height="18" stroke="black" fill="white"></rect>
    <text x="546" y="682" font-size="9" stroke="grey" fill="black" >1.2.1.62</text>
</g>
<g>
    <rect rxns="rxn01197" x="664" y="666" width="48" height="18" stroke="black" fill="white"></rect>
    <text x="667" y="679" font-size="9" stroke="grey" fill="black" >1.14.12.8</text>
</g>
<g>
    <rect rxns="R09201" x="120" y="744" width="48" height="18" stroke="black" fill="white"></rect>
    <text x="123" y="757" font-size="9" stroke="grey" fill="black" >1.14.12.-</text>
</g>
<g>
    <rect rxns="R09213" x="263" y="744" width="48" height="18" stroke="black" fill="white"></rect>
    <text x="266" y="757" font-size="9" stroke="grey" fill="black" >1.3.1.-</text>
</g>
<g>
    <rect rxns="R09214" x="391" y="744" width="48" height="18" stroke="black" fill="white"></rect>
    <text x="394" y="757" font-size="9" stroke="grey" fill="black" >1.13.11.-</text>
</g>
<g>
    <rect rxns="R09215" x="498" y="743" width="48" height="18" stroke="black" fill="white"></rect>
    <text x="501" y="756" font-size="9" stroke="grey" fill="black" >5.5.1.7</text>
</g>
<g>
    <rect rxns="R09217" x="609" y="743" width="48" height="18" stroke="black" fill="white"></rect>
    <text x="612" y="756" font-size="9" stroke="grey" fill="black" >5.5.1.7</text>
</g>
<g>
    <rect rxns="R09220" x="722" y="744" width="48" height="18" stroke="black" fill="white"></rect>
    <text x="725" y="757" font-size="9" stroke="grey" fill="black" >3.1.1.45</text>
</g>
<g>
    <rect rxns="R09221" x="556" y="789" width="48" height="18" stroke="black" fill="white"></rect>
    <text x="559" y="802" font-size="9" stroke="grey" fill="black" >5.5.1.7</text>
</g>
<g>
    <rect rxns="R09222" x="723" y="788" width="48" height="18" stroke="black" fill="white"></rect>
    <text x="726" y="801" font-size="9" stroke="grey" fill="black" >3.1.1.45</text>
</g>
<g>
    <rect rxns="R09223" x="833" y="789" width="48" height="18" stroke="black" fill="white"></rect>
    <text x="836" y="802" font-size="9" stroke="grey" fill="black" >1.3.1.32</text>
</g>
<g>
    <rect rxns="R09224" x="941" y="788" width="48" height="18" stroke="black" fill="white"></rect>
    <text x="944" y="801" font-size="9" stroke="grey" fill="black" >1.3.1.32</text>
</g>
<g>
    <rect rxns="rxn03109" x="610" y="597" width="48" height="18" stroke="black" fill="white"></rect>
    <text x="613" y="610" font-size="9" stroke="grey" fill="black" >5.4.99.14</text>
</g>
<g>
    <rect rxns="R09226" x="892" y="597" width="48" height="18" stroke="black" fill="white"></rect>
    <text x="895" y="610" font-size="9" stroke="grey" fill="black" >3.1.1.-</text>
</g>
<g>
    <rect rxns="R09225" x="724" y="597" width="48" height="18" stroke="black" fill="white"></rect>
    <text x="727" y="610" font-size="9" stroke="grey" fill="black" >5.5.1.-</text>
</g>
<g>
    <rect rxns="R09229" x="498" y="556" width="48" height="18" stroke="black" fill="white"></rect>
    <text x="501" y="569" font-size="9" stroke="grey" fill="black" >5.5.1.1</text>
</g>
<g>
    <rect rxns="rxn02540" x="119" y="229" width="48" height="18" stroke="black" fill="white"></rect>
    <text x="122" y="242" font-size="9" stroke="grey" fill="black" >1.14.13.-</text>
</g>
<g>
    <rect rxns="rxn02577" x="261" y="228" width="48" height="18" stroke="black" fill="white"></rect>
    <text x="264" y="241" font-size="9" stroke="grey" fill="black" >1.14.13.-</text>
</g>
<g>
    <rect rxns="rxn02545" x="261" y="340" width="48" height="18" stroke="black" fill="white"></rect>
    <text x="264" y="353" font-size="9" stroke="grey" fill="black" >1.14.13.7</text>
</g>
<g>
    <rect rxns="rxn02541" x="119" y="340" width="48" height="18" stroke="black" fill="white"></rect>
    <text x="122" y="353" font-size="9" stroke="grey" fill="black" >1.14.13.-</text>
</g>
<g>
    <rect rxns="rxn11959" x="119" y="444" width="48" height="18" stroke="black" fill="white"></rect>
    <text x="122" y="457" font-size="9" stroke="grey" fill="black" >1.14.15.-</text>
</g>
<g>
    <rect rxns="rxn03937" x="119" y="497" width="48" height="18" stroke="black" fill="white"></rect>
    <text x="122" y="510" font-size="9" stroke="grey" fill="black" >1.14.13.-</text>
</g>
<g>
    <rect rxns="rxn11959" x="119" y="423" width="48" height="18" stroke="black" fill="white"></rect>
    <text x="122" y="436" font-size="9" stroke="grey" fill="black" >1.14.13.-</text>
</g>
</svg>