<?xml version="1.0" encoding="utf-8"?>
<!-- Generator: Adobe Illustrator 15.0.0, SVG Export Plug-In . SVG Version: 6.00 Build 0)  -->
<!DOCTYPE svg PUBLIC "-//W3C//DTD SVG 1.1//EN" "http://www.w3.org/Graphics/SVG/1.1/DTD/svg11.dtd">
<svg version="1.1" id="Layer_1" xmlns="http://www.w3.org/2000/svg" xmlns:xlink="http://www.w3.org/1999/xlink" x="0px" y="0px"
	 width="80px" height="80px" viewBox="0 0 80 80" enable-background="new 0 0 80 80" xml:space="preserve">
<g>
	<g>
		<path fill="#231F20" d="M48.1,55.8c-9.8,0-17.7-7.9-17.7-17.7c0-9.8,7.9-17.7,17.7-17.7c9.8,0,17.7,7.9,17.7,17.7
			C65.8,47.9,57.9,55.8,48.1,55.8z M48.1,25.4c-7,0-12.7,5.7-12.7,12.7c0,7,5.7,12.7,12.7,12.7c7,0,12.7-5.7,12.7-12.7
			C60.8,31.1,55.1,25.4,48.1,25.4z"/>
		<path fill="#FFFFFF" d="M48.1,56.3c-10,0-18.2-8.2-18.2-18.2c0-10,8.2-18.2,18.2-18.2c10,0,18.2,8.2,18.2,18.2
			C66.3,48.1,58.2,56.3,48.1,56.3z M48.1,20.9c-9.5,0-17.2,7.7-17.2,17.2c0,9.5,7.7,17.2,17.2,17.2c9.5,0,17.2-7.7,17.2-17.2
			C65.3,28.6,57.6,20.9,48.1,20.9z M48.1,51.3c-7.3,0-13.2-5.9-13.2-13.2c0-7.3,5.9-13.2,13.2-13.2c7.3,0,13.2,5.9,13.2,13.2
			C61.3,45.4,55.4,51.3,48.1,51.3z M48.1,25.9c-6.7,0-12.2,5.5-12.2,12.2c0,6.7,5.5,12.2,12.2,12.2c6.7,0,12.2-5.5,12.2-12.2
			C60.3,31.4,54.9,25.9,48.1,25.9z"/>
	</g>
</g>
<g>
	<g>
		<path fill="#231F20" d="M31.1,55.8c-9.8,0-17.7-7.9-17.7-17.7c0-9.8,7.9-17.7,17.7-17.7c9.8,0,17.7,7.9,17.7,17.7
			C48.8,47.9,40.9,55.8,31.1,55.8z M31.1,25.4c-7,0-12.7,5.7-12.7,12.7c0,7,5.7,12.7,12.7,12.7c7,0,12.7-5.7,12.7-12.7
			C43.8,31.1,38.1,25.4,31.1,25.4z"/>
		<path fill="#FFFFFF" d="M31.1,56.3c-10,0-18.2-8.2-18.2-18.2c0-10,8.2-18.2,18.2-18.2c10,0,18.2,8.2,18.2,18.2
			C49.3,48.1,41.2,56.3,31.1,56.3z M31.1,20.9c-9.5,0-17.2,7.7-17.2,17.2c0,9.5,7.7,17.2,17.2,17.2c9.5,0,17.2-7.7,17.2-17.2
			C48.3,28.6,40.6,20.9,31.1,20.9z M31.1,51.3c-7.3,0-13.2-5.9-13.2-13.2c0-7.3,5.9-13.2,13.2-13.2c7.3,0,13.2,5.9,13.2,13.2
			C44.3,45.4,38.4,51.3,31.1,51.3z M31.1,25.9c-6.7,0-12.2,5.5-12.2,12.2c0,6.7,5.5,12.2,12.2,12.2c6.7,0,12.2-5.5,12.2-12.2
			C43.3,31.4,37.9,25.9,31.1,25.9z"/>
	</g>
</g>
</svg>
