<?xml version="1.0" encoding="utf-8"?>
<!-- Generator: Adobe Illustrator 15.0.0, SVG Export Plug-In . SVG Version: 6.00 Build 0)  -->
<!DOCTYPE svg PUBLIC "-//W3C//DTD SVG 1.1//EN" "http://www.w3.org/Graphics/SVG/1.1/DTD/svg11.dtd">
<svg version="1.1" id="Layer_1" xmlns="http://www.w3.org/2000/svg" xmlns:xlink="http://www.w3.org/1999/xlink" x="0px" y="0px"
	 width="80px" height="80px" viewBox="0 0 80 80" enable-background="new 0 0 80 80" xml:space="preserve">
<g>
	<g>
		<path d="M39.9,43.4v-6c14.5,0,24.7-5.8,24.7-10.9h6C70.5,36,57.1,43.4,39.9,43.4z"/>
	</g>
	<g>
		<path d="M15.4,54.4h-6c0-9.5,13.5-16.9,30.7-16.9v6C25.6,43.4,15.4,49.2,15.4,54.4z"/>
	</g>
</g>
<g>
	<g>
		<path d="M43.4,40.5h-6c0-17.2,7.4-30.7,16.9-30.7v6C49.1,15.8,43.4,25.9,43.4,40.5z"/>
	</g>
	<g>
		<path d="M26.4,70.9v-6c5.2,0,10.9-10.1,10.9-24.7h6C43.4,57.4,35.9,70.9,26.4,70.9z"/>
	</g>
</g>
<g>
	<path d="M52.9,34.8c-0.6,0.6-1.5,0.6-2.1,0L45.9,30c-0.6-0.6-0.6-1.5,0-2.1l0,0c0.6-0.6,1.5-0.6,2.1,0l4.9,4.9
		C53.5,33.3,53.5,34.3,52.9,34.8L52.9,34.8z"/>
</g>
<g>
	<path d="M59.5,31.9c-0.6,0.6-1.8,0.3-2.7-0.6l-7.6-7.6c-0.9-0.9-1.2-2.1-0.6-2.7l0,0c0.6-0.6,1.8-0.3,2.7,0.6l7.6,7.6
		C59.8,30.1,60.1,31.3,59.5,31.9L59.5,31.9z"/>
</g>
<g>
	<path d="M63.5,26.6c-0.6,0.6-1.7,0.4-2.5-0.4l-6.8-6.8c-0.8-0.8-1-1.9-0.4-2.5l0,0c0.6-0.6,1.7-0.4,2.5,0.4l6.8,6.8
		C63.9,24.9,64.1,26,63.5,26.6L63.5,26.6z"/>
</g>
<g>
	<path d="M27.4,46.1c0.6-0.6,1.5-0.6,2.1,0l4.9,4.9c0.6,0.6,0.6,1.5,0,2.1l0,0c-0.6,0.6-1.5,0.6-2.1,0l-4.9-4.9
		C26.8,47.6,26.8,46.7,27.4,46.1L27.4,46.1z"/>
</g>
<g>
	<path d="M20.8,49c0.6-0.6,1.8-0.3,2.7,0.6l7.6,7.6c0.9,0.9,1.2,2.1,0.6,2.7l0,0c-0.6,0.6-1.8,0.3-2.7-0.6l-7.6-7.6
		C20.5,50.8,20.2,49.6,20.8,49L20.8,49z"/>
</g>
<g>
	<path d="M16.8,54.3c0.6-0.6,1.7-0.4,2.5,0.4l6.8,6.8c0.8,0.8,1,1.9,0.4,2.5l0,0c-0.6,0.6-1.7,0.4-2.5-0.4l-6.8-6.8
		C16.4,56,16.2,54.9,16.8,54.3L16.8,54.3z"/>
</g>
</svg>
