<?xml version="1.0" encoding="utf-8"?>
<!-- Generator: Adobe Illustrator 15.0.0, SVG Export Plug-In . SVG Version: 6.00 Build 0)  -->
<!DOCTYPE svg PUBLIC "-//W3C//DTD SVG 1.1//EN" "http://www.w3.org/Graphics/SVG/1.1/DTD/svg11.dtd">
<svg version="1.1" id="Layer_1" xmlns="http://www.w3.org/2000/svg" xmlns:xlink="http://www.w3.org/1999/xlink" x="0px" y="0px"
	 width="80px" height="80px" viewBox="0 0 80 80" enable-background="new 0 0 80 80" xml:space="preserve">
<g>
	<path fill="#231F20" d="M21.9,39.5c0,0.6-0.4,1-1,1h-8c-0.6,0-1-0.4-1-1v-2c0-0.6,0.4-1,1-1h8c0.6,0,1,0.4,1,1V39.5z"/>
	<path fill="#231F20" d="M20.9,41h-8c-0.8,0-1.5-0.7-1.5-1.5v-2c0-0.8,0.7-1.5,1.5-1.5h8c0.8,0,1.5,0.7,1.5,1.5v2
		C22.4,40.4,21.7,41,20.9,41z M12.9,37c-0.3,0-0.5,0.2-0.5,0.5v2c0,0.3,0.2,0.5,0.5,0.5h8c0.3,0,0.5-0.2,0.5-0.5v-2
		c0-0.3-0.2-0.5-0.5-0.5H12.9z"/>
</g>
<g>
	<path fill="#231F20" d="M46.2,24.7c0,0.6-0.4,1-1,1h-23c-0.6,0-1-0.4-1-1v-2c0-0.6,0.4-1,1-1h23c0.6,0,1,0.4,1,1V24.7z"/>
	<path fill="#231F20" d="M45.2,26.2h-23c-0.8,0-1.5-0.7-1.5-1.5v-2c0-0.8,0.7-1.5,1.5-1.5h23c0.8,0,1.5,0.7,1.5,1.5v2
		C46.7,25.5,46,26.2,45.2,26.2z M22.2,22.2c-0.3,0-0.5,0.2-0.5,0.5v2c0,0.3,0.2,0.5,0.5,0.5h23c0.3,0,0.5-0.2,0.5-0.5v-2
		c0-0.3-0.2-0.5-0.5-0.5H22.2z"/>
</g>
<g>
	<path fill="#231F20" d="M46,55.5c0,0.6-0.4,1-1,1H22c-0.6,0-1-0.4-1-1v-2c0-0.6,0.4-1,1-1h23c0.6,0,1,0.4,1,1V55.5z"/>
	<path fill="#231F20" d="M45,57H22c-0.8,0-1.5-0.7-1.5-1.5v-2c0-0.8,0.7-1.5,1.5-1.5h23c0.8,0,1.5,0.7,1.5,1.5v2
		C46.5,56.3,45.9,57,45,57z M22,53c-0.3,0-0.5,0.2-0.5,0.5v2c0,0.3,0.2,0.5,0.5,0.5h23c0.3,0,0.5-0.2,0.5-0.5v-2
		c0-0.3-0.2-0.5-0.5-0.5H22z"/>
</g>
<g>
	<path fill="#231F20" d="M23.5,22.1c0.6,0,1,0.6,1,1.4v31.6c0,0.8-0.4,1.4-1,1.4h-2c-0.6,0-1-0.6-1-1.4V23.5c0-0.8,0.4-1.4,1-1.4
		H23.5z"/>
	<path fill="#231F20" d="M23.5,56.9h-2c-0.8,0-1.5-0.8-1.5-1.9V23.5c0-1.1,0.7-1.9,1.5-1.9h2c0.8,0,1.5,0.8,1.5,1.9v31.6
		C25,56.1,24.4,56.9,23.5,56.9z M21.5,22.6c-0.2,0-0.5,0.4-0.5,0.9v31.6c0,0.5,0.3,0.9,0.5,0.9h2c0.2,0,0.5-0.4,0.5-0.9V23.5
		c0-0.5-0.3-0.9-0.5-0.9H21.5z"/>
</g>
<g>
	<path fill="#231F20" d="M45.4,44.6c0.6,0,1,0.4,1,1v18c0,0.6-0.4,1-1,1h-2c-0.6,0-1-0.4-1-1v-18c0-0.6,0.4-1,1-1H45.4z"/>
	<path fill="#231F20" d="M45.4,65.1h-2c-0.8,0-1.5-0.7-1.5-1.5v-18c0-0.8,0.7-1.5,1.5-1.5h2c0.8,0,1.5,0.7,1.5,1.5v18
		C46.9,64.4,46.3,65.1,45.4,65.1z M43.4,45.1c-0.3,0-0.5,0.2-0.5,0.5v18c0,0.3,0.2,0.5,0.5,0.5h2c0.3,0,0.5-0.2,0.5-0.5v-18
		c0-0.3-0.2-0.5-0.5-0.5H43.4z"/>
</g>
<g>
	<path fill="#231F20" d="M67.7,47.2c0,0.6-0.4,1-1,1h-23c-0.6,0-1-0.4-1-1v-2c0-0.6,0.4-1,1-1h23c0.6,0,1,0.4,1,1V47.2z"/>
	<path fill="#231F20" d="M66.7,48.7h-23c-0.8,0-1.5-0.7-1.5-1.5v-2c0-0.8,0.7-1.5,1.5-1.5h23c0.8,0,1.5,0.7,1.5,1.5v2
		C68.2,48.1,67.5,48.7,66.7,48.7z M43.7,44.7c-0.3,0-0.5,0.2-0.5,0.5v2c0,0.3,0.2,0.5,0.5,0.5h23c0.3,0,0.5-0.2,0.5-0.5v-2
		c0-0.3-0.2-0.5-0.5-0.5H43.7z"/>
</g>
<g>
	<path fill="#231F20" d="M67.7,64c0,0.6-0.4,1-1,1h-23c-0.6,0-1-0.4-1-1v-2c0-0.6,0.4-1,1-1h23c0.6,0,1,0.4,1,1V64z"/>
	<path fill="#231F20" d="M66.7,65.5h-23c-0.8,0-1.5-0.7-1.5-1.5v-2c0-0.8,0.7-1.5,1.5-1.5h23c0.8,0,1.5,0.7,1.5,1.5v2
		C68.2,64.8,67.5,65.5,66.7,65.5z M43.7,61.5c-0.3,0-0.5,0.2-0.5,0.5v2c0,0.3,0.2,0.5,0.5,0.5h23c0.3,0,0.5-0.2,0.5-0.5v-2
		c0-0.3-0.2-0.5-0.5-0.5H43.7z"/>
</g>
<g>
	<path fill="#231F20" d="M45.9,13.8c0.6,0,1,0.4,1,1v18c0,0.6-0.4,1-1,1h-2c-0.6,0-1-0.4-1-1v-18c0-0.6,0.4-1,1-1H45.9z"/>
	<path fill="#231F20" d="M45.9,34.3h-2c-0.8,0-1.5-0.7-1.5-1.5v-18c0-0.8,0.7-1.5,1.5-1.5h2c0.8,0,1.5,0.7,1.5,1.5v18
		C47.4,33.7,46.7,34.3,45.9,34.3z M43.9,14.3c-0.3,0-0.5,0.2-0.5,0.5v18c0,0.3,0.2,0.5,0.5,0.5h2c0.3,0,0.5-0.2,0.5-0.5v-18
		c0-0.3-0.2-0.5-0.5-0.5H43.9z"/>
</g>
<g>
	<path fill="#231F20" d="M68.1,16.5c0,0.6-0.4,1-1,1h-23c-0.6,0-1-0.4-1-1v-2c0-0.6,0.4-1,1-1h23c0.6,0,1,0.4,1,1V16.5z"/>
	<path fill="#231F20" d="M67.1,18h-23c-0.8,0-1.5-0.7-1.5-1.5v-2c0-0.8,0.7-1.5,1.5-1.5h23c0.8,0,1.5,0.7,1.5,1.5v2
		C68.6,17.3,68,18,67.1,18z M44.1,14c-0.3,0-0.5,0.2-0.5,0.5v2c0,0.3,0.2,0.5,0.5,0.5h23c0.3,0,0.5-0.2,0.5-0.5v-2
		c0-0.3-0.2-0.5-0.5-0.5H44.1z"/>
</g>
<g>
	<path fill="#231F20" d="M68.1,33.3c0,0.6-0.4,1-1,1h-23c-0.6,0-1-0.4-1-1v-2c0-0.6,0.4-1,1-1h23c0.6,0,1,0.4,1,1V33.3z"/>
	<path fill="#231F20" d="M67.1,34.8h-23c-0.8,0-1.5-0.7-1.5-1.5v-2c0-0.8,0.7-1.5,1.5-1.5h23c0.8,0,1.5,0.7,1.5,1.5v2
		C68.6,34.1,67.9,34.8,67.1,34.8z M44.1,30.8c-0.3,0-0.5,0.2-0.5,0.5v2c0,0.3,0.2,0.5,0.5,0.5h23c0.3,0,0.5-0.2,0.5-0.5v-2
		c0-0.3-0.2-0.5-0.5-0.5H44.1z"/>
</g>
</svg>
