<?xml version="1.0" encoding="utf-8"?>
<!-- Generator: Adobe Illustrator 15.0.0, SVG Export Plug-In . SVG Version: 6.00 Build 0)  -->
<!DOCTYPE svg PUBLIC "-//W3C//DTD SVG 1.1//EN" "http://www.w3.org/Graphics/SVG/1.1/DTD/svg11.dtd">
<svg version="1.1" id="Layer_1" xmlns="http://www.w3.org/2000/svg" xmlns:xlink="http://www.w3.org/1999/xlink" x="0px" y="0px"
	 width="80px" height="80px" viewBox="0 0 80 80" enable-background="new 0 0 80 80" xml:space="preserve">
<path stroke="#FFFFFF" stroke-miterlimit="10" d="M50.8,46.5c0.8-3.5-2.3-7.1-6.8-8.1l-25.7-5.7c-4.5-1-8.8,1-9.5,4.5l0,0
	c-0.8,3.5,2.3,7.1,6.8,8.1L41.3,51C45.8,52,50.1,50,50.8,46.5L50.8,46.5z"/>
<path stroke="#FFFFFF" stroke-miterlimit="10" d="M69.4,15.4c-1.9-3-6.6-3.5-10.5-1.1L36.5,28.2c-3.9,2.4-5.6,6.9-3.7,9.9l0,0
	c1.9,3,6.6,3.5,10.5,1.1l22.4-13.9C69.6,22.9,71.3,18.4,69.4,15.4L69.4,15.4z"/>
<circle stroke="#FFFFFF" stroke-miterlimit="10" cx="62.2" cy="32.7" r="7.5"/>
<circle stroke="#FFFFFF" stroke-miterlimit="10" cx="30.7" cy="16.1" r="7.5"/>
<circle stroke="#FFFFFF" stroke-miterlimit="10" cx="37.7" cy="62.1" r="7.5"/>
<circle stroke="#FFFFFF" stroke-miterlimit="10" cx="22.3" cy="19.6" r="5.6"/>
</svg>
