<?xml version="1.0" encoding="utf-8"?>
<!-- Generator: Adobe Illustrator 15.0.0, SVG Export Plug-In . SVG Version: 6.00 Build 0)  -->
<!DOCTYPE svg PUBLIC "-//W3C//DTD SVG 1.1//EN" "http://www.w3.org/Graphics/SVG/1.1/DTD/svg11.dtd">
<svg version="1.1" id="Layer_1" xmlns="http://www.w3.org/2000/svg" xmlns:xlink="http://www.w3.org/1999/xlink" x="0px" y="0px"
	 width="80px" height="80px" viewBox="0 0 80 80" enable-background="new 0 0 80 80" xml:space="preserve">
<circle cx="39.9" cy="11.3" r="7.6"/>
<circle cx="39.9" cy="39" r="7.6"/>
<circle cx="40" cy="66.8" r="7.6"/>
<g>
	<line fill="#231F20" x1="35.9" y1="28.2" x2="35.9" y2="19.2"/>
	<g>
		<line fill="none" stroke="#231F20" stroke-width="4" stroke-miterlimit="10" x1="35.9" y1="28.2" x2="35.9" y2="22.3"/>
		<g>
			<polygon fill="#231F20" points="29.5,23.3 35.9,19.2 42.3,23.3 42.3,23.3 29.5,23.3 			"/>
		</g>
	</g>
</g>
<g>
	<line fill="#231F20" x1="43.8" y1="22.1" x2="43.8" y2="31.1"/>
	<g>
		<line fill="none" stroke="#231F20" stroke-width="4" stroke-miterlimit="10" x1="43.8" y1="22.1" x2="43.8" y2="28"/>
		<g>
			<polygon fill="#231F20" points="50.2,27.1 43.8,31.1 37.4,27.1 37.4,27 50.2,27 			"/>
		</g>
	</g>
</g>
<g>
	<line fill="#231F20" x1="35.9" y1="55.8" x2="35.9" y2="46.8"/>
	<g>
		<line fill="none" stroke="#231F20" stroke-width="4" stroke-miterlimit="10" x1="35.9" y1="55.8" x2="35.9" y2="50"/>
		<g>
			<polygon fill="#231F20" points="29.5,50.9 35.9,46.8 42.3,50.9 42.3,50.9 29.5,50.9 			"/>
		</g>
	</g>
</g>
<g>
	<line fill="#231F20" x1="43.8" y1="49.7" x2="43.8" y2="58.7"/>
	<g>
		<line fill="none" stroke="#231F20" stroke-width="4" stroke-miterlimit="10" x1="43.8" y1="49.7" x2="43.8" y2="55.6"/>
		<g>
			<polygon fill="#231F20" points="50.2,54.7 43.8,58.7 37.4,54.7 37.4,54.6 50.2,54.6 			"/>
		</g>
	</g>
</g>
<path d="M4.6,39c0-4.2,3.4-7.6,7.6-7.6c4.2,0,7.6,3.4,7.6,7.6c0,4.2-3.4,7.6-7.6,7.6C8,46.6,4.6,43.2,4.6,39z"/>
<path d="M60,38.9c0-4.2,3.4-7.6,7.6-7.6c4.2,0,7.6,3.4,7.6,7.6c0,4.2-3.4,7.6-7.6,7.6C63.4,46.5,60,43.1,60,38.9z"/>
<g>
	<line fill="#231F20" x1="29.1" y1="43" x2="20.1" y2="43"/>
	<g>
		<line fill="none" stroke="#231F20" stroke-width="4" stroke-miterlimit="10" x1="29.1" y1="43" x2="23.2" y2="43"/>
		<g>
			<polygon fill="#231F20" points="24.1,49.4 20.1,43 24.1,36.6 24.2,36.6 24.2,49.4 			"/>
		</g>
	</g>
</g>
<g>
	<line fill="#231F20" x1="23" y1="35.1" x2="32" y2="35.1"/>
	<g>
		<line fill="none" stroke="#231F20" stroke-width="4" stroke-miterlimit="10" x1="23" y1="35.1" x2="28.9" y2="35.1"/>
		<g>
			<polygon fill="#231F20" points="27.9,28.6 32,35.1 27.9,41.5 27.9,41.5 27.9,28.6 			"/>
		</g>
	</g>
</g>
<g>
	<line fill="#231F20" x1="56.7" y1="43" x2="47.7" y2="43"/>
	<g>
		<line fill="none" stroke="#231F20" stroke-width="4" stroke-miterlimit="10" x1="56.7" y1="43" x2="50.8" y2="43"/>
		<g>
			<polygon fill="#231F20" points="51.8,49.4 47.7,43 51.8,36.6 51.8,36.6 51.8,49.4 			"/>
		</g>
	</g>
</g>
<g>
	<line fill="#231F20" x1="50.6" y1="35.1" x2="59.6" y2="35.1"/>
	<g>
		<line fill="none" stroke="#231F20" stroke-width="4" stroke-miterlimit="10" x1="50.6" y1="35.1" x2="56.5" y2="35.1"/>
		<g>
			<polygon fill="#231F20" points="55.5,28.6 59.6,35.1 55.5,41.5 55.5,41.5 55.5,28.6 			"/>
		</g>
	</g>
</g>
</svg>
