<svg>
<g>
    <rect rxns="rxn00178" x="838" y="194" width="48" height="18" stroke="black" fill="white"></rect>
    <text x="841" y="207" font-size="9" stroke="grey" fill="black" >2.3.1.9</text>
</g>
<g>
    <rect rxns="rxn13974" x="292" y="174" width="48" height="18" stroke="black" fill="white"></rect>
    <text x="295" y="187" font-size="9" stroke="grey" fill="black" >1.2.7.1</text>
</g>
<g>
    <rect rxns="rxn00147" x="213" y="240" width="48" height="18" stroke="black" fill="white"></rect>
    <text x="216" y="253" font-size="9" stroke="grey" fill="black" >2.7.9.2</text>
</g>
<g>
    <rect rxns="rxn00251" x="215" y="368" width="48" height="18" stroke="black" fill="white"></rect>
    <text x="218" y="381" font-size="9" stroke="grey" fill="black" >4.1.1.31</text>
</g>
<g>
    <rect rxns="rxn00248" x="217" y="561" width="48" height="18" stroke="black" fill="white"></rect>
    <text x="220" y="574" font-size="9" stroke="grey" fill="black" >1.1.1.37</text>
</g>
<g>
    <rect rxns="rxn00799" x="213" y="769" width="48" height="18" stroke="black" fill="white"></rect>
    <text x="216" y="782" font-size="9" stroke="grey" fill="black" >4.2.1.2</text>
</g>
<g>
    <rect rxns="rxn00288" x="272" y="839" width="48" height="18" stroke="black" fill="white"></rect>
    <text x="275" y="852" font-size="9" stroke="grey" fill="black" >1.3.99.1</text>
</g>
<g>
    <rect rxns="rxn00285" x="474" y="838" width="48" height="18" stroke="black" fill="white"></rect>
    <text x="477" y="851" font-size="9" stroke="grey" fill="black" >6.2.1.5</text>
</g>
<g>
    <rect rxns="R09280" x="749" y="839" width="48" height="18" stroke="black" fill="white"></rect>
    <text x="752" y="852" font-size="9" stroke="grey" fill="black" >1.2.1.76</text>
</g>
<g>
    <rect rxns="R09281" x="908" y="785" width="48" height="18" stroke="black" fill="white"></rect>
    <text x="911" y="798" font-size="9" stroke="grey" fill="black" >1.1.1.-</text>
</g>
<g>
    <rect rxns="R09279" x="906" y="671" width="48" height="18" stroke="black" fill="white"></rect>
    <text x="909" y="684" font-size="9" stroke="grey" fill="black" >6.2.1.-</text>
</g>
<g>
    <rect rxns="rxn03642" x="910" y="558" width="48" height="18" stroke="black" fill="white"></rect>
    <text x="913" y="571" font-size="9" stroke="grey" fill="black" >4.2.1.120</text>
</g>
<g>
    <rect rxns="rxn02167" x="908" y="342" width="48" height="18" stroke="black" fill="white"></rect>
    <text x="911" y="355" font-size="9" stroke="grey" fill="black" >4.2.1.55</text>
</g>
<g>
    <rect rxns="rxn01451" x="909" y="243" width="48" height="18" stroke="black" fill="white"></rect>
    <text x="912" y="256" font-size="9" stroke="grey" fill="black" >1.1.1.35</text>
</g>
<g>
    <rect rxns="rxn14048" x="90" y="768" width="48" height="18" stroke="black" fill="white"></rect>
    <text x="93" y="781" font-size="9" stroke="grey" fill="black" >1.2.7.3</text>
</g>
<g>
    <rect rxns="rxn00198" x="91" y="559" width="48" height="18" stroke="black" fill="white"></rect>
    <text x="94" y="572" font-size="9" stroke="grey" fill="black" >1.1.1.42</text>
</g>
<g>
    <rect rxns="rxn01388" x="92" y="441" width="48" height="18" stroke="black" fill="white"></rect>
    <text x="95" y="454" font-size="9" stroke="grey" fill="black" >4.2.1.3</text>
</g>
<g>
    <rect rxns="rxn00974" x="92" y="241" width="48" height="18" stroke="black" fill="white"></rect>
    <text x="95" y="254" font-size="9" stroke="grey" fill="black" >4.2.1.3</text>
</g>
<g>
    <rect rxns="rxn00257" x="123" y="126" width="48" height="18" stroke="black" fill="white"></rect>
    <text x="126" y="139" font-size="9" stroke="grey" fill="black" >2.3.3.8</text>
</g>
<g>
    <rect rxns="rxn00175" x="645" y="124" width="48" height="18" stroke="black" fill="white"></rect>
    <text x="648" y="137" font-size="9" stroke="grey" fill="black" >6.2.1.1</text>
</g>
<g>
    <rect rxns="rxn00533" x="607" y="239" width="48" height="18" stroke="black" fill="white"></rect>
    <text x="610" y="252" font-size="9" stroke="grey" fill="black" >6.4.1.2</text>
</g>
<g>
    <rect rxns="rxn00532" x="582" y="299" width="48" height="18" stroke="black" fill="white"></rect>
    <text x="585" y="312" font-size="9" stroke="grey" fill="black" >1.2.1.75</text>
</g>
<g>
    <rect rxns="R09289" x="607" y="371" width="48" height="18" stroke="black" fill="white"></rect>
    <text x="610" y="384" font-size="9" stroke="grey" fill="black" >1.1.1.298</text>
</g>
<g>
    <rect rxns="R09286" x="607" y="445" width="48" height="18" stroke="black" fill="white"></rect>
    <text x="610" y="458" font-size="9" stroke="grey" fill="black" >6.2.1.36</text>
</g>
<g>
    <rect rxns="rxn02181" x="607" y="521" width="48" height="18" stroke="black" fill="white"></rect>
    <text x="610" y="534" font-size="9" stroke="grey" fill="black" >4.2.1.116</text>
</g>
<g>
    <rect rxns="rxn00668" x="608" y="588" width="48" height="18" stroke="black" fill="white"></rect>
    <text x="611" y="601" font-size="9" stroke="grey" fill="black" >1.3.1.84</text>
</g>
<g>
    <rect rxns="rxn01355" x="608" y="675" width="48" height="18" stroke="black" fill="white"></rect>
    <text x="611" y="688" font-size="9" stroke="grey" fill="black" >6.4.1.3</text>
</g>
<g>
    <rect rxns="rxn01996" x="607" y="735" width="48" height="18" stroke="black" fill="white"></rect>
    <text x="610" y="748" font-size="9" stroke="grey" fill="black" >5.1.99.1</text>
</g>
<g>
    <rect rxns="rxn00602" x="607" y="792" width="48" height="18" stroke="black" fill="white"></rect>
    <text x="610" y="805" font-size="9" stroke="grey" fill="black" >5.4.99.2</text>
</g>
<g>
    <rect rxns="rxn00331" x="517" y="652" width="48" height="18" stroke="black" fill="white"></rect>
    <text x="520" y="665" font-size="9" stroke="grey" fill="black" >4.1.3.24</text>
</g>
<g>
    <rect rxns="rxn00682" x="682" y="631" width="48" height="18" stroke="black" fill="white"></rect>
    <text x="685" y="644" font-size="9" stroke="grey" fill="black" >4.1.3.24</text>
</g>
<g>
    <rect rxns="rxn00103" x="288" y="438" width="48" height="18" stroke="black" fill="white"></rect>
    <text x="291" y="451" font-size="9" stroke="grey" fill="black" >1.2.1.43</text>
</g>
<g>
    <rect rxns="rxn00690" x="385" y="570" width="48" height="18" stroke="black" fill="white"></rect>
    <text x="388" y="583" font-size="9" stroke="grey" fill="black" >6.3.4.3</text>
</g>
<g>
    <rect rxns="rxn01211" x="486" y="530" width="48" height="18" stroke="black" fill="white"></rect>
    <text x="489" y="543" font-size="9" stroke="grey" fill="black" >3.5.4.9</text>
</g>
<g>
    <rect rxns="rxn00907" x="486" y="453" width="48" height="18" stroke="black" fill="white"></rect>
    <text x="489" y="466" font-size="9" stroke="grey" fill="black" >1.5.1.5</text>
</g>
<g>
    <rect rxns="rxn04954" x="487" y="378" width="48" height="18" stroke="black" fill="white"></rect>
    <text x="490" y="391" font-size="9" stroke="grey" fill="black" >1.5.1.20</text>
</g>
<g>
    <rect rxns="rxn00173" x="790" y="157" width="48" height="18" stroke="black" fill="white"></rect>
    <text x="793" y="170" font-size="9" stroke="grey" fill="black" >2.3.1.8</text>
</g>
<g>
    <rect rxns="rxn00225" x="743" y="124" width="48" height="18" stroke="black" fill="white"></rect>
    <text x="746" y="137" font-size="9" stroke="grey" fill="black" >2.7.2.1</text>
</g>
<g>
    <rect rxns="rxn00177" x="752" y="223" width="48" height="18" stroke="black" fill="white"></rect>
    <text x="755" y="236" font-size="9" stroke="grey" fill="black" >4.1.3.24</text>
</g>
<g>
    <rect rxns="rxn00286" x="474" y="814" width="48" height="18" stroke="black" fill="white"></rect>
    <text x="477" y="827" font-size="9" stroke="grey" fill="black" >2.8.3.-</text>
</g>
<g>
    <rect rxns="rxn00286" x="474" y="798" width="48" height="18" stroke="black" fill="white"></rect>
    <text x="477" y="811" font-size="9" stroke="grey" fill="black" >2.8.3.-</text>
</g>
<g>
    <rect rxns="rxn00286" x="355" y="693" width="48" height="18" stroke="black" fill="white"></rect>
    <text x="358" y="706" font-size="9" stroke="grey" fill="black" >2.8.3.-</text>
</g>
<g>
    <rect rxns="rxn00286" x="355" y="709" width="48" height="18" stroke="black" fill="white"></rect>
    <text x="358" y="722" font-size="9" stroke="grey" fill="black" >2.8.3.-</text>
</g>
<g>
    <rect rxns="rxn06149" x="396" y="333" width="48" height="18" stroke="black" fill="white"></rect>
    <text x="399" y="346" font-size="9" stroke="grey" fill="black" >2.3.1.169</text>
</g>
<g>
    <rect rxns="R09317" x="396" y="280" width="48" height="18" stroke="black" fill="white"></rect>
    <text x="399" y="293" font-size="9" stroke="grey" fill="black" >2.3.1.169...</text>
</g>
<g>
    <rect rxns="rxn02171" x="909" y="440" width="48" height="18" stroke="black" fill="white"></rect>
    <text x="912" y="453" font-size="9" stroke="grey" fill="black" >5.3.3.3</text>
</g>
<g>
    <rect rxns="rxn13974" x="292" y="195" width="48" height="18" stroke="black" fill="white"></rect>
    <text x="295" y="208" font-size="9" stroke="grey" fill="black" >1.2.7.-</text>
</g>
<g>
    <rect rxns="rxn00532" x="632" y="299" width="48" height="18" stroke="black" fill="white"></rect>
    <text x="635" y="312" font-size="9" stroke="grey" fill="black" >1.2.1.-</text>
</g>
<g>
    <rect rxns="rxn00971" x="206" y="107" width="48" height="18" stroke="black" fill="white"></rect>
    <text x="209" y="120" font-size="9" stroke="grey" fill="black" >6.2.1.18</text>
</g>
<g>
    <rect rxns="rxn00259" x="416" y="108" width="48" height="18" stroke="black" fill="white"></rect>
    <text x="419" y="121" font-size="9" stroke="grey" fill="black" >4.1.3.34</text>
</g>
<g>
    <rect rxns="rxn00250" x="262" y="240" width="48" height="18" stroke="black" fill="white"></rect>
    <text x="265" y="253" font-size="9" stroke="grey" fill="black" >6.4.1.1</text>
</g>
</svg>