<svg>
<g>
    <rect rxns="rxn07435" x="574" y="326" width="48" height="18" stroke="black" fill="white"></rect>
    <text x="577" y="339" font-size="9" stroke="grey" fill="black" >1.2.4.4</text>
</g>
<g>
    <rect rxns="rxn01241" x="536" y="363" width="48" height="18" stroke="black" fill="white"></rect>
    <text x="539" y="376" font-size="9" stroke="grey" fill="black" >1.8.1.4</text>
</g>
<g>
    <rect rxns="rxn01241" x="369" y="363" width="48" height="18" stroke="black" fill="white"></rect>
    <text x="372" y="376" font-size="9" stroke="grey" fill="black" >1.8.1.4</text>
</g>
<g>
    <rect rxns="rxn07431" x="407" y="326" width="48" height="18" stroke="black" fill="white"></rect>
    <text x="410" y="339" font-size="9" stroke="grey" fill="black" >1.2.4.4</text>
</g>
<g>
    <rect rxns="rxn01241" x="92" y="363" width="48" height="18" stroke="black" fill="white"></rect>
    <text x="95" y="376" font-size="9" stroke="grey" fill="black" >1.8.1.4</text>
</g>
<g>
    <rect rxns="rxn07433" x="130" y="326" width="48" height="18" stroke="black" fill="white"></rect>
    <text x="133" y="339" font-size="9" stroke="grey" fill="black" >1.2.4.4</text>
</g>
<g>
    <rect rxns="rxn00178" x="307" y="682" width="48" height="18" stroke="black" fill="white"></rect>
    <text x="310" y="695" font-size="9" stroke="grey" fill="black" >2.3.1.9</text>
</g>
<g>
    <rect rxns="rxn02783" x="270" y="165" width="48" height="18" stroke="black" fill="white"></rect>
    <text x="273" y="178" font-size="9" stroke="grey" fill="black" >1.4.1.9</text>
</g>
<g>
    <rect rxns="rxn00807" x="177" y="165" width="48" height="18" stroke="black" fill="white"></rect>
    <text x="180" y="178" font-size="9" stroke="grey" fill="black" >5.4.3.7</text>
</g>
<g>
    <rect rxns="rxn01454" x="204" y="652" width="48" height="18" stroke="black" fill="white"></rect>
    <text x="207" y="665" font-size="9" stroke="grey" fill="black" >2.3.3.10</text>
</g>
<g>
    <rect rxns="rxn00290" x="180" y="724" width="48" height="18" stroke="black" fill="white"></rect>
    <text x="183" y="737" font-size="9" stroke="grey" fill="black" >2.8.3.5</text>
</g>
<g>
    <rect rxns="rxn00991" x="129" y="682" width="48" height="18" stroke="black" fill="white"></rect>
    <text x="132" y="695" font-size="9" stroke="grey" fill="black" >4.1.3.4</text>
</g>
<g>
    <rect rxns="rxn01504" x="130" y="618" width="48" height="18" stroke="black" fill="white"></rect>
    <text x="133" y="631" font-size="9" stroke="grey" fill="black" >4.2.1.18</text>
</g>
<g>
    <rect rxns="rxn02889" x="130" y="557" width="48" height="18" stroke="black" fill="white"></rect>
    <text x="133" y="570" font-size="9" stroke="grey" fill="black" >6.4.1.4</text>
</g>
<g>
    <rect rxns="rxn02888" x="84" y="529" width="48" height="18" stroke="black" fill="white"></rect>
    <text x="87" y="542" font-size="9" stroke="grey" fill="black" >4.2.1.17</text>
</g>
<g>
    <rect rxns="rxn02866" x="130" y="478" width="48" height="18" stroke="black" fill="white"></rect>
    <text x="133" y="491" font-size="9" stroke="grey" fill="black" >1.3.8.4</text>
</g>
<g>
    <rect rxns="rxn07434" x="574" y="262" width="48" height="18" stroke="black" fill="white"></rect>
    <text x="577" y="275" font-size="9" stroke="grey" fill="black" >1.2.4.4</text>
</g>
<g>
    <rect rxns="rxn00804" x="55" y="195" width="48" height="18" stroke="black" fill="white"></rect>
    <text x="58" y="208" font-size="9" stroke="grey" fill="black" >1.4.1.9</text>
</g>
<g>
    <rect rxns="rxn00806" x="154" y="195" width="48" height="18" stroke="black" fill="white"></rect>
    <text x="157" y="208" font-size="9" stroke="grey" fill="black" >2.6.1.6</text>
</g>
<g>
    <rect rxns="rxn00903" x="407" y="195" width="48" height="18" stroke="black" fill="white"></rect>
    <text x="410" y="208" font-size="9" stroke="grey" fill="black" >2.6.1.42</text>
</g>
<g>
    <rect rxns="rxn00676" x="576" y="702" width="48" height="18" stroke="black" fill="white"></rect>
    <text x="579" y="715" font-size="9" stroke="grey" fill="black" >2.3.1.16</text>
</g>
<g>
    <rect rxns="rxn01480" x="431" y="702" width="48" height="18" stroke="black" fill="white"></rect>
    <text x="434" y="715" font-size="9" stroke="grey" fill="black" >1.1.1.35</text>
</g>
<g>
    <rect rxns="rxn02934" x="576" y="565" width="48" height="18" stroke="black" fill="white"></rect>
    <text x="579" y="578" font-size="9" stroke="grey" fill="black" >4.2.1.17</text>
</g>
<g>
    <rect rxns="rxn14277" x="431" y="478" width="48" height="18" stroke="black" fill="white"></rect>
    <text x="434" y="491" font-size="9" stroke="grey" fill="black" >1.3.99.12</text>
</g>
<g>
    <rect rxns="rxn06335" x="574" y="400" width="48" height="18" stroke="black" fill="white"></rect>
    <text x="577" y="413" font-size="9" stroke="grey" fill="black" >2.3.1.168</text>
</g>
<g>
    <rect rxns="rxn07430" x="407" y="262" width="48" height="18" stroke="black" fill="white"></rect>
    <text x="410" y="275" font-size="9" stroke="grey" fill="black" >1.2.4.4</text>
</g>
<g>
    <rect rxns="rxn01575" x="574" y="195" width="48" height="18" stroke="black" fill="white"></rect>
    <text x="577" y="208" font-size="9" stroke="grey" fill="black" >2.6.1.42</text>
</g>
<g>
    <rect rxns="rxn01574" x="526" y="195" width="48" height="18" stroke="black" fill="white"></rect>
    <text x="529" y="208" font-size="9" stroke="grey" fill="black" >1.4.3.2</text>
</g>
<g>
    <rect rxns="rxn00602" x="325" y="871" width="48" height="18" stroke="black" fill="white"></rect>
    <text x="328" y="884" font-size="9" stroke="grey" fill="black" >5.4.99.2</text>
</g>
<g>
    <rect rxns="rxn01996" x="483" y="871" width="48" height="18" stroke="black" fill="white"></rect>
    <text x="486" y="884" font-size="9" stroke="grey" fill="black" >5.1.99.1</text>
</g>
<g>
    <rect rxns="rxn01355" x="576" y="807" width="48" height="18" stroke="black" fill="white"></rect>
    <text x="579" y="820" font-size="9" stroke="grey" fill="black" >6.4.1.3</text>
</g>
<g>
    <rect rxns="rxn11475" x="431" y="794" width="48" height="18" stroke="black" fill="white"></rect>
    <text x="434" y="807" font-size="9" stroke="grey" fill="black" >1.2.3.1</text>
</g>
<g>
    <rect rxns="rxn02729" x="381" y="794" width="48" height="18" stroke="black" fill="white"></rect>
    <text x="384" y="807" font-size="9" stroke="grey" fill="black" >1.2.1.3</text>
</g>
<g>
    <rect rxns="rxn00671" x="484" y="747" width="48" height="18" stroke="black" fill="white"></rect>
    <text x="487" y="760" font-size="9" stroke="grey" fill="black" >1.2.1.27</text>
</g>
<g>
    <rect rxns="rxn02926" x="360" y="758" width="48" height="18" stroke="black" fill="white"></rect>
    <text x="363" y="771" font-size="9" stroke="grey" fill="black" >2.6.1.22</text>
</g>
<g>
    <rect rxns="rxn02933" x="550" y="637" width="48" height="18" stroke="black" fill="white"></rect>
    <text x="553" y="650" font-size="9" stroke="grey" fill="black" >1.1.1.35</text>
</g>
<g>
    <rect rxns="rxn01480" x="381" y="702" width="48" height="18" stroke="black" fill="white"></rect>
    <text x="384" y="715" font-size="9" stroke="grey" fill="black" >1.1.1.31</text>
</g>
<g>
    <rect rxns="rxn03433" x="407" y="637" width="48" height="18" stroke="black" fill="white"></rect>
    <text x="410" y="650" font-size="9" stroke="grey" fill="black" >3.1.2.4</text>
</g>
<g>
    <rect rxns="rxn02933" x="600" y="637" width="48" height="18" stroke="black" fill="white"></rect>
    <text x="603" y="650" font-size="9" stroke="grey" fill="black" >1.1.1.178</text>
</g>
<g>
    <rect rxns="rxn02949" x="407" y="565" width="48" height="18" stroke="black" fill="white"></rect>
    <text x="410" y="578" font-size="9" stroke="grey" fill="black" >4.2.1.17</text>
</g>
<g>
    <rect rxns="rxn14277" x="331" y="478" width="48" height="18" stroke="black" fill="white"></rect>
    <text x="334" y="491" font-size="9" stroke="grey" fill="black" >1.3.8.7</text>
</g>
<g>
    <rect rxns="rxn06334" x="600" y="478" width="48" height="18" stroke="black" fill="white"></rect>
    <text x="603" y="491" font-size="9" stroke="grey" fill="black" >1.3.99.12</text>
</g>
<g>
    <rect rxns="rxn01925" x="407" y="400" width="48" height="18" stroke="black" fill="white"></rect>
    <text x="410" y="413" font-size="9" stroke="grey" fill="black" >2.3.1.168</text>
</g>
<g>
    <rect rxns="rxn07432" x="130" y="262" width="48" height="18" stroke="black" fill="white"></rect>
    <text x="133" y="275" font-size="9" stroke="grey" fill="black" >1.2.4.4</text>
</g>
<g>
    <rect rxns="rxn06586" x="130" y="400" width="48" height="18" stroke="black" fill="white"></rect>
    <text x="133" y="413" font-size="9" stroke="grey" fill="black" >2.3.1.168</text>
</g>
<g>
    <rect rxns="rxn00806" x="104" y="195" width="48" height="18" stroke="black" fill="white"></rect>
    <text x="107" y="208" font-size="9" stroke="grey" fill="black" >2.6.1.42</text>
</g>
<g>
    <rect rxns="rxn02925" x="360" y="737" width="48" height="18" stroke="black" fill="white"></rect>
    <text x="363" y="750" font-size="9" stroke="grey" fill="black" >2.6.1.18</text>
</g>
<g>
    <rect rxns="rxn02866" x="178" y="478" width="48" height="18" stroke="black" fill="white"></rect>
    <text x="181" y="491" font-size="9" stroke="grey" fill="black" >1.3.8.7</text>
</g>
<g>
    <rect rxns="rxn06334" x="650" y="478" width="48" height="18" stroke="black" fill="white"></rect>
    <text x="653" y="491" font-size="9" stroke="grey" fill="black" >1.3.8.7</text>
</g>
<g>
    <rect rxns="rxn14152" x="17" y="284" width="48" height="18" stroke="black" fill="white"></rect>
    <text x="20" y="297" font-size="9" stroke="grey" fill="black" >1.2.7.7</text>
</g>
<g>
    <rect rxns="rxn13962" x="294" y="284" width="48" height="18" stroke="black" fill="white"></rect>
    <text x="297" y="297" font-size="9" stroke="grey" fill="black" >1.2.7.7</text>
</g>
<g>
    <rect rxns="rxn14109" x="686" y="284" width="48" height="18" stroke="black" fill="white"></rect>
    <text x="689" y="297" font-size="9" stroke="grey" fill="black" >1.2.7.7</text>
</g>
<g>
    <rect rxns="rxn14277" x="381" y="478" width="48" height="18" stroke="black" fill="white"></rect>
    <text x="384" y="491" font-size="9" stroke="grey" fill="black" >1.3.8.1</text>
</g>
<g>
    <rect rxns="rxn06334" x="550" y="478" width="48" height="18" stroke="black" fill="white"></rect>
    <text x="553" y="491" font-size="9" stroke="grey" fill="black" >1.3.8.1</text>
</g>
<g>
    <rect rxns="rxn14277" x="407" y="497" width="48" height="18" stroke="black" fill="white"></rect>
    <text x="410" y="510" font-size="9" stroke="grey" fill="black" >1.3.99.-</text>
</g>
<g>
    <rect rxns="rxn01045" x="359" y="195" width="48" height="18" stroke="black" fill="white"></rect>
    <text x="362" y="208" font-size="9" stroke="grey" fill="black" >1.4.1.23</text>
</g>
</svg>