<svg>
<g>
    <rect rxns="rxn07733" x="628" y="618" width="48" height="18" stroke="black" fill="white"></rect>
    <text x="631" y="631" font-size="9" stroke="grey" fill="black" >1.14.14.1</text>
</g>
<g>
    <rect rxns="rxn07749,rxn07750" x="628" y="597" width="48" height="18" stroke="black" fill="white"></rect>
    <text x="631" y="610" font-size="9" stroke="grey" fill="black" >1.13.12.-</text>
</g>
<g>
    <rect rxns="rxn07732" x="373" y="632" width="48" height="18" stroke="black" fill="white"></rect>
    <text x="376" y="645" font-size="9" stroke="grey" fill="black" >1.17.3.2</text>
</g>
<g>
    <rect rxns="rxn07759,rxn07760" x="297" y="604" width="48" height="18" stroke="black" fill="white"></rect>
    <text x="300" y="617" font-size="9" stroke="grey" fill="black" >1.13.12.-</text>
</g>
<g>
    <rect rxns="rxn07765,rxn07766" x="453" y="596" width="48" height="18" stroke="black" fill="white"></rect>
    <text x="456" y="609" font-size="9" stroke="grey" fill="black" >1.13.12.-</text>
</g>
<g>
    <rect rxns="R07981" x="722" y="461" width="48" height="18" stroke="black" fill="white"></rect>
    <text x="725" y="474" font-size="9" stroke="grey" fill="black" >1.7.3.3</text>
</g>
<g>
    <rect rxns="rxn07761,rxn07762" x="628" y="473" width="48" height="18" stroke="black" fill="white"></rect>
    <text x="631" y="486" font-size="9" stroke="grey" fill="black" >1.13.12.-</text>
</g>
<g>
    <rect rxns="rxn07763,rxn07764" x="453" y="476" width="48" height="18" stroke="black" fill="white"></rect>
    <text x="456" y="489" font-size="9" stroke="grey" fill="black" >1.13.12.-</text>
</g>
<g>
    <rect rxns="rxn07757,rxn07758" x="297" y="470" width="48" height="18" stroke="black" fill="white"></rect>
    <text x="300" y="483" font-size="9" stroke="grey" fill="black" >1.13.12.-</text>
</g>
<g>
    <rect rxns="rxn07768" x="528" y="399" width="48" height="18" stroke="black" fill="white"></rect>
    <text x="531" y="412" font-size="9" stroke="grey" fill="black" >1.17.3.2</text>
</g>
<g>
    <rect rxns="rxn07753,rxn07754" x="453" y="407" width="48" height="18" stroke="black" fill="white"></rect>
    <text x="456" y="420" font-size="9" stroke="grey" fill="black" >1.13.12.-</text>
</g>
<g>
    <rect rxns="rxn07751,rxn07752" x="453" y="329" width="48" height="18" stroke="black" fill="white"></rect>
    <text x="456" y="342" font-size="9" stroke="grey" fill="black" >1.13.12.-</text>
</g>
<g>
    <rect rxns="rxn07770" x="722" y="399" width="48" height="18" stroke="black" fill="white"></rect>
    <text x="725" y="412" font-size="9" stroke="grey" fill="black" >1.17.5.-</text>
</g>
<g>
    <rect rxns="rxn07745,rxn07746" x="628" y="343" width="48" height="18" stroke="black" fill="white"></rect>
    <text x="631" y="356" font-size="9" stroke="grey" fill="black" >1.13.12.-</text>
</g>
<g>
    <rect rxns="rxn07709" x="453" y="272" width="48" height="18" stroke="black" fill="white"></rect>
    <text x="456" y="285" font-size="9" stroke="grey" fill="black" >2.1.1.159</text>
</g>
<g>
    <rect rxns="rxn07710" x="578" y="329" width="48" height="18" stroke="black" fill="white"></rect>
    <text x="581" y="342" font-size="9" stroke="grey" fill="black" >2.1.1.160</text>
</g>
<g>
    <rect rxns="rxn07735" x="453" y="149" width="48" height="18" stroke="black" fill="white"></rect>
    <text x="456" y="162" font-size="9" stroke="grey" fill="black" >1.14.14.1</text>
</g>
<g>
    <rect rxns="rxn07730" x="528" y="139" width="48" height="18" stroke="black" fill="white"></rect>
    <text x="531" y="152" font-size="9" stroke="grey" fill="black" >2.3.1.5</text>
</g>
<g>
    <rect rxns="rxn07709" x="453" y="293" width="48" height="18" stroke="black" fill="white"></rect>
    <text x="456" y="306" font-size="9" stroke="grey" fill="black" >2.1.1.160</text>
</g>
<g>
    <rect rxns="rxn07708" x="297" y="202" width="48" height="18" stroke="black" fill="white"></rect>
    <text x="300" y="215" font-size="9" stroke="grey" fill="black" >3.2.2.25</text>
</g>
<g>
    <rect rxns="rxn07707" x="140" y="202" width="48" height="18" stroke="black" fill="white"></rect>
    <text x="143" y="215" font-size="9" stroke="grey" fill="black" >2.1.1.158</text>
</g>
<g>
    <rect rxns="rxn07769" x="370" y="350" width="48" height="18" stroke="black" fill="white"></rect>
    <text x="373" y="363" font-size="9" stroke="grey" fill="black" >1.17.3.2</text>
</g>
<g>
    <rect rxns="rxn07755,rxn07756" x="297" y="332" width="48" height="18" stroke="black" fill="white"></rect>
    <text x="300" y="345" font-size="9" stroke="grey" fill="black" >1.14.13.128</text>
</g>
<g>
    <rect rxns="rxn07747,rxn07748" x="453" y="210" width="48" height="18" stroke="black" fill="white"></rect>
    <text x="456" y="223" font-size="9" stroke="grey" fill="black" >1.13.12.-</text>
</g>
<g>
    <rect rxns="rxn07729" x="611" y="259" width="48" height="18" stroke="black" fill="white"></rect>
    <text x="614" y="272" font-size="9" stroke="grey" fill="black" >1.14.14.1</text>
</g>
<g>
    <rect rxns="rxn07744,rxn07729" x="611" y="238" width="48" height="18" stroke="black" fill="white"></rect>
    <text x="614" y="251" font-size="9" stroke="grey" fill="black" >1.13.12.-</text>
</g>
<g>
    <rect rxns="rxn07767" x="453" y="170" width="48" height="18" stroke="black" fill="white"></rect>
    <text x="456" y="183" font-size="9" stroke="grey" fill="black" >1.17.3.2</text>
</g>
<g>
    <rect rxns="rxn07711" x="611" y="202" width="48" height="18" stroke="black" fill="white"></rect>
    <text x="614" y="215" font-size="9" stroke="grey" fill="black" >2.1.1.160</text>
</g>
</svg>