<svg>
<g>
    <rect rxns="rxn00960,rxn00962" x="291" y="218" width="48" height="18" stroke="black" fill="white"></rect>
    <text x="294" y="231" font-size="9" stroke="grey" fill="black" >1.14.13.33</text>
</g>
<g>
    <rect rxns="rxn00962" x="291" y="197" width="48" height="18" stroke="black" fill="white"></rect>
    <text x="294" y="210" font-size="9" stroke="grey" fill="black" >1.14.13.2</text>
</g>
<g>
    <rect rxns="rxn01189" x="291" y="285" width="48" height="18" stroke="black" fill="white"></rect>
    <text x="294" y="298" font-size="9" stroke="grey" fill="black" >1.14.13.23</text>
</g>
<g>
    <rect rxns="rxn01884" x="201" y="309" width="48" height="18" stroke="black" fill="white"></rect>
    <text x="204" y="322" font-size="9" stroke="grey" fill="black" >1.14.13.24</text>
</g>
<g>
    <rect rxns="rxn01190,rxn01191" x="397" y="285" width="48" height="18" stroke="black" fill="white"></rect>
    <text x="400" y="298" font-size="9" stroke="grey" fill="black" >1.13.11.-</text>
</g>
<g>
    <rect rxns="rxn01192" x="397" y="352" width="48" height="18" stroke="black" fill="white"></rect>
    <text x="400" y="365" font-size="9" stroke="grey" fill="black" >1.13.11.3</text>
</g>
<g>
    <rect rxns="rxn01193" x="397" y="198" width="48" height="18" stroke="black" fill="white"></rect>
    <text x="400" y="211" font-size="9" stroke="grey" fill="black" >1.13.11.8</text>
</g>
<g>
    <rect rxns="rxn03089" x="926" y="197" width="48" height="18" stroke="black" fill="white"></rect>
    <text x="929" y="210" font-size="9" stroke="grey" fill="black" >4.2.1.83</text>
</g>
<g>
    <rect rxns="rxn07630" x="831" y="197" width="48" height="18" stroke="black" fill="white"></rect>
    <text x="834" y="210" font-size="9" stroke="grey" fill="black" >5.3.3.16</text>
</g>
<g>
    <rect rxns="rxn02980" x="717" y="197" width="48" height="18" stroke="black" fill="white"></rect>
    <text x="720" y="210" font-size="9" stroke="grey" fill="black" >3.1.1.57</text>
</g>
<g>
    <rect rxns="rxn02981,rxn02982" x="600" y="197" width="48" height="18" stroke="black" fill="white"></rect>
    <text x="603" y="210" font-size="9" stroke="grey" fill="black" >1.1.1.312</text>
</g>
<g>
    <rect rxns="rxn00255" x="1020" y="197" width="48" height="18" stroke="black" fill="white"></rect>
    <text x="1023" y="210" font-size="9" stroke="grey" fill="black" >4.1.3.17</text>
</g>
<g>
    <rect rxns="rxn00004" x="1020" y="138" width="48" height="18" stroke="black" fill="white"></rect>
    <text x="1023" y="151" font-size="9" stroke="grey" fill="black" >4.1.3.17</text>
</g>
<g>
    <rect rxns="rxn03442" x="923" y="138" width="48" height="18" stroke="black" fill="white"></rect>
    <text x="926" y="151" font-size="9" stroke="grey" fill="black" >4.2.1.-</text>
</g>
<g>
    <rect rxns="rxn02141,rxn02142" x="750" y="285" width="48" height="18" stroke="black" fill="white"></rect>
    <text x="753" y="298" font-size="9" stroke="grey" fill="black" >1.3.1.32</text>
</g>
<g>
    <rect rxns="rxn11610" x="660" y="137" width="48" height="18" stroke="black" fill="white"></rect>
    <text x="663" y="150" font-size="9" stroke="grey" fill="black" >3.7.1.-</text>
</g>
<g>
    <rect rxns="rxn02852" x="526" y="285" width="48" height="18" stroke="black" fill="white"></rect>
    <text x="529" y="298" font-size="9" stroke="grey" fill="black" >1.13.11.37</text>
</g>
<g>
    <rect rxns="rxn02369" x="533" y="352" width="48" height="18" stroke="black" fill="white"></rect>
    <text x="536" y="365" font-size="9" stroke="grey" fill="black" >5.5.1.2</text>
</g>
<g>
    <rect rxns="rxn02483" x="652" y="352" width="48" height="18" stroke="black" fill="white"></rect>
    <text x="655" y="365" font-size="9" stroke="grey" fill="black" >4.1.1.44</text>
</g>
<g>
    <rect rxns="rxn00593" x="341" y="369" width="48" height="18" stroke="black" fill="white"></rect>
    <text x="344" y="382" font-size="9" stroke="grey" fill="black" >4.1.1.63</text>
</g>
<g>
    <rect rxns="rxn02370" x="533" y="317" width="48" height="18" stroke="black" fill="white"></rect>
    <text x="536" y="330" font-size="9" stroke="grey" fill="black" >5.5.1.5</text>
</g>
<g>
    <rect rxns="rxn01035" x="89" y="658" width="48" height="18" stroke="black" fill="white"></rect>
    <text x="92" y="671" font-size="9" stroke="grey" fill="black" >6.2.1.25</text>
</g>
<g>
    <rect rxns="rxn06167" x="141" y="855" width="48" height="18" stroke="black" fill="white"></rect>
    <text x="144" y="868" font-size="9" stroke="grey" fill="black" >1.3.7.8</text>
</g>
<g>
    <rect rxns="rxn03876" x="256" y="855" width="48" height="18" stroke="black" fill="white"></rect>
    <text x="259" y="868" font-size="9" stroke="grey" fill="black" >4.2.1.100</text>
</g>
<g>
    <rect rxns="rxn03863" x="380" y="855" width="48" height="18" stroke="black" fill="white"></rect>
    <text x="383" y="868" font-size="9" stroke="grey" fill="black" >1.1.1.-</text>
</g>
<g>
    <rect rxns="rxn03873" x="527" y="855" width="48" height="18" stroke="black" fill="white"></rect>
    <text x="530" y="868" font-size="9" stroke="grey" fill="black" >3.7.1.-</text>
</g>
<g>
    <rect rxns="rxn03617" x="659" y="855" width="48" height="18" stroke="black" fill="white"></rect>
    <text x="662" y="868" font-size="9" stroke="grey" fill="black" >1.1.1.259</text>
</g>
<g>
    <rect rxns="rxn03866" x="752" y="855" width="48" height="18" stroke="black" fill="white"></rect>
    <text x="755" y="868" font-size="9" stroke="grey" fill="black" >2.3.1.-</text>
</g>
<g>
    <rect rxns="rxn06938" x="847" y="855" width="48" height="18" stroke="black" fill="white"></rect>
    <text x="850" y="868" font-size="9" stroke="grey" fill="black" >1.3.99.32</text>
</g>
<g>
    <rect rxns="rxn03879" x="356" y="750" width="48" height="18" stroke="black" fill="white"></rect>
    <text x="359" y="763" font-size="9" stroke="grey" fill="black" >4.2.1.-</text>
</g>
<g>
    <rect rxns="rxn03864" x="457" y="749" width="48" height="18" stroke="black" fill="white"></rect>
    <text x="460" y="762" font-size="9" stroke="grey" fill="black" >1.1.1.-</text>
</g>
<g>
    <rect rxns="rxn03871" x="559" y="748" width="48" height="18" stroke="black" fill="white"></rect>
    <text x="562" y="761" font-size="9" stroke="grey" fill="black" >3.1.2.-</text>
</g>
<g>
    <rect rxns="rxn03622" x="613" y="769" width="48" height="18" stroke="black" fill="white"></rect>
    <text x="616" y="782" font-size="9" stroke="grey" fill="black" >1.3.1.62</text>
</g>
<g>
    <rect rxns="rxn03880" x="614" y="824" width="48" height="18" stroke="black" fill="white"></rect>
    <text x="617" y="837" font-size="9" stroke="grey" fill="black" >4.2.1.-</text>
</g>
<g>
    <rect rxns="rxn06944" x="311" y="714" width="48" height="18" stroke="black" fill="white"></rect>
    <text x="314" y="727" font-size="9" stroke="grey" fill="black" >1.3.99.-</text>
</g>
<g>
    <rect rxns="rxn03896" x="258" y="686" width="48" height="18" stroke="black" fill="white"></rect>
    <text x="261" y="699" font-size="9" stroke="grey" fill="black" >6.2.1.-</text>
</g>
<g>
    <rect rxns="rxn02169" x="939" y="855" width="48" height="18" stroke="black" fill="white"></rect>
    <text x="942" y="868" font-size="9" stroke="grey" fill="black" >4.1.1.70</text>
</g>
<g>
    <rect rxns="rxn02167" x="1034" y="855" width="48" height="18" stroke="black" fill="white"></rect>
    <text x="1037" y="868" font-size="9" stroke="grey" fill="black" >4.2.1.17</text>
</g>
<g>
    <rect rxns="rxn01452" x="1131" y="855" width="48" height="18" stroke="black" fill="white"></rect>
    <text x="1134" y="868" font-size="9" stroke="grey" fill="black" >1.1.1.157</text>
</g>
<g>
    <rect rxns="rxn00178" x="1225" y="854" width="48" height="18" stroke="black" fill="white"></rect>
    <text x="1228" y="867" font-size="9" stroke="grey" fill="black" >2.3.1.9</text>
</g>
<g>
    <rect rxns="rxn00959" x="150" y="207" width="48" height="18" stroke="black" fill="white"></rect>
    <text x="153" y="220" font-size="9" stroke="grey" fill="black" >1.14.13.12</text>
</g>
<g>
    <rect rxns="rxn00964" x="115" y="166" width="48" height="18" stroke="black" fill="white"></rect>
    <text x="118" y="179" font-size="9" stroke="grey" fill="black" >6.2.1.27</text>
</g>
<g>
    <rect rxns="rxn11651" x="34" y="402" width="48" height="18" stroke="black" fill="white"></rect>
    <text x="37" y="415" font-size="9" stroke="grey" fill="black" >1.3.7.9</text>
</g>
<g>
    <rect rxns="rxn00598" x="986" y="478" width="48" height="18" stroke="black" fill="white"></rect>
    <text x="989" y="491" font-size="9" stroke="grey" fill="black" >2.3.1.174</text>
</g>
<g>
    <rect rxns="rxn00584" x="272" y="468" width="48" height="18" stroke="black" fill="white"></rect>
    <text x="275" y="481" font-size="9" stroke="grey" fill="black" >1.3.1.25</text>
</g>
<g>
    <rect rxns="rxn00598" x="986" y="457" width="48" height="18" stroke="black" fill="white"></rect>
    <text x="989" y="470" font-size="9" stroke="grey" fill="black" >2.3.1.16</text>
</g>
<g>
    <rect rxns="rxn02144" x="759" y="467" width="48" height="18" stroke="black" fill="white"></rect>
    <text x="762" y="480" font-size="9" stroke="grey" fill="black" >3.1.1.24</text>
</g>
<g>
    <rect rxns="rxn02971" x="649" y="468" width="48" height="18" stroke="black" fill="white"></rect>
    <text x="652" y="481" font-size="9" stroke="grey" fill="black" >5.3.3.4</text>
</g>
<g>
    <rect rxns="rxn02782" x="533" y="467" width="48" height="18" stroke="black" fill="white"></rect>
    <text x="536" y="480" font-size="9" stroke="grey" fill="black" >5.5.1.1</text>
</g>
<g>
    <rect rxns="rxn00588" x="397" y="468" width="48" height="18" stroke="black" fill="white"></rect>
    <text x="400" y="481" font-size="9" stroke="grey" fill="black" >1.13.11.1</text>
</g>
<g>
    <rect rxns="rxn03897,rxn03898" x="161" y="468" width="48" height="18" stroke="black" fill="white"></rect>
    <text x="164" y="481" font-size="9" stroke="grey" fill="black" >1.14.12.10</text>
</g>
<g>
    <rect rxns="rxn02143" x="867" y="467" width="48" height="18" stroke="black" fill="white"></rect>
    <text x="870" y="480" font-size="9" stroke="grey" fill="black" >2.8.3.6</text>
</g>
<g>
    <rect rxns="rxn00961,rxn00963" x="291" y="149" width="48" height="18" stroke="black" fill="white"></rect>
    <text x="294" y="162" font-size="9" stroke="grey" fill="black" >1.14.13.64</text>
</g>
<g>
    <rect rxns="rxn06014" x="291" y="551" width="48" height="18" stroke="black" fill="white"></rect>
    <text x="294" y="564" font-size="9" stroke="grey" fill="black" >1.14.99.23</text>
</g>
<g>
    <rect rxns="rxn00587" x="397" y="500" width="48" height="18" stroke="black" fill="white"></rect>
    <text x="400" y="513" font-size="9" stroke="grey" fill="black" >1.13.11.2</text>
</g>
<g>
    <rect rxns="rxn00540" x="766" y="551" width="48" height="18" stroke="black" fill="white"></rect>
    <text x="769" y="564" font-size="9" stroke="grey" fill="black" >4.1.3.39</text>
</g>
<g>
    <rect rxns="rxn01893" x="670" y="551" width="48" height="18" stroke="black" fill="white"></rect>
    <text x="673" y="564" font-size="9" stroke="grey" fill="black" >4.2.1.80</text>
</g>
<g>
    <rect rxns="rxn01896" x="576" y="550" width="48" height="18" stroke="black" fill="white"></rect>
    <text x="579" y="563" font-size="9" stroke="grey" fill="black" >3.7.1.9</text>
</g>
<g>
    <rect rxns="rxn01096" x="397" y="551" width="48" height="18" stroke="black" fill="white"></rect>
    <text x="400" y="564" font-size="9" stroke="grey" fill="black" >1.13.11.14</text>
</g>
<g>
    <rect rxns="rxn02788" x="578" y="640" width="48" height="18" stroke="black" fill="white"></rect>
    <text x="581" y="653" font-size="9" stroke="grey" fill="black" >5.3.2.-</text>
</g>
<g>
    <rect rxns="rxn02948" x="671" y="639" width="48" height="18" stroke="black" fill="white"></rect>
    <text x="674" y="652" font-size="9" stroke="grey" fill="black" >4.1.1.-</text>
</g>
<g>
    <rect rxns="rxn01993" x="536" y="601" width="48" height="18" stroke="black" fill="white"></rect>
    <text x="539" y="614" font-size="9" stroke="grey" fill="black" >1.2.1.32</text>
</g>
<g>
    <rect rxns="rxn01894" x="624" y="602" width="48" height="18" stroke="black" fill="white"></rect>
    <text x="627" y="615" font-size="9" stroke="grey" fill="black" >4.1.1.77</text>
</g>
<g>
    <rect rxns="rxn03496" x="291" y="639" width="48" height="18" stroke="black" fill="white"></rect>
    <text x="294" y="652" font-size="9" stroke="grey" fill="black" >1.14.12.14</text>
</g>
<g>
    <rect rxns="rxn07602" x="397" y="639" width="48" height="18" stroke="black" fill="white"></rect>
    <text x="400" y="652" font-size="9" stroke="grey" fill="black" >1.13.11.2</text>
</g>
<g>
    <rect rxns="rxn00965" x="114" y="120" width="48" height="18" stroke="black" fill="white"></rect>
    <text x="117" y="133" font-size="9" stroke="grey" fill="black" >3.1.2.23</text>
</g>
<g>
    <rect rxns="rxn00592" x="341" y="518" width="48" height="18" stroke="black" fill="white"></rect>
    <text x="344" y="531" font-size="9" stroke="grey" fill="black" >4.1.1.46</text>
</g>
<g>
    <rect rxns="rxn05960" x="151" y="251" width="48" height="18" stroke="black" fill="white"></rect>
    <text x="154" y="264" font-size="9" stroke="grey" fill="black" >1.14.99.15</text>
</g>
<g>
    <rect rxns="rxn00171" x="936" y="551" width="48" height="18" stroke="black" fill="white"></rect>
    <text x="939" y="564" font-size="9" stroke="grey" fill="black" >1.2.1.10</text>
</g>
<g>
    <rect rxns="rxn02526" x="161" y="418" width="48" height="18" stroke="black" fill="white"></rect>
    <text x="164" y="431" font-size="9" stroke="grey" fill="black" >1.14.12.3</text>
</g>
<g>
    <rect rxns="rxn00583" x="273" y="418" width="48" height="18" stroke="black" fill="white"></rect>
    <text x="276" y="431" font-size="9" stroke="grey" fill="black" >1.3.1.19</text>
</g>
<g>
    <rect rxns="R10042" x="161" y="389" width="48" height="18" stroke="black" fill="white"></rect>
    <text x="164" y="402" font-size="9" stroke="grey" fill="black" >1.14.13.-</text>
</g>
<g>
    <rect rxns="R10043" x="273" y="388" width="48" height="18" stroke="black" fill="white"></rect>
    <text x="276" y="401" font-size="9" stroke="grey" fill="black" >1.14.13.-</text>
</g>
<g>
    <rect rxns="rxn01994" x="489" y="550" width="48" height="18" stroke="black" fill="white"></rect>
    <text x="492" y="563" font-size="9" stroke="grey" fill="black" >4.1.1.-</text>
</g>
</svg>