<svg>
<g>
    <rect rxns="rxn03630" x="251" y="356" width="48" height="18" stroke="black" fill="white"></rect>
    <text x="254" y="369" font-size="9" stroke="grey" fill="black" >1.14.11.17</text>
</g>
<g>
    <rect rxns="rxn04789" x="405" y="463" width="48" height="18" stroke="black" fill="white"></rect>
    <text x="408" y="476" font-size="9" stroke="grey" fill="black" >1.2.1.73</text>
</g>
<g>
    <rect rxns="rxn00278" x="390" y="359" width="48" height="18" stroke="black" fill="white"></rect>
    <text x="393" y="372" font-size="9" stroke="grey" fill="black" >1.4.1.1</text>
</g>
<g>
    <rect rxns="rxn00173" x="190" y="424" width="48" height="18" stroke="black" fill="white"></rect>
    <text x="193" y="437" font-size="9" stroke="grey" fill="black" >2.3.1.8</text>
</g>
<g>
    <rect rxns="rxn03923" x="297" y="424" width="48" height="18" stroke="black" fill="white"></rect>
    <text x="300" y="437" font-size="9" stroke="grey" fill="black" >2.3.3.15</text>
</g>
<g>
    <rect rxns="rxn03924" x="339" y="359" width="48" height="18" stroke="black" fill="white"></rect>
    <text x="342" y="372" font-size="9" stroke="grey" fill="black" >2.6.1.77</text>
</g>
<g>
    <rect rxns="rxn01234" x="548" y="359" width="48" height="18" stroke="black" fill="white"></rect>
    <text x="551" y="372" font-size="9" stroke="grey" fill="black" >1.4.2.-</text>
</g>
<g>
    <rect rxns="rxn02685" x="578" y="294" width="48" height="18" stroke="black" fill="white"></rect>
    <text x="581" y="307" font-size="9" stroke="grey" fill="black" >2.7.3.4</text>
</g>
<g>
    <rect rxns="rxn01231" x="277" y="304" width="48" height="18" stroke="black" fill="white"></rect>
    <text x="280" y="317" font-size="9" stroke="grey" fill="black" >4.1.1.29</text>
</g>
<g>
    <rect rxns="rxn01231" x="277" y="283" width="48" height="18" stroke="black" fill="white"></rect>
    <text x="280" y="296" font-size="9" stroke="grey" fill="black" >4.1.1.15</text>
</g>
<g>
    <rect rxns="rxn00651" x="164" y="293" width="48" height="18" stroke="black" fill="white"></rect>
    <text x="167" y="306" font-size="9" stroke="grey" fill="black" >4.4.1.10</text>
</g>
<g>
    <rect rxns="rxn01230" x="340" y="235" width="48" height="18" stroke="black" fill="white"></rect>
    <text x="343" y="248" font-size="9" stroke="grey" fill="black" >1.8.1.3</text>
</g>
<g>
    <rect rxns="rxn00645" x="164" y="186" width="48" height="18" stroke="black" fill="white"></rect>
    <text x="167" y="199" font-size="9" stroke="grey" fill="black" >1.13.11.20</text>
</g>
<g>
    <rect rxns="rxn01785" x="277" y="136" width="48" height="18" stroke="black" fill="white"></rect>
    <text x="280" y="149" font-size="9" stroke="grey" fill="black" >1.13.11.19</text>
</g>
<g>
    <rect rxns="rxn01784" x="277" y="195" width="48" height="18" stroke="black" fill="white"></rect>
    <text x="280" y="208" font-size="9" stroke="grey" fill="black" >4.1.1.29</text>
</g>
<g>
    <rect rxns="rxn01784" x="277" y="174" width="48" height="18" stroke="black" fill="white"></rect>
    <text x="280" y="187" font-size="9" stroke="grey" fill="black" >4.1.1.15</text>
</g>
<g>
    <rect rxns="rxn06025" x="423" y="222" width="48" height="18" stroke="black" fill="white"></rect>
    <text x="426" y="235" font-size="9" stroke="grey" fill="black" >2.3.2.2</text>
</g>
<g>
    <rect rxns="rxn02640" x="251" y="331" width="48" height="18" stroke="black" fill="white"></rect>
    <text x="254" y="344" font-size="9" stroke="grey" fill="black" >2.3.1.65</text>
</g>
<g>
    <rect rxns="rxn00225" x="236" y="464" width="48" height="18" stroke="black" fill="white"></rect>
    <text x="239" y="477" font-size="9" stroke="grey" fill="black" >2.7.2.1</text>
</g>
<g>
    <rect rxns="rxn06187" x="359" y="484" width="48" height="18" stroke="black" fill="white"></rect>
    <text x="362" y="497" font-size="9" stroke="grey" fill="black" >1.1.1.313</text>
</g>
<g>
    <rect rxns="rxn01233" x="498" y="359" width="48" height="18" stroke="black" fill="white"></rect>
    <text x="501" y="372" font-size="9" stroke="grey" fill="black" >2.6.1.55</text>
</g>
<g>
    <rect rxns="rxn00182" x="448" y="359" width="48" height="18" stroke="black" fill="white"></rect>
    <text x="451" y="372" font-size="9" stroke="grey" fill="black" >1.4.1.2</text>
</g>
</svg>