<svg>
<g>
    <rect rxns="rxn00540" x="822" y="747" width="48" height="18" stroke="black" fill="white"></rect>
    <text x="825" y="760" font-size="9" stroke="grey" fill="black" >4.1.3.39</text>
</g>
<g>
    <rect rxns="rxn00495" x="689" y="187" width="48" height="18" stroke="black" fill="white"></rect>
    <text x="692" y="200" font-size="9" stroke="grey" fill="black" >4.3.1.25</text>
</g>
<g>
    <rect rxns="rxn01840,rxn01841" x="246" y="481" width="48" height="18" stroke="black" fill="white"></rect>
    <text x="249" y="494" font-size="9" stroke="grey" fill="black" >1.2.1.5</text>
</g>
<g>
    <rect rxns="rxn01842" x="251" y="598" width="48" height="18" stroke="black" fill="white"></rect>
    <text x="254" y="611" font-size="9" stroke="grey" fill="black" >6.2.1.30</text>
</g>
<g>
    <rect rxns="rxn01878" x="251" y="717" width="48" height="18" stroke="black" fill="white"></rect>
    <text x="254" y="730" font-size="9" stroke="grey" fill="black" >2.3.1.14</text>
</g>
<g>
    <rect rxns="rxn04073" x="202" y="717" width="48" height="18" stroke="black" fill="white"></rect>
    <text x="205" y="730" font-size="9" stroke="grey" fill="black" >2.3.1.13</text>
</g>
<g>
    <rect rxns="rxn01893" x="822" y="682" width="48" height="18" stroke="black" fill="white"></rect>
    <text x="825" y="695" font-size="9" stroke="grey" fill="black" >4.2.1.80</text>
</g>
<g>
    <rect rxns="rxn01895" x="822" y="603" width="48" height="18" stroke="black" fill="white"></rect>
    <text x="825" y="616" font-size="9" stroke="grey" fill="black" >3.7.1.-</text>
</g>
<g>
    <rect rxns="rxn04604" x="742" y="603" width="48" height="18" stroke="black" fill="white"></rect>
    <text x="745" y="616" font-size="9" stroke="grey" fill="black" >3.7.1.-</text>
</g>
<g>
    <rect rxns="rxn03038" x="822" y="539" width="48" height="18" stroke="black" fill="white"></rect>
    <text x="825" y="552" font-size="9" stroke="grey" fill="black" >1.13.11.16</text>
</g>
<g>
    <rect rxns="rxn04603" x="742" y="539" width="48" height="18" stroke="black" fill="white"></rect>
    <text x="745" y="552" font-size="9" stroke="grey" fill="black" >1.13.11.16</text>
</g>
<g>
    <rect rxns="rxn00495" x="689" y="166" width="48" height="18" stroke="black" fill="white"></rect>
    <text x="692" y="179" font-size="9" stroke="grey" fill="black" >4.3.1.24</text>
</g>
<g>
    <rect rxns="rxn04602" x="689" y="418" width="48" height="18" stroke="black" fill="white"></rect>
    <text x="692" y="431" font-size="9" stroke="grey" fill="black" >1.14.13.127</text>
</g>
<g>
    <rect rxns="rxn00497" x="222" y="273" width="48" height="18" stroke="black" fill="white"></rect>
    <text x="225" y="286" font-size="9" stroke="grey" fill="black" >4.1.1.28</text>
</g>
<g>
    <rect rxns="rxn00497" x="272" y="273" width="48" height="18" stroke="black" fill="white"></rect>
    <text x="275" y="286" font-size="9" stroke="grey" fill="black" >4.1.1.53</text>
</g>
<g>
    <rect rxns="rxn06189" x="272" y="392" width="48" height="18" stroke="black" fill="white"></rect>
    <text x="275" y="405" font-size="9" stroke="grey" fill="black" >1.4.9.2</text>
</g>
<g>
    <rect rxns="rxn01903" x="222" y="392" width="48" height="18" stroke="black" fill="white"></rect>
    <text x="225" y="405" font-size="9" stroke="grey" fill="black" >1.4.3.21</text>
</g>
<g>
    <rect rxns="rxn01903" x="246" y="373" width="48" height="18" stroke="black" fill="white"></rect>
    <text x="249" y="386" font-size="9" stroke="grey" fill="black" >1.4.3.4</text>
</g>
<g>
    <rect rxns="rxn00999" x="395" y="419" width="48" height="18" stroke="black" fill="white"></rect>
    <text x="398" y="432" font-size="9" stroke="grey" fill="black" >1.13.11.27</text>
</g>
<g>
    <rect rxns="rxn01003" x="310" y="371" width="48" height="18" stroke="black" fill="white"></rect>
    <text x="313" y="384" font-size="9" stroke="grey" fill="black" >4.1.1.43</text>
</g>
<g>
    <rect rxns="rxn00997" x="509" y="401" width="48" height="18" stroke="black" fill="white"></rect>
    <text x="512" y="414" font-size="9" stroke="grey" fill="black" >1.1.1.237</text>
</g>
<g>
    <rect rxns="rxn00997,rxn00998" x="459" y="401" width="48" height="18" stroke="black" fill="white"></rect>
    <text x="462" y="414" font-size="9" stroke="grey" fill="black" >1.1.1.222</text>
</g>
<g>
    <rect rxns="rxn00493" x="370" y="295" width="48" height="18" stroke="black" fill="white"></rect>
    <text x="373" y="308" font-size="9" stroke="grey" fill="black" >2.6.1.57</text>
</g>
<g>
    <rect rxns="rxn00493" x="420" y="276" width="48" height="18" stroke="black" fill="white"></rect>
    <text x="423" y="289" font-size="9" stroke="grey" fill="black" >2.6.1.9</text>
</g>
<g>
    <rect rxns="rxn00493" x="370" y="276" width="48" height="18" stroke="black" fill="white"></rect>
    <text x="373" y="289" font-size="9" stroke="grey" fill="black" >2.6.1.5</text>
</g>
<g>
    <rect rxns="rxn00493" x="420" y="257" width="48" height="18" stroke="black" fill="white"></rect>
    <text x="423" y="270" font-size="9" stroke="grey" fill="black" >2.6.1.1</text>
</g>
<g>
    <rect rxns="rxn00487" x="370" y="257" width="48" height="18" stroke="black" fill="white"></rect>
    <text x="373" y="270" font-size="9" stroke="grey" fill="black" >1.4.1.20</text>
</g>
<g>
    <rect rxns="rxn01004" x="562" y="386" width="48" height="18" stroke="black" fill="white"></rect>
    <text x="565" y="399" font-size="9" stroke="grey" fill="black" >5.3.2.1</text>
</g>
<g>
    <rect rxns="rxn01156" x="604" y="279" width="48" height="18" stroke="black" fill="white"></rect>
    <text x="607" y="292" font-size="9" stroke="grey" fill="black" >2.6.1.21</text>
</g>
<g>
    <rect rxns="rxn05991" x="551" y="280" width="48" height="18" stroke="black" fill="white"></rect>
    <text x="554" y="293" font-size="9" stroke="grey" fill="black" >1.4.99.1</text>
</g>
<g>
    <rect rxns="rxn01902" x="352" y="457" width="48" height="18" stroke="black" fill="white"></rect>
    <text x="355" y="470" font-size="9" stroke="grey" fill="black" >1.1.1.90</text>
</g>
<g>
    <rect rxns="rxn01840" x="299" y="481" width="48" height="18" stroke="black" fill="white"></rect>
    <text x="302" y="494" font-size="9" stroke="grey" fill="black" >1.2.1.39</text>
</g>
<g>
    <rect rxns="rxn01843" x="189" y="525" width="48" height="18" stroke="black" fill="white"></rect>
    <text x="192" y="538" font-size="9" stroke="grey" fill="black" >3.5.1.4</text>
</g>
<g>
    <rect rxns="rxn02754" x="631" y="207" width="48" height="18" stroke="black" fill="white"></rect>
    <text x="634" y="220" font-size="9" stroke="grey" fill="black" >2.3.1.36</text>
</g>
<g>
    <rect rxns="rxn00488" x="473" y="280" width="48" height="18" stroke="black" fill="white"></rect>
    <text x="476" y="293" font-size="9" stroke="grey" fill="black" >1.4.3.2</text>
</g>
<g>
    <rect rxns="rxn00489" x="111" y="394" width="48" height="18" stroke="black" fill="white"></rect>
    <text x="114" y="407" font-size="9" stroke="grey" fill="black" >1.13.12.9</text>
</g>
<g>
    <rect rxns="rxn00485" x="503" y="208" width="48" height="18" stroke="black" fill="white"></rect>
    <text x="506" y="221" font-size="9" stroke="grey" fill="black" >5.1.1.11</text>
</g>
<g>
    <rect rxns="rxn14316" x="161" y="394" width="48" height="18" stroke="black" fill="white"></rect>
    <text x="164" y="407" font-size="9" stroke="grey" fill="black" >1.11.1.7</text>
</g>
<g>
    <rect rxns="rxn00492" x="314" y="245" width="48" height="18" stroke="black" fill="white"></rect>
    <text x="317" y="258" font-size="9" stroke="grey" fill="black" >2.3.1.53</text>
</g>
<g>
    <rect rxns="rxn04598" x="742" y="363" width="48" height="18" stroke="black" fill="white"></rect>
    <text x="745" y="376" font-size="9" stroke="grey" fill="black" >1.14.12.19</text>
</g>
<g>
    <rect rxns="rxn04600" x="742" y="449" width="48" height="18" stroke="black" fill="white"></rect>
    <text x="745" y="462" font-size="9" stroke="grey" fill="black" >1.3.1.87</text>
</g>
<g>
    <rect rxns="rxn02416" x="984" y="429" width="48" height="18" stroke="black" fill="white"></rect>
    <text x="987" y="442" font-size="9" stroke="grey" fill="black" >1.14.13.4</text>
</g>
<g>
    <rect rxns="rxn04601" x="917" y="429" width="48" height="18" stroke="black" fill="white"></rect>
    <text x="920" y="442" font-size="9" stroke="grey" fill="black" >1.14.13.127</text>
</g>
<g>
    <rect rxns="rxn04599" x="822" y="449" width="48" height="18" stroke="black" fill="white"></rect>
    <text x="825" y="462" font-size="9" stroke="grey" fill="black" >1.3.1.87</text>
</g>
<g>
    <rect rxns="rxn04597" x="822" y="363" width="48" height="18" stroke="black" fill="white"></rect>
    <text x="825" y="376" font-size="9" stroke="grey" fill="black" >1.14.12.19</text>
</g>
<g>
    <rect rxns="rxn01610" x="822" y="291" width="48" height="18" stroke="black" fill="white"></rect>
    <text x="825" y="304" font-size="9" stroke="grey" fill="black" >1.3.1.31</text>
</g>
<g>
    <rect rxns="rxn01611" x="910" y="230" width="48" height="18" stroke="black" fill="white"></rect>
    <text x="913" y="243" font-size="9" stroke="grey" fill="black" >1.14.13.11</text>
</g>
<g>
    <rect rxns="rxn01037" x="891" y="177" width="48" height="18" stroke="black" fill="white"></rect>
    <text x="894" y="190" font-size="9" stroke="grey" fill="black" >3.5.1.32</text>
</g>
<g>
    <rect rxns="rxn01773" x="987" y="177" width="48" height="18" stroke="black" fill="white"></rect>
    <text x="990" y="190" font-size="9" stroke="grey" fill="black" >2.3.1.71</text>
</g>
<g>
    <rect rxns="rxn04970" x="910" y="261" width="48" height="18" stroke="black" fill="white"></rect>
    <text x="913" y="274" font-size="9" stroke="grey" fill="black" >1.14.13.14</text>
</g>
<g>
    <rect rxns="rxn14383" x="984" y="289" width="48" height="18" stroke="black" fill="white"></rect>
    <text x="987" y="302" font-size="9" stroke="grey" fill="black" >1.3.1.11</text>
</g>
<g>
    <rect rxns="rxn14134" x="784" y="133" width="48" height="18" stroke="black" fill="white"></rect>
    <text x="787" y="146" font-size="9" stroke="grey" fill="black" >1.14.13.-</text>
</g>
<g>
    <rect rxns="rxn01315" x="104" y="201" width="48" height="18" stroke="black" fill="white"></rect>
    <text x="107" y="214" font-size="9" stroke="grey" fill="black" >1.14.16.1</text>
</g>
<g>
    <rect rxns="rxn01003" x="360" y="371" width="48" height="18" stroke="black" fill="white"></rect>
    <text x="363" y="384" font-size="9" stroke="grey" fill="black" >4.1.1.-</text>
</g>
<g>
    <rect rxns="rxn04999" x="320" y="640" width="48" height="18" stroke="black" fill="white"></rect>
    <text x="323" y="653" font-size="9" stroke="grey" fill="black" >1.17.5.1</text>
</g>
<g>
    <rect rxns="rxn01772" x="518" y="640" width="48" height="18" stroke="black" fill="white"></rect>
    <text x="521" y="653" font-size="9" stroke="grey" fill="black" >1.2.1.58</text>
</g>
<g>
    <rect rxns="rxn05047" x="417" y="640" width="48" height="18" stroke="black" fill="white"></rect>
    <text x="420" y="653" font-size="9" stroke="grey" fill="black" >3.1.2.25</text>
</g>
<g>
    <rect rxns="rxn03783" x="334" y="528" width="48" height="18" stroke="black" fill="white"></rect>
    <text x="337" y="541" font-size="9" stroke="grey" fill="black" >1.14.13.-</text>
</g>
<g>
    <rect rxns="rxn01182" x="1122" y="295" width="48" height="18" stroke="black" fill="white"></rect>
    <text x="1125" y="308" font-size="9" stroke="grey" fill="black" >6.2.1.12</text>
</g>
<g>
    <rect rxns="rxn05139" x="1122" y="361" width="48" height="18" stroke="black" fill="white"></rect>
    <text x="1125" y="374" font-size="9" stroke="grey" fill="black" >1.14.13.-</text>
</g>
<g>
    <rect rxns="rxn04024" x="1122" y="539" width="48" height="18" stroke="black" fill="white"></rect>
    <text x="1125" y="552" font-size="9" stroke="grey" fill="black" >4.2.1.101</text>
</g>
<g>
    <rect rxns="rxn12110" x="1088" y="70" width="48" height="18" stroke="black" fill="white"></rect>
    <text x="1091" y="83" font-size="9" stroke="grey" fill="black" >2.1.1.-</text>
</g>
<g>
    <rect rxns="rxn12112" x="1088" y="101" width="48" height="18" stroke="black" fill="white"></rect>
    <text x="1091" y="114" font-size="9" stroke="grey" fill="black" >2.1.1.-</text>
</g>
<g>
    <rect rxns="rxn01426" x="1122" y="445" width="48" height="18" stroke="black" fill="white"></rect>
    <text x="1125" y="458" font-size="9" stroke="grey" fill="black" >2.1.1.104</text>
</g>
<g>
    <rect rxns="rxn04025" x="1122" y="612" width="48" height="18" stroke="black" fill="white"></rect>
    <text x="1125" y="625" font-size="9" stroke="grey" fill="black" >4.1.2.41</text>
</g>
<g>
    <rect rxns="R09089" x="871" y="101" width="48" height="18" stroke="black" fill="white"></rect>
    <text x="874" y="114" font-size="9" stroke="grey" fill="black" >2.6.1.-</text>
</g>
<g>
    <rect rxns="rxn02580" x="1201" y="101" width="48" height="18" stroke="black" fill="white"></rect>
    <text x="1204" y="114" font-size="9" stroke="grey" fill="black" >1.5.1.18</text>
</g>
<g>
    <rect rxns="rxn00491" x="420" y="295" width="48" height="18" stroke="black" fill="white"></rect>
    <text x="423" y="308" font-size="9" stroke="grey" fill="black" >2.6.1.58</text>
</g>
<g>
    <rect rxns="rxn04073" x="152" y="717" width="48" height="18" stroke="black" fill="white"></rect>
    <text x="155" y="730" font-size="9" stroke="grey" fill="black" >2.3.1.192</text>
</g>
<g>
    <rect rxns="rxn14316" x="135" y="413" width="48" height="18" stroke="black" fill="white"></rect>
    <text x="138" y="426" font-size="9" stroke="grey" fill="black" >1.11.1.21</text>
</g>
<g>
    <rect rxns="R09838" x="298" y="696" width="48" height="18" stroke="black" fill="white"></rect>
    <text x="301" y="709" font-size="9" stroke="grey" fill="black" >1.14.13.149</text>
</g>
<g>
    <rect rxns="R09837" x="390" y="696" width="48" height="18" stroke="black" fill="white"></rect>
    <text x="393" y="709" font-size="9" stroke="grey" fill="black" >5.3.3.18</text>
</g>
<g>
    <rect rxns="R09836" x="479" y="696" width="48" height="18" stroke="black" fill="white"></rect>
    <text x="482" y="709" font-size="9" stroke="grey" fill="black" >3.7.1.16</text>
</g>
<g>
    <rect rxns="R09820" x="575" y="696" width="48" height="18" stroke="black" fill="white"></rect>
    <text x="578" y="709" font-size="9" stroke="grey" fill="black" >1.17.1.7</text>
</g>
<g>
    <rect rxns="rxn04751" x="583" y="768" width="48" height="18" stroke="black" fill="white"></rect>
    <text x="586" y="781" font-size="9" stroke="grey" fill="black" >4.2.1.17</text>
</g>
<g>
    <rect rxns="rxn04750" x="485" y="768" width="48" height="18" stroke="black" fill="white"></rect>
    <text x="488" y="781" font-size="9" stroke="grey" fill="black" >1.1.1.157</text>
</g>
<g>
    <rect rxns="rxn00598" x="436" y="796" width="48" height="18" stroke="black" fill="white"></rect>
    <text x="439" y="809" font-size="9" stroke="grey" fill="black" >2.3.1.-</text>
</g>
<g>
    <rect rxns="R09840" x="293" y="577" width="48" height="18" stroke="black" fill="white"></rect>
    <text x="296" y="590" font-size="9" stroke="grey" fill="black" >3.1.2.-</text>
</g>
</svg>