<svg>
<g>
    <rect rxns="rxn05112" x="943" y="181" width="48" height="18" stroke="black" fill="white"></rect>
    <text x="946" y="194" font-size="9" stroke="grey" fill="black" >3.5.1.93</text>
</g>
<g>
    <rect rxns="rxn02197" x="775" y="191" width="48" height="18" stroke="black" fill="white"></rect>
    <text x="778" y="204" font-size="9" stroke="grey" fill="black" >2.6.1.74</text>
</g>
<g>
    <rect rxns="rxn05110" x="775" y="170" width="48" height="18" stroke="black" fill="white"></rect>
    <text x="778" y="183" font-size="9" stroke="grey" fill="black" >1.4.3.3</text>
</g>
<g>
    <rect rxns="rxn06112" x="281" y="278" width="48" height="18" stroke="black" fill="white"></rect>
    <text x="284" y="291" font-size="9" stroke="grey" fill="black" >3.5.1.11</text>
</g>
<g>
    <rect rxns="rxn07099" x="281" y="250" width="48" height="18" stroke="black" fill="white"></rect>
    <text x="284" y="263" font-size="9" stroke="grey" fill="black" >3.5.2.6</text>
</g>
<g>
    <rect rxns="rxn02196" x="669" y="222" width="48" height="18" stroke="black" fill="white"></rect>
    <text x="672" y="235" font-size="9" stroke="grey" fill="black" >3.1.1.41</text>
</g>
<g>
    <rect rxns="rxn03545" x="613" y="240" width="48" height="18" stroke="black" fill="white"></rect>
    <text x="616" y="253" font-size="9" stroke="grey" fill="black" >2.1.3.7</text>
</g>
<g>
    <rect rxns="rxn03544" x="562" y="181" width="48" height="18" stroke="black" fill="white"></rect>
    <text x="565" y="194" font-size="9" stroke="grey" fill="black" >1.14.11.26</text>
</g>
<g>
    <rect rxns="rxn03613" x="462" y="181" width="48" height="18" stroke="black" fill="white"></rect>
    <text x="465" y="194" font-size="9" stroke="grey" fill="black" >1.14.20.1</text>
</g>
<g>
    <rect rxns="rxn07098" x="325" y="210" width="48" height="18" stroke="black" fill="white"></rect>
    <text x="328" y="223" font-size="9" stroke="grey" fill="black" >2.3.1.164</text>
</g>
<g>
    <rect rxns="rxn02896" x="367" y="181" width="48" height="18" stroke="black" fill="white"></rect>
    <text x="370" y="194" font-size="9" stroke="grey" fill="black" >5.1.1.17</text>
</g>
<g>
    <rect rxns="rxn03327" x="271" y="181" width="48" height="18" stroke="black" fill="white"></rect>
    <text x="274" y="194" font-size="9" stroke="grey" fill="black" >1.21.3.1</text>
</g>
<g>
    <rect rxns="rxn03326" x="176" y="181" width="48" height="18" stroke="black" fill="white"></rect>
    <text x="179" y="194" font-size="9" stroke="grey" fill="black" >6.3.2.26</text>
</g>
<g>
    <rect rxns="rxn02198" x="669" y="181" width="48" height="18" stroke="black" fill="white"></rect>
    <text x="672" y="194" font-size="9" stroke="grey" fill="black" >2.3.1.175</text>
</g>
</svg>