<svg>
<g>
    <rect rxns="rxn00530" x="330" y="205" width="48" height="18" stroke="black" fill="white"></rect>
    <text x="333" y="218" font-size="9" stroke="grey" fill="black" >4.3.1.25</text>
</g>
<g>
    <rect rxns="rxn00495" x="167" y="203" width="48" height="18" stroke="black" fill="white"></rect>
    <text x="170" y="216" font-size="9" stroke="grey" fill="black" >4.3.1.25</text>
</g>
<g>
    <rect rxns="rxn00495" x="117" y="203" width="48" height="18" stroke="black" fill="white"></rect>
    <text x="120" y="216" font-size="9" stroke="grey" fill="black" >4.3.1.24</text>
</g>
<g>
    <rect rxns="rxn00530" x="280" y="205" width="48" height="18" stroke="black" fill="white"></rect>
    <text x="283" y="218" font-size="9" stroke="grey" fill="black" >4.3.1.23</text>
</g>
<g>
    <rect rxns="rxn04970" x="96" y="287" width="48" height="18" stroke="black" fill="white"></rect>
    <text x="99" y="300" font-size="9" stroke="grey" fill="black" >1.14.13.14</text>
</g>
<g>
    <rect rxns="rxn01613" x="143" y="308" width="48" height="18" stroke="black" fill="white"></rect>
    <text x="146" y="321" font-size="9" stroke="grey" fill="black" >6.2.1.12</text>
</g>
<g>
    <rect rxns="rxn13978" x="95" y="408" width="48" height="18" stroke="black" fill="white"></rect>
    <text x="98" y="421" font-size="9" stroke="grey" fill="black" >2.4.1.114</text>
</g>
<g>
    <rect rxns="rxn03203" x="95" y="493" width="48" height="18" stroke="black" fill="white"></rect>
    <text x="98" y="506" font-size="9" stroke="grey" fill="black" >5.2.1.-</text>
</g>
<g>
    <rect rxns="rxn03402" x="95" y="583" width="48" height="18" stroke="black" fill="white"></rect>
    <text x="98" y="596" font-size="9" stroke="grey" fill="black" >3.2.1.21</text>
</g>
<g>
    <rect rxns="rxn01815" x="143" y="444" width="48" height="18" stroke="black" fill="white"></rect>
    <text x="146" y="457" font-size="9" stroke="grey" fill="black" >1.2.1.44</text>
</g>
<g>
    <rect rxns="rxn01181" x="304" y="473" width="48" height="18" stroke="black" fill="white"></rect>
    <text x="307" y="486" font-size="9" stroke="grey" fill="black" >1.2.1.44</text>
</g>
<g>
    <rect rxns="rxn01182" x="304" y="308" width="48" height="18" stroke="black" fill="white"></rect>
    <text x="307" y="321" font-size="9" stroke="grey" fill="black" >6.2.1.12</text>
</g>
<g>
    <rect rxns="rxn02118" x="348" y="288" width="48" height="18" stroke="black" fill="white"></rect>
    <text x="351" y="301" font-size="9" stroke="grey" fill="black" >4.1.1.-</text>
</g>
<g>
    <rect rxns="rxn01743" x="348" y="329" width="48" height="18" stroke="black" fill="white"></rect>
    <text x="351" y="342" font-size="9" stroke="grey" fill="black" >2.3.1.133</text>
</g>
<g>
    <rect rxns="rxn04433" x="434" y="509" width="48" height="18" stroke="black" fill="white"></rect>
    <text x="437" y="522" font-size="9" stroke="grey" fill="black" >1.14.13.-</text>
</g>
<g>
    <rect rxns="rxn05139" x="434" y="388" width="48" height="18" stroke="black" fill="white"></rect>
    <text x="437" y="401" font-size="9" stroke="grey" fill="black" >1.14.13.-</text>
</g>
<g>
    <rect rxns="rxn07617" x="434" y="244" width="48" height="18" stroke="black" fill="white"></rect>
    <text x="437" y="257" font-size="9" stroke="grey" fill="black" >1.14.13.-</text>
</g>
<g>
    <rect rxns="rxn03016" x="434" y="449" width="48" height="18" stroke="black" fill="white"></rect>
    <text x="437" y="462" font-size="9" stroke="grey" fill="black" >1.14.13.36</text>
</g>
<g>
    <rect rxns="rxn07118" x="434" y="329" width="48" height="18" stroke="black" fill="white"></rect>
    <text x="437" y="342" font-size="9" stroke="grey" fill="black" >1.14.13.36</text>
</g>
<g>
    <rect rxns="rxn01429" x="528" y="449" width="48" height="18" stroke="black" fill="white"></rect>
    <text x="531" y="462" font-size="9" stroke="grey" fill="black" >2.3.1.133</text>
</g>
<g>
    <rect rxns="rxn05137" x="528" y="329" width="48" height="18" stroke="black" fill="white"></rect>
    <text x="531" y="342" font-size="9" stroke="grey" fill="black" >2.3.1.133</text>
</g>
<g>
    <rect rxns="rxn01429" x="484" y="415" width="48" height="18" stroke="black" fill="white"></rect>
    <text x="487" y="428" font-size="9" stroke="grey" fill="black" >2.3.1.99</text>
</g>
<g>
    <rect rxns="rxn02415" x="622" y="287" width="48" height="18" stroke="black" fill="white"></rect>
    <text x="625" y="300" font-size="9" stroke="grey" fill="black" >4.1.1.-</text>
</g>
<g>
    <rect rxns="rxn01427" x="580" y="308" width="48" height="18" stroke="black" fill="white"></rect>
    <text x="583" y="321" font-size="9" stroke="grey" fill="black" >6.2.1.12</text>
</g>
<g>
    <rect rxns="rxn02414" x="649" y="244" width="48" height="18" stroke="black" fill="white"></rect>
    <text x="652" y="257" font-size="9" stroke="grey" fill="black" >2.1.1.68</text>
</g>
<g>
    <rect rxns="rxn02413" x="622" y="199" width="48" height="18" stroke="black" fill="white"></rect>
    <text x="625" y="212" font-size="9" stroke="grey" fill="black" >1.13.11.22</text>
</g>
<g>
    <rect rxns="rxn02568" x="847" y="199" width="48" height="18" stroke="black" fill="white"></rect>
    <text x="850" y="212" font-size="9" stroke="grey" fill="black" >2.4.1.128</text>
</g>
<g>
    <rect rxns="rxn02554" x="809" y="244" width="48" height="18" stroke="black" fill="white"></rect>
    <text x="812" y="257" font-size="9" stroke="grey" fill="black" >1.14.-.-</text>
</g>
<g>
    <rect rxns="rxn01712" x="926" y="241" width="48" height="18" stroke="black" fill="white"></rect>
    <text x="929" y="254" font-size="9" stroke="grey" fill="black" >2.1.1.68</text>
</g>
<g>
    <rect rxns="rxn03970,rxn03971" x="757" y="418" width="48" height="18" stroke="black" fill="white"></rect>
    <text x="760" y="431" font-size="9" stroke="grey" fill="black" >1.2.1.68</text>
</g>
<g>
    <rect rxns="rxn01570" x="720" y="444" width="48" height="18" stroke="black" fill="white"></rect>
    <text x="723" y="457" font-size="9" stroke="grey" fill="black" >1.2.1.44</text>
</g>
<g>
    <rect rxns="rxn05142,rxn05143" x="964" y="418" width="48" height="18" stroke="black" fill="white"></rect>
    <text x="967" y="431" font-size="9" stroke="grey" fill="black" >1.2.1.68</text>
</g>
<g>
    <rect rxns="rxn01589" x="1002" y="444" width="48" height="18" stroke="black" fill="white"></rect>
    <text x="1005" y="457" font-size="9" stroke="grey" fill="black" >1.2.1.44</text>
</g>
<g>
    <rect rxns="rxn04423" x="861" y="444" width="48" height="18" stroke="black" fill="white"></rect>
    <text x="864" y="457" font-size="9" stroke="grey" fill="black" >1.2.1.44</text>
</g>
<g>
    <rect rxns="rxn05136" x="348" y="449" width="48" height="18" stroke="black" fill="white"></rect>
    <text x="351" y="462" font-size="9" stroke="grey" fill="black" >2.3.1.133</text>
</g>
<g>
    <rect rxns="rxn02815" x="391" y="685" width="48" height="18" stroke="black" fill="white"></rect>
    <text x="394" y="698" font-size="9" stroke="grey" fill="black" >2.4.1.111</text>
</g>
<g>
    <rect rxns="rxn02816" x="343" y="633" width="48" height="18" stroke="black" fill="white"></rect>
    <text x="346" y="646" font-size="9" stroke="grey" fill="black" >3.2.1.126</text>
</g>
<g>
    <rect rxns="rxn06552" x="280" y="662" width="48" height="18" stroke="black" fill="white"></rect>
    <text x="283" y="675" font-size="9" stroke="grey" fill="black" >1.11.1.7</text>
</g>
<g>
    <rect rxns="rxn01887" x="720" y="548" width="48" height="18" stroke="black" fill="white"></rect>
    <text x="723" y="561" font-size="9" stroke="grey" fill="black" >1.1.1.195</text>
</g>
<g>
    <rect rxns="rxn02758" x="1002" y="548" width="48" height="18" stroke="black" fill="white"></rect>
    <text x="1005" y="561" font-size="9" stroke="grey" fill="black" >1.1.1.195</text>
</g>
<g>
    <rect rxns="rxn04424" x="861" y="548" width="48" height="18" stroke="black" fill="white"></rect>
    <text x="864" y="561" font-size="9" stroke="grey" fill="black" >1.1.1.195</text>
</g>
<g>
    <rect rxns="rxn02814" x="306" y="548" width="48" height="18" stroke="black" fill="white"></rect>
    <text x="309" y="561" font-size="9" stroke="grey" fill="black" >1.1.1.195</text>
</g>
<g>
    <rect rxns="rxn04425" x="579" y="548" width="48" height="18" stroke="black" fill="white"></rect>
    <text x="582" y="561" font-size="9" stroke="grey" fill="black" >1.1.1.195</text>
</g>
<g>
    <rect rxns="rxn02574" x="1038" y="633" width="48" height="18" stroke="black" fill="white"></rect>
    <text x="1041" y="646" font-size="9" stroke="grey" fill="black" >3.2.1.126</text>
</g>
<g>
    <rect rxns="rxn01889" x="757" y="633" width="48" height="18" stroke="black" fill="white"></rect>
    <text x="760" y="646" font-size="9" stroke="grey" fill="black" >3.2.1.126</text>
</g>
<g>
    <rect rxns="rxn06530" x="976" y="662" width="48" height="18" stroke="black" fill="white"></rect>
    <text x="979" y="675" font-size="9" stroke="grey" fill="black" >1.11.1.7</text>
</g>
<g>
    <rect rxns="rxn07276" x="834" y="662" width="48" height="18" stroke="black" fill="white"></rect>
    <text x="837" y="675" font-size="9" stroke="grey" fill="black" >1.11.1.7</text>
</g>
<g>
    <rect rxns="rxn06186" x="694" y="662" width="48" height="18" stroke="black" fill="white"></rect>
    <text x="697" y="675" font-size="9" stroke="grey" fill="black" >1.11.1.7</text>
</g>
<g>
    <rect rxns="rxn02575" x="1085" y="685" width="48" height="18" stroke="black" fill="white"></rect>
    <text x="1088" y="698" font-size="9" stroke="grey" fill="black" >2.4.1.111</text>
</g>
<g>
    <rect rxns="rxn01888" x="805" y="685" width="48" height="18" stroke="black" fill="white"></rect>
    <text x="808" y="698" font-size="9" stroke="grey" fill="black" >2.4.1.111</text>
</g>
<g>
    <rect rxns="rxn01714" x="1048" y="305" width="48" height="18" stroke="black" fill="white"></rect>
    <text x="1051" y="318" font-size="9" stroke="grey" fill="black" >3.1.1.49</text>
</g>
<g>
    <rect rxns="rxn01713" x="1042" y="244" width="48" height="18" stroke="black" fill="white"></rect>
    <text x="1045" y="257" font-size="9" stroke="grey" fill="black" >2.4.1.120</text>
</g>
<g>
    <rect rxns="rxn02382" x="1129" y="244" width="48" height="18" stroke="black" fill="white"></rect>
    <text x="1132" y="257" font-size="9" stroke="grey" fill="black" >2.3.1.92</text>
</g>
<g>
    <rect rxns="rxn02207" x="1090" y="269" width="48" height="18" stroke="black" fill="white"></rect>
    <text x="1093" y="282" font-size="9" stroke="grey" fill="black" >2.3.1.91</text>
</g>
<g>
    <rect rxns="rxn01590" x="1000" y="333" width="48" height="18" stroke="black" fill="white"></rect>
    <text x="1003" y="346" font-size="9" stroke="grey" fill="black" >6.2.1.12</text>
</g>
<g>
    <rect rxns="rxn04437" x="861" y="308" width="48" height="18" stroke="black" fill="white"></rect>
    <text x="864" y="321" font-size="9" stroke="grey" fill="black" >6.2.1.12</text>
</g>
<g>
    <rect rxns="rxn01571" x="720" y="308" width="48" height="18" stroke="black" fill="white"></rect>
    <text x="723" y="321" font-size="9" stroke="grey" fill="black" >6.2.1.12</text>
</g>
<g>
    <rect rxns="rxn01426" x="649" y="388" width="48" height="18" stroke="black" fill="white"></rect>
    <text x="652" y="401" font-size="9" stroke="grey" fill="black" >2.1.1.104</text>
</g>
<g>
    <rect rxns="rxn04429" x="649" y="593" width="48" height="18" stroke="black" fill="white"></rect>
    <text x="652" y="606" font-size="9" stroke="grey" fill="black" >2.1.1.68</text>
</g>
<g>
    <rect rxns="rxn04428" x="649" y="509" width="48" height="18" stroke="black" fill="white"></rect>
    <text x="652" y="522" font-size="9" stroke="grey" fill="black" >2.1.1.68</text>
</g>
<g>
    <rect rxns="rxn04427" x="811" y="591" width="48" height="18" stroke="black" fill="white"></rect>
    <text x="814" y="604" font-size="9" stroke="grey" fill="black" >1.14.-.-</text>
</g>
<g>
    <rect rxns="rxn04426" x="811" y="509" width="48" height="18" stroke="black" fill="white"></rect>
    <text x="814" y="522" font-size="9" stroke="grey" fill="black" >1.14.-.-</text>
</g>
<g>
    <rect rxns="rxn04431" x="926" y="595" width="48" height="18" stroke="black" fill="white"></rect>
    <text x="929" y="608" font-size="9" stroke="grey" fill="black" >2.1.1.68</text>
</g>
<g>
    <rect rxns="rxn04430" x="926" y="512" width="48" height="18" stroke="black" fill="white"></rect>
    <text x="929" y="525" font-size="9" stroke="grey" fill="black" >2.1.1.68</text>
</g>
<g>
    <rect rxns="rxn01425" x="578" y="475" width="48" height="18" stroke="black" fill="white"></rect>
    <text x="581" y="488" font-size="9" stroke="grey" fill="black" >1.2.1.44</text>
</g>
<g>
    <rect rxns="rxn04432" x="926" y="388" width="48" height="18" stroke="black" fill="white"></rect>
    <text x="929" y="401" font-size="9" stroke="grey" fill="black" >2.1.1.104</text>
</g>
<g>
    <rect rxns="rxn01611" x="209" y="244" width="48" height="18" stroke="black" fill="white"></rect>
    <text x="212" y="257" font-size="9" stroke="grey" fill="black" >1.14.13.11</text>
</g>
<g>
    <rect rxns="rxn14020" x="224" y="383" width="48" height="18" stroke="black" fill="white"></rect>
    <text x="227" y="396" font-size="9" stroke="grey" fill="black" >1.14.13.11</text>
</g>
<g>
    <rect rxns="R08984" x="434" y="142" width="48" height="18" stroke="black" fill="white"></rect>
    <text x="437" y="155" font-size="9" stroke="grey" fill="black" >1.14.13.-</text>
</g>
<g>
    <rect rxns="R08986" x="811" y="142" width="48" height="18" stroke="black" fill="white"></rect>
    <text x="814" y="155" font-size="9" stroke="grey" fill="black" >1.14.13.-</text>
</g>
<g>
    <rect rxns="R08987" x="926" y="142" width="48" height="18" stroke="black" fill="white"></rect>
    <text x="929" y="155" font-size="9" stroke="grey" fill="black" >2.1.1.-</text>
</g>
<g>
    <rect rxns="R08985" x="649" y="142" width="48" height="18" stroke="black" fill="white"></rect>
    <text x="652" y="155" font-size="9" stroke="grey" fill="black" >2.1.1.-</text>
</g>
<g>
    <rect rxns="rxn06530" x="1026" y="662" width="48" height="18" stroke="black" fill="white"></rect>
    <text x="1029" y="675" font-size="9" stroke="grey" fill="black" >1.11.1.21</text>
</g>
<g>
    <rect rxns="rxn06552" x="330" y="662" width="48" height="18" stroke="black" fill="white"></rect>
    <text x="333" y="675" font-size="9" stroke="grey" fill="black" >1.11.1.21</text>
</g>
<g>
    <rect rxns="rxn06186" x="744" y="662" width="48" height="18" stroke="black" fill="white"></rect>
    <text x="747" y="675" font-size="9" stroke="grey" fill="black" >1.11.1.21</text>
</g>
<g>
    <rect rxns="rxn07276" x="884" y="662" width="48" height="18" stroke="black" fill="white"></rect>
    <text x="887" y="675" font-size="9" stroke="grey" fill="black" >1.11.1.21</text>
</g>
</svg>