<svg>
<g>
    <rect rxns="rxn05233" x="467" y="482" width="48" height="18" stroke="black" fill="white"></rect>
    <text x="470" y="495" font-size="9" stroke="grey" fill="black" >1.17.4.1</text>
</g>
<g>
    <rect rxns="rxn01524" x="828" y="709" width="48" height="18" stroke="black" fill="white"></rect>
    <text x="831" y="722" font-size="9" stroke="grey" fill="black" >1.17.3.2</text>
</g>
<g>
    <rect rxns="rxn03842" x="1203" y="753" width="48" height="18" stroke="black" fill="white"></rect>
    <text x="1206" y="766" font-size="9" stroke="grey" fill="black" >3.5.3.-</text>
</g>
<g>
    <rect rxns="rxn01747" x="1100" y="755" width="48" height="18" stroke="black" fill="white"></rect>
    <text x="1103" y="768" font-size="9" stroke="grey" fill="black" >3.5.3.9</text>
</g>
<g>
    <rect rxns="rxn02102,rxn02103" x="1321" y="797" width="48" height="18" stroke="black" fill="white"></rect>
    <text x="1324" y="810" font-size="9" stroke="grey" fill="black" >1.1.1.154</text>
</g>
<g>
    <rect rxns="rxn02104" x="1412" y="797" width="48" height="18" stroke="black" fill="white"></rect>
    <text x="1415" y="810" font-size="9" stroke="grey" fill="black" >2.1.3.5</text>
</g>
<g>
    <rect rxns="rxn00770" x="170" y="179" width="48" height="18" stroke="black" fill="white"></rect>
    <text x="173" y="192" font-size="9" stroke="grey" fill="black" >2.7.6.1</text>
</g>
<g>
    <rect rxns="rxn00790" x="274" y="179" width="48" height="18" stroke="black" fill="white"></rect>
    <text x="277" y="192" font-size="9" stroke="grey" fill="black" >2.4.2.14</text>
</g>
<g>
    <rect rxns="rxn00774" x="223" y="238" width="48" height="18" stroke="black" fill="white"></rect>
    <text x="226" y="251" font-size="9" stroke="grey" fill="black" >6.3.4.7</text>
</g>
<g>
    <rect rxns="rxn02895" x="360" y="179" width="48" height="18" stroke="black" fill="white"></rect>
    <text x="363" y="192" font-size="9" stroke="grey" fill="black" >6.3.4.13</text>
</g>
<g>
    <rect rxns="rxn03004" x="446" y="179" width="48" height="18" stroke="black" fill="white"></rect>
    <text x="449" y="192" font-size="9" stroke="grey" fill="black" >2.1.2.2</text>
</g>
<g>
    <rect rxns="rxn02937" x="627" y="179" width="48" height="18" stroke="black" fill="white"></rect>
    <text x="630" y="192" font-size="9" stroke="grey" fill="black" >6.3.3.1</text>
</g>
<g>
    <rect rxns="rxn03137" x="934" y="204" width="48" height="18" stroke="black" fill="white"></rect>
    <text x="937" y="217" font-size="9" stroke="grey" fill="black" >2.1.2.3</text>
</g>
<g>
    <rect rxns="rxn03136" x="911" y="179" width="48" height="18" stroke="black" fill="white"></rect>
    <text x="914" y="192" font-size="9" stroke="grey" fill="black" >4.3.2.2</text>
</g>
<g>
    <rect rxns="rxn03147" x="816" y="179" width="48" height="18" stroke="black" fill="white"></rect>
    <text x="819" y="192" font-size="9" stroke="grey" fill="black" >6.3.2.6</text>
</g>
<g>
    <rect rxns="rxn02938" x="722" y="179" width="48" height="18" stroke="black" fill="white"></rect>
    <text x="725" y="192" font-size="9" stroke="grey" fill="black" >4.1.1.21</text>
</g>
<g>
    <rect rxns="rxn00832" x="984" y="277" width="48" height="18" stroke="black" fill="white"></rect>
    <text x="987" y="290" font-size="9" stroke="grey" fill="black" >3.5.4.10</text>
</g>
<g>
    <rect rxns="rxn05842" x="1474" y="354" width="48" height="18" stroke="black" fill="white"></rect>
    <text x="1477" y="367" font-size="9" stroke="grey" fill="black" >2.7.7.8</text>
</g>
<g>
    <rect rxns="rxn00140" x="1616" y="317" width="48" height="18" stroke="black" fill="white"></rect>
    <text x="1619" y="330" font-size="9" stroke="grey" fill="black" >3.1.4.17</text>
</g>
<g>
    <rect rxns="rxn00065" x="1659" y="437" width="48" height="18" stroke="black" fill="white"></rect>
    <text x="1662" y="450" font-size="9" stroke="grey" fill="black" >4.6.1.1</text>
</g>
<g>
    <rect rxns="rxn05840" x="1545" y="441" width="48" height="18" stroke="black" fill="white"></rect>
    <text x="1548" y="454" font-size="9" stroke="grey" fill="black" >2.7.7.48</text>
</g>
<g>
    <rect rxns="rxn05840" x="1545" y="462" width="48" height="18" stroke="black" fill="white"></rect>
    <text x="1548" y="475" font-size="9" stroke="grey" fill="black" >2.7.7.6</text>
</g>
<g>
    <rect rxns="rxn05232" x="1492" y="499" width="48" height="18" stroke="black" fill="white"></rect>
    <text x="1495" y="512" font-size="9" stroke="grey" fill="black" >1.17.4.2</text>
</g>
<g>
    <rect rxns="rxn05816" x="1545" y="531" width="48" height="18" stroke="black" fill="white"></rect>
    <text x="1548" y="544" font-size="9" stroke="grey" fill="black" >2.7.7.7</text>
</g>
<g>
    <rect rxns="rxn00062" x="1366" y="392" width="48" height="18" stroke="black" fill="white"></rect>
    <text x="1369" y="405" font-size="9" stroke="grey" fill="black" >3.6.1.5</text>
</g>
<g>
    <rect rxns="rxn00062" x="1414" y="392" width="48" height="18" stroke="black" fill="white"></rect>
    <text x="1417" y="405" font-size="9" stroke="grey" fill="black" >3.6.1.3</text>
</g>
<g>
    <rect rxns="rxn00062" x="1462" y="392" width="48" height="18" stroke="black" fill="white"></rect>
    <text x="1465" y="405" font-size="9" stroke="grey" fill="black" >3.6.4.1</text>
</g>
<g>
    <rect rxns="rxn14111" x="1414" y="442" width="48" height="18" stroke="black" fill="white"></rect>
    <text x="1417" y="455" font-size="9" stroke="grey" fill="black" >2.7.4.6</text>
</g>
<g>
    <rect rxns="rxn00839" x="1414" y="521" width="48" height="18" stroke="black" fill="white"></rect>
    <text x="1417" y="534" font-size="9" stroke="grey" fill="black" >2.7.4.6</text>
</g>
<g>
    <rect rxns="rxn05231" x="1333" y="499" width="48" height="18" stroke="black" fill="white"></rect>
    <text x="1336" y="512" font-size="9" stroke="grey" fill="black" >1.17.4.1</text>
</g>
<g>
    <rect rxns="rxn00092" x="1249" y="418" width="48" height="18" stroke="black" fill="white"></rect>
    <text x="1252" y="431" font-size="9" stroke="grey" fill="black" >3.6.1.5</text>
</g>
<g>
    <rect rxns="rxn00097" x="1283" y="453" width="48" height="18" stroke="black" fill="white"></rect>
    <text x="1286" y="466" font-size="9" stroke="grey" fill="black" >2.7.4.3</text>
</g>
<g>
    <rect rxns="rxn00800" x="1117" y="333" width="48" height="18" stroke="black" fill="white"></rect>
    <text x="1120" y="346" font-size="9" stroke="grey" fill="black" >4.3.2.2</text>
</g>
<g>
    <rect rxns="rxn00838" x="1010" y="333" width="48" height="18" stroke="black" fill="white"></rect>
    <text x="1013" y="346" font-size="9" stroke="grey" fill="black" >6.3.4.4</text>
</g>
<g>
    <rect rxns="rxn00130" x="1051" y="450" width="48" height="18" stroke="black" fill="white"></rect>
    <text x="1054" y="463" font-size="9" stroke="grey" fill="black" >3.5.4.6</text>
</g>
<g>
    <rect rxns="rxn00132" x="1168" y="511" width="48" height="18" stroke="black" fill="white"></rect>
    <text x="1171" y="524" font-size="9" stroke="grey" fill="black" >3.1.3.5</text>
</g>
<g>
    <rect rxns="rxn00134" x="1051" y="511" width="48" height="18" stroke="black" fill="white"></rect>
    <text x="1054" y="524" font-size="9" stroke="grey" fill="black" >2.7.1.20</text>
</g>
<g>
    <rect rxns="rxn00139" x="1249" y="543" width="48" height="18" stroke="black" fill="white"></rect>
    <text x="1252" y="556" font-size="9" stroke="grey" fill="black" >2.4.2.7</text>
</g>
<g>
    <rect rxns="rxn01127" x="1307" y="579" width="48" height="18" stroke="black" fill="white"></rect>
    <text x="1310" y="592" font-size="9" stroke="grey" fill="black" >2.7.4.11</text>
</g>
<g>
    <rect rxns="rxn01507" x="1394" y="607" width="48" height="18" stroke="black" fill="white"></rect>
    <text x="1397" y="620" font-size="9" stroke="grey" fill="black" >3.1.3.5</text>
</g>
<g>
    <rect rxns="rxn01858" x="1521" y="679" width="48" height="18" stroke="black" fill="white"></rect>
    <text x="1524" y="692" font-size="9" stroke="grey" fill="black" >3.5.4.4</text>
</g>
<g>
    <rect rxns="rxn01985" x="1169" y="706" width="48" height="18" stroke="black" fill="white"></rect>
    <text x="1172" y="719" font-size="9" stroke="grey" fill="black" >2.4.2.1</text>
</g>
<g>
    <rect rxns="rxn00131" x="1214" y="571" width="48" height="18" stroke="black" fill="white"></rect>
    <text x="1217" y="584" font-size="9" stroke="grey" fill="black" >3.2.2.4</text>
</g>
<g>
    <rect rxns="rxn01649" x="776" y="620" width="48" height="18" stroke="black" fill="white"></rect>
    <text x="779" y="633" font-size="9" stroke="grey" fill="black" >2.4.2.1</text>
</g>
<g>
    <rect rxns="rxn00835" x="1012" y="484" width="48" height="18" stroke="black" fill="white"></rect>
    <text x="1015" y="497" font-size="9" stroke="grey" fill="black" >2.7.1.73</text>
</g>
<g>
    <rect rxns="rxn00831" x="962" y="484" width="48" height="18" stroke="black" fill="white"></rect>
    <text x="965" y="497" font-size="9" stroke="grey" fill="black" >3.1.3.5</text>
</g>
<g>
    <rect rxns="rxn01137" x="1050" y="554" width="48" height="18" stroke="black" fill="white"></rect>
    <text x="1053" y="567" font-size="9" stroke="grey" fill="black" >3.5.4.4</text>
</g>
<g>
    <rect rxns="rxn01299" x="1000" y="588" width="48" height="18" stroke="black" fill="white"></rect>
    <text x="1003" y="601" font-size="9" stroke="grey" fill="black" >3.2.2.2</text>
</g>
<g>
    <rect rxns="rxn00927" x="1080" y="629" width="48" height="18" stroke="black" fill="white"></rect>
    <text x="1083" y="642" font-size="9" stroke="grey" fill="black" >3.2.2.1</text>
</g>
<g>
    <rect rxns="rxn00926" x="1054" y="664" width="48" height="18" stroke="black" fill="white"></rect>
    <text x="1057" y="677" font-size="9" stroke="grey" fill="black" >3.5.4.2</text>
</g>
<g>
    <rect rxns="rxn00706" x="881" y="360" width="48" height="18" stroke="black" fill="white"></rect>
    <text x="884" y="373" font-size="9" stroke="grey" fill="black" >3.6.1.5</text>
</g>
<g>
    <rect rxns="rxn00515" x="783" y="340" width="48" height="18" stroke="black" fill="white"></rect>
    <text x="786" y="353" font-size="9" stroke="grey" fill="black" >2.7.4.6</text>
</g>
<g>
    <rect rxns="rxn00513" x="783" y="359" width="48" height="18" stroke="black" fill="white"></rect>
    <text x="786" y="372" font-size="9" stroke="grey" fill="black" >3.6.1.5</text>
</g>
<g>
    <rect rxns="rxn00837" x="783" y="383" width="48" height="18" stroke="black" fill="white"></rect>
    <text x="786" y="396" font-size="9" stroke="grey" fill="black" >1.7.1.7</text>
</g>
<g>
    <rect rxns="rxn00834" x="880" y="448" width="48" height="18" stroke="black" fill="white"></rect>
    <text x="883" y="461" font-size="9" stroke="grey" fill="black" >1.1.1.205</text>
</g>
<g>
    <rect rxns="rxn00916" x="712" y="433" width="48" height="18" stroke="black" fill="white"></rect>
    <text x="715" y="446" font-size="9" stroke="grey" fill="black" >6.3.4.1</text>
</g>
<g>
    <rect rxns="rxn00916,rxn00917" x="712" y="454" width="48" height="18" stroke="black" fill="white"></rect>
    <text x="715" y="467" font-size="9" stroke="grey" fill="black" >6.3.5.2</text>
</g>
<g>
    <rect rxns="rxn00236" x="535" y="396" width="48" height="18" stroke="black" fill="white"></rect>
    <text x="538" y="409" font-size="9" stroke="grey" fill="black" >3.6.1.5</text>
</g>
<g>
    <rect rxns="rxn00236" x="535" y="417" width="48" height="18" stroke="black" fill="white"></rect>
    <text x="538" y="430" font-size="9" stroke="grey" fill="black" >3.6.1.6</text>
</g>
<g>
    <rect rxns="rxn00836" x="884" y="511" width="48" height="18" stroke="black" fill="white"></rect>
    <text x="887" y="524" font-size="9" stroke="grey" fill="black" >2.4.2.8</text>
</g>
<g>
    <rect rxns="rxn00833" x="934" y="511" width="48" height="18" stroke="black" fill="white"></rect>
    <text x="937" y="524" font-size="9" stroke="grey" fill="black" >3.2.2.12</text>
</g>
<g>
    <rect rxns="rxn01138" x="1169" y="597" width="48" height="18" stroke="black" fill="white"></rect>
    <text x="1172" y="610" font-size="9" stroke="grey" fill="black" >2.4.2.1</text>
</g>
<g>
    <rect rxns="rxn01298" x="881" y="651" width="48" height="18" stroke="black" fill="white"></rect>
    <text x="884" y="664" font-size="9" stroke="grey" fill="black" >1.17.3.2</text>
</g>
<g>
    <rect rxns="rxn00913" x="627" y="501" width="48" height="18" stroke="black" fill="white"></rect>
    <text x="630" y="514" font-size="9" stroke="grey" fill="black" >3.1.3.5</text>
</g>
<g>
    <rect rxns="rxn01358" x="937" y="629" width="48" height="18" stroke="black" fill="white"></rect>
    <text x="940" y="642" font-size="9" stroke="grey" fill="black" >2.4.2.1</text>
</g>
<g>
    <rect rxns="rxn01299" x="1026" y="607" width="48" height="18" stroke="black" fill="white"></rect>
    <text x="1029" y="620" font-size="9" stroke="grey" fill="black" >3.2.2.1</text>
</g>
<g>
    <rect rxns="rxn01544" x="828" y="589" width="48" height="18" stroke="black" fill="white"></rect>
    <text x="831" y="602" font-size="9" stroke="grey" fill="black" >2.4.2.8</text>
</g>
<g>
    <rect rxns="rxn00914" x="593" y="476" width="48" height="18" stroke="black" fill="white"></rect>
    <text x="596" y="489" font-size="9" stroke="grey" fill="black" >2.7.1.73</text>
</g>
<g>
    <rect rxns="rxn01961" x="801" y="501" width="48" height="18" stroke="black" fill="white"></rect>
    <text x="804" y="514" font-size="9" stroke="grey" fill="black" >3.1.3.5</text>
</g>
<g>
    <rect rxns="rxn00915" x="541" y="633" width="48" height="18" stroke="black" fill="white"></rect>
    <text x="544" y="646" font-size="9" stroke="grey" fill="black" >2.4.2.8</text>
</g>
<g>
    <rect rxns="rxn00239" x="535" y="440" width="48" height="18" stroke="black" fill="white"></rect>
    <text x="538" y="453" font-size="9" stroke="grey" fill="black" >2.7.4.8</text>
</g>
<g>
    <rect rxns="rxn01446" x="467" y="662" width="48" height="18" stroke="black" fill="white"></rect>
    <text x="470" y="675" font-size="9" stroke="grey" fill="black" >2.4.2.1</text>
</g>
<g>
    <rect rxns="rxn01225" x="718" y="660" width="48" height="18" stroke="black" fill="white"></rect>
    <text x="721" y="673" font-size="9" stroke="grey" fill="black" >3.5.4.3</text>
</g>
<g>
    <rect rxns="rxn00562" x="1245" y="828" width="48" height="18" stroke="black" fill="white"></rect>
    <text x="1248" y="841" font-size="9" stroke="grey" fill="black" >4.3.2.3</text>
</g>
<g>
    <rect rxns="rxn01746" x="1124" y="799" width="48" height="18" stroke="black" fill="white"></rect>
    <text x="1127" y="812" font-size="9" stroke="grey" fill="black" >3.5.3.4</text>
</g>
<g>
    <rect rxns="rxn01748" x="1018" y="799" width="48" height="18" stroke="black" fill="white"></rect>
    <text x="1021" y="812" font-size="9" stroke="grey" fill="black" >3.5.2.5</text>
</g>
<g>
    <rect rxns="rxn01523" x="803" y="764" width="48" height="18" stroke="black" fill="white"></rect>
    <text x="806" y="777" font-size="9" stroke="grey" fill="black" >1.7.3.3</text>
</g>
<g>
    <rect rxns="rxn06205" x="750" y="742" width="48" height="18" stroke="black" fill="white"></rect>
    <text x="753" y="755" font-size="9" stroke="grey" fill="black" >2.4.2.16</text>
</g>
<g>
    <rect rxns="rxn00101" x="1165" y="871" width="48" height="18" stroke="black" fill="white"></rect>
    <text x="1168" y="884" font-size="9" stroke="grey" fill="black" >3.5.1.5</text>
</g>
<g>
    <rect rxns="rxn02761" x="968" y="837" width="48" height="18" stroke="black" fill="white"></rect>
    <text x="971" y="850" font-size="9" stroke="grey" fill="black" >5.1.99.3</text>
</g>
<g>
    <rect rxns="rxn01184" x="1428" y="202" width="48" height="18" stroke="black" fill="white"></rect>
    <text x="1431" y="215" font-size="9" stroke="grey" fill="black" >2.7.7.53</text>
</g>
<g>
    <rect rxns="rxn00327" x="1286" y="853" width="48" height="18" stroke="black" fill="white"></rect>
    <text x="1289" y="866" font-size="9" stroke="grey" fill="black" >3.5.3.19</text>
</g>
<g>
    <rect rxns="rxn04453" x="841" y="798" width="48" height="18" stroke="black" fill="white"></rect>
    <text x="844" y="811" font-size="9" stroke="grey" fill="black" >3.5.2.17</text>
</g>
<g>
    <rect rxns="rxn00242" x="407" y="325" width="48" height="18" stroke="black" fill="white"></rect>
    <text x="410" y="338" font-size="9" stroke="grey" fill="black" >3.1.7.2</text>
</g>
<g>
    <rect rxns="rxn02449" x="268" y="314" width="48" height="18" stroke="black" fill="white"></rect>
    <text x="271" y="327" font-size="9" stroke="grey" fill="black" >3.6.1.11</text>
</g>
<g>
    <rect rxns="rxn02449" x="268" y="335" width="48" height="18" stroke="black" fill="white"></rect>
    <text x="271" y="348" font-size="9" stroke="grey" fill="black" >3.6.1.40</text>
</g>
<g>
    <rect rxns="rxn05844" x="407" y="371" width="48" height="18" stroke="black" fill="white"></rect>
    <text x="410" y="384" font-size="9" stroke="grey" fill="black" >2.7.7.8</text>
</g>
<g>
    <rect rxns="rxn00241" x="405" y="440" width="48" height="18" stroke="black" fill="white"></rect>
    <text x="408" y="453" font-size="9" stroke="grey" fill="black" >3.6.1.5</text>
</g>
<g>
    <rect rxns="rxn00237" x="406" y="396" width="48" height="18" stroke="black" fill="white"></rect>
    <text x="409" y="409" font-size="9" stroke="grey" fill="black" >2.7.4.6</text>
</g>
<g>
    <rect rxns="rxn01509" x="468" y="561" width="48" height="18" stroke="black" fill="white"></rect>
    <text x="471" y="574" font-size="9" stroke="grey" fill="black" >2.7.4.8</text>
</g>
<g>
    <rect rxns="rxn01353" x="407" y="524" width="48" height="18" stroke="black" fill="white"></rect>
    <text x="410" y="537" font-size="9" stroke="grey" fill="black" >2.7.4.6</text>
</g>
<g>
    <rect rxns="rxn05234" x="338" y="482" width="48" height="18" stroke="black" fill="white"></rect>
    <text x="341" y="495" font-size="9" stroke="grey" fill="black" >1.17.4.2</text>
</g>
<g>
    <rect rxns="rxn01445" x="406" y="604" width="48" height="18" stroke="black" fill="white"></rect>
    <text x="409" y="617" font-size="9" stroke="grey" fill="black" >3.1.3.5</text>
</g>
<g>
    <rect rxns="rxn01548" x="601" y="589" width="48" height="18" stroke="black" fill="white"></rect>
    <text x="604" y="602" font-size="9" stroke="grey" fill="black" >2.4.2.1</text>
</g>
<g>
    <rect rxns="rxn05846" x="268" y="409" width="48" height="18" stroke="black" fill="white"></rect>
    <text x="271" y="422" font-size="9" stroke="grey" fill="black" >2.7.7.6</text>
</g>
<g>
    <rect rxns="rxn00303" x="194" y="388" width="48" height="18" stroke="black" fill="white"></rect>
    <text x="197" y="401" font-size="9" stroke="grey" fill="black" >2.7.6.5</text>
</g>
<g>
    <rect rxns="rxn00307" x="166" y="410" width="48" height="18" stroke="black" fill="white"></rect>
    <text x="169" y="423" font-size="9" stroke="grey" fill="black" >4.6.1.2</text>
</g>
<g>
    <rect rxns="rxn05817" x="283" y="533" width="48" height="18" stroke="black" fill="white"></rect>
    <text x="286" y="546" font-size="9" stroke="grey" fill="black" >2.7.7.7</text>
</g>
<g>
    <rect rxns="rxn00920" x="268" y="277" width="48" height="18" stroke="black" fill="white"></rect>
    <text x="271" y="290" font-size="9" stroke="grey" fill="black" >3.1.4.17...</text>
</g>
<g>
    <rect rxns="rxn03234" x="366" y="766" width="48" height="18" stroke="black" fill="white"></rect>
    <text x="369" y="779" font-size="9" stroke="grey" fill="black" >3.5.4.8</text>
</g>
<g>
    <rect rxns="rxn01968" x="184" y="766" width="48" height="18" stroke="black" fill="white"></rect>
    <text x="187" y="779" font-size="9" stroke="grey" fill="black" >2.1.2.4</text>
</g>
<g>
    <rect rxns="rxn00095" x="1381" y="240" width="48" height="18" stroke="black" fill="white"></rect>
    <text x="1384" y="253" font-size="9" stroke="grey" fill="black" >3.6.1.41</text>
</g>
<g>
    <rect rxns="rxn00379" x="1516" y="202" width="48" height="18" stroke="black" fill="white"></rect>
    <text x="1519" y="215" font-size="9" stroke="grey" fill="black" >2.7.7.4</text>
</g>
<g>
    <rect rxns="rxn00361" x="1468" y="240" width="48" height="18" stroke="black" fill="white"></rect>
    <text x="1471" y="253" font-size="9" stroke="grey" fill="black" >2.7.1.25</text>
</g>
<g>
    <rect rxns="rxn00359" x="1511" y="284" width="48" height="18" stroke="black" fill="white"></rect>
    <text x="1514" y="297" font-size="9" stroke="grey" fill="black" >3.6.1.9</text>
</g>
<g>
    <rect rxns="rxn01297" x="881" y="672" width="48" height="18" stroke="black" fill="white"></rect>
    <text x="884" y="685" font-size="9" stroke="grey" fill="black" >1.17.1.4</text>
</g>
<g>
    <rect rxns="rxn01522" x="778" y="709" width="48" height="18" stroke="black" fill="white"></rect>
    <text x="781" y="722" font-size="9" stroke="grey" fill="black" >1.17.1.4</text>
</g>
<g>
    <rect rxns="rxn03084" x="535" y="179" width="48" height="18" stroke="black" fill="white"></rect>
    <text x="538" y="192" font-size="9" stroke="grey" fill="black" >6.3.5.3</text>
</g>
<g>
    <rect rxns="rxn00514" x="837" y="308" width="48" height="18" stroke="black" fill="white"></rect>
    <text x="840" y="321" font-size="9" stroke="grey" fill="black" >3.6.1.8</text>
</g>
<g>
    <rect rxns="rxn00514" x="837" y="287" width="48" height="18" stroke="black" fill="white"></rect>
    <text x="840" y="300" font-size="9" stroke="grey" fill="black" >3.6.1.19</text>
</g>
<g>
    <rect rxns="rxn00516" x="682" y="348" width="48" height="18" stroke="black" fill="white"></rect>
    <text x="685" y="361" font-size="9" stroke="grey" fill="black" >3.6.1.14</text>
</g>
<g>
    <rect rxns="rxn00301" x="535" y="363" width="48" height="18" stroke="black" fill="white"></rect>
    <text x="538" y="376" font-size="9" stroke="grey" fill="black" >3.6.1.8</text>
</g>
<g>
    <rect rxns="rxn00301" x="535" y="342" width="48" height="18" stroke="black" fill="white"></rect>
    <text x="538" y="355" font-size="9" stroke="grey" fill="black" >3.6.1.19</text>
</g>
<g>
    <rect rxns="rxn01962" x="757" y="476" width="48" height="18" stroke="black" fill="white"></rect>
    <text x="760" y="489" font-size="9" stroke="grey" fill="black" >3.6.1.19</text>
</g>
<g>
    <rect rxns="rxn01544" x="878" y="589" width="48" height="18" stroke="black" fill="white"></rect>
    <text x="881" y="602" font-size="9" stroke="grey" fill="black" >2.4.2.22</text>
</g>
<g>
    <rect rxns="rxn01358" x="987" y="629" width="48" height="18" stroke="black" fill="white"></rect>
    <text x="990" y="642" font-size="9" stroke="grey" fill="black" >2.4.2.15</text>
</g>
<g>
    <rect rxns="rxn00927" x="1130" y="629" width="48" height="18" stroke="black" fill="white"></rect>
    <text x="1133" y="642" font-size="9" stroke="grey" fill="black" >3.2.2.7</text>
</g>
<g>
    <rect rxns="rxn01139" x="1131" y="484" width="48" height="18" stroke="black" fill="white"></rect>
    <text x="1134" y="497" font-size="9" stroke="grey" fill="black" >3.1.3.6</text>
</g>
<g>
    <rect rxns="rxn01549" x="510" y="685" width="48" height="18" stroke="black" fill="white"></rect>
    <text x="513" y="698" font-size="9" stroke="grey" fill="black" >3.1.3.6</text>
</g>
<g>
    <rect rxns="rxn03483" x="366" y="699" width="48" height="18" stroke="black" fill="white"></rect>
    <text x="369" y="712" font-size="9" stroke="grey" fill="black" >3.1.4.16</text>
</g>
<g>
    <rect rxns="rxn00133" x="1317" y="201" width="48" height="18" stroke="black" fill="white"></rect>
    <text x="1320" y="214" font-size="9" stroke="grey" fill="black" >3.6.1.17</text>
</g>
<g>
    <rect rxns="rxn00918" x="268" y="476" width="48" height="18" stroke="black" fill="white"></rect>
    <text x="271" y="489" font-size="9" stroke="grey" fill="black" >3.6.1.17</text>
</g>
<g>
    <rect rxns="rxn01352" x="338" y="586" width="48" height="18" stroke="black" fill="white"></rect>
    <text x="341" y="599" font-size="9" stroke="grey" fill="black" >3.1.5.1</text>
</g>
<g>
    <rect rxns="rxn01444" x="406" y="625" width="48" height="18" stroke="black" fill="white"></rect>
    <text x="409" y="638" font-size="9" stroke="grey" fill="black" >2.7.1.113</text>
</g>
<g>
    <rect rxns="rxn01351" x="405" y="574" width="48" height="18" stroke="black" fill="white"></rect>
    <text x="408" y="587" font-size="9" stroke="grey" fill="black" >3.6.1.19</text>
</g>
<g>
    <rect rxns="rxn02020" x="712" y="501" width="48" height="18" stroke="black" fill="white"></rect>
    <text x="715" y="514" font-size="9" stroke="grey" fill="black" >3.6.1.17</text>
</g>
<g>
    <rect rxns="rxn02521" x="1131" y="396" width="48" height="18" stroke="black" fill="white"></rect>
    <text x="1134" y="409" font-size="9" stroke="grey" fill="black" >3.1.4.16</text>
</g>
<g>
    <rect rxns="rxn00063" x="1216" y="360" width="48" height="18" stroke="black" fill="white"></rect>
    <text x="1219" y="373" font-size="9" stroke="grey" fill="black" >3.6.1.8</text>
</g>
<g>
    <rect rxns="rxn00062" x="1390" y="413" width="48" height="18" stroke="black" fill="white"></rect>
    <text x="1393" y="426" font-size="9" stroke="grey" fill="black" >3.6.1.8</text>
</g>
<g>
    <rect rxns="rxn00778" x="89" y="169" width="48" height="18" stroke="black" fill="white"></rect>
    <text x="92" y="182" font-size="9" stroke="grey" fill="black" >5.4.2.7</text>
</g>
<g>
    <rect rxns="rxn14038" x="89" y="244" width="48" height="18" stroke="black" fill="white"></rect>
    <text x="92" y="257" font-size="9" stroke="grey" fill="black" >3.6.1.13</text>
</g>
<g>
    <rect rxns="R01885" x="44" y="219" width="48" height="18" stroke="black" fill="white"></rect>
    <text x="47" y="232" font-size="9" stroke="grey" fill="black" >3.6.1.21</text>
</g>
<g>
    <rect rxns="rxn01508" x="1447" y="621" width="48" height="18" stroke="black" fill="white"></rect>
    <text x="1450" y="634" font-size="9" stroke="grey" fill="black" >2.7.1.76</text>
</g>
<g>
    <rect rxns="rxn00915" x="591" y="633" width="48" height="18" stroke="black" fill="white"></rect>
    <text x="594" y="646" font-size="9" stroke="grey" fill="black" >2.4.2.22</text>
</g>
<g>
    <rect rxns="rxn01859" x="1333" y="666" width="48" height="18" stroke="black" fill="white"></rect>
    <text x="1336" y="679" font-size="9" stroke="grey" fill="black" >2.4.2.1</text>
</g>
<g>
    <rect rxns="rxn01127" x="1357" y="579" width="48" height="18" stroke="black" fill="white"></rect>
    <text x="1360" y="592" font-size="9" stroke="grey" fill="black" >2.7.4.3</text>
</g>
<g>
    <rect rxns="rxn00098" x="1545" y="401" width="48" height="18" stroke="black" fill="white"></rect>
    <text x="1548" y="414" font-size="9" stroke="grey" fill="black" >3.6.1.14</text>
</g>
<g>
    <rect rxns="rxn01543" x="583" y="722" width="48" height="18" stroke="black" fill="white"></rect>
    <text x="586" y="735" font-size="9" stroke="grey" fill="black" >3.5.2.-</text>
</g>
<g>
    <rect rxns="rxn03323" x="544" y="766" width="48" height="18" stroke="black" fill="white"></rect>
    <text x="547" y="779" font-size="9" stroke="grey" fill="black" >3.5.3.-</text>
</g>
<g>
    <rect rxns="rxn03235" x="454" y="766" width="48" height="18" stroke="black" fill="white"></rect>
    <text x="457" y="779" font-size="9" stroke="grey" fill="black" >4.1.1.-</text>
</g>
<g>
    <rect rxns="rxn02827" x="274" y="766" width="48" height="18" stroke="black" fill="white"></rect>
    <text x="277" y="779" font-size="9" stroke="grey" fill="black" >3.5.2.-</text>
</g>
<g>
    <rect rxns="rxn01226" x="662" y="631" width="48" height="18" stroke="black" fill="white"></rect>
    <text x="665" y="644" font-size="9" stroke="grey" fill="black" >3.2.2.1</text>
</g>
<g>
    <rect rxns="rxn01548" x="651" y="589" width="48" height="18" stroke="black" fill="white"></rect>
    <text x="654" y="602" font-size="9" stroke="grey" fill="black" >2.4.2.15</text>
</g>
<g>
    <rect rxns="rxn02517" x="447" y="253" width="48" height="18" stroke="black" fill="white"></rect>
    <text x="450" y="266" font-size="9" stroke="grey" fill="black" >2.7.4.6</text>
</g>
<g>
    <rect rxns="rxn02518" x="535" y="253" width="48" height="18" stroke="black" fill="white"></rect>
    <text x="538" y="266" font-size="9" stroke="grey" fill="black" >3.6.1.19</text>
</g>
<g>
    <rect rxns="rxn00096" x="1333" y="240" width="48" height="18" stroke="black" fill="white"></rect>
    <text x="1336" y="253" font-size="9" stroke="grey" fill="black" >2.7.7.53</text>
</g>
<g>
    <rect rxns="rxn00136" x="1320" y="285" width="48" height="18" stroke="black" fill="white"></rect>
    <text x="1323" y="298" font-size="9" stroke="grey" fill="black" >3.6.1.29</text>
</g>
<g>
    <rect rxns="rxn00307" x="116" y="410" width="48" height="18" stroke="black" fill="white"></rect>
    <text x="119" y="423" font-size="9" stroke="grey" fill="black" >4.6.1.1</text>
</g>
<g>
    <rect rxns="rxn00304" x="406" y="417" width="48" height="18" stroke="black" fill="white"></rect>
    <text x="409" y="430" font-size="9" stroke="grey" fill="black" >2.7.1.40</text>
</g>
<g>
    <rect rxns="rxn01354" x="407" y="543" width="48" height="18" stroke="black" fill="white"></rect>
    <text x="410" y="556" font-size="9" stroke="grey" fill="black" >2.7.1.40</text>
</g>
<g>
    <rect rxns="rxn00915" x="566" y="614" width="48" height="18" stroke="black" fill="white"></rect>
    <text x="569" y="627" font-size="9" stroke="grey" fill="black" >2.4.2.7</text>
</g>
<g>
    <rect rxns="rxn01226" x="712" y="631" width="48" height="18" stroke="black" fill="white"></rect>
    <text x="715" y="644" font-size="9" stroke="grey" fill="black" >3.2.2.8</text>
</g>
<g>
    <rect rxns="rxn03039" x="1012" y="179" width="48" height="18" stroke="black" fill="white"></rect>
    <text x="1015" y="192" font-size="9" stroke="grey" fill="black" >2.4.2.7</text>
</g>
<g>
    <rect rxns="rxn00706" x="881" y="339" width="48" height="18" stroke="black" fill="white"></rect>
    <text x="884" y="352" font-size="9" stroke="grey" fill="black" >3.6.1.6</text>
</g>
<g>
    <rect rxns="rxn01238" x="880" y="414" width="48" height="18" stroke="black" fill="white"></rect>
    <text x="883" y="427" font-size="9" stroke="grey" fill="black" >3.6.1.20</text>
</g>
<g>
    <rect rxns="rxn00232" x="1130" y="244" width="48" height="18" stroke="black" fill="white"></rect>
    <text x="1133" y="257" font-size="9" stroke="grey" fill="black" >3.6.1.20</text>
</g>
<g>
    <rect rxns="rxn01036" x="1130" y="287" width="48" height="18" stroke="black" fill="white"></rect>
    <text x="1133" y="300" font-size="9" stroke="grey" fill="black" >3.6.1.20</text>
</g>
<g>
    <rect rxns="rxn01299" x="1050" y="588" width="48" height="18" stroke="black" fill="white"></rect>
    <text x="1053" y="601" font-size="9" stroke="grey" fill="black" >3.2.2.8</text>
</g>
<g>
    <rect rxns="rxn00927" x="1105" y="610" width="48" height="18" stroke="black" fill="white"></rect>
    <text x="1108" y="623" font-size="9" stroke="grey" fill="black" >3.2.2.8</text>
</g>
<g>
    <rect rxns="rxn00134" x="1101" y="511" width="48" height="18" stroke="black" fill="white"></rect>
    <text x="1104" y="524" font-size="9" stroke="grey" fill="black" >2.7.1.74</text>
</g>
<g>
    <rect rxns="rxn00840" x="1414" y="542" width="48" height="18" stroke="black" fill="white"></rect>
    <text x="1417" y="555" font-size="9" stroke="grey" fill="black" >2.7.1.40</text>
</g>
<g>
    <rect rxns="rxn00148" x="1414" y="463" width="48" height="18" stroke="black" fill="white"></rect>
    <text x="1417" y="476" font-size="9" stroke="grey" fill="black" >2.7.1.40</text>
</g>
<g>
    <rect rxns="rxn00062" x="1438" y="413" width="48" height="18" stroke="black" fill="white"></rect>
    <text x="1441" y="426" font-size="9" stroke="grey" fill="black" >3.6.1.15</text>
</g>
<g>
    <rect rxns="rxn04784" x="984" y="204" width="48" height="18" stroke="black" fill="white"></rect>
    <text x="987" y="217" font-size="9" stroke="grey" fill="black" >6.3.4.-</text>
</g>
<g>
    <rect rxns="rxn00832" x="934" y="277" width="48" height="18" stroke="black" fill="white"></rect>
    <text x="937" y="290" font-size="9" stroke="grey" fill="black" >2.1.2.3</text>
</g>
<g>
    <rect rxns="rxn01545" x="738" y="590" width="48" height="18" stroke="black" fill="white"></rect>
    <text x="741" y="603" font-size="9" stroke="grey" fill="black" >3.2.2.1</text>
</g>
<g>
    <rect rxns="rxn00114" x="1509" y="797" width="48" height="18" stroke="black" fill="white"></rect>
    <text x="1512" y="810" font-size="9" stroke="grey" fill="black" >2.7.2.2</text>
</g>
<g>
    <rect rxns="rxn01649" x="826" y="620" width="48" height="18" stroke="black" fill="white"></rect>
    <text x="829" y="633" font-size="9" stroke="grey" fill="black" >2.4.2.-</text>
</g>
<g>
    <rect rxns="rxn14038" x="89" y="265" width="48" height="18" stroke="black" fill="white"></rect>
    <text x="92" y="278" font-size="9" stroke="grey" fill="black" >3.6.1.-</text>
</g>
<g>
    <rect rxns="rxn05114" x="673" y="212" width="48" height="18" stroke="black" fill="white"></rect>
    <text x="676" y="225" font-size="9" stroke="grey" fill="black" >6.3.4.18</text>
</g>
<g>
    <rect rxns="rxn05115" x="768" y="212" width="48" height="18" stroke="black" fill="white"></rect>
    <text x="771" y="225" font-size="9" stroke="grey" fill="black" >5.4.99.18</text>
</g>
<g>
    <rect rxns="rxn04456" x="923" y="799" width="48" height="18" stroke="black" fill="white"></rect>
    <text x="926" y="812" font-size="9" stroke="grey" fill="black" >4.1.1.-</text>
</g>
<g>
    <rect rxns="rxn00140" x="1616" y="338" width="48" height="18" stroke="black" fill="white"></rect>
    <text x="1619" y="351" font-size="9" stroke="grey" fill="black" >3.1.4.53</text>
</g>
<g>
    <rect rxns="rxn00778" x="89" y="190" width="48" height="18" stroke="black" fill="white"></rect>
    <text x="92" y="203" font-size="9" stroke="grey" fill="black" >5.4.2.2</text>
</g>
</svg>