<svg>
<g>
    <rect rxns="rxn00100" x="684" y="576" width="48" height="18" stroke="black" fill="white"></rect>
    <text x="687" y="589" font-size="9" stroke="grey" fill="black" >2.7.1.24</text>
</g>
<g>
    <rect rxns="rxn06023" x="748" y="526" width="48" height="18" stroke="black" fill="white"></rect>
    <text x="751" y="539" font-size="9" stroke="grey" fill="black" >2.7.8.7</text>
</g>
<g>
    <rect rxns="rxn02176" x="623" y="526" width="48" height="18" stroke="black" fill="white"></rect>
    <text x="626" y="539" font-size="9" stroke="grey" fill="black" >3.6.1.9</text>
</g>
<g>
    <rect rxns="rxn06022" x="702" y="468" width="48" height="18" stroke="black" fill="white"></rect>
    <text x="705" y="481" font-size="9" stroke="grey" fill="black" >3.1.4.14</text>
</g>
<g>
    <rect rxns="rxn02128" x="538" y="457" width="48" height="18" stroke="black" fill="white"></rect>
    <text x="541" y="470" font-size="9" stroke="grey" fill="black" >2.7.1.33</text>
</g>
<g>
    <rect rxns="rxn02341" x="599" y="431" width="48" height="18" stroke="black" fill="white"></rect>
    <text x="602" y="444" font-size="9" stroke="grey" fill="black" >4.1.1.36</text>
</g>
<g>
    <rect rxns="rxn02129" x="480" y="430" width="48" height="18" stroke="black" fill="white"></rect>
    <text x="483" y="443" font-size="9" stroke="grey" fill="black" >4.1.1.30</text>
</g>
<g>
    <rect rxns="rxn03047" x="537" y="403" width="48" height="18" stroke="black" fill="white"></rect>
    <text x="540" y="416" font-size="9" stroke="grey" fill="black" >2.7.1.33</text>
</g>
<g>
    <rect rxns="rxn12512,rxn09177" x="599" y="365" width="48" height="18" stroke="black" fill="white"></rect>
    <text x="602" y="378" font-size="9" stroke="grey" fill="black" >6.3.2.5</text>
</g>
<g>
    <rect rxns="rxn12510" x="496" y="330" width="48" height="18" stroke="black" fill="white"></rect>
    <text x="499" y="343" font-size="9" stroke="grey" fill="black" >2.7.1.33</text>
</g>
<g>
    <rect rxns="rxn00654" x="250" y="489" width="48" height="18" stroke="black" fill="white"></rect>
    <text x="253" y="502" font-size="9" stroke="grey" fill="black" >3.5.1.6</text>
</g>
<g>
    <rect rxns="rxn01626" x="163" y="488" width="48" height="18" stroke="black" fill="white"></rect>
    <text x="166" y="501" font-size="9" stroke="grey" fill="black" >3.5.2.2</text>
</g>
<g>
    <rect rxns="rxn00720" x="77" y="499" width="48" height="18" stroke="black" fill="white"></rect>
    <text x="80" y="512" font-size="9" stroke="grey" fill="black" >1.3.1.2</text>
</g>
<g>
    <rect rxns="rxn00719" x="77" y="478" width="48" height="18" stroke="black" fill="white"></rect>
    <text x="80" y="491" font-size="9" stroke="grey" fill="black" >1.3.1.1</text>
</g>
<g>
    <rect rxns="rxn01791" x="359" y="319" width="48" height="18" stroke="black" fill="white"></rect>
    <text x="362" y="332" font-size="9" stroke="grey" fill="black" >6.3.2.1</text>
</g>
<g>
    <rect rxns="rxn01790" x="275" y="232" width="48" height="18" stroke="black" fill="white"></rect>
    <text x="278" y="245" font-size="9" stroke="grey" fill="black" >1.1.1.169</text>
</g>
<g>
    <rect rxns="rxn00912" x="369" y="187" width="48" height="18" stroke="black" fill="white"></rect>
    <text x="372" y="200" font-size="9" stroke="grey" fill="black" >2.1.2.11</text>
</g>
<g>
    <rect rxns="rxn00903" x="549" y="176" width="48" height="18" stroke="black" fill="white"></rect>
    <text x="552" y="189" font-size="9" stroke="grey" fill="black" >2.6.1.6</text>
</g>
<g>
    <rect rxns="rxn00898" x="456" y="150" width="48" height="18" stroke="black" fill="white"></rect>
    <text x="459" y="163" font-size="9" stroke="grey" fill="black" >4.2.1.9</text>
</g>
<g>
    <rect rxns="rxn02186" x="362" y="121" width="48" height="18" stroke="black" fill="white"></rect>
    <text x="365" y="134" font-size="9" stroke="grey" fill="black" >1.1.1.86</text>
</g>
<g>
    <rect rxns="rxn00003" x="209" y="121" width="48" height="18" stroke="black" fill="white"></rect>
    <text x="212" y="134" font-size="9" stroke="grey" fill="black" >2.2.1.6</text>
</g>
<g>
    <rect rxns="rxn01792" x="359" y="340" width="48" height="18" stroke="black" fill="white"></rect>
    <text x="362" y="353" font-size="9" stroke="grey" fill="black" >3.5.1.22</text>
</g>
<g>
    <rect rxns="rxn02130" x="422" y="418" width="48" height="18" stroke="black" fill="white"></rect>
    <text x="425" y="431" font-size="9" stroke="grey" fill="black" >3.5.1.92</text>
</g>
<g>
    <rect rxns="rxn00903" x="549" y="197" width="48" height="18" stroke="black" fill="white"></rect>
    <text x="552" y="210" font-size="9" stroke="grey" fill="black" >2.6.1.42</text>
</g>
<g>
    <rect rxns="rxn02128" x="538" y="478" width="48" height="18" stroke="black" fill="white"></rect>
    <text x="541" y="491" font-size="9" stroke="grey" fill="black" >2.7.1.34</text>
</g>
<g>
    <rect rxns="rxn02175" x="573" y="526" width="48" height="18" stroke="black" fill="white"></rect>
    <text x="576" y="539" font-size="9" stroke="grey" fill="black" >2.7.7.3</text>
</g>
<g>
    <rect rxns="rxn01789" x="317" y="260" width="48" height="18" stroke="black" fill="white"></rect>
    <text x="320" y="273" font-size="9" stroke="grey" fill="black" >1.1.1.106</text>
</g>
<g>
    <rect rxns="rxn02289" x="410" y="261" width="48" height="18" stroke="black" fill="white"></rect>
    <text x="413" y="274" font-size="9" stroke="grey" fill="black" >1.2.1.33</text>
</g>
<g>
    <rect rxns="rxn00900" x="456" y="224" width="48" height="18" stroke="black" fill="white"></rect>
    <text x="459" y="237" font-size="9" stroke="grey" fill="black" >1.1.1.84</text>
</g>
<g>
    <rect rxns="rxn00346" x="297" y="537" width="48" height="18" stroke="black" fill="white"></rect>
    <text x="300" y="550" font-size="9" stroke="grey" fill="black" >4.1.1.11</text>
</g>
<g>
    <rect rxns="R09379" x="496" y="297" width="48" height="18" stroke="black" fill="white"></rect>
    <text x="499" y="310" font-size="9" stroke="grey" fill="black" >6.3.2.36</text>
</g>
<g>
    <rect rxns="R09378" x="359" y="297" width="48" height="18" stroke="black" fill="white"></rect>
    <text x="362" y="310" font-size="9" stroke="grey" fill="black" >2.7.1.169</text>
</g>
<g>
    <rect rxns="rxn06023" x="798" y="526" width="48" height="18" stroke="black" fill="white"></rect>
    <text x="801" y="539" font-size="9" stroke="grey" fill="black" >2.7.8.-</text>
</g>
</svg>